%TF.GenerationSoftware,KiCad,Pcbnew,8.0.4*%
%TF.CreationDate,2024-10-03T12:24:39+05:30*%
%TF.ProjectId,DeskHop_Rev1,4465736b-486f-4705-9f52-6576312e6b69,rev?*%
%TF.SameCoordinates,Original*%
%TF.FileFunction,Soldermask,Top*%
%TF.FilePolarity,Negative*%
%FSLAX46Y46*%
G04 Gerber Fmt 4.6, Leading zero omitted, Abs format (unit mm)*
G04 Created by KiCad (PCBNEW 8.0.4) date 2024-10-03 12:24:39*
%MOMM*%
%LPD*%
G01*
G04 APERTURE LIST*
G04 Aperture macros list*
%AMRoundRect*
0 Rectangle with rounded corners*
0 $1 Rounding radius*
0 $2 $3 $4 $5 $6 $7 $8 $9 X,Y pos of 4 corners*
0 Add a 4 corners polygon primitive as box body*
4,1,4,$2,$3,$4,$5,$6,$7,$8,$9,$2,$3,0*
0 Add four circle primitives for the rounded corners*
1,1,$1+$1,$2,$3*
1,1,$1+$1,$4,$5*
1,1,$1+$1,$6,$7*
1,1,$1+$1,$8,$9*
0 Add four rect primitives between the rounded corners*
20,1,$1+$1,$2,$3,$4,$5,0*
20,1,$1+$1,$4,$5,$6,$7,0*
20,1,$1+$1,$6,$7,$8,$9,0*
20,1,$1+$1,$8,$9,$2,$3,0*%
G04 Aperture macros list end*
%ADD10RoundRect,0.250000X-0.625000X0.400000X-0.625000X-0.400000X0.625000X-0.400000X0.625000X0.400000X0*%
%ADD11C,3.100000*%
%ADD12C,5.400000*%
%ADD13O,1.800000X1.800000*%
%ADD14O,1.500000X1.500000*%
%ADD15O,1.700000X1.700000*%
%ADD16R,3.500000X1.700000*%
%ADD17R,1.700000X1.700000*%
%ADD18R,1.700000X3.500000*%
%ADD19R,0.558800X0.977900*%
%ADD20RoundRect,0.250000X-0.650000X0.412500X-0.650000X-0.412500X0.650000X-0.412500X0.650000X0.412500X0*%
%ADD21R,1.600000X1.500000*%
%ADD22C,1.600000*%
%ADD23C,3.000000*%
%ADD24RoundRect,0.250000X0.412500X0.650000X-0.412500X0.650000X-0.412500X-0.650000X0.412500X-0.650000X0*%
%ADD25RoundRect,0.250000X-0.412500X-0.650000X0.412500X-0.650000X0.412500X0.650000X-0.412500X0.650000X0*%
%ADD26RoundRect,0.150000X-0.825000X-0.150000X0.825000X-0.150000X0.825000X0.150000X-0.825000X0.150000X0*%
G04 APERTURE END LIST*
D10*
%TO.C,R2*%
X167904199Y-99187033D03*
X167904199Y-102287033D03*
%TD*%
D11*
%TO.C,H3*%
X177759000Y-113331033D03*
D12*
X177759000Y-113331033D03*
%TD*%
D13*
%TO.C,U6*%
X162439721Y-46556033D03*
D14*
X162739721Y-49586033D03*
X167589721Y-49586033D03*
D13*
X167889721Y-46556033D03*
D15*
X156274721Y-46426033D03*
D16*
X155374721Y-46426033D03*
D15*
X156274721Y-48966033D03*
D16*
X155374721Y-48966033D03*
D17*
X156274721Y-51506033D03*
D16*
X155374721Y-51506033D03*
D15*
X156274721Y-54046033D03*
D16*
X155374721Y-54046033D03*
D15*
X156274721Y-56586033D03*
D16*
X155374721Y-56586033D03*
D15*
X156274721Y-59126033D03*
D16*
X155374721Y-59126033D03*
D15*
X156274721Y-61666033D03*
D16*
X155374721Y-61666033D03*
D17*
X156274721Y-64206033D03*
D16*
X155374721Y-64206033D03*
D15*
X156274721Y-66746033D03*
D16*
X155374721Y-66746033D03*
D15*
X156274721Y-69286033D03*
D16*
X155374721Y-69286033D03*
D15*
X156274721Y-71826033D03*
D16*
X155374721Y-71826033D03*
D15*
X156274721Y-74366033D03*
D16*
X155374721Y-74366033D03*
D17*
X156274721Y-76906033D03*
D16*
X155374721Y-76906033D03*
D15*
X156274721Y-79446033D03*
D16*
X155374721Y-79446033D03*
D15*
X156274721Y-81986033D03*
D16*
X155374721Y-81986033D03*
D15*
X156274721Y-84526033D03*
D16*
X155374721Y-84526033D03*
D15*
X156274721Y-87066033D03*
D16*
X155374721Y-87066033D03*
D17*
X156274721Y-89606033D03*
D16*
X155374721Y-89606033D03*
D15*
X156274721Y-92146033D03*
D16*
X155374721Y-92146033D03*
D15*
X156274721Y-94686033D03*
D16*
X155374721Y-94686033D03*
D15*
X174054721Y-94686033D03*
D16*
X174954721Y-94686033D03*
D15*
X174054721Y-92146033D03*
D16*
X174954721Y-92146033D03*
D17*
X174054721Y-89606033D03*
D16*
X174954721Y-89606033D03*
D15*
X174054721Y-87066033D03*
D16*
X174954721Y-87066033D03*
D15*
X174054721Y-84526033D03*
D16*
X174954721Y-84526033D03*
D15*
X174054721Y-81986033D03*
D16*
X174954721Y-81986033D03*
D15*
X174054721Y-79446033D03*
D16*
X174954721Y-79446033D03*
D17*
X174054721Y-76906033D03*
D16*
X174954721Y-76906033D03*
D15*
X174054721Y-74366033D03*
D16*
X174954721Y-74366033D03*
D15*
X174054721Y-71826033D03*
D16*
X174954721Y-71826033D03*
D15*
X174054721Y-69286033D03*
D16*
X174954721Y-69286033D03*
D15*
X174054721Y-66746033D03*
D16*
X174954721Y-66746033D03*
D17*
X174054721Y-64206033D03*
D16*
X174954721Y-64206033D03*
D15*
X174054721Y-61666033D03*
D16*
X174954721Y-61666033D03*
D15*
X174054721Y-59126033D03*
D16*
X174954721Y-59126033D03*
D15*
X174054721Y-56586033D03*
D16*
X174954721Y-56586033D03*
D15*
X174054721Y-54046033D03*
D16*
X174954721Y-54046033D03*
D17*
X174054721Y-51506033D03*
D16*
X174954721Y-51506033D03*
D15*
X174054721Y-48966033D03*
D16*
X174954721Y-48966033D03*
D15*
X174054721Y-46426033D03*
D16*
X174954721Y-46426033D03*
D15*
X162624721Y-94456033D03*
D18*
X162624721Y-95356033D03*
D17*
X165164721Y-94456033D03*
D18*
X165164721Y-95356033D03*
D15*
X167704721Y-94456033D03*
D18*
X167704721Y-95356033D03*
%TD*%
%TO.C,U2*%
X118547747Y-95356033D03*
D15*
X118547747Y-94456033D03*
D18*
X116007747Y-95356033D03*
D17*
X116007747Y-94456033D03*
D18*
X113467747Y-95356033D03*
D15*
X113467747Y-94456033D03*
D16*
X125797747Y-46426033D03*
D15*
X124897747Y-46426033D03*
D16*
X125797747Y-48966033D03*
D15*
X124897747Y-48966033D03*
D16*
X125797747Y-51506033D03*
D17*
X124897747Y-51506033D03*
D16*
X125797747Y-54046033D03*
D15*
X124897747Y-54046033D03*
D16*
X125797747Y-56586033D03*
D15*
X124897747Y-56586033D03*
D16*
X125797747Y-59126033D03*
D15*
X124897747Y-59126033D03*
D16*
X125797747Y-61666033D03*
D15*
X124897747Y-61666033D03*
D16*
X125797747Y-64206033D03*
D17*
X124897747Y-64206033D03*
D16*
X125797747Y-66746033D03*
D15*
X124897747Y-66746033D03*
D16*
X125797747Y-69286033D03*
D15*
X124897747Y-69286033D03*
D16*
X125797747Y-71826033D03*
D15*
X124897747Y-71826033D03*
D16*
X125797747Y-74366033D03*
D15*
X124897747Y-74366033D03*
D16*
X125797747Y-76906033D03*
D17*
X124897747Y-76906033D03*
D16*
X125797747Y-79446033D03*
D15*
X124897747Y-79446033D03*
D16*
X125797747Y-81986033D03*
D15*
X124897747Y-81986033D03*
D16*
X125797747Y-84526033D03*
D15*
X124897747Y-84526033D03*
D16*
X125797747Y-87066033D03*
D15*
X124897747Y-87066033D03*
D16*
X125797747Y-89606033D03*
D17*
X124897747Y-89606033D03*
D16*
X125797747Y-92146033D03*
D15*
X124897747Y-92146033D03*
D16*
X125797747Y-94686033D03*
D15*
X124897747Y-94686033D03*
D16*
X106217747Y-94686033D03*
D15*
X107117747Y-94686033D03*
D16*
X106217747Y-92146033D03*
D15*
X107117747Y-92146033D03*
D16*
X106217747Y-89606033D03*
D17*
X107117747Y-89606033D03*
D16*
X106217747Y-87066033D03*
D15*
X107117747Y-87066033D03*
D16*
X106217747Y-84526033D03*
D15*
X107117747Y-84526033D03*
D16*
X106217747Y-81986033D03*
D15*
X107117747Y-81986033D03*
D16*
X106217747Y-79446033D03*
D15*
X107117747Y-79446033D03*
D16*
X106217747Y-76906033D03*
D17*
X107117747Y-76906033D03*
D16*
X106217747Y-74366033D03*
D15*
X107117747Y-74366033D03*
D16*
X106217747Y-71826033D03*
D15*
X107117747Y-71826033D03*
D16*
X106217747Y-69286033D03*
D15*
X107117747Y-69286033D03*
D16*
X106217747Y-66746033D03*
D15*
X107117747Y-66746033D03*
D16*
X106217747Y-64206033D03*
D17*
X107117747Y-64206033D03*
D16*
X106217747Y-61666033D03*
D15*
X107117747Y-61666033D03*
D16*
X106217747Y-59126033D03*
D15*
X107117747Y-59126033D03*
D16*
X106217747Y-56586033D03*
D15*
X107117747Y-56586033D03*
D16*
X106217747Y-54046033D03*
D15*
X107117747Y-54046033D03*
D16*
X106217747Y-51506033D03*
D17*
X107117747Y-51506033D03*
D16*
X106217747Y-48966033D03*
D15*
X107117747Y-48966033D03*
D16*
X106217747Y-46426033D03*
D15*
X107117747Y-46426033D03*
D13*
X118732747Y-46556033D03*
D14*
X118432747Y-49586033D03*
X113582747Y-49586033D03*
D13*
X113282747Y-46556033D03*
%TD*%
D10*
%TO.C,R3*%
X113935625Y-102287033D03*
X113935625Y-99187033D03*
%TD*%
D19*
%TO.C,U1*%
X172474999Y-102102283D03*
X173425000Y-102102283D03*
X174375001Y-102102283D03*
X174375001Y-99371783D03*
X173425000Y-99371783D03*
X172474999Y-99371783D03*
%TD*%
D20*
%TO.C,C4*%
X158250999Y-99174533D03*
X158250999Y-102299533D03*
%TD*%
D19*
%TO.C,U5*%
X123318025Y-99371783D03*
X124268026Y-99371783D03*
X125218027Y-99371783D03*
X125218027Y-102102283D03*
X124268026Y-102102283D03*
X123318025Y-102102283D03*
%TD*%
D21*
%TO.C,J1*%
X161915974Y-108494033D03*
D22*
X164415974Y-108494033D03*
X166415974Y-108494033D03*
X168915974Y-108494033D03*
D23*
X158845974Y-111204033D03*
X171985974Y-111204033D03*
%TD*%
D20*
%TO.C,C3*%
X109094025Y-102299533D03*
X109094025Y-99174533D03*
%TD*%
D11*
%TO.C,H1*%
X140909000Y-46981033D03*
D12*
X140909000Y-46981033D03*
%TD*%
D10*
%TO.C,R4*%
X118747225Y-102287033D03*
X118747225Y-99187033D03*
%TD*%
D24*
%TO.C,C1*%
X139224987Y-73305033D03*
X136099987Y-73305033D03*
%TD*%
D25*
%TO.C,C2*%
X142449987Y-73305033D03*
X145574987Y-73305033D03*
%TD*%
D23*
%TO.C,J4*%
X122829000Y-111204033D03*
X109689000Y-111204033D03*
D22*
X119759000Y-108494033D03*
X117259000Y-108494033D03*
X115259000Y-108494033D03*
D21*
X112759000Y-108494033D03*
%TD*%
D10*
%TO.C,R1*%
X163092599Y-99187033D03*
X163092599Y-102287033D03*
%TD*%
D26*
%TO.C,U4*%
X138362487Y-77669500D03*
X138362487Y-78939500D03*
X138362487Y-80209500D03*
X138362487Y-81479500D03*
X143312487Y-81479500D03*
X143312487Y-80209500D03*
X143312487Y-78939500D03*
X143312487Y-77669500D03*
%TD*%
D11*
%TO.C,H2*%
X103619000Y-112851033D03*
D12*
X103619000Y-112851033D03*
%TD*%
M02*
