M48
; DRILL file {KiCad 8.0.4} date 2024-10-03T12:24:39+0530
; FORMAT={-:-/ absolute / metric / decimal}
; #@! TF.CreationDate,2024-10-03T12:24:39+05:30
; #@! TF.GenerationSoftware,Kicad,Pcbnew,8.0.4
; #@! TF.FileFunction,MixedPlating,1,2
FMAT,2
METRIC
; #@! TA.AperFunction,Plated,PTH,ViaDrill
T1C0.400
; #@! TA.AperFunction,Plated,PTH,ComponentDrill
T2C0.950
; #@! TA.AperFunction,Plated,PTH,ComponentDrill
T3C1.020
; #@! TA.AperFunction,Plated,PTH,ComponentDrill
T4C2.300
; #@! TA.AperFunction,Plated,PTH,ComponentDrill
T5C2.700
; #@! TA.AperFunction,NonPlated,NPTH,ComponentDrill
T6C1.500
; #@! TA.AperFunction,NonPlated,NPTH,ComponentDrill
T7C1.800
%
G90
G05
T1
X111.449Y-99.213
X142.691Y-70.511
X160.249Y-98.788
X169.361Y-57.303
T2
X112.759Y-108.494
X115.259Y-108.494
X117.259Y-108.494
X119.759Y-108.494
X161.916Y-108.494
X164.416Y-108.494
X166.416Y-108.494
X168.916Y-108.494
T3
X107.118Y-46.426
X107.118Y-48.966
X107.118Y-51.506
X107.118Y-54.046
X107.118Y-56.586
X107.118Y-59.126
X107.118Y-61.666
X107.118Y-64.206
X107.118Y-66.746
X107.118Y-69.286
X107.118Y-71.826
X107.118Y-74.366
X107.118Y-76.906
X107.118Y-79.446
X107.118Y-81.986
X107.118Y-84.526
X107.118Y-87.066
X107.118Y-89.606
X107.118Y-92.146
X107.118Y-94.686
X113.468Y-94.456
X116.008Y-94.456
X118.548Y-94.456
X124.898Y-46.426
X124.898Y-48.966
X124.898Y-51.506
X124.898Y-54.046
X124.898Y-56.586
X124.898Y-59.126
X124.898Y-61.666
X124.898Y-64.206
X124.898Y-66.746
X124.898Y-69.286
X124.898Y-71.826
X124.898Y-74.366
X124.898Y-76.906
X124.898Y-79.446
X124.898Y-81.986
X124.898Y-84.526
X124.898Y-87.066
X124.898Y-89.606
X124.898Y-92.146
X124.898Y-94.686
X156.275Y-46.426
X156.275Y-48.966
X156.275Y-51.506
X156.275Y-54.046
X156.275Y-56.586
X156.275Y-59.126
X156.275Y-61.666
X156.275Y-64.206
X156.275Y-66.746
X156.275Y-69.286
X156.275Y-71.826
X156.275Y-74.366
X156.275Y-76.906
X156.275Y-79.446
X156.275Y-81.986
X156.275Y-84.526
X156.275Y-87.066
X156.275Y-89.606
X156.275Y-92.146
X156.275Y-94.686
X162.625Y-94.456
X165.165Y-94.456
X167.705Y-94.456
X174.055Y-46.426
X174.055Y-48.966
X174.055Y-51.506
X174.055Y-54.046
X174.055Y-56.586
X174.055Y-59.126
X174.055Y-61.666
X174.055Y-64.206
X174.055Y-66.746
X174.055Y-69.286
X174.055Y-71.826
X174.055Y-74.366
X174.055Y-76.906
X174.055Y-79.446
X174.055Y-81.986
X174.055Y-84.526
X174.055Y-87.066
X174.055Y-89.606
X174.055Y-92.146
X174.055Y-94.686
T4
X109.689Y-111.204
X122.829Y-111.204
X158.846Y-111.204
X171.986Y-111.204
T5
X103.619Y-112.851
X140.909Y-46.981
X177.759Y-113.331
T6
X113.583Y-49.586
X118.433Y-49.586
X162.74Y-49.586
X167.59Y-49.586
T7
X113.283Y-46.556
X118.733Y-46.556
X162.44Y-46.556
X167.89Y-46.556
M30
