%TF.GenerationSoftware,KiCad,Pcbnew,8.0.4*%
%TF.CreationDate,2024-10-03T12:24:39+05:30*%
%TF.ProjectId,DeskHop_Rev1,4465736b-486f-4705-9f52-6576312e6b69,rev?*%
%TF.SameCoordinates,Original*%
%TF.FileFunction,Legend,Top*%
%TF.FilePolarity,Positive*%
%FSLAX46Y46*%
G04 Gerber Fmt 4.6, Leading zero omitted, Abs format (unit mm)*
G04 Created by KiCad (PCBNEW 8.0.4) date 2024-10-03 12:24:39*
%MOMM*%
%LPD*%
G01*
G04 APERTURE LIST*
%ADD10C,0.150000*%
%ADD11C,0.120000*%
%ADD12C,0.152400*%
%ADD13C,0.350000*%
G04 APERTURE END LIST*
D10*
X170137018Y-100903699D02*
X169660827Y-101237032D01*
X170137018Y-101475127D02*
X169137018Y-101475127D01*
X169137018Y-101475127D02*
X169137018Y-101094175D01*
X169137018Y-101094175D02*
X169184637Y-100998937D01*
X169184637Y-100998937D02*
X169232256Y-100951318D01*
X169232256Y-100951318D02*
X169327494Y-100903699D01*
X169327494Y-100903699D02*
X169470351Y-100903699D01*
X169470351Y-100903699D02*
X169565589Y-100951318D01*
X169565589Y-100951318D02*
X169613208Y-100998937D01*
X169613208Y-100998937D02*
X169660827Y-101094175D01*
X169660827Y-101094175D02*
X169660827Y-101475127D01*
X169232256Y-100522746D02*
X169184637Y-100475127D01*
X169184637Y-100475127D02*
X169137018Y-100379889D01*
X169137018Y-100379889D02*
X169137018Y-100141794D01*
X169137018Y-100141794D02*
X169184637Y-100046556D01*
X169184637Y-100046556D02*
X169232256Y-99998937D01*
X169232256Y-99998937D02*
X169327494Y-99951318D01*
X169327494Y-99951318D02*
X169422732Y-99951318D01*
X169422732Y-99951318D02*
X169565589Y-99998937D01*
X169565589Y-99998937D02*
X170137018Y-100570365D01*
X170137018Y-100570365D02*
X170137018Y-99951318D01*
X176997095Y-110085852D02*
X176997095Y-109085852D01*
X176997095Y-109562042D02*
X177568523Y-109562042D01*
X177568523Y-110085852D02*
X177568523Y-109085852D01*
X177949476Y-109085852D02*
X178568523Y-109085852D01*
X178568523Y-109085852D02*
X178235190Y-109466804D01*
X178235190Y-109466804D02*
X178378047Y-109466804D01*
X178378047Y-109466804D02*
X178473285Y-109514423D01*
X178473285Y-109514423D02*
X178520904Y-109562042D01*
X178520904Y-109562042D02*
X178568523Y-109657280D01*
X178568523Y-109657280D02*
X178568523Y-109895375D01*
X178568523Y-109895375D02*
X178520904Y-109990613D01*
X178520904Y-109990613D02*
X178473285Y-110038233D01*
X178473285Y-110038233D02*
X178378047Y-110085852D01*
X178378047Y-110085852D02*
X178092333Y-110085852D01*
X178092333Y-110085852D02*
X177997095Y-110038233D01*
X177997095Y-110038233D02*
X177949476Y-109990613D01*
X170347293Y-96542603D02*
X170347293Y-97352126D01*
X170347293Y-97352126D02*
X170394912Y-97447364D01*
X170394912Y-97447364D02*
X170442531Y-97494984D01*
X170442531Y-97494984D02*
X170537769Y-97542603D01*
X170537769Y-97542603D02*
X170728245Y-97542603D01*
X170728245Y-97542603D02*
X170823483Y-97494984D01*
X170823483Y-97494984D02*
X170871102Y-97447364D01*
X170871102Y-97447364D02*
X170918721Y-97352126D01*
X170918721Y-97352126D02*
X170918721Y-96542603D01*
X171823483Y-96542603D02*
X171633007Y-96542603D01*
X171633007Y-96542603D02*
X171537769Y-96590222D01*
X171537769Y-96590222D02*
X171490150Y-96637841D01*
X171490150Y-96637841D02*
X171394912Y-96780698D01*
X171394912Y-96780698D02*
X171347293Y-96971174D01*
X171347293Y-96971174D02*
X171347293Y-97352126D01*
X171347293Y-97352126D02*
X171394912Y-97447364D01*
X171394912Y-97447364D02*
X171442531Y-97494984D01*
X171442531Y-97494984D02*
X171537769Y-97542603D01*
X171537769Y-97542603D02*
X171728245Y-97542603D01*
X171728245Y-97542603D02*
X171823483Y-97494984D01*
X171823483Y-97494984D02*
X171871102Y-97447364D01*
X171871102Y-97447364D02*
X171918721Y-97352126D01*
X171918721Y-97352126D02*
X171918721Y-97114031D01*
X171918721Y-97114031D02*
X171871102Y-97018793D01*
X171871102Y-97018793D02*
X171823483Y-96971174D01*
X171823483Y-96971174D02*
X171728245Y-96923555D01*
X171728245Y-96923555D02*
X171537769Y-96923555D01*
X171537769Y-96923555D02*
X171442531Y-96971174D01*
X171442531Y-96971174D02*
X171394912Y-97018793D01*
X171394912Y-97018793D02*
X171347293Y-97114031D01*
X151342570Y-64579278D02*
X151261758Y-64606215D01*
X151261758Y-64606215D02*
X151180946Y-64687027D01*
X151180946Y-64687027D02*
X151127071Y-64794777D01*
X151127071Y-64794777D02*
X151127071Y-64902526D01*
X151127071Y-64902526D02*
X151154008Y-64983339D01*
X151154008Y-64983339D02*
X151234821Y-65118026D01*
X151234821Y-65118026D02*
X151315633Y-65198838D01*
X151315633Y-65198838D02*
X151450320Y-65279650D01*
X151450320Y-65279650D02*
X151531132Y-65306587D01*
X151531132Y-65306587D02*
X151638882Y-65306587D01*
X151638882Y-65306587D02*
X151746631Y-65252713D01*
X151746631Y-65252713D02*
X151800506Y-65198838D01*
X151800506Y-65198838D02*
X151854381Y-65091088D01*
X151854381Y-65091088D02*
X151854381Y-65037213D01*
X151854381Y-65037213D02*
X151665819Y-64848652D01*
X151665819Y-64848652D02*
X151558069Y-64956401D01*
X152150692Y-64848652D02*
X151585007Y-64282966D01*
X151585007Y-64282966D02*
X151800506Y-64067467D01*
X151800506Y-64067467D02*
X151881318Y-64040530D01*
X151881318Y-64040530D02*
X151935193Y-64040530D01*
X151935193Y-64040530D02*
X152016005Y-64067467D01*
X152016005Y-64067467D02*
X152096817Y-64148279D01*
X152096817Y-64148279D02*
X152123755Y-64229091D01*
X152123755Y-64229091D02*
X152123755Y-64282966D01*
X152123755Y-64282966D02*
X152096817Y-64363778D01*
X152096817Y-64363778D02*
X151881318Y-64579278D01*
X152393129Y-63474844D02*
X152285379Y-63582594D01*
X152285379Y-63582594D02*
X152258442Y-63663406D01*
X152258442Y-63663406D02*
X152258442Y-63717281D01*
X152258442Y-63717281D02*
X152285379Y-63851968D01*
X152285379Y-63851968D02*
X152366191Y-63986655D01*
X152366191Y-63986655D02*
X152581691Y-64202154D01*
X152581691Y-64202154D02*
X152662503Y-64229091D01*
X152662503Y-64229091D02*
X152716378Y-64229091D01*
X152716378Y-64229091D02*
X152797190Y-64202154D01*
X152797190Y-64202154D02*
X152904939Y-64094404D01*
X152904939Y-64094404D02*
X152931877Y-64013592D01*
X152931877Y-64013592D02*
X152931877Y-63959717D01*
X152931877Y-63959717D02*
X152904939Y-63878905D01*
X152904939Y-63878905D02*
X152770252Y-63744218D01*
X152770252Y-63744218D02*
X152689440Y-63717281D01*
X152689440Y-63717281D02*
X152635565Y-63717281D01*
X152635565Y-63717281D02*
X152554753Y-63744218D01*
X152554753Y-63744218D02*
X152447004Y-63851968D01*
X152447004Y-63851968D02*
X152420066Y-63932780D01*
X152420066Y-63932780D02*
X152420066Y-63986655D01*
X152420066Y-63986655D02*
X152447004Y-64067467D01*
X151342570Y-51889278D02*
X151261758Y-51916215D01*
X151261758Y-51916215D02*
X151180946Y-51997027D01*
X151180946Y-51997027D02*
X151127071Y-52104777D01*
X151127071Y-52104777D02*
X151127071Y-52212526D01*
X151127071Y-52212526D02*
X151154008Y-52293339D01*
X151154008Y-52293339D02*
X151234821Y-52428026D01*
X151234821Y-52428026D02*
X151315633Y-52508838D01*
X151315633Y-52508838D02*
X151450320Y-52589650D01*
X151450320Y-52589650D02*
X151531132Y-52616587D01*
X151531132Y-52616587D02*
X151638882Y-52616587D01*
X151638882Y-52616587D02*
X151746631Y-52562713D01*
X151746631Y-52562713D02*
X151800506Y-52508838D01*
X151800506Y-52508838D02*
X151854381Y-52401088D01*
X151854381Y-52401088D02*
X151854381Y-52347213D01*
X151854381Y-52347213D02*
X151665819Y-52158652D01*
X151665819Y-52158652D02*
X151558069Y-52266401D01*
X152150692Y-52158652D02*
X151585007Y-51592966D01*
X151585007Y-51592966D02*
X151800506Y-51377467D01*
X151800506Y-51377467D02*
X151881318Y-51350530D01*
X151881318Y-51350530D02*
X151935193Y-51350530D01*
X151935193Y-51350530D02*
X152016005Y-51377467D01*
X152016005Y-51377467D02*
X152096817Y-51458279D01*
X152096817Y-51458279D02*
X152123755Y-51539091D01*
X152123755Y-51539091D02*
X152123755Y-51592966D01*
X152123755Y-51592966D02*
X152096817Y-51673778D01*
X152096817Y-51673778D02*
X151881318Y-51889278D01*
X152177630Y-51108093D02*
X152177630Y-51054218D01*
X152177630Y-51054218D02*
X152204567Y-50973406D01*
X152204567Y-50973406D02*
X152339254Y-50838719D01*
X152339254Y-50838719D02*
X152420066Y-50811782D01*
X152420066Y-50811782D02*
X152473941Y-50811782D01*
X152473941Y-50811782D02*
X152554753Y-50838719D01*
X152554753Y-50838719D02*
X152608628Y-50892594D01*
X152608628Y-50892594D02*
X152662503Y-51000343D01*
X152662503Y-51000343D02*
X152662503Y-51646841D01*
X152662503Y-51646841D02*
X153012689Y-51296655D01*
X177383470Y-49178275D02*
X178137717Y-49555399D01*
X178137717Y-49555399D02*
X177760594Y-48801151D01*
X178460966Y-49178275D02*
X178568716Y-49124400D01*
X178568716Y-49124400D02*
X178703403Y-48989713D01*
X178703403Y-48989713D02*
X178730340Y-48908901D01*
X178730340Y-48908901D02*
X178730340Y-48855026D01*
X178730340Y-48855026D02*
X178703403Y-48774214D01*
X178703403Y-48774214D02*
X178649528Y-48720339D01*
X178649528Y-48720339D02*
X178568716Y-48693402D01*
X178568716Y-48693402D02*
X178514841Y-48693402D01*
X178514841Y-48693402D02*
X178434029Y-48720339D01*
X178434029Y-48720339D02*
X178299342Y-48801151D01*
X178299342Y-48801151D02*
X178218529Y-48828089D01*
X178218529Y-48828089D02*
X178164655Y-48828089D01*
X178164655Y-48828089D02*
X178083842Y-48801151D01*
X178083842Y-48801151D02*
X178029968Y-48747277D01*
X178029968Y-48747277D02*
X178003030Y-48666464D01*
X178003030Y-48666464D02*
X178003030Y-48612590D01*
X178003030Y-48612590D02*
X178029968Y-48531777D01*
X178029968Y-48531777D02*
X178164655Y-48397090D01*
X178164655Y-48397090D02*
X178272404Y-48343216D01*
X178891965Y-48262403D02*
X179161339Y-48531777D01*
X178407091Y-48154654D02*
X178891965Y-48262403D01*
X178891965Y-48262403D02*
X178784215Y-47777530D01*
X179484587Y-48154654D02*
X179592337Y-48100779D01*
X179592337Y-48100779D02*
X179727024Y-47966092D01*
X179727024Y-47966092D02*
X179753961Y-47885280D01*
X179753961Y-47885280D02*
X179753961Y-47831405D01*
X179753961Y-47831405D02*
X179727024Y-47750593D01*
X179727024Y-47750593D02*
X179673149Y-47696718D01*
X179673149Y-47696718D02*
X179592337Y-47669781D01*
X179592337Y-47669781D02*
X179538462Y-47669781D01*
X179538462Y-47669781D02*
X179457650Y-47696718D01*
X179457650Y-47696718D02*
X179322963Y-47777530D01*
X179322963Y-47777530D02*
X179242151Y-47804468D01*
X179242151Y-47804468D02*
X179188276Y-47804468D01*
X179188276Y-47804468D02*
X179107464Y-47777530D01*
X179107464Y-47777530D02*
X179053589Y-47723655D01*
X179053589Y-47723655D02*
X179026651Y-47642843D01*
X179026651Y-47642843D02*
X179026651Y-47588968D01*
X179026651Y-47588968D02*
X179053589Y-47508156D01*
X179053589Y-47508156D02*
X179188276Y-47373469D01*
X179188276Y-47373469D02*
X179296025Y-47319594D01*
X151678093Y-61787527D02*
X151597281Y-61814464D01*
X151597281Y-61814464D02*
X151516469Y-61895276D01*
X151516469Y-61895276D02*
X151462594Y-62003026D01*
X151462594Y-62003026D02*
X151462594Y-62110775D01*
X151462594Y-62110775D02*
X151489531Y-62191588D01*
X151489531Y-62191588D02*
X151570344Y-62326275D01*
X151570344Y-62326275D02*
X151651156Y-62407087D01*
X151651156Y-62407087D02*
X151785843Y-62487899D01*
X151785843Y-62487899D02*
X151866655Y-62514836D01*
X151866655Y-62514836D02*
X151974405Y-62514836D01*
X151974405Y-62514836D02*
X152082154Y-62460962D01*
X152082154Y-62460962D02*
X152136029Y-62407087D01*
X152136029Y-62407087D02*
X152189904Y-62299337D01*
X152189904Y-62299337D02*
X152189904Y-62245462D01*
X152189904Y-62245462D02*
X152001342Y-62056901D01*
X152001342Y-62056901D02*
X151893592Y-62164650D01*
X152486215Y-62056901D02*
X151920530Y-61491215D01*
X151920530Y-61491215D02*
X152136029Y-61275716D01*
X152136029Y-61275716D02*
X152216841Y-61248779D01*
X152216841Y-61248779D02*
X152270716Y-61248779D01*
X152270716Y-61248779D02*
X152351528Y-61275716D01*
X152351528Y-61275716D02*
X152432340Y-61356528D01*
X152432340Y-61356528D02*
X152459278Y-61437340D01*
X152459278Y-61437340D02*
X152459278Y-61491215D01*
X152459278Y-61491215D02*
X152432340Y-61572027D01*
X152432340Y-61572027D02*
X152216841Y-61787527D01*
X152755589Y-60656156D02*
X152486215Y-60925530D01*
X152486215Y-60925530D02*
X152728652Y-61221841D01*
X152728652Y-61221841D02*
X152728652Y-61167966D01*
X152728652Y-61167966D02*
X152755589Y-61087154D01*
X152755589Y-61087154D02*
X152890276Y-60952467D01*
X152890276Y-60952467D02*
X152971088Y-60925530D01*
X152971088Y-60925530D02*
X153024963Y-60925530D01*
X153024963Y-60925530D02*
X153105775Y-60952467D01*
X153105775Y-60952467D02*
X153240462Y-61087154D01*
X153240462Y-61087154D02*
X153267400Y-61167966D01*
X153267400Y-61167966D02*
X153267400Y-61221841D01*
X153267400Y-61221841D02*
X153240462Y-61302653D01*
X153240462Y-61302653D02*
X153105775Y-61437340D01*
X153105775Y-61437340D02*
X153024963Y-61464278D01*
X153024963Y-61464278D02*
X152971088Y-61464278D01*
X151678093Y-66867527D02*
X151597281Y-66894464D01*
X151597281Y-66894464D02*
X151516469Y-66975276D01*
X151516469Y-66975276D02*
X151462594Y-67083026D01*
X151462594Y-67083026D02*
X151462594Y-67190775D01*
X151462594Y-67190775D02*
X151489531Y-67271588D01*
X151489531Y-67271588D02*
X151570344Y-67406275D01*
X151570344Y-67406275D02*
X151651156Y-67487087D01*
X151651156Y-67487087D02*
X151785843Y-67567899D01*
X151785843Y-67567899D02*
X151866655Y-67594836D01*
X151866655Y-67594836D02*
X151974405Y-67594836D01*
X151974405Y-67594836D02*
X152082154Y-67540962D01*
X152082154Y-67540962D02*
X152136029Y-67487087D01*
X152136029Y-67487087D02*
X152189904Y-67379337D01*
X152189904Y-67379337D02*
X152189904Y-67325462D01*
X152189904Y-67325462D02*
X152001342Y-67136901D01*
X152001342Y-67136901D02*
X151893592Y-67244650D01*
X152486215Y-67136901D02*
X151920530Y-66571215D01*
X151920530Y-66571215D02*
X152136029Y-66355716D01*
X152136029Y-66355716D02*
X152216841Y-66328779D01*
X152216841Y-66328779D02*
X152270716Y-66328779D01*
X152270716Y-66328779D02*
X152351528Y-66355716D01*
X152351528Y-66355716D02*
X152432340Y-66436528D01*
X152432340Y-66436528D02*
X152459278Y-66517340D01*
X152459278Y-66517340D02*
X152459278Y-66571215D01*
X152459278Y-66571215D02*
X152432340Y-66652027D01*
X152432340Y-66652027D02*
X152216841Y-66867527D01*
X152432340Y-66059405D02*
X152809464Y-65682281D01*
X152809464Y-65682281D02*
X153132713Y-66490403D01*
X151035657Y-82349963D02*
X150954844Y-82376901D01*
X150954844Y-82376901D02*
X150874032Y-82457713D01*
X150874032Y-82457713D02*
X150820157Y-82565462D01*
X150820157Y-82565462D02*
X150820157Y-82673212D01*
X150820157Y-82673212D02*
X150847095Y-82754024D01*
X150847095Y-82754024D02*
X150927907Y-82888711D01*
X150927907Y-82888711D02*
X151008719Y-82969523D01*
X151008719Y-82969523D02*
X151143406Y-83050336D01*
X151143406Y-83050336D02*
X151224218Y-83077273D01*
X151224218Y-83077273D02*
X151331968Y-83077273D01*
X151331968Y-83077273D02*
X151439718Y-83023398D01*
X151439718Y-83023398D02*
X151493592Y-82969523D01*
X151493592Y-82969523D02*
X151547467Y-82861774D01*
X151547467Y-82861774D02*
X151547467Y-82807899D01*
X151547467Y-82807899D02*
X151358905Y-82619337D01*
X151358905Y-82619337D02*
X151251156Y-82727087D01*
X151843779Y-82619337D02*
X151278093Y-82053652D01*
X151278093Y-82053652D02*
X152167027Y-82296088D01*
X152167027Y-82296088D02*
X151601342Y-81730403D01*
X152436401Y-82026715D02*
X151870716Y-81461029D01*
X151870716Y-81461029D02*
X152005403Y-81326342D01*
X152005403Y-81326342D02*
X152113153Y-81272467D01*
X152113153Y-81272467D02*
X152220902Y-81272467D01*
X152220902Y-81272467D02*
X152301714Y-81299405D01*
X152301714Y-81299405D02*
X152436401Y-81380217D01*
X152436401Y-81380217D02*
X152517214Y-81461029D01*
X152517214Y-81461029D02*
X152598026Y-81595716D01*
X152598026Y-81595716D02*
X152624963Y-81676528D01*
X152624963Y-81676528D02*
X152624963Y-81784278D01*
X152624963Y-81784278D02*
X152571088Y-81892028D01*
X152571088Y-81892028D02*
X152436401Y-82026715D01*
X152517214Y-80814531D02*
X152651901Y-80949218D01*
X152463339Y-81030031D02*
X152651901Y-80949218D01*
X152651901Y-80949218D02*
X152732713Y-80760657D01*
X152678838Y-81137780D02*
X152651901Y-80949218D01*
X152651901Y-80949218D02*
X152840462Y-80976156D01*
X177560719Y-94628901D02*
X177479906Y-94655838D01*
X177479906Y-94655838D02*
X177399094Y-94736651D01*
X177399094Y-94736651D02*
X177345219Y-94844400D01*
X177345219Y-94844400D02*
X177345219Y-94952150D01*
X177345219Y-94952150D02*
X177372157Y-95032962D01*
X177372157Y-95032962D02*
X177452969Y-95167649D01*
X177452969Y-95167649D02*
X177533781Y-95248461D01*
X177533781Y-95248461D02*
X177668468Y-95329274D01*
X177668468Y-95329274D02*
X177749281Y-95356211D01*
X177749281Y-95356211D02*
X177857030Y-95356211D01*
X177857030Y-95356211D02*
X177964780Y-95302336D01*
X177964780Y-95302336D02*
X178018655Y-95248461D01*
X178018655Y-95248461D02*
X178072529Y-95140712D01*
X178072529Y-95140712D02*
X178072529Y-95086837D01*
X178072529Y-95086837D02*
X177883968Y-94898275D01*
X177883968Y-94898275D02*
X177776218Y-95006025D01*
X178368841Y-94898275D02*
X177803155Y-94332590D01*
X177803155Y-94332590D02*
X178018655Y-94117090D01*
X178018655Y-94117090D02*
X178099467Y-94090153D01*
X178099467Y-94090153D02*
X178153342Y-94090153D01*
X178153342Y-94090153D02*
X178234154Y-94117090D01*
X178234154Y-94117090D02*
X178314966Y-94197903D01*
X178314966Y-94197903D02*
X178341903Y-94278715D01*
X178341903Y-94278715D02*
X178341903Y-94332590D01*
X178341903Y-94332590D02*
X178314966Y-94413402D01*
X178314966Y-94413402D02*
X178099467Y-94628901D01*
X179230838Y-94036278D02*
X178907589Y-94359527D01*
X179069213Y-94197903D02*
X178503528Y-93632217D01*
X178503528Y-93632217D02*
X178530465Y-93766904D01*
X178530465Y-93766904D02*
X178530465Y-93874654D01*
X178530465Y-93874654D02*
X178503528Y-93955466D01*
X179230838Y-93389780D02*
X179150026Y-93416718D01*
X179150026Y-93416718D02*
X179096151Y-93416718D01*
X179096151Y-93416718D02*
X179015339Y-93389780D01*
X179015339Y-93389780D02*
X178988401Y-93362843D01*
X178988401Y-93362843D02*
X178961464Y-93282031D01*
X178961464Y-93282031D02*
X178961464Y-93228156D01*
X178961464Y-93228156D02*
X178988401Y-93147344D01*
X178988401Y-93147344D02*
X179096151Y-93039594D01*
X179096151Y-93039594D02*
X179176963Y-93012657D01*
X179176963Y-93012657D02*
X179230838Y-93012657D01*
X179230838Y-93012657D02*
X179311650Y-93039594D01*
X179311650Y-93039594D02*
X179338587Y-93066532D01*
X179338587Y-93066532D02*
X179365525Y-93147344D01*
X179365525Y-93147344D02*
X179365525Y-93201219D01*
X179365525Y-93201219D02*
X179338587Y-93282031D01*
X179338587Y-93282031D02*
X179230838Y-93389780D01*
X179230838Y-93389780D02*
X179203900Y-93470593D01*
X179203900Y-93470593D02*
X179203900Y-93524467D01*
X179203900Y-93524467D02*
X179230838Y-93605280D01*
X179230838Y-93605280D02*
X179338587Y-93713029D01*
X179338587Y-93713029D02*
X179419400Y-93739967D01*
X179419400Y-93739967D02*
X179473274Y-93739967D01*
X179473274Y-93739967D02*
X179554087Y-93713029D01*
X179554087Y-93713029D02*
X179661836Y-93605280D01*
X179661836Y-93605280D02*
X179688774Y-93524467D01*
X179688774Y-93524467D02*
X179688774Y-93470593D01*
X179688774Y-93470593D02*
X179661836Y-93389780D01*
X179661836Y-93389780D02*
X179554087Y-93282031D01*
X179554087Y-93282031D02*
X179473274Y-93255093D01*
X179473274Y-93255093D02*
X179419400Y-93255093D01*
X179419400Y-93255093D02*
X179338587Y-93282031D01*
X177614594Y-75009273D02*
X177883968Y-74739899D01*
X177722344Y-75224772D02*
X177345220Y-74470525D01*
X177345220Y-74470525D02*
X178099467Y-74847648D01*
X178045592Y-73824027D02*
X177964780Y-73850965D01*
X177964780Y-73850965D02*
X177883968Y-73931777D01*
X177883968Y-73931777D02*
X177830093Y-74039527D01*
X177830093Y-74039527D02*
X177830093Y-74147276D01*
X177830093Y-74147276D02*
X177857031Y-74228088D01*
X177857031Y-74228088D02*
X177937843Y-74362775D01*
X177937843Y-74362775D02*
X178018655Y-74443588D01*
X178018655Y-74443588D02*
X178153342Y-74524400D01*
X178153342Y-74524400D02*
X178234154Y-74551337D01*
X178234154Y-74551337D02*
X178341904Y-74551337D01*
X178341904Y-74551337D02*
X178449653Y-74497462D01*
X178449653Y-74497462D02*
X178503528Y-74443588D01*
X178503528Y-74443588D02*
X178557403Y-74335838D01*
X178557403Y-74335838D02*
X178557403Y-74281963D01*
X178557403Y-74281963D02*
X178368841Y-74093401D01*
X178368841Y-74093401D02*
X178261092Y-74201151D01*
X178853714Y-74093401D02*
X178288029Y-73527716D01*
X178288029Y-73527716D02*
X179176963Y-73770153D01*
X179176963Y-73770153D02*
X178611278Y-73204467D01*
X179446337Y-73500779D02*
X178880652Y-72935093D01*
X178880652Y-72935093D02*
X179015339Y-72800406D01*
X179015339Y-72800406D02*
X179123088Y-72746531D01*
X179123088Y-72746531D02*
X179230838Y-72746531D01*
X179230838Y-72746531D02*
X179311650Y-72773469D01*
X179311650Y-72773469D02*
X179446337Y-72854281D01*
X179446337Y-72854281D02*
X179527149Y-72935093D01*
X179527149Y-72935093D02*
X179607962Y-73069780D01*
X179607962Y-73069780D02*
X179634899Y-73150593D01*
X179634899Y-73150593D02*
X179634899Y-73258342D01*
X179634899Y-73258342D02*
X179581024Y-73366092D01*
X179581024Y-73366092D02*
X179446337Y-73500779D01*
X177628134Y-51313714D02*
X177547321Y-51340652D01*
X177547321Y-51340652D02*
X177466509Y-51421464D01*
X177466509Y-51421464D02*
X177412634Y-51529213D01*
X177412634Y-51529213D02*
X177412634Y-51636963D01*
X177412634Y-51636963D02*
X177439572Y-51717775D01*
X177439572Y-51717775D02*
X177520384Y-51852462D01*
X177520384Y-51852462D02*
X177601196Y-51933274D01*
X177601196Y-51933274D02*
X177735883Y-52014087D01*
X177735883Y-52014087D02*
X177816695Y-52041024D01*
X177816695Y-52041024D02*
X177924445Y-52041024D01*
X177924445Y-52041024D02*
X178032195Y-51987149D01*
X178032195Y-51987149D02*
X178086069Y-51933274D01*
X178086069Y-51933274D02*
X178139944Y-51825525D01*
X178139944Y-51825525D02*
X178139944Y-51771650D01*
X178139944Y-51771650D02*
X177951382Y-51583088D01*
X177951382Y-51583088D02*
X177843633Y-51690838D01*
X178436256Y-51583088D02*
X177870570Y-51017403D01*
X177870570Y-51017403D02*
X178759504Y-51259839D01*
X178759504Y-51259839D02*
X178193819Y-50694154D01*
X179028878Y-50990466D02*
X178463193Y-50424780D01*
X178463193Y-50424780D02*
X178597880Y-50290093D01*
X178597880Y-50290093D02*
X178705630Y-50236218D01*
X178705630Y-50236218D02*
X178813379Y-50236218D01*
X178813379Y-50236218D02*
X178894191Y-50263156D01*
X178894191Y-50263156D02*
X179028878Y-50343968D01*
X179028878Y-50343968D02*
X179109691Y-50424780D01*
X179109691Y-50424780D02*
X179190503Y-50559467D01*
X179190503Y-50559467D02*
X179217440Y-50640279D01*
X179217440Y-50640279D02*
X179217440Y-50748029D01*
X179217440Y-50748029D02*
X179163565Y-50855779D01*
X179163565Y-50855779D02*
X179028878Y-50990466D01*
X179109691Y-49778282D02*
X179244378Y-49912969D01*
X179055816Y-49993782D02*
X179244378Y-49912969D01*
X179244378Y-49912969D02*
X179325190Y-49724408D01*
X179271315Y-50101531D02*
X179244378Y-49912969D01*
X179244378Y-49912969D02*
X179432939Y-49939907D01*
X177560719Y-87008901D02*
X177479906Y-87035838D01*
X177479906Y-87035838D02*
X177399094Y-87116651D01*
X177399094Y-87116651D02*
X177345219Y-87224400D01*
X177345219Y-87224400D02*
X177345219Y-87332150D01*
X177345219Y-87332150D02*
X177372157Y-87412962D01*
X177372157Y-87412962D02*
X177452969Y-87547649D01*
X177452969Y-87547649D02*
X177533781Y-87628461D01*
X177533781Y-87628461D02*
X177668468Y-87709274D01*
X177668468Y-87709274D02*
X177749281Y-87736211D01*
X177749281Y-87736211D02*
X177857030Y-87736211D01*
X177857030Y-87736211D02*
X177964780Y-87682336D01*
X177964780Y-87682336D02*
X178018655Y-87628461D01*
X178018655Y-87628461D02*
X178072529Y-87520712D01*
X178072529Y-87520712D02*
X178072529Y-87466837D01*
X178072529Y-87466837D02*
X177883968Y-87278275D01*
X177883968Y-87278275D02*
X177776218Y-87386025D01*
X178368841Y-87278275D02*
X177803155Y-86712590D01*
X177803155Y-86712590D02*
X178018655Y-86497090D01*
X178018655Y-86497090D02*
X178099467Y-86470153D01*
X178099467Y-86470153D02*
X178153342Y-86470153D01*
X178153342Y-86470153D02*
X178234154Y-86497090D01*
X178234154Y-86497090D02*
X178314966Y-86577903D01*
X178314966Y-86577903D02*
X178341903Y-86658715D01*
X178341903Y-86658715D02*
X178341903Y-86712590D01*
X178341903Y-86712590D02*
X178314966Y-86793402D01*
X178314966Y-86793402D02*
X178099467Y-87008901D01*
X178395778Y-86227716D02*
X178395778Y-86173842D01*
X178395778Y-86173842D02*
X178422716Y-86093029D01*
X178422716Y-86093029D02*
X178557403Y-85958342D01*
X178557403Y-85958342D02*
X178638215Y-85931405D01*
X178638215Y-85931405D02*
X178692090Y-85931405D01*
X178692090Y-85931405D02*
X178772902Y-85958342D01*
X178772902Y-85958342D02*
X178826777Y-86012217D01*
X178826777Y-86012217D02*
X178880651Y-86119967D01*
X178880651Y-86119967D02*
X178880651Y-86766464D01*
X178880651Y-86766464D02*
X179230838Y-86416278D01*
X179769586Y-85877530D02*
X179446337Y-86200779D01*
X179607961Y-86039154D02*
X179042276Y-85473469D01*
X179042276Y-85473469D02*
X179069213Y-85608156D01*
X179069213Y-85608156D02*
X179069213Y-85715906D01*
X179069213Y-85715906D02*
X179042276Y-85796718D01*
X151108719Y-92536901D02*
X151027906Y-92563838D01*
X151027906Y-92563838D02*
X150947094Y-92644651D01*
X150947094Y-92644651D02*
X150893219Y-92752400D01*
X150893219Y-92752400D02*
X150893219Y-92860150D01*
X150893219Y-92860150D02*
X150920157Y-92940962D01*
X150920157Y-92940962D02*
X151000969Y-93075649D01*
X151000969Y-93075649D02*
X151081781Y-93156461D01*
X151081781Y-93156461D02*
X151216468Y-93237274D01*
X151216468Y-93237274D02*
X151297281Y-93264211D01*
X151297281Y-93264211D02*
X151405030Y-93264211D01*
X151405030Y-93264211D02*
X151512780Y-93210336D01*
X151512780Y-93210336D02*
X151566655Y-93156461D01*
X151566655Y-93156461D02*
X151620529Y-93048712D01*
X151620529Y-93048712D02*
X151620529Y-92994837D01*
X151620529Y-92994837D02*
X151431968Y-92806275D01*
X151431968Y-92806275D02*
X151324218Y-92914025D01*
X151916841Y-92806275D02*
X151351155Y-92240590D01*
X151351155Y-92240590D02*
X151566655Y-92025090D01*
X151566655Y-92025090D02*
X151647467Y-91998153D01*
X151647467Y-91998153D02*
X151701342Y-91998153D01*
X151701342Y-91998153D02*
X151782154Y-92025090D01*
X151782154Y-92025090D02*
X151862966Y-92105903D01*
X151862966Y-92105903D02*
X151889903Y-92186715D01*
X151889903Y-92186715D02*
X151889903Y-92240590D01*
X151889903Y-92240590D02*
X151862966Y-92321402D01*
X151862966Y-92321402D02*
X151647467Y-92536901D01*
X152778838Y-91944278D02*
X152455589Y-92267527D01*
X152617213Y-92105903D02*
X152051528Y-91540217D01*
X152051528Y-91540217D02*
X152078465Y-91674904D01*
X152078465Y-91674904D02*
X152078465Y-91782654D01*
X152078465Y-91782654D02*
X152051528Y-91863466D01*
X152698026Y-90893719D02*
X152590276Y-91001469D01*
X152590276Y-91001469D02*
X152563339Y-91082281D01*
X152563339Y-91082281D02*
X152563339Y-91136156D01*
X152563339Y-91136156D02*
X152590276Y-91270843D01*
X152590276Y-91270843D02*
X152671088Y-91405530D01*
X152671088Y-91405530D02*
X152886587Y-91621029D01*
X152886587Y-91621029D02*
X152967400Y-91647967D01*
X152967400Y-91647967D02*
X153021274Y-91647967D01*
X153021274Y-91647967D02*
X153102087Y-91621029D01*
X153102087Y-91621029D02*
X153209836Y-91513280D01*
X153209836Y-91513280D02*
X153236774Y-91432467D01*
X153236774Y-91432467D02*
X153236774Y-91378593D01*
X153236774Y-91378593D02*
X153209836Y-91297780D01*
X153209836Y-91297780D02*
X153075149Y-91163093D01*
X153075149Y-91163093D02*
X152994337Y-91136156D01*
X152994337Y-91136156D02*
X152940462Y-91136156D01*
X152940462Y-91136156D02*
X152859650Y-91163093D01*
X152859650Y-91163093D02*
X152751900Y-91270843D01*
X152751900Y-91270843D02*
X152724963Y-91351655D01*
X152724963Y-91351655D02*
X152724963Y-91405530D01*
X152724963Y-91405530D02*
X152751900Y-91486342D01*
X177560719Y-66698901D02*
X177479906Y-66725838D01*
X177479906Y-66725838D02*
X177399094Y-66806651D01*
X177399094Y-66806651D02*
X177345219Y-66914400D01*
X177345219Y-66914400D02*
X177345219Y-67022150D01*
X177345219Y-67022150D02*
X177372157Y-67102962D01*
X177372157Y-67102962D02*
X177452969Y-67237649D01*
X177452969Y-67237649D02*
X177533781Y-67318461D01*
X177533781Y-67318461D02*
X177668468Y-67399274D01*
X177668468Y-67399274D02*
X177749281Y-67426211D01*
X177749281Y-67426211D02*
X177857030Y-67426211D01*
X177857030Y-67426211D02*
X177964780Y-67372336D01*
X177964780Y-67372336D02*
X178018655Y-67318461D01*
X178018655Y-67318461D02*
X178072529Y-67210712D01*
X178072529Y-67210712D02*
X178072529Y-67156837D01*
X178072529Y-67156837D02*
X177883968Y-66968275D01*
X177883968Y-66968275D02*
X177776218Y-67076025D01*
X178368841Y-66968275D02*
X177803155Y-66402590D01*
X177803155Y-66402590D02*
X178018655Y-66187090D01*
X178018655Y-66187090D02*
X178099467Y-66160153D01*
X178099467Y-66160153D02*
X178153342Y-66160153D01*
X178153342Y-66160153D02*
X178234154Y-66187090D01*
X178234154Y-66187090D02*
X178314966Y-66267903D01*
X178314966Y-66267903D02*
X178341903Y-66348715D01*
X178341903Y-66348715D02*
X178341903Y-66402590D01*
X178341903Y-66402590D02*
X178314966Y-66483402D01*
X178314966Y-66483402D02*
X178099467Y-66698901D01*
X178395778Y-65917716D02*
X178395778Y-65863842D01*
X178395778Y-65863842D02*
X178422716Y-65783029D01*
X178422716Y-65783029D02*
X178557403Y-65648342D01*
X178557403Y-65648342D02*
X178638215Y-65621405D01*
X178638215Y-65621405D02*
X178692090Y-65621405D01*
X178692090Y-65621405D02*
X178772902Y-65648342D01*
X178772902Y-65648342D02*
X178826777Y-65702217D01*
X178826777Y-65702217D02*
X178880651Y-65809967D01*
X178880651Y-65809967D02*
X178880651Y-66456464D01*
X178880651Y-66456464D02*
X179230838Y-66106278D01*
X179230838Y-65459780D02*
X179150026Y-65486718D01*
X179150026Y-65486718D02*
X179096151Y-65486718D01*
X179096151Y-65486718D02*
X179015339Y-65459780D01*
X179015339Y-65459780D02*
X178988401Y-65432843D01*
X178988401Y-65432843D02*
X178961464Y-65352031D01*
X178961464Y-65352031D02*
X178961464Y-65298156D01*
X178961464Y-65298156D02*
X178988401Y-65217344D01*
X178988401Y-65217344D02*
X179096151Y-65109594D01*
X179096151Y-65109594D02*
X179176963Y-65082657D01*
X179176963Y-65082657D02*
X179230838Y-65082657D01*
X179230838Y-65082657D02*
X179311650Y-65109594D01*
X179311650Y-65109594D02*
X179338587Y-65136532D01*
X179338587Y-65136532D02*
X179365525Y-65217344D01*
X179365525Y-65217344D02*
X179365525Y-65271219D01*
X179365525Y-65271219D02*
X179338587Y-65352031D01*
X179338587Y-65352031D02*
X179230838Y-65459780D01*
X179230838Y-65459780D02*
X179203900Y-65540593D01*
X179203900Y-65540593D02*
X179203900Y-65594467D01*
X179203900Y-65594467D02*
X179230838Y-65675280D01*
X179230838Y-65675280D02*
X179338587Y-65783029D01*
X179338587Y-65783029D02*
X179419400Y-65809967D01*
X179419400Y-65809967D02*
X179473274Y-65809967D01*
X179473274Y-65809967D02*
X179554087Y-65783029D01*
X179554087Y-65783029D02*
X179661836Y-65675280D01*
X179661836Y-65675280D02*
X179688774Y-65594467D01*
X179688774Y-65594467D02*
X179688774Y-65540593D01*
X179688774Y-65540593D02*
X179661836Y-65459780D01*
X179661836Y-65459780D02*
X179554087Y-65352031D01*
X179554087Y-65352031D02*
X179473274Y-65325093D01*
X179473274Y-65325093D02*
X179419400Y-65325093D01*
X179419400Y-65325093D02*
X179338587Y-65352031D01*
X151678093Y-71947527D02*
X151597281Y-71974464D01*
X151597281Y-71974464D02*
X151516469Y-72055276D01*
X151516469Y-72055276D02*
X151462594Y-72163026D01*
X151462594Y-72163026D02*
X151462594Y-72270775D01*
X151462594Y-72270775D02*
X151489531Y-72351588D01*
X151489531Y-72351588D02*
X151570344Y-72486275D01*
X151570344Y-72486275D02*
X151651156Y-72567087D01*
X151651156Y-72567087D02*
X151785843Y-72647899D01*
X151785843Y-72647899D02*
X151866655Y-72674836D01*
X151866655Y-72674836D02*
X151974405Y-72674836D01*
X151974405Y-72674836D02*
X152082154Y-72620962D01*
X152082154Y-72620962D02*
X152136029Y-72567087D01*
X152136029Y-72567087D02*
X152189904Y-72459337D01*
X152189904Y-72459337D02*
X152189904Y-72405462D01*
X152189904Y-72405462D02*
X152001342Y-72216901D01*
X152001342Y-72216901D02*
X151893592Y-72324650D01*
X152486215Y-72216901D02*
X151920530Y-71651215D01*
X151920530Y-71651215D02*
X152136029Y-71435716D01*
X152136029Y-71435716D02*
X152216841Y-71408779D01*
X152216841Y-71408779D02*
X152270716Y-71408779D01*
X152270716Y-71408779D02*
X152351528Y-71435716D01*
X152351528Y-71435716D02*
X152432340Y-71516528D01*
X152432340Y-71516528D02*
X152459278Y-71597340D01*
X152459278Y-71597340D02*
X152459278Y-71651215D01*
X152459278Y-71651215D02*
X152432340Y-71732027D01*
X152432340Y-71732027D02*
X152216841Y-71947527D01*
X153078838Y-71624278D02*
X153186588Y-71516528D01*
X153186588Y-71516528D02*
X153213525Y-71435716D01*
X153213525Y-71435716D02*
X153213525Y-71381841D01*
X153213525Y-71381841D02*
X153186588Y-71247154D01*
X153186588Y-71247154D02*
X153105775Y-71112467D01*
X153105775Y-71112467D02*
X152890276Y-70896968D01*
X152890276Y-70896968D02*
X152809464Y-70870031D01*
X152809464Y-70870031D02*
X152755589Y-70870031D01*
X152755589Y-70870031D02*
X152674777Y-70896968D01*
X152674777Y-70896968D02*
X152567027Y-71004718D01*
X152567027Y-71004718D02*
X152540090Y-71085530D01*
X152540090Y-71085530D02*
X152540090Y-71139405D01*
X152540090Y-71139405D02*
X152567027Y-71220217D01*
X152567027Y-71220217D02*
X152701714Y-71354904D01*
X152701714Y-71354904D02*
X152782527Y-71381841D01*
X152782527Y-71381841D02*
X152836401Y-71381841D01*
X152836401Y-71381841D02*
X152917214Y-71354904D01*
X152917214Y-71354904D02*
X153024963Y-71247154D01*
X153024963Y-71247154D02*
X153051901Y-71166342D01*
X153051901Y-71166342D02*
X153051901Y-71112467D01*
X153051901Y-71112467D02*
X153024963Y-71031655D01*
X151154719Y-87456901D02*
X151073906Y-87483838D01*
X151073906Y-87483838D02*
X150993094Y-87564651D01*
X150993094Y-87564651D02*
X150939219Y-87672400D01*
X150939219Y-87672400D02*
X150939219Y-87780150D01*
X150939219Y-87780150D02*
X150966157Y-87860962D01*
X150966157Y-87860962D02*
X151046969Y-87995649D01*
X151046969Y-87995649D02*
X151127781Y-88076461D01*
X151127781Y-88076461D02*
X151262468Y-88157274D01*
X151262468Y-88157274D02*
X151343281Y-88184211D01*
X151343281Y-88184211D02*
X151451030Y-88184211D01*
X151451030Y-88184211D02*
X151558780Y-88130336D01*
X151558780Y-88130336D02*
X151612655Y-88076461D01*
X151612655Y-88076461D02*
X151666529Y-87968712D01*
X151666529Y-87968712D02*
X151666529Y-87914837D01*
X151666529Y-87914837D02*
X151477968Y-87726275D01*
X151477968Y-87726275D02*
X151370218Y-87834025D01*
X151962841Y-87726275D02*
X151397155Y-87160590D01*
X151397155Y-87160590D02*
X151612655Y-86945090D01*
X151612655Y-86945090D02*
X151693467Y-86918153D01*
X151693467Y-86918153D02*
X151747342Y-86918153D01*
X151747342Y-86918153D02*
X151828154Y-86945090D01*
X151828154Y-86945090D02*
X151908966Y-87025903D01*
X151908966Y-87025903D02*
X151935903Y-87106715D01*
X151935903Y-87106715D02*
X151935903Y-87160590D01*
X151935903Y-87160590D02*
X151908966Y-87241402D01*
X151908966Y-87241402D02*
X151693467Y-87456901D01*
X152824838Y-86864278D02*
X152501589Y-87187527D01*
X152663213Y-87025903D02*
X152097528Y-86460217D01*
X152097528Y-86460217D02*
X152124465Y-86594904D01*
X152124465Y-86594904D02*
X152124465Y-86702654D01*
X152124465Y-86702654D02*
X152097528Y-86783466D01*
X152932587Y-86002281D02*
X153309711Y-86379405D01*
X152582401Y-85921469D02*
X152851775Y-86460217D01*
X152851775Y-86460217D02*
X153201961Y-86110031D01*
X178355372Y-61637743D02*
X177897437Y-61556931D01*
X178032124Y-61960992D02*
X177466438Y-61395307D01*
X177466438Y-61395307D02*
X177681937Y-61179808D01*
X177681937Y-61179808D02*
X177762750Y-61152870D01*
X177762750Y-61152870D02*
X177816624Y-61152870D01*
X177816624Y-61152870D02*
X177897437Y-61179808D01*
X177897437Y-61179808D02*
X177978249Y-61260620D01*
X177978249Y-61260620D02*
X178005186Y-61341432D01*
X178005186Y-61341432D02*
X178005186Y-61395307D01*
X178005186Y-61395307D02*
X177978249Y-61476119D01*
X177978249Y-61476119D02*
X177762750Y-61691618D01*
X178032124Y-60829621D02*
X178490059Y-61287557D01*
X178490059Y-61287557D02*
X178570872Y-61314495D01*
X178570872Y-61314495D02*
X178624746Y-61314495D01*
X178624746Y-61314495D02*
X178705559Y-61287557D01*
X178705559Y-61287557D02*
X178813308Y-61179808D01*
X178813308Y-61179808D02*
X178840246Y-61098995D01*
X178840246Y-61098995D02*
X178840246Y-61045121D01*
X178840246Y-61045121D02*
X178813308Y-60964308D01*
X178813308Y-60964308D02*
X178355372Y-60506373D01*
X179190432Y-60802684D02*
X178624746Y-60236999D01*
X178624746Y-60236999D02*
X179513680Y-60479435D01*
X179513680Y-60479435D02*
X178947995Y-59913750D01*
X177560719Y-81928901D02*
X177479906Y-81955838D01*
X177479906Y-81955838D02*
X177399094Y-82036651D01*
X177399094Y-82036651D02*
X177345219Y-82144400D01*
X177345219Y-82144400D02*
X177345219Y-82252150D01*
X177345219Y-82252150D02*
X177372157Y-82332962D01*
X177372157Y-82332962D02*
X177452969Y-82467649D01*
X177452969Y-82467649D02*
X177533781Y-82548461D01*
X177533781Y-82548461D02*
X177668468Y-82629274D01*
X177668468Y-82629274D02*
X177749281Y-82656211D01*
X177749281Y-82656211D02*
X177857030Y-82656211D01*
X177857030Y-82656211D02*
X177964780Y-82602336D01*
X177964780Y-82602336D02*
X178018655Y-82548461D01*
X178018655Y-82548461D02*
X178072529Y-82440712D01*
X178072529Y-82440712D02*
X178072529Y-82386837D01*
X178072529Y-82386837D02*
X177883968Y-82198275D01*
X177883968Y-82198275D02*
X177776218Y-82306025D01*
X178368841Y-82198275D02*
X177803155Y-81632590D01*
X177803155Y-81632590D02*
X178018655Y-81417090D01*
X178018655Y-81417090D02*
X178099467Y-81390153D01*
X178099467Y-81390153D02*
X178153342Y-81390153D01*
X178153342Y-81390153D02*
X178234154Y-81417090D01*
X178234154Y-81417090D02*
X178314966Y-81497903D01*
X178314966Y-81497903D02*
X178341903Y-81578715D01*
X178341903Y-81578715D02*
X178341903Y-81632590D01*
X178341903Y-81632590D02*
X178314966Y-81713402D01*
X178314966Y-81713402D02*
X178099467Y-81928901D01*
X178395778Y-81147716D02*
X178395778Y-81093842D01*
X178395778Y-81093842D02*
X178422716Y-81013029D01*
X178422716Y-81013029D02*
X178557403Y-80878342D01*
X178557403Y-80878342D02*
X178638215Y-80851405D01*
X178638215Y-80851405D02*
X178692090Y-80851405D01*
X178692090Y-80851405D02*
X178772902Y-80878342D01*
X178772902Y-80878342D02*
X178826777Y-80932217D01*
X178826777Y-80932217D02*
X178880651Y-81039967D01*
X178880651Y-81039967D02*
X178880651Y-81686464D01*
X178880651Y-81686464D02*
X179230838Y-81336278D01*
X178853714Y-80582031D02*
X179203900Y-80231845D01*
X179203900Y-80231845D02*
X179230838Y-80635906D01*
X179230838Y-80635906D02*
X179311650Y-80555093D01*
X179311650Y-80555093D02*
X179392462Y-80528156D01*
X179392462Y-80528156D02*
X179446337Y-80528156D01*
X179446337Y-80528156D02*
X179527149Y-80555093D01*
X179527149Y-80555093D02*
X179661836Y-80689780D01*
X179661836Y-80689780D02*
X179688774Y-80770593D01*
X179688774Y-80770593D02*
X179688774Y-80824467D01*
X179688774Y-80824467D02*
X179661836Y-80905280D01*
X179661836Y-80905280D02*
X179500212Y-81066904D01*
X179500212Y-81066904D02*
X179419400Y-81093841D01*
X179419400Y-81093841D02*
X179365525Y-81093841D01*
X151154719Y-79836901D02*
X151073906Y-79863838D01*
X151073906Y-79863838D02*
X150993094Y-79944651D01*
X150993094Y-79944651D02*
X150939219Y-80052400D01*
X150939219Y-80052400D02*
X150939219Y-80160150D01*
X150939219Y-80160150D02*
X150966157Y-80240962D01*
X150966157Y-80240962D02*
X151046969Y-80375649D01*
X151046969Y-80375649D02*
X151127781Y-80456461D01*
X151127781Y-80456461D02*
X151262468Y-80537274D01*
X151262468Y-80537274D02*
X151343281Y-80564211D01*
X151343281Y-80564211D02*
X151451030Y-80564211D01*
X151451030Y-80564211D02*
X151558780Y-80510336D01*
X151558780Y-80510336D02*
X151612655Y-80456461D01*
X151612655Y-80456461D02*
X151666529Y-80348712D01*
X151666529Y-80348712D02*
X151666529Y-80294837D01*
X151666529Y-80294837D02*
X151477968Y-80106275D01*
X151477968Y-80106275D02*
X151370218Y-80214025D01*
X151962841Y-80106275D02*
X151397155Y-79540590D01*
X151397155Y-79540590D02*
X151612655Y-79325090D01*
X151612655Y-79325090D02*
X151693467Y-79298153D01*
X151693467Y-79298153D02*
X151747342Y-79298153D01*
X151747342Y-79298153D02*
X151828154Y-79325090D01*
X151828154Y-79325090D02*
X151908966Y-79405903D01*
X151908966Y-79405903D02*
X151935903Y-79486715D01*
X151935903Y-79486715D02*
X151935903Y-79540590D01*
X151935903Y-79540590D02*
X151908966Y-79621402D01*
X151908966Y-79621402D02*
X151693467Y-79836901D01*
X152824838Y-79244278D02*
X152501589Y-79567527D01*
X152663213Y-79405903D02*
X152097528Y-78840217D01*
X152097528Y-78840217D02*
X152124465Y-78974904D01*
X152124465Y-78974904D02*
X152124465Y-79082654D01*
X152124465Y-79082654D02*
X152097528Y-79163466D01*
X152528526Y-78516968D02*
X152528526Y-78463093D01*
X152528526Y-78463093D02*
X152555464Y-78382281D01*
X152555464Y-78382281D02*
X152690151Y-78247594D01*
X152690151Y-78247594D02*
X152770963Y-78220657D01*
X152770963Y-78220657D02*
X152824838Y-78220657D01*
X152824838Y-78220657D02*
X152905650Y-78247594D01*
X152905650Y-78247594D02*
X152959525Y-78301469D01*
X152959525Y-78301469D02*
X153013400Y-78409219D01*
X153013400Y-78409219D02*
X153013400Y-79055716D01*
X153013400Y-79055716D02*
X153363586Y-78705530D01*
X151008719Y-84916901D02*
X150927906Y-84943838D01*
X150927906Y-84943838D02*
X150847094Y-85024651D01*
X150847094Y-85024651D02*
X150793219Y-85132400D01*
X150793219Y-85132400D02*
X150793219Y-85240150D01*
X150793219Y-85240150D02*
X150820157Y-85320962D01*
X150820157Y-85320962D02*
X150900969Y-85455649D01*
X150900969Y-85455649D02*
X150981781Y-85536461D01*
X150981781Y-85536461D02*
X151116468Y-85617274D01*
X151116468Y-85617274D02*
X151197281Y-85644211D01*
X151197281Y-85644211D02*
X151305030Y-85644211D01*
X151305030Y-85644211D02*
X151412780Y-85590336D01*
X151412780Y-85590336D02*
X151466655Y-85536461D01*
X151466655Y-85536461D02*
X151520529Y-85428712D01*
X151520529Y-85428712D02*
X151520529Y-85374837D01*
X151520529Y-85374837D02*
X151331968Y-85186275D01*
X151331968Y-85186275D02*
X151224218Y-85294025D01*
X151816841Y-85186275D02*
X151251155Y-84620590D01*
X151251155Y-84620590D02*
X151466655Y-84405090D01*
X151466655Y-84405090D02*
X151547467Y-84378153D01*
X151547467Y-84378153D02*
X151601342Y-84378153D01*
X151601342Y-84378153D02*
X151682154Y-84405090D01*
X151682154Y-84405090D02*
X151762966Y-84485903D01*
X151762966Y-84485903D02*
X151789903Y-84566715D01*
X151789903Y-84566715D02*
X151789903Y-84620590D01*
X151789903Y-84620590D02*
X151762966Y-84701402D01*
X151762966Y-84701402D02*
X151547467Y-84916901D01*
X152678838Y-84324278D02*
X152355589Y-84647527D01*
X152517213Y-84485903D02*
X151951528Y-83920217D01*
X151951528Y-83920217D02*
X151978465Y-84054904D01*
X151978465Y-84054904D02*
X151978465Y-84162654D01*
X151978465Y-84162654D02*
X151951528Y-84243466D01*
X152301714Y-83570031D02*
X152651900Y-83219845D01*
X152651900Y-83219845D02*
X152678838Y-83623906D01*
X152678838Y-83623906D02*
X152759650Y-83543093D01*
X152759650Y-83543093D02*
X152840462Y-83516156D01*
X152840462Y-83516156D02*
X152894337Y-83516156D01*
X152894337Y-83516156D02*
X152975149Y-83543093D01*
X152975149Y-83543093D02*
X153109836Y-83677780D01*
X153109836Y-83677780D02*
X153136774Y-83758593D01*
X153136774Y-83758593D02*
X153136774Y-83812467D01*
X153136774Y-83812467D02*
X153109836Y-83893280D01*
X153109836Y-83893280D02*
X152948212Y-84054904D01*
X152948212Y-84054904D02*
X152867400Y-84081841D01*
X152867400Y-84081841D02*
X152813525Y-84081841D01*
X151778093Y-69377527D02*
X151697281Y-69404464D01*
X151697281Y-69404464D02*
X151616469Y-69485276D01*
X151616469Y-69485276D02*
X151562594Y-69593026D01*
X151562594Y-69593026D02*
X151562594Y-69700775D01*
X151562594Y-69700775D02*
X151589531Y-69781588D01*
X151589531Y-69781588D02*
X151670344Y-69916275D01*
X151670344Y-69916275D02*
X151751156Y-69997087D01*
X151751156Y-69997087D02*
X151885843Y-70077899D01*
X151885843Y-70077899D02*
X151966655Y-70104836D01*
X151966655Y-70104836D02*
X152074405Y-70104836D01*
X152074405Y-70104836D02*
X152182154Y-70050962D01*
X152182154Y-70050962D02*
X152236029Y-69997087D01*
X152236029Y-69997087D02*
X152289904Y-69889337D01*
X152289904Y-69889337D02*
X152289904Y-69835462D01*
X152289904Y-69835462D02*
X152101342Y-69646901D01*
X152101342Y-69646901D02*
X151993592Y-69754650D01*
X152586215Y-69646901D02*
X152020530Y-69081215D01*
X152020530Y-69081215D02*
X152236029Y-68865716D01*
X152236029Y-68865716D02*
X152316841Y-68838779D01*
X152316841Y-68838779D02*
X152370716Y-68838779D01*
X152370716Y-68838779D02*
X152451528Y-68865716D01*
X152451528Y-68865716D02*
X152532340Y-68946528D01*
X152532340Y-68946528D02*
X152559278Y-69027340D01*
X152559278Y-69027340D02*
X152559278Y-69081215D01*
X152559278Y-69081215D02*
X152532340Y-69162027D01*
X152532340Y-69162027D02*
X152316841Y-69377527D01*
X152909464Y-68677154D02*
X152828652Y-68704092D01*
X152828652Y-68704092D02*
X152774777Y-68704092D01*
X152774777Y-68704092D02*
X152693965Y-68677154D01*
X152693965Y-68677154D02*
X152667027Y-68650217D01*
X152667027Y-68650217D02*
X152640090Y-68569405D01*
X152640090Y-68569405D02*
X152640090Y-68515530D01*
X152640090Y-68515530D02*
X152667027Y-68434718D01*
X152667027Y-68434718D02*
X152774777Y-68326968D01*
X152774777Y-68326968D02*
X152855589Y-68300031D01*
X152855589Y-68300031D02*
X152909464Y-68300031D01*
X152909464Y-68300031D02*
X152990276Y-68326968D01*
X152990276Y-68326968D02*
X153017214Y-68353905D01*
X153017214Y-68353905D02*
X153044151Y-68434718D01*
X153044151Y-68434718D02*
X153044151Y-68488592D01*
X153044151Y-68488592D02*
X153017214Y-68569405D01*
X153017214Y-68569405D02*
X152909464Y-68677154D01*
X152909464Y-68677154D02*
X152882527Y-68757966D01*
X152882527Y-68757966D02*
X152882527Y-68811841D01*
X152882527Y-68811841D02*
X152909464Y-68892653D01*
X152909464Y-68892653D02*
X153017214Y-69000403D01*
X153017214Y-69000403D02*
X153098026Y-69027340D01*
X153098026Y-69027340D02*
X153151901Y-69027340D01*
X153151901Y-69027340D02*
X153232713Y-69000403D01*
X153232713Y-69000403D02*
X153340462Y-68892653D01*
X153340462Y-68892653D02*
X153367400Y-68811841D01*
X153367400Y-68811841D02*
X153367400Y-68757966D01*
X153367400Y-68757966D02*
X153340462Y-68677154D01*
X153340462Y-68677154D02*
X153232713Y-68569405D01*
X153232713Y-68569405D02*
X153151901Y-68542467D01*
X153151901Y-68542467D02*
X153098026Y-68542467D01*
X153098026Y-68542467D02*
X153017214Y-68569405D01*
X150903196Y-77548652D02*
X150822383Y-77575589D01*
X150822383Y-77575589D02*
X150741571Y-77656402D01*
X150741571Y-77656402D02*
X150687696Y-77764151D01*
X150687696Y-77764151D02*
X150687696Y-77871901D01*
X150687696Y-77871901D02*
X150714634Y-77952713D01*
X150714634Y-77952713D02*
X150795446Y-78087400D01*
X150795446Y-78087400D02*
X150876258Y-78168212D01*
X150876258Y-78168212D02*
X151010945Y-78249025D01*
X151010945Y-78249025D02*
X151091758Y-78275962D01*
X151091758Y-78275962D02*
X151199507Y-78275962D01*
X151199507Y-78275962D02*
X151307257Y-78222087D01*
X151307257Y-78222087D02*
X151361132Y-78168212D01*
X151361132Y-78168212D02*
X151415006Y-78060463D01*
X151415006Y-78060463D02*
X151415006Y-78006588D01*
X151415006Y-78006588D02*
X151226445Y-77818026D01*
X151226445Y-77818026D02*
X151118695Y-77925776D01*
X151711318Y-77818026D02*
X151145632Y-77252341D01*
X151145632Y-77252341D02*
X151361132Y-77036841D01*
X151361132Y-77036841D02*
X151441944Y-77009904D01*
X151441944Y-77009904D02*
X151495819Y-77009904D01*
X151495819Y-77009904D02*
X151576631Y-77036841D01*
X151576631Y-77036841D02*
X151657443Y-77117654D01*
X151657443Y-77117654D02*
X151684380Y-77198466D01*
X151684380Y-77198466D02*
X151684380Y-77252341D01*
X151684380Y-77252341D02*
X151657443Y-77333153D01*
X151657443Y-77333153D02*
X151441944Y-77548652D01*
X152573315Y-76956029D02*
X152250066Y-77279278D01*
X152411690Y-77117654D02*
X151846005Y-76551968D01*
X151846005Y-76551968D02*
X151872942Y-76686655D01*
X151872942Y-76686655D02*
X151872942Y-76794405D01*
X151872942Y-76794405D02*
X151846005Y-76875217D01*
X153112063Y-76417281D02*
X152788814Y-76740530D01*
X152950438Y-76578905D02*
X152384753Y-76013220D01*
X152384753Y-76013220D02*
X152411690Y-76147907D01*
X152411690Y-76147907D02*
X152411690Y-76255657D01*
X152411690Y-76255657D02*
X152384753Y-76336469D01*
X177753633Y-58498215D02*
X177672821Y-58525152D01*
X177672821Y-58525152D02*
X177592009Y-58605964D01*
X177592009Y-58605964D02*
X177538134Y-58713714D01*
X177538134Y-58713714D02*
X177538134Y-58821464D01*
X177538134Y-58821464D02*
X177565071Y-58902276D01*
X177565071Y-58902276D02*
X177645883Y-59036963D01*
X177645883Y-59036963D02*
X177726696Y-59117775D01*
X177726696Y-59117775D02*
X177861383Y-59198587D01*
X177861383Y-59198587D02*
X177942195Y-59225525D01*
X177942195Y-59225525D02*
X178049944Y-59225525D01*
X178049944Y-59225525D02*
X178157694Y-59171650D01*
X178157694Y-59171650D02*
X178211569Y-59117775D01*
X178211569Y-59117775D02*
X178265444Y-59010025D01*
X178265444Y-59010025D02*
X178265444Y-58956151D01*
X178265444Y-58956151D02*
X178076882Y-58767589D01*
X178076882Y-58767589D02*
X177969132Y-58875338D01*
X178561755Y-58767589D02*
X177996070Y-58201903D01*
X177996070Y-58201903D02*
X178885004Y-58444340D01*
X178885004Y-58444340D02*
X178319318Y-57878655D01*
X179154378Y-58174966D02*
X178588692Y-57609281D01*
X178588692Y-57609281D02*
X178723379Y-57474594D01*
X178723379Y-57474594D02*
X178831129Y-57420719D01*
X178831129Y-57420719D02*
X178938878Y-57420719D01*
X178938878Y-57420719D02*
X179019691Y-57447656D01*
X179019691Y-57447656D02*
X179154378Y-57528469D01*
X179154378Y-57528469D02*
X179235190Y-57609281D01*
X179235190Y-57609281D02*
X179316002Y-57743968D01*
X179316002Y-57743968D02*
X179342939Y-57824780D01*
X179342939Y-57824780D02*
X179342939Y-57932530D01*
X179342939Y-57932530D02*
X179289065Y-58040279D01*
X179289065Y-58040279D02*
X179154378Y-58174966D01*
X177361822Y-56466151D02*
X177712008Y-56115965D01*
X177712008Y-56115965D02*
X177738945Y-56520026D01*
X177738945Y-56520026D02*
X177819758Y-56439214D01*
X177819758Y-56439214D02*
X177900570Y-56412276D01*
X177900570Y-56412276D02*
X177954445Y-56412276D01*
X177954445Y-56412276D02*
X178035257Y-56439214D01*
X178035257Y-56439214D02*
X178169944Y-56573901D01*
X178169944Y-56573901D02*
X178196881Y-56654713D01*
X178196881Y-56654713D02*
X178196881Y-56708588D01*
X178196881Y-56708588D02*
X178169944Y-56789400D01*
X178169944Y-56789400D02*
X178008319Y-56951024D01*
X178008319Y-56951024D02*
X177927507Y-56977962D01*
X177927507Y-56977962D02*
X177873632Y-56977962D01*
X177873633Y-55954340D02*
X178627880Y-56331464D01*
X178627880Y-56331464D02*
X178250756Y-55577217D01*
X178385443Y-55442530D02*
X178735629Y-55092344D01*
X178735629Y-55092344D02*
X178762567Y-55496405D01*
X178762567Y-55496405D02*
X178843379Y-55415593D01*
X178843379Y-55415593D02*
X178924191Y-55388655D01*
X178924191Y-55388655D02*
X178978066Y-55388655D01*
X178978066Y-55388655D02*
X179058878Y-55415593D01*
X179058878Y-55415593D02*
X179193565Y-55550280D01*
X179193565Y-55550280D02*
X179220502Y-55631092D01*
X179220502Y-55631092D02*
X179220502Y-55684967D01*
X179220502Y-55684967D02*
X179193565Y-55765779D01*
X179193565Y-55765779D02*
X179031941Y-55927403D01*
X179031941Y-55927403D02*
X178951128Y-55954341D01*
X178951128Y-55954341D02*
X178897254Y-55954341D01*
X179058878Y-54769095D02*
X179193565Y-54903782D01*
X179005003Y-54984594D02*
X179193565Y-54903782D01*
X179193565Y-54903782D02*
X179274377Y-54715220D01*
X179220503Y-55092344D02*
X179193565Y-54903782D01*
X179193565Y-54903782D02*
X179382127Y-54930719D01*
X151651156Y-59274464D02*
X151570344Y-59301401D01*
X151570344Y-59301401D02*
X151489532Y-59382213D01*
X151489532Y-59382213D02*
X151435657Y-59489963D01*
X151435657Y-59489963D02*
X151435657Y-59597713D01*
X151435657Y-59597713D02*
X151462594Y-59678525D01*
X151462594Y-59678525D02*
X151543406Y-59813212D01*
X151543406Y-59813212D02*
X151624219Y-59894024D01*
X151624219Y-59894024D02*
X151758906Y-59974836D01*
X151758906Y-59974836D02*
X151839718Y-60001774D01*
X151839718Y-60001774D02*
X151947467Y-60001774D01*
X151947467Y-60001774D02*
X152055217Y-59947899D01*
X152055217Y-59947899D02*
X152109092Y-59894024D01*
X152109092Y-59894024D02*
X152162967Y-59786274D01*
X152162967Y-59786274D02*
X152162967Y-59732400D01*
X152162967Y-59732400D02*
X151974405Y-59543838D01*
X151974405Y-59543838D02*
X151866655Y-59651587D01*
X152459278Y-59543838D02*
X151893593Y-58978152D01*
X151893593Y-58978152D02*
X152782527Y-59220589D01*
X152782527Y-59220589D02*
X152216841Y-58654904D01*
X153051901Y-58951215D02*
X152486215Y-58385530D01*
X152486215Y-58385530D02*
X152620902Y-58250843D01*
X152620902Y-58250843D02*
X152728652Y-58196968D01*
X152728652Y-58196968D02*
X152836401Y-58196968D01*
X152836401Y-58196968D02*
X152917214Y-58223905D01*
X152917214Y-58223905D02*
X153051901Y-58304718D01*
X153051901Y-58304718D02*
X153132713Y-58385530D01*
X153132713Y-58385530D02*
X153213525Y-58520217D01*
X153213525Y-58520217D02*
X153240462Y-58601029D01*
X153240462Y-58601029D02*
X153240462Y-58708779D01*
X153240462Y-58708779D02*
X153186588Y-58816528D01*
X153186588Y-58816528D02*
X153051901Y-58951215D01*
X177506719Y-71768901D02*
X177425906Y-71795838D01*
X177425906Y-71795838D02*
X177345094Y-71876651D01*
X177345094Y-71876651D02*
X177291219Y-71984400D01*
X177291219Y-71984400D02*
X177291219Y-72092150D01*
X177291219Y-72092150D02*
X177318157Y-72172962D01*
X177318157Y-72172962D02*
X177398969Y-72307649D01*
X177398969Y-72307649D02*
X177479781Y-72388461D01*
X177479781Y-72388461D02*
X177614468Y-72469274D01*
X177614468Y-72469274D02*
X177695281Y-72496211D01*
X177695281Y-72496211D02*
X177803030Y-72496211D01*
X177803030Y-72496211D02*
X177910780Y-72442336D01*
X177910780Y-72442336D02*
X177964655Y-72388461D01*
X177964655Y-72388461D02*
X178018529Y-72280712D01*
X178018529Y-72280712D02*
X178018529Y-72226837D01*
X178018529Y-72226837D02*
X177829968Y-72038275D01*
X177829968Y-72038275D02*
X177722218Y-72146025D01*
X178314841Y-72038275D02*
X177749155Y-71472590D01*
X177749155Y-71472590D02*
X177964655Y-71257090D01*
X177964655Y-71257090D02*
X178045467Y-71230153D01*
X178045467Y-71230153D02*
X178099342Y-71230153D01*
X178099342Y-71230153D02*
X178180154Y-71257090D01*
X178180154Y-71257090D02*
X178260966Y-71337903D01*
X178260966Y-71337903D02*
X178287903Y-71418715D01*
X178287903Y-71418715D02*
X178287903Y-71472590D01*
X178287903Y-71472590D02*
X178260966Y-71553402D01*
X178260966Y-71553402D02*
X178045467Y-71768901D01*
X178341778Y-70987716D02*
X178341778Y-70933842D01*
X178341778Y-70933842D02*
X178368716Y-70853029D01*
X178368716Y-70853029D02*
X178503403Y-70718342D01*
X178503403Y-70718342D02*
X178584215Y-70691405D01*
X178584215Y-70691405D02*
X178638090Y-70691405D01*
X178638090Y-70691405D02*
X178718902Y-70718342D01*
X178718902Y-70718342D02*
X178772777Y-70772217D01*
X178772777Y-70772217D02*
X178826651Y-70879967D01*
X178826651Y-70879967D02*
X178826651Y-71526464D01*
X178826651Y-71526464D02*
X179176838Y-71176278D01*
X179096026Y-70125719D02*
X178988276Y-70233469D01*
X178988276Y-70233469D02*
X178961339Y-70314281D01*
X178961339Y-70314281D02*
X178961339Y-70368156D01*
X178961339Y-70368156D02*
X178988276Y-70502843D01*
X178988276Y-70502843D02*
X179069088Y-70637530D01*
X179069088Y-70637530D02*
X179284587Y-70853029D01*
X179284587Y-70853029D02*
X179365400Y-70879967D01*
X179365400Y-70879967D02*
X179419274Y-70879967D01*
X179419274Y-70879967D02*
X179500087Y-70853029D01*
X179500087Y-70853029D02*
X179607836Y-70745280D01*
X179607836Y-70745280D02*
X179634774Y-70664467D01*
X179634774Y-70664467D02*
X179634774Y-70610593D01*
X179634774Y-70610593D02*
X179607836Y-70529780D01*
X179607836Y-70529780D02*
X179473149Y-70395093D01*
X179473149Y-70395093D02*
X179392337Y-70368156D01*
X179392337Y-70368156D02*
X179338462Y-70368156D01*
X179338462Y-70368156D02*
X179257650Y-70395093D01*
X179257650Y-70395093D02*
X179149900Y-70502843D01*
X179149900Y-70502843D02*
X179122963Y-70583655D01*
X179122963Y-70583655D02*
X179122963Y-70637530D01*
X179122963Y-70637530D02*
X179149900Y-70718342D01*
X177306719Y-89548901D02*
X177225906Y-89575838D01*
X177225906Y-89575838D02*
X177145094Y-89656651D01*
X177145094Y-89656651D02*
X177091219Y-89764400D01*
X177091219Y-89764400D02*
X177091219Y-89872150D01*
X177091219Y-89872150D02*
X177118157Y-89952962D01*
X177118157Y-89952962D02*
X177198969Y-90087649D01*
X177198969Y-90087649D02*
X177279781Y-90168461D01*
X177279781Y-90168461D02*
X177414468Y-90249274D01*
X177414468Y-90249274D02*
X177495281Y-90276211D01*
X177495281Y-90276211D02*
X177603030Y-90276211D01*
X177603030Y-90276211D02*
X177710780Y-90222336D01*
X177710780Y-90222336D02*
X177764655Y-90168461D01*
X177764655Y-90168461D02*
X177818529Y-90060712D01*
X177818529Y-90060712D02*
X177818529Y-90006837D01*
X177818529Y-90006837D02*
X177629968Y-89818275D01*
X177629968Y-89818275D02*
X177522218Y-89926025D01*
X178114841Y-89818275D02*
X177549155Y-89252590D01*
X177549155Y-89252590D02*
X177764655Y-89037090D01*
X177764655Y-89037090D02*
X177845467Y-89010153D01*
X177845467Y-89010153D02*
X177899342Y-89010153D01*
X177899342Y-89010153D02*
X177980154Y-89037090D01*
X177980154Y-89037090D02*
X178060966Y-89117903D01*
X178060966Y-89117903D02*
X178087903Y-89198715D01*
X178087903Y-89198715D02*
X178087903Y-89252590D01*
X178087903Y-89252590D02*
X178060966Y-89333402D01*
X178060966Y-89333402D02*
X177845467Y-89548901D01*
X178141778Y-88767716D02*
X178141778Y-88713842D01*
X178141778Y-88713842D02*
X178168716Y-88633029D01*
X178168716Y-88633029D02*
X178303403Y-88498342D01*
X178303403Y-88498342D02*
X178384215Y-88471405D01*
X178384215Y-88471405D02*
X178438090Y-88471405D01*
X178438090Y-88471405D02*
X178518902Y-88498342D01*
X178518902Y-88498342D02*
X178572777Y-88552217D01*
X178572777Y-88552217D02*
X178626651Y-88659967D01*
X178626651Y-88659967D02*
X178626651Y-89306464D01*
X178626651Y-89306464D02*
X178976838Y-88956278D01*
X178761339Y-88040406D02*
X178815213Y-87986532D01*
X178815213Y-87986532D02*
X178896026Y-87959594D01*
X178896026Y-87959594D02*
X178949900Y-87959594D01*
X178949900Y-87959594D02*
X179030713Y-87986532D01*
X179030713Y-87986532D02*
X179165400Y-88067344D01*
X179165400Y-88067344D02*
X179300087Y-88202031D01*
X179300087Y-88202031D02*
X179380899Y-88336718D01*
X179380899Y-88336718D02*
X179407836Y-88417530D01*
X179407836Y-88417530D02*
X179407836Y-88471405D01*
X179407836Y-88471405D02*
X179380899Y-88552217D01*
X179380899Y-88552217D02*
X179327024Y-88606092D01*
X179327024Y-88606092D02*
X179246212Y-88633029D01*
X179246212Y-88633029D02*
X179192337Y-88633029D01*
X179192337Y-88633029D02*
X179111525Y-88606092D01*
X179111525Y-88606092D02*
X178976838Y-88525280D01*
X178976838Y-88525280D02*
X178842151Y-88390593D01*
X178842151Y-88390593D02*
X178761339Y-88255906D01*
X178761339Y-88255906D02*
X178734401Y-88175093D01*
X178734401Y-88175093D02*
X178734401Y-88121219D01*
X178734401Y-88121219D02*
X178761339Y-88040406D01*
X177414884Y-53843089D02*
X177765071Y-53492902D01*
X177765071Y-53492902D02*
X177792008Y-53896963D01*
X177792008Y-53896963D02*
X177872820Y-53816151D01*
X177872820Y-53816151D02*
X177953633Y-53789214D01*
X177953633Y-53789214D02*
X178007507Y-53789214D01*
X178007507Y-53789214D02*
X178088320Y-53816151D01*
X178088320Y-53816151D02*
X178223007Y-53950838D01*
X178223007Y-53950838D02*
X178249944Y-54031650D01*
X178249944Y-54031650D02*
X178249944Y-54085525D01*
X178249944Y-54085525D02*
X178223007Y-54166337D01*
X178223007Y-54166337D02*
X178061382Y-54327962D01*
X178061382Y-54327962D02*
X177980570Y-54354899D01*
X177980570Y-54354899D02*
X177926695Y-54354899D01*
X177926695Y-53331278D02*
X178680943Y-53708401D01*
X178680943Y-53708401D02*
X178303819Y-52954154D01*
X178438506Y-52819467D02*
X178788692Y-52469281D01*
X178788692Y-52469281D02*
X178815629Y-52873342D01*
X178815629Y-52873342D02*
X178896442Y-52792530D01*
X178896442Y-52792530D02*
X178977254Y-52765592D01*
X178977254Y-52765592D02*
X179031129Y-52765592D01*
X179031129Y-52765592D02*
X179111941Y-52792530D01*
X179111941Y-52792530D02*
X179246628Y-52927217D01*
X179246628Y-52927217D02*
X179273565Y-53008029D01*
X179273565Y-53008029D02*
X179273565Y-53061904D01*
X179273565Y-53061904D02*
X179246628Y-53142716D01*
X179246628Y-53142716D02*
X179085003Y-53304341D01*
X179085003Y-53304341D02*
X179004191Y-53331278D01*
X179004191Y-53331278D02*
X178950316Y-53331278D01*
X179785376Y-52550093D02*
X179758439Y-52630905D01*
X179758439Y-52630905D02*
X179650689Y-52738655D01*
X179650689Y-52738655D02*
X179569877Y-52765592D01*
X179569877Y-52765592D02*
X179489065Y-52738655D01*
X179489065Y-52738655D02*
X179273565Y-52523156D01*
X179273565Y-52523156D02*
X179246628Y-52442344D01*
X179246628Y-52442344D02*
X179273565Y-52361531D01*
X179273565Y-52361531D02*
X179381315Y-52253782D01*
X179381315Y-52253782D02*
X179462127Y-52226844D01*
X179462127Y-52226844D02*
X179542939Y-52253782D01*
X179542939Y-52253782D02*
X179596814Y-52307657D01*
X179596814Y-52307657D02*
X179381315Y-52630905D01*
X151578093Y-49077527D02*
X151497281Y-49104464D01*
X151497281Y-49104464D02*
X151416469Y-49185276D01*
X151416469Y-49185276D02*
X151362594Y-49293026D01*
X151362594Y-49293026D02*
X151362594Y-49400775D01*
X151362594Y-49400775D02*
X151389531Y-49481588D01*
X151389531Y-49481588D02*
X151470344Y-49616275D01*
X151470344Y-49616275D02*
X151551156Y-49697087D01*
X151551156Y-49697087D02*
X151685843Y-49777899D01*
X151685843Y-49777899D02*
X151766655Y-49804836D01*
X151766655Y-49804836D02*
X151874405Y-49804836D01*
X151874405Y-49804836D02*
X151982154Y-49750962D01*
X151982154Y-49750962D02*
X152036029Y-49697087D01*
X152036029Y-49697087D02*
X152089904Y-49589337D01*
X152089904Y-49589337D02*
X152089904Y-49535462D01*
X152089904Y-49535462D02*
X151901342Y-49346901D01*
X151901342Y-49346901D02*
X151793592Y-49454650D01*
X152386215Y-49346901D02*
X151820530Y-48781215D01*
X151820530Y-48781215D02*
X152036029Y-48565716D01*
X152036029Y-48565716D02*
X152116841Y-48538779D01*
X152116841Y-48538779D02*
X152170716Y-48538779D01*
X152170716Y-48538779D02*
X152251528Y-48565716D01*
X152251528Y-48565716D02*
X152332340Y-48646528D01*
X152332340Y-48646528D02*
X152359278Y-48727340D01*
X152359278Y-48727340D02*
X152359278Y-48781215D01*
X152359278Y-48781215D02*
X152332340Y-48862027D01*
X152332340Y-48862027D02*
X152116841Y-49077527D01*
X153248212Y-48484904D02*
X152924963Y-48808153D01*
X153086588Y-48646528D02*
X152520902Y-48080843D01*
X152520902Y-48080843D02*
X152547840Y-48215530D01*
X152547840Y-48215530D02*
X152547840Y-48323279D01*
X152547840Y-48323279D02*
X152520902Y-48404092D01*
X150923196Y-90268652D02*
X150842383Y-90295589D01*
X150842383Y-90295589D02*
X150761571Y-90376402D01*
X150761571Y-90376402D02*
X150707696Y-90484151D01*
X150707696Y-90484151D02*
X150707696Y-90591901D01*
X150707696Y-90591901D02*
X150734634Y-90672713D01*
X150734634Y-90672713D02*
X150815446Y-90807400D01*
X150815446Y-90807400D02*
X150896258Y-90888212D01*
X150896258Y-90888212D02*
X151030945Y-90969025D01*
X151030945Y-90969025D02*
X151111758Y-90995962D01*
X151111758Y-90995962D02*
X151219507Y-90995962D01*
X151219507Y-90995962D02*
X151327257Y-90942087D01*
X151327257Y-90942087D02*
X151381132Y-90888212D01*
X151381132Y-90888212D02*
X151435006Y-90780463D01*
X151435006Y-90780463D02*
X151435006Y-90726588D01*
X151435006Y-90726588D02*
X151246445Y-90538026D01*
X151246445Y-90538026D02*
X151138695Y-90645776D01*
X151731318Y-90538026D02*
X151165632Y-89972341D01*
X151165632Y-89972341D02*
X151381132Y-89756841D01*
X151381132Y-89756841D02*
X151461944Y-89729904D01*
X151461944Y-89729904D02*
X151515819Y-89729904D01*
X151515819Y-89729904D02*
X151596631Y-89756841D01*
X151596631Y-89756841D02*
X151677443Y-89837654D01*
X151677443Y-89837654D02*
X151704380Y-89918466D01*
X151704380Y-89918466D02*
X151704380Y-89972341D01*
X151704380Y-89972341D02*
X151677443Y-90053153D01*
X151677443Y-90053153D02*
X151461944Y-90268652D01*
X152593315Y-89676029D02*
X152270066Y-89999278D01*
X152431690Y-89837654D02*
X151866005Y-89271968D01*
X151866005Y-89271968D02*
X151892942Y-89406655D01*
X151892942Y-89406655D02*
X151892942Y-89514405D01*
X151892942Y-89514405D02*
X151866005Y-89595217D01*
X152539440Y-88598533D02*
X152270066Y-88867907D01*
X152270066Y-88867907D02*
X152512503Y-89164218D01*
X152512503Y-89164218D02*
X152512503Y-89110344D01*
X152512503Y-89110344D02*
X152539440Y-89029531D01*
X152539440Y-89029531D02*
X152674127Y-88894844D01*
X152674127Y-88894844D02*
X152754939Y-88867907D01*
X152754939Y-88867907D02*
X152808814Y-88867907D01*
X152808814Y-88867907D02*
X152889626Y-88894844D01*
X152889626Y-88894844D02*
X153024313Y-89029531D01*
X153024313Y-89029531D02*
X153051251Y-89110344D01*
X153051251Y-89110344D02*
X153051251Y-89164218D01*
X153051251Y-89164218D02*
X153024313Y-89245031D01*
X153024313Y-89245031D02*
X152889626Y-89379718D01*
X152889626Y-89379718D02*
X152808814Y-89406655D01*
X152808814Y-89406655D02*
X152754939Y-89406655D01*
X151408719Y-74756901D02*
X151327906Y-74783838D01*
X151327906Y-74783838D02*
X151247094Y-74864651D01*
X151247094Y-74864651D02*
X151193219Y-74972400D01*
X151193219Y-74972400D02*
X151193219Y-75080150D01*
X151193219Y-75080150D02*
X151220157Y-75160962D01*
X151220157Y-75160962D02*
X151300969Y-75295649D01*
X151300969Y-75295649D02*
X151381781Y-75376461D01*
X151381781Y-75376461D02*
X151516468Y-75457274D01*
X151516468Y-75457274D02*
X151597281Y-75484211D01*
X151597281Y-75484211D02*
X151705030Y-75484211D01*
X151705030Y-75484211D02*
X151812780Y-75430336D01*
X151812780Y-75430336D02*
X151866655Y-75376461D01*
X151866655Y-75376461D02*
X151920529Y-75268712D01*
X151920529Y-75268712D02*
X151920529Y-75214837D01*
X151920529Y-75214837D02*
X151731968Y-75026275D01*
X151731968Y-75026275D02*
X151624218Y-75134025D01*
X152216841Y-75026275D02*
X151651155Y-74460590D01*
X151651155Y-74460590D02*
X151866655Y-74245090D01*
X151866655Y-74245090D02*
X151947467Y-74218153D01*
X151947467Y-74218153D02*
X152001342Y-74218153D01*
X152001342Y-74218153D02*
X152082154Y-74245090D01*
X152082154Y-74245090D02*
X152162966Y-74325903D01*
X152162966Y-74325903D02*
X152189903Y-74406715D01*
X152189903Y-74406715D02*
X152189903Y-74460590D01*
X152189903Y-74460590D02*
X152162966Y-74541402D01*
X152162966Y-74541402D02*
X151947467Y-74756901D01*
X153078838Y-74164278D02*
X152755589Y-74487527D01*
X152917213Y-74325903D02*
X152351528Y-73760217D01*
X152351528Y-73760217D02*
X152378465Y-73894904D01*
X152378465Y-73894904D02*
X152378465Y-74002654D01*
X152378465Y-74002654D02*
X152351528Y-74083466D01*
X152863339Y-73248406D02*
X152917213Y-73194532D01*
X152917213Y-73194532D02*
X152998026Y-73167594D01*
X152998026Y-73167594D02*
X153051900Y-73167594D01*
X153051900Y-73167594D02*
X153132713Y-73194532D01*
X153132713Y-73194532D02*
X153267400Y-73275344D01*
X153267400Y-73275344D02*
X153402087Y-73410031D01*
X153402087Y-73410031D02*
X153482899Y-73544718D01*
X153482899Y-73544718D02*
X153509836Y-73625530D01*
X153509836Y-73625530D02*
X153509836Y-73679405D01*
X153509836Y-73679405D02*
X153482899Y-73760217D01*
X153482899Y-73760217D02*
X153429024Y-73814092D01*
X153429024Y-73814092D02*
X153348212Y-73841029D01*
X153348212Y-73841029D02*
X153294337Y-73841029D01*
X153294337Y-73841029D02*
X153213525Y-73814092D01*
X153213525Y-73814092D02*
X153078838Y-73733280D01*
X153078838Y-73733280D02*
X152944151Y-73598593D01*
X152944151Y-73598593D02*
X152863339Y-73463906D01*
X152863339Y-73463906D02*
X152836401Y-73383093D01*
X152836401Y-73383093D02*
X152836401Y-73329219D01*
X152836401Y-73329219D02*
X152863339Y-73248406D01*
X151154719Y-95076901D02*
X151073906Y-95103838D01*
X151073906Y-95103838D02*
X150993094Y-95184651D01*
X150993094Y-95184651D02*
X150939219Y-95292400D01*
X150939219Y-95292400D02*
X150939219Y-95400150D01*
X150939219Y-95400150D02*
X150966157Y-95480962D01*
X150966157Y-95480962D02*
X151046969Y-95615649D01*
X151046969Y-95615649D02*
X151127781Y-95696461D01*
X151127781Y-95696461D02*
X151262468Y-95777274D01*
X151262468Y-95777274D02*
X151343281Y-95804211D01*
X151343281Y-95804211D02*
X151451030Y-95804211D01*
X151451030Y-95804211D02*
X151558780Y-95750336D01*
X151558780Y-95750336D02*
X151612655Y-95696461D01*
X151612655Y-95696461D02*
X151666529Y-95588712D01*
X151666529Y-95588712D02*
X151666529Y-95534837D01*
X151666529Y-95534837D02*
X151477968Y-95346275D01*
X151477968Y-95346275D02*
X151370218Y-95454025D01*
X151962841Y-95346275D02*
X151397155Y-94780590D01*
X151397155Y-94780590D02*
X151612655Y-94565090D01*
X151612655Y-94565090D02*
X151693467Y-94538153D01*
X151693467Y-94538153D02*
X151747342Y-94538153D01*
X151747342Y-94538153D02*
X151828154Y-94565090D01*
X151828154Y-94565090D02*
X151908966Y-94645903D01*
X151908966Y-94645903D02*
X151935903Y-94726715D01*
X151935903Y-94726715D02*
X151935903Y-94780590D01*
X151935903Y-94780590D02*
X151908966Y-94861402D01*
X151908966Y-94861402D02*
X151693467Y-95076901D01*
X152824838Y-94484278D02*
X152501589Y-94807527D01*
X152663213Y-94645903D02*
X152097528Y-94080217D01*
X152097528Y-94080217D02*
X152124465Y-94214904D01*
X152124465Y-94214904D02*
X152124465Y-94322654D01*
X152124465Y-94322654D02*
X152097528Y-94403466D01*
X152447714Y-93730031D02*
X152824838Y-93352907D01*
X152824838Y-93352907D02*
X153148087Y-94161029D01*
X151678093Y-46547527D02*
X151597281Y-46574464D01*
X151597281Y-46574464D02*
X151516469Y-46655276D01*
X151516469Y-46655276D02*
X151462594Y-46763026D01*
X151462594Y-46763026D02*
X151462594Y-46870775D01*
X151462594Y-46870775D02*
X151489531Y-46951588D01*
X151489531Y-46951588D02*
X151570344Y-47086275D01*
X151570344Y-47086275D02*
X151651156Y-47167087D01*
X151651156Y-47167087D02*
X151785843Y-47247899D01*
X151785843Y-47247899D02*
X151866655Y-47274836D01*
X151866655Y-47274836D02*
X151974405Y-47274836D01*
X151974405Y-47274836D02*
X152082154Y-47220962D01*
X152082154Y-47220962D02*
X152136029Y-47167087D01*
X152136029Y-47167087D02*
X152189904Y-47059337D01*
X152189904Y-47059337D02*
X152189904Y-47005462D01*
X152189904Y-47005462D02*
X152001342Y-46816901D01*
X152001342Y-46816901D02*
X151893592Y-46924650D01*
X152486215Y-46816901D02*
X151920530Y-46251215D01*
X151920530Y-46251215D02*
X152136029Y-46035716D01*
X152136029Y-46035716D02*
X152216841Y-46008779D01*
X152216841Y-46008779D02*
X152270716Y-46008779D01*
X152270716Y-46008779D02*
X152351528Y-46035716D01*
X152351528Y-46035716D02*
X152432340Y-46116528D01*
X152432340Y-46116528D02*
X152459278Y-46197340D01*
X152459278Y-46197340D02*
X152459278Y-46251215D01*
X152459278Y-46251215D02*
X152432340Y-46332027D01*
X152432340Y-46332027D02*
X152216841Y-46547527D01*
X152593965Y-45577780D02*
X152647840Y-45523905D01*
X152647840Y-45523905D02*
X152728652Y-45496968D01*
X152728652Y-45496968D02*
X152782527Y-45496968D01*
X152782527Y-45496968D02*
X152863339Y-45523905D01*
X152863339Y-45523905D02*
X152998026Y-45604718D01*
X152998026Y-45604718D02*
X153132713Y-45739405D01*
X153132713Y-45739405D02*
X153213525Y-45874092D01*
X153213525Y-45874092D02*
X153240462Y-45954904D01*
X153240462Y-45954904D02*
X153240462Y-46008779D01*
X153240462Y-46008779D02*
X153213525Y-46089591D01*
X153213525Y-46089591D02*
X153159650Y-46143466D01*
X153159650Y-46143466D02*
X153078838Y-46170403D01*
X153078838Y-46170403D02*
X153024963Y-46170403D01*
X153024963Y-46170403D02*
X152944151Y-46143466D01*
X152944151Y-46143466D02*
X152809464Y-46062653D01*
X152809464Y-46062653D02*
X152674777Y-45927966D01*
X152674777Y-45927966D02*
X152593965Y-45793279D01*
X152593965Y-45793279D02*
X152567027Y-45712467D01*
X152567027Y-45712467D02*
X152567027Y-45658592D01*
X152567027Y-45658592D02*
X152593965Y-45577780D01*
X177560719Y-84468901D02*
X177479906Y-84495838D01*
X177479906Y-84495838D02*
X177399094Y-84576651D01*
X177399094Y-84576651D02*
X177345219Y-84684400D01*
X177345219Y-84684400D02*
X177345219Y-84792150D01*
X177345219Y-84792150D02*
X177372157Y-84872962D01*
X177372157Y-84872962D02*
X177452969Y-85007649D01*
X177452969Y-85007649D02*
X177533781Y-85088461D01*
X177533781Y-85088461D02*
X177668468Y-85169274D01*
X177668468Y-85169274D02*
X177749281Y-85196211D01*
X177749281Y-85196211D02*
X177857030Y-85196211D01*
X177857030Y-85196211D02*
X177964780Y-85142336D01*
X177964780Y-85142336D02*
X178018655Y-85088461D01*
X178018655Y-85088461D02*
X178072529Y-84980712D01*
X178072529Y-84980712D02*
X178072529Y-84926837D01*
X178072529Y-84926837D02*
X177883968Y-84738275D01*
X177883968Y-84738275D02*
X177776218Y-84846025D01*
X178368841Y-84738275D02*
X177803155Y-84172590D01*
X177803155Y-84172590D02*
X178018655Y-83957090D01*
X178018655Y-83957090D02*
X178099467Y-83930153D01*
X178099467Y-83930153D02*
X178153342Y-83930153D01*
X178153342Y-83930153D02*
X178234154Y-83957090D01*
X178234154Y-83957090D02*
X178314966Y-84037903D01*
X178314966Y-84037903D02*
X178341903Y-84118715D01*
X178341903Y-84118715D02*
X178341903Y-84172590D01*
X178341903Y-84172590D02*
X178314966Y-84253402D01*
X178314966Y-84253402D02*
X178099467Y-84468901D01*
X178395778Y-83687716D02*
X178395778Y-83633842D01*
X178395778Y-83633842D02*
X178422716Y-83553029D01*
X178422716Y-83553029D02*
X178557403Y-83418342D01*
X178557403Y-83418342D02*
X178638215Y-83391405D01*
X178638215Y-83391405D02*
X178692090Y-83391405D01*
X178692090Y-83391405D02*
X178772902Y-83418342D01*
X178772902Y-83418342D02*
X178826777Y-83472217D01*
X178826777Y-83472217D02*
X178880651Y-83579967D01*
X178880651Y-83579967D02*
X178880651Y-84226464D01*
X178880651Y-84226464D02*
X179230838Y-83876278D01*
X178934526Y-83148968D02*
X178934526Y-83095093D01*
X178934526Y-83095093D02*
X178961464Y-83014281D01*
X178961464Y-83014281D02*
X179096151Y-82879594D01*
X179096151Y-82879594D02*
X179176963Y-82852657D01*
X179176963Y-82852657D02*
X179230838Y-82852657D01*
X179230838Y-82852657D02*
X179311650Y-82879594D01*
X179311650Y-82879594D02*
X179365525Y-82933469D01*
X179365525Y-82933469D02*
X179419400Y-83041219D01*
X179419400Y-83041219D02*
X179419400Y-83687716D01*
X179419400Y-83687716D02*
X179769586Y-83337530D01*
X177560719Y-92088901D02*
X177479906Y-92115838D01*
X177479906Y-92115838D02*
X177399094Y-92196651D01*
X177399094Y-92196651D02*
X177345219Y-92304400D01*
X177345219Y-92304400D02*
X177345219Y-92412150D01*
X177345219Y-92412150D02*
X177372157Y-92492962D01*
X177372157Y-92492962D02*
X177452969Y-92627649D01*
X177452969Y-92627649D02*
X177533781Y-92708461D01*
X177533781Y-92708461D02*
X177668468Y-92789274D01*
X177668468Y-92789274D02*
X177749281Y-92816211D01*
X177749281Y-92816211D02*
X177857030Y-92816211D01*
X177857030Y-92816211D02*
X177964780Y-92762336D01*
X177964780Y-92762336D02*
X178018655Y-92708461D01*
X178018655Y-92708461D02*
X178072529Y-92600712D01*
X178072529Y-92600712D02*
X178072529Y-92546837D01*
X178072529Y-92546837D02*
X177883968Y-92358275D01*
X177883968Y-92358275D02*
X177776218Y-92466025D01*
X178368841Y-92358275D02*
X177803155Y-91792590D01*
X177803155Y-91792590D02*
X178018655Y-91577090D01*
X178018655Y-91577090D02*
X178099467Y-91550153D01*
X178099467Y-91550153D02*
X178153342Y-91550153D01*
X178153342Y-91550153D02*
X178234154Y-91577090D01*
X178234154Y-91577090D02*
X178314966Y-91657903D01*
X178314966Y-91657903D02*
X178341903Y-91738715D01*
X178341903Y-91738715D02*
X178341903Y-91792590D01*
X178341903Y-91792590D02*
X178314966Y-91873402D01*
X178314966Y-91873402D02*
X178099467Y-92088901D01*
X179230838Y-91496278D02*
X178907589Y-91819527D01*
X179069213Y-91657903D02*
X178503528Y-91092217D01*
X178503528Y-91092217D02*
X178530465Y-91226904D01*
X178530465Y-91226904D02*
X178530465Y-91334654D01*
X178530465Y-91334654D02*
X178503528Y-91415466D01*
X179500212Y-91226904D02*
X179607961Y-91119154D01*
X179607961Y-91119154D02*
X179634899Y-91038342D01*
X179634899Y-91038342D02*
X179634899Y-90984467D01*
X179634899Y-90984467D02*
X179607961Y-90849780D01*
X179607961Y-90849780D02*
X179527149Y-90715093D01*
X179527149Y-90715093D02*
X179311650Y-90499594D01*
X179311650Y-90499594D02*
X179230838Y-90472657D01*
X179230838Y-90472657D02*
X179176963Y-90472657D01*
X179176963Y-90472657D02*
X179096151Y-90499594D01*
X179096151Y-90499594D02*
X178988401Y-90607344D01*
X178988401Y-90607344D02*
X178961464Y-90688156D01*
X178961464Y-90688156D02*
X178961464Y-90742031D01*
X178961464Y-90742031D02*
X178988401Y-90822843D01*
X178988401Y-90822843D02*
X179123088Y-90957530D01*
X179123088Y-90957530D02*
X179203900Y-90984467D01*
X179203900Y-90984467D02*
X179257775Y-90984467D01*
X179257775Y-90984467D02*
X179338587Y-90957530D01*
X179338587Y-90957530D02*
X179446337Y-90849780D01*
X179446337Y-90849780D02*
X179473274Y-90768968D01*
X179473274Y-90768968D02*
X179473274Y-90715093D01*
X179473274Y-90715093D02*
X179446337Y-90634281D01*
X151678093Y-56707527D02*
X151597281Y-56734464D01*
X151597281Y-56734464D02*
X151516469Y-56815276D01*
X151516469Y-56815276D02*
X151462594Y-56923026D01*
X151462594Y-56923026D02*
X151462594Y-57030775D01*
X151462594Y-57030775D02*
X151489531Y-57111588D01*
X151489531Y-57111588D02*
X151570344Y-57246275D01*
X151570344Y-57246275D02*
X151651156Y-57327087D01*
X151651156Y-57327087D02*
X151785843Y-57407899D01*
X151785843Y-57407899D02*
X151866655Y-57434836D01*
X151866655Y-57434836D02*
X151974405Y-57434836D01*
X151974405Y-57434836D02*
X152082154Y-57380962D01*
X152082154Y-57380962D02*
X152136029Y-57327087D01*
X152136029Y-57327087D02*
X152189904Y-57219337D01*
X152189904Y-57219337D02*
X152189904Y-57165462D01*
X152189904Y-57165462D02*
X152001342Y-56976901D01*
X152001342Y-56976901D02*
X151893592Y-57084650D01*
X152486215Y-56976901D02*
X151920530Y-56411215D01*
X151920530Y-56411215D02*
X152136029Y-56195716D01*
X152136029Y-56195716D02*
X152216841Y-56168779D01*
X152216841Y-56168779D02*
X152270716Y-56168779D01*
X152270716Y-56168779D02*
X152351528Y-56195716D01*
X152351528Y-56195716D02*
X152432340Y-56276528D01*
X152432340Y-56276528D02*
X152459278Y-56357340D01*
X152459278Y-56357340D02*
X152459278Y-56411215D01*
X152459278Y-56411215D02*
X152432340Y-56492027D01*
X152432340Y-56492027D02*
X152216841Y-56707527D01*
X152917214Y-55791655D02*
X153294337Y-56168779D01*
X152567027Y-55710843D02*
X152836401Y-56249591D01*
X152836401Y-56249591D02*
X153186588Y-55899405D01*
X177560719Y-64148901D02*
X177479906Y-64175838D01*
X177479906Y-64175838D02*
X177399094Y-64256651D01*
X177399094Y-64256651D02*
X177345219Y-64364400D01*
X177345219Y-64364400D02*
X177345219Y-64472150D01*
X177345219Y-64472150D02*
X177372157Y-64552962D01*
X177372157Y-64552962D02*
X177452969Y-64687649D01*
X177452969Y-64687649D02*
X177533781Y-64768461D01*
X177533781Y-64768461D02*
X177668468Y-64849274D01*
X177668468Y-64849274D02*
X177749281Y-64876211D01*
X177749281Y-64876211D02*
X177857030Y-64876211D01*
X177857030Y-64876211D02*
X177964780Y-64822336D01*
X177964780Y-64822336D02*
X178018655Y-64768461D01*
X178018655Y-64768461D02*
X178072529Y-64660712D01*
X178072529Y-64660712D02*
X178072529Y-64606837D01*
X178072529Y-64606837D02*
X177883968Y-64418275D01*
X177883968Y-64418275D02*
X177776218Y-64526025D01*
X178368841Y-64418275D02*
X177803155Y-63852590D01*
X177803155Y-63852590D02*
X178018655Y-63637090D01*
X178018655Y-63637090D02*
X178099467Y-63610153D01*
X178099467Y-63610153D02*
X178153342Y-63610153D01*
X178153342Y-63610153D02*
X178234154Y-63637090D01*
X178234154Y-63637090D02*
X178314966Y-63717903D01*
X178314966Y-63717903D02*
X178341903Y-63798715D01*
X178341903Y-63798715D02*
X178341903Y-63852590D01*
X178341903Y-63852590D02*
X178314966Y-63933402D01*
X178314966Y-63933402D02*
X178099467Y-64148901D01*
X178395778Y-63367716D02*
X178395778Y-63313842D01*
X178395778Y-63313842D02*
X178422716Y-63233029D01*
X178422716Y-63233029D02*
X178557403Y-63098342D01*
X178557403Y-63098342D02*
X178638215Y-63071405D01*
X178638215Y-63071405D02*
X178692090Y-63071405D01*
X178692090Y-63071405D02*
X178772902Y-63098342D01*
X178772902Y-63098342D02*
X178826777Y-63152217D01*
X178826777Y-63152217D02*
X178880651Y-63259967D01*
X178880651Y-63259967D02*
X178880651Y-63906464D01*
X178880651Y-63906464D02*
X179230838Y-63556278D01*
X179500212Y-63286904D02*
X179607961Y-63179154D01*
X179607961Y-63179154D02*
X179634899Y-63098342D01*
X179634899Y-63098342D02*
X179634899Y-63044467D01*
X179634899Y-63044467D02*
X179607961Y-62909780D01*
X179607961Y-62909780D02*
X179527149Y-62775093D01*
X179527149Y-62775093D02*
X179311650Y-62559594D01*
X179311650Y-62559594D02*
X179230838Y-62532657D01*
X179230838Y-62532657D02*
X179176963Y-62532657D01*
X179176963Y-62532657D02*
X179096151Y-62559594D01*
X179096151Y-62559594D02*
X178988401Y-62667344D01*
X178988401Y-62667344D02*
X178961464Y-62748156D01*
X178961464Y-62748156D02*
X178961464Y-62802031D01*
X178961464Y-62802031D02*
X178988401Y-62882843D01*
X178988401Y-62882843D02*
X179123088Y-63017530D01*
X179123088Y-63017530D02*
X179203900Y-63044467D01*
X179203900Y-63044467D02*
X179257775Y-63044467D01*
X179257775Y-63044467D02*
X179338587Y-63017530D01*
X179338587Y-63017530D02*
X179446337Y-62909780D01*
X179446337Y-62909780D02*
X179473274Y-62828968D01*
X179473274Y-62828968D02*
X179473274Y-62775093D01*
X179473274Y-62775093D02*
X179446337Y-62694281D01*
X177208627Y-47175118D02*
X177962875Y-47552241D01*
X177962875Y-47552241D02*
X177585751Y-46797994D01*
X178232248Y-46690245D02*
X178339998Y-46636370D01*
X178339998Y-46636370D02*
X178393873Y-46636370D01*
X178393873Y-46636370D02*
X178474685Y-46663307D01*
X178474685Y-46663307D02*
X178555497Y-46744119D01*
X178555497Y-46744119D02*
X178582435Y-46824932D01*
X178582435Y-46824932D02*
X178582435Y-46878806D01*
X178582435Y-46878806D02*
X178555497Y-46959619D01*
X178555497Y-46959619D02*
X178339998Y-47175118D01*
X178339998Y-47175118D02*
X177774313Y-46609432D01*
X177774313Y-46609432D02*
X177962874Y-46420871D01*
X177962874Y-46420871D02*
X178043687Y-46393933D01*
X178043687Y-46393933D02*
X178097561Y-46393933D01*
X178097561Y-46393933D02*
X178178374Y-46420871D01*
X178178374Y-46420871D02*
X178232248Y-46474745D01*
X178232248Y-46474745D02*
X178259186Y-46555558D01*
X178259186Y-46555558D02*
X178259186Y-46609432D01*
X178259186Y-46609432D02*
X178232248Y-46690245D01*
X178232248Y-46690245D02*
X178043687Y-46878806D01*
X178339998Y-46043747D02*
X178797934Y-46501683D01*
X178797934Y-46501683D02*
X178878746Y-46528620D01*
X178878746Y-46528620D02*
X178932621Y-46528620D01*
X178932621Y-46528620D02*
X179013433Y-46501683D01*
X179013433Y-46501683D02*
X179121183Y-46393933D01*
X179121183Y-46393933D02*
X179148120Y-46313121D01*
X179148120Y-46313121D02*
X179148120Y-46259246D01*
X179148120Y-46259246D02*
X179121183Y-46178434D01*
X179121183Y-46178434D02*
X178663247Y-45720498D01*
X179444431Y-46016810D02*
X179552181Y-45962935D01*
X179552181Y-45962935D02*
X179686868Y-45828248D01*
X179686868Y-45828248D02*
X179713805Y-45747436D01*
X179713805Y-45747436D02*
X179713805Y-45693561D01*
X179713805Y-45693561D02*
X179686868Y-45612749D01*
X179686868Y-45612749D02*
X179632993Y-45558874D01*
X179632993Y-45558874D02*
X179552181Y-45531937D01*
X179552181Y-45531937D02*
X179498306Y-45531937D01*
X179498306Y-45531937D02*
X179417494Y-45558874D01*
X179417494Y-45558874D02*
X179282807Y-45639686D01*
X179282807Y-45639686D02*
X179201995Y-45666624D01*
X179201995Y-45666624D02*
X179148120Y-45666624D01*
X179148120Y-45666624D02*
X179067308Y-45639686D01*
X179067308Y-45639686D02*
X179013433Y-45585811D01*
X179013433Y-45585811D02*
X178986495Y-45504999D01*
X178986495Y-45504999D02*
X178986495Y-45451124D01*
X178986495Y-45451124D02*
X179013433Y-45370312D01*
X179013433Y-45370312D02*
X179148120Y-45235625D01*
X179148120Y-45235625D02*
X179255869Y-45181750D01*
X179552181Y-44831564D02*
X179686868Y-44966251D01*
X179498306Y-45047063D02*
X179686868Y-44966251D01*
X179686868Y-44966251D02*
X179767680Y-44777689D01*
X179713805Y-45154813D02*
X179686868Y-44966251D01*
X179686868Y-44966251D02*
X179875430Y-44993188D01*
X151578093Y-54167527D02*
X151497281Y-54194464D01*
X151497281Y-54194464D02*
X151416469Y-54275276D01*
X151416469Y-54275276D02*
X151362594Y-54383026D01*
X151362594Y-54383026D02*
X151362594Y-54490775D01*
X151362594Y-54490775D02*
X151389531Y-54571588D01*
X151389531Y-54571588D02*
X151470344Y-54706275D01*
X151470344Y-54706275D02*
X151551156Y-54787087D01*
X151551156Y-54787087D02*
X151685843Y-54867899D01*
X151685843Y-54867899D02*
X151766655Y-54894836D01*
X151766655Y-54894836D02*
X151874405Y-54894836D01*
X151874405Y-54894836D02*
X151982154Y-54840962D01*
X151982154Y-54840962D02*
X152036029Y-54787087D01*
X152036029Y-54787087D02*
X152089904Y-54679337D01*
X152089904Y-54679337D02*
X152089904Y-54625462D01*
X152089904Y-54625462D02*
X151901342Y-54436901D01*
X151901342Y-54436901D02*
X151793592Y-54544650D01*
X152386215Y-54436901D02*
X151820530Y-53871215D01*
X151820530Y-53871215D02*
X152036029Y-53655716D01*
X152036029Y-53655716D02*
X152116841Y-53628779D01*
X152116841Y-53628779D02*
X152170716Y-53628779D01*
X152170716Y-53628779D02*
X152251528Y-53655716D01*
X152251528Y-53655716D02*
X152332340Y-53736528D01*
X152332340Y-53736528D02*
X152359278Y-53817340D01*
X152359278Y-53817340D02*
X152359278Y-53871215D01*
X152359278Y-53871215D02*
X152332340Y-53952027D01*
X152332340Y-53952027D02*
X152116841Y-54167527D01*
X152332340Y-53359405D02*
X152682527Y-53009218D01*
X152682527Y-53009218D02*
X152709464Y-53413279D01*
X152709464Y-53413279D02*
X152790276Y-53332467D01*
X152790276Y-53332467D02*
X152871088Y-53305530D01*
X152871088Y-53305530D02*
X152924963Y-53305530D01*
X152924963Y-53305530D02*
X153005775Y-53332467D01*
X153005775Y-53332467D02*
X153140462Y-53467154D01*
X153140462Y-53467154D02*
X153167400Y-53547966D01*
X153167400Y-53547966D02*
X153167400Y-53601841D01*
X153167400Y-53601841D02*
X153140462Y-53682653D01*
X153140462Y-53682653D02*
X152978838Y-53844278D01*
X152978838Y-53844278D02*
X152898026Y-53871215D01*
X152898026Y-53871215D02*
X152844151Y-53871215D01*
X177560719Y-79398901D02*
X177479906Y-79425838D01*
X177479906Y-79425838D02*
X177399094Y-79506651D01*
X177399094Y-79506651D02*
X177345219Y-79614400D01*
X177345219Y-79614400D02*
X177345219Y-79722150D01*
X177345219Y-79722150D02*
X177372157Y-79802962D01*
X177372157Y-79802962D02*
X177452969Y-79937649D01*
X177452969Y-79937649D02*
X177533781Y-80018461D01*
X177533781Y-80018461D02*
X177668468Y-80099274D01*
X177668468Y-80099274D02*
X177749281Y-80126211D01*
X177749281Y-80126211D02*
X177857030Y-80126211D01*
X177857030Y-80126211D02*
X177964780Y-80072336D01*
X177964780Y-80072336D02*
X178018655Y-80018461D01*
X178018655Y-80018461D02*
X178072529Y-79910712D01*
X178072529Y-79910712D02*
X178072529Y-79856837D01*
X178072529Y-79856837D02*
X177883968Y-79668275D01*
X177883968Y-79668275D02*
X177776218Y-79776025D01*
X178368841Y-79668275D02*
X177803155Y-79102590D01*
X177803155Y-79102590D02*
X178018655Y-78887090D01*
X178018655Y-78887090D02*
X178099467Y-78860153D01*
X178099467Y-78860153D02*
X178153342Y-78860153D01*
X178153342Y-78860153D02*
X178234154Y-78887090D01*
X178234154Y-78887090D02*
X178314966Y-78967903D01*
X178314966Y-78967903D02*
X178341903Y-79048715D01*
X178341903Y-79048715D02*
X178341903Y-79102590D01*
X178341903Y-79102590D02*
X178314966Y-79183402D01*
X178314966Y-79183402D02*
X178099467Y-79398901D01*
X178395778Y-78617716D02*
X178395778Y-78563842D01*
X178395778Y-78563842D02*
X178422716Y-78483029D01*
X178422716Y-78483029D02*
X178557403Y-78348342D01*
X178557403Y-78348342D02*
X178638215Y-78321405D01*
X178638215Y-78321405D02*
X178692090Y-78321405D01*
X178692090Y-78321405D02*
X178772902Y-78348342D01*
X178772902Y-78348342D02*
X178826777Y-78402217D01*
X178826777Y-78402217D02*
X178880651Y-78509967D01*
X178880651Y-78509967D02*
X178880651Y-79156464D01*
X178880651Y-79156464D02*
X179230838Y-78806278D01*
X179338587Y-77944281D02*
X179715711Y-78321405D01*
X178988401Y-77863469D02*
X179257775Y-78402217D01*
X179257775Y-78402217D02*
X179607961Y-78052031D01*
X177546719Y-76618901D02*
X177465906Y-76645838D01*
X177465906Y-76645838D02*
X177385094Y-76726651D01*
X177385094Y-76726651D02*
X177331219Y-76834400D01*
X177331219Y-76834400D02*
X177331219Y-76942150D01*
X177331219Y-76942150D02*
X177358157Y-77022962D01*
X177358157Y-77022962D02*
X177438969Y-77157649D01*
X177438969Y-77157649D02*
X177519781Y-77238461D01*
X177519781Y-77238461D02*
X177654468Y-77319274D01*
X177654468Y-77319274D02*
X177735281Y-77346211D01*
X177735281Y-77346211D02*
X177843030Y-77346211D01*
X177843030Y-77346211D02*
X177950780Y-77292336D01*
X177950780Y-77292336D02*
X178004655Y-77238461D01*
X178004655Y-77238461D02*
X178058529Y-77130712D01*
X178058529Y-77130712D02*
X178058529Y-77076837D01*
X178058529Y-77076837D02*
X177869968Y-76888275D01*
X177869968Y-76888275D02*
X177762218Y-76996025D01*
X178354841Y-76888275D02*
X177789155Y-76322590D01*
X177789155Y-76322590D02*
X178004655Y-76107090D01*
X178004655Y-76107090D02*
X178085467Y-76080153D01*
X178085467Y-76080153D02*
X178139342Y-76080153D01*
X178139342Y-76080153D02*
X178220154Y-76107090D01*
X178220154Y-76107090D02*
X178300966Y-76187903D01*
X178300966Y-76187903D02*
X178327903Y-76268715D01*
X178327903Y-76268715D02*
X178327903Y-76322590D01*
X178327903Y-76322590D02*
X178300966Y-76403402D01*
X178300966Y-76403402D02*
X178085467Y-76618901D01*
X178381778Y-75837716D02*
X178381778Y-75783842D01*
X178381778Y-75783842D02*
X178408716Y-75703029D01*
X178408716Y-75703029D02*
X178543403Y-75568342D01*
X178543403Y-75568342D02*
X178624215Y-75541405D01*
X178624215Y-75541405D02*
X178678090Y-75541405D01*
X178678090Y-75541405D02*
X178758902Y-75568342D01*
X178758902Y-75568342D02*
X178812777Y-75622217D01*
X178812777Y-75622217D02*
X178866651Y-75729967D01*
X178866651Y-75729967D02*
X178866651Y-76376464D01*
X178866651Y-76376464D02*
X179216838Y-76026278D01*
X179162963Y-74948782D02*
X178893589Y-75218156D01*
X178893589Y-75218156D02*
X179136026Y-75514467D01*
X179136026Y-75514467D02*
X179136026Y-75460593D01*
X179136026Y-75460593D02*
X179162963Y-75379780D01*
X179162963Y-75379780D02*
X179297650Y-75245093D01*
X179297650Y-75245093D02*
X179378462Y-75218156D01*
X179378462Y-75218156D02*
X179432337Y-75218156D01*
X179432337Y-75218156D02*
X179513149Y-75245093D01*
X179513149Y-75245093D02*
X179647836Y-75379780D01*
X179647836Y-75379780D02*
X179674774Y-75460593D01*
X179674774Y-75460593D02*
X179674774Y-75514467D01*
X179674774Y-75514467D02*
X179647836Y-75595280D01*
X179647836Y-75595280D02*
X179513149Y-75729967D01*
X179513149Y-75729967D02*
X179432337Y-75756904D01*
X179432337Y-75756904D02*
X179378462Y-75756904D01*
X177560719Y-69228901D02*
X177479906Y-69255838D01*
X177479906Y-69255838D02*
X177399094Y-69336651D01*
X177399094Y-69336651D02*
X177345219Y-69444400D01*
X177345219Y-69444400D02*
X177345219Y-69552150D01*
X177345219Y-69552150D02*
X177372157Y-69632962D01*
X177372157Y-69632962D02*
X177452969Y-69767649D01*
X177452969Y-69767649D02*
X177533781Y-69848461D01*
X177533781Y-69848461D02*
X177668468Y-69929274D01*
X177668468Y-69929274D02*
X177749281Y-69956211D01*
X177749281Y-69956211D02*
X177857030Y-69956211D01*
X177857030Y-69956211D02*
X177964780Y-69902336D01*
X177964780Y-69902336D02*
X178018655Y-69848461D01*
X178018655Y-69848461D02*
X178072529Y-69740712D01*
X178072529Y-69740712D02*
X178072529Y-69686837D01*
X178072529Y-69686837D02*
X177883968Y-69498275D01*
X177883968Y-69498275D02*
X177776218Y-69606025D01*
X178368841Y-69498275D02*
X177803155Y-68932590D01*
X177803155Y-68932590D02*
X178018655Y-68717090D01*
X178018655Y-68717090D02*
X178099467Y-68690153D01*
X178099467Y-68690153D02*
X178153342Y-68690153D01*
X178153342Y-68690153D02*
X178234154Y-68717090D01*
X178234154Y-68717090D02*
X178314966Y-68797903D01*
X178314966Y-68797903D02*
X178341903Y-68878715D01*
X178341903Y-68878715D02*
X178341903Y-68932590D01*
X178341903Y-68932590D02*
X178314966Y-69013402D01*
X178314966Y-69013402D02*
X178099467Y-69228901D01*
X178395778Y-68447716D02*
X178395778Y-68393842D01*
X178395778Y-68393842D02*
X178422716Y-68313029D01*
X178422716Y-68313029D02*
X178557403Y-68178342D01*
X178557403Y-68178342D02*
X178638215Y-68151405D01*
X178638215Y-68151405D02*
X178692090Y-68151405D01*
X178692090Y-68151405D02*
X178772902Y-68178342D01*
X178772902Y-68178342D02*
X178826777Y-68232217D01*
X178826777Y-68232217D02*
X178880651Y-68339967D01*
X178880651Y-68339967D02*
X178880651Y-68986464D01*
X178880651Y-68986464D02*
X179230838Y-68636278D01*
X178853714Y-67882031D02*
X179230838Y-67504907D01*
X179230838Y-67504907D02*
X179554087Y-68313029D01*
X121190319Y-96542603D02*
X121190319Y-97352126D01*
X121190319Y-97352126D02*
X121237938Y-97447364D01*
X121237938Y-97447364D02*
X121285557Y-97494984D01*
X121285557Y-97494984D02*
X121380795Y-97542603D01*
X121380795Y-97542603D02*
X121571271Y-97542603D01*
X121571271Y-97542603D02*
X121666509Y-97494984D01*
X121666509Y-97494984D02*
X121714128Y-97447364D01*
X121714128Y-97447364D02*
X121761747Y-97352126D01*
X121761747Y-97352126D02*
X121761747Y-96542603D01*
X122190319Y-96637841D02*
X122237938Y-96590222D01*
X122237938Y-96590222D02*
X122333176Y-96542603D01*
X122333176Y-96542603D02*
X122571271Y-96542603D01*
X122571271Y-96542603D02*
X122666509Y-96590222D01*
X122666509Y-96590222D02*
X122714128Y-96637841D01*
X122714128Y-96637841D02*
X122761747Y-96733079D01*
X122761747Y-96733079D02*
X122761747Y-96828317D01*
X122761747Y-96828317D02*
X122714128Y-96971174D01*
X122714128Y-96971174D02*
X122142700Y-97542603D01*
X122142700Y-97542603D02*
X122761747Y-97542603D01*
X128226496Y-49178275D02*
X128980743Y-49555399D01*
X128980743Y-49555399D02*
X128603620Y-48801151D01*
X129303992Y-49178275D02*
X129411742Y-49124400D01*
X129411742Y-49124400D02*
X129546429Y-48989713D01*
X129546429Y-48989713D02*
X129573366Y-48908901D01*
X129573366Y-48908901D02*
X129573366Y-48855026D01*
X129573366Y-48855026D02*
X129546429Y-48774214D01*
X129546429Y-48774214D02*
X129492554Y-48720339D01*
X129492554Y-48720339D02*
X129411742Y-48693402D01*
X129411742Y-48693402D02*
X129357867Y-48693402D01*
X129357867Y-48693402D02*
X129277055Y-48720339D01*
X129277055Y-48720339D02*
X129142368Y-48801151D01*
X129142368Y-48801151D02*
X129061555Y-48828089D01*
X129061555Y-48828089D02*
X129007681Y-48828089D01*
X129007681Y-48828089D02*
X128926868Y-48801151D01*
X128926868Y-48801151D02*
X128872994Y-48747277D01*
X128872994Y-48747277D02*
X128846056Y-48666464D01*
X128846056Y-48666464D02*
X128846056Y-48612590D01*
X128846056Y-48612590D02*
X128872994Y-48531777D01*
X128872994Y-48531777D02*
X129007681Y-48397090D01*
X129007681Y-48397090D02*
X129115430Y-48343216D01*
X129734991Y-48262403D02*
X130004365Y-48531777D01*
X129250117Y-48154654D02*
X129734991Y-48262403D01*
X129734991Y-48262403D02*
X129627241Y-47777530D01*
X130327613Y-48154654D02*
X130435363Y-48100779D01*
X130435363Y-48100779D02*
X130570050Y-47966092D01*
X130570050Y-47966092D02*
X130596987Y-47885280D01*
X130596987Y-47885280D02*
X130596987Y-47831405D01*
X130596987Y-47831405D02*
X130570050Y-47750593D01*
X130570050Y-47750593D02*
X130516175Y-47696718D01*
X130516175Y-47696718D02*
X130435363Y-47669781D01*
X130435363Y-47669781D02*
X130381488Y-47669781D01*
X130381488Y-47669781D02*
X130300676Y-47696718D01*
X130300676Y-47696718D02*
X130165989Y-47777530D01*
X130165989Y-47777530D02*
X130085177Y-47804468D01*
X130085177Y-47804468D02*
X130031302Y-47804468D01*
X130031302Y-47804468D02*
X129950490Y-47777530D01*
X129950490Y-47777530D02*
X129896615Y-47723655D01*
X129896615Y-47723655D02*
X129869677Y-47642843D01*
X129869677Y-47642843D02*
X129869677Y-47588968D01*
X129869677Y-47588968D02*
X129896615Y-47508156D01*
X129896615Y-47508156D02*
X130031302Y-47373469D01*
X130031302Y-47373469D02*
X130139051Y-47319594D01*
X128403745Y-84468901D02*
X128322932Y-84495838D01*
X128322932Y-84495838D02*
X128242120Y-84576651D01*
X128242120Y-84576651D02*
X128188245Y-84684400D01*
X128188245Y-84684400D02*
X128188245Y-84792150D01*
X128188245Y-84792150D02*
X128215183Y-84872962D01*
X128215183Y-84872962D02*
X128295995Y-85007649D01*
X128295995Y-85007649D02*
X128376807Y-85088461D01*
X128376807Y-85088461D02*
X128511494Y-85169274D01*
X128511494Y-85169274D02*
X128592307Y-85196211D01*
X128592307Y-85196211D02*
X128700056Y-85196211D01*
X128700056Y-85196211D02*
X128807806Y-85142336D01*
X128807806Y-85142336D02*
X128861681Y-85088461D01*
X128861681Y-85088461D02*
X128915555Y-84980712D01*
X128915555Y-84980712D02*
X128915555Y-84926837D01*
X128915555Y-84926837D02*
X128726994Y-84738275D01*
X128726994Y-84738275D02*
X128619244Y-84846025D01*
X129211867Y-84738275D02*
X128646181Y-84172590D01*
X128646181Y-84172590D02*
X128861681Y-83957090D01*
X128861681Y-83957090D02*
X128942493Y-83930153D01*
X128942493Y-83930153D02*
X128996368Y-83930153D01*
X128996368Y-83930153D02*
X129077180Y-83957090D01*
X129077180Y-83957090D02*
X129157992Y-84037903D01*
X129157992Y-84037903D02*
X129184929Y-84118715D01*
X129184929Y-84118715D02*
X129184929Y-84172590D01*
X129184929Y-84172590D02*
X129157992Y-84253402D01*
X129157992Y-84253402D02*
X128942493Y-84468901D01*
X129238804Y-83687716D02*
X129238804Y-83633842D01*
X129238804Y-83633842D02*
X129265742Y-83553029D01*
X129265742Y-83553029D02*
X129400429Y-83418342D01*
X129400429Y-83418342D02*
X129481241Y-83391405D01*
X129481241Y-83391405D02*
X129535116Y-83391405D01*
X129535116Y-83391405D02*
X129615928Y-83418342D01*
X129615928Y-83418342D02*
X129669803Y-83472217D01*
X129669803Y-83472217D02*
X129723677Y-83579967D01*
X129723677Y-83579967D02*
X129723677Y-84226464D01*
X129723677Y-84226464D02*
X130073864Y-83876278D01*
X129777552Y-83148968D02*
X129777552Y-83095093D01*
X129777552Y-83095093D02*
X129804490Y-83014281D01*
X129804490Y-83014281D02*
X129939177Y-82879594D01*
X129939177Y-82879594D02*
X130019989Y-82852657D01*
X130019989Y-82852657D02*
X130073864Y-82852657D01*
X130073864Y-82852657D02*
X130154676Y-82879594D01*
X130154676Y-82879594D02*
X130208551Y-82933469D01*
X130208551Y-82933469D02*
X130262426Y-83041219D01*
X130262426Y-83041219D02*
X130262426Y-83687716D01*
X130262426Y-83687716D02*
X130612612Y-83337530D01*
X102521119Y-71947527D02*
X102440307Y-71974464D01*
X102440307Y-71974464D02*
X102359495Y-72055276D01*
X102359495Y-72055276D02*
X102305620Y-72163026D01*
X102305620Y-72163026D02*
X102305620Y-72270775D01*
X102305620Y-72270775D02*
X102332557Y-72351588D01*
X102332557Y-72351588D02*
X102413370Y-72486275D01*
X102413370Y-72486275D02*
X102494182Y-72567087D01*
X102494182Y-72567087D02*
X102628869Y-72647899D01*
X102628869Y-72647899D02*
X102709681Y-72674836D01*
X102709681Y-72674836D02*
X102817431Y-72674836D01*
X102817431Y-72674836D02*
X102925180Y-72620962D01*
X102925180Y-72620962D02*
X102979055Y-72567087D01*
X102979055Y-72567087D02*
X103032930Y-72459337D01*
X103032930Y-72459337D02*
X103032930Y-72405462D01*
X103032930Y-72405462D02*
X102844368Y-72216901D01*
X102844368Y-72216901D02*
X102736618Y-72324650D01*
X103329241Y-72216901D02*
X102763556Y-71651215D01*
X102763556Y-71651215D02*
X102979055Y-71435716D01*
X102979055Y-71435716D02*
X103059867Y-71408779D01*
X103059867Y-71408779D02*
X103113742Y-71408779D01*
X103113742Y-71408779D02*
X103194554Y-71435716D01*
X103194554Y-71435716D02*
X103275366Y-71516528D01*
X103275366Y-71516528D02*
X103302304Y-71597340D01*
X103302304Y-71597340D02*
X103302304Y-71651215D01*
X103302304Y-71651215D02*
X103275366Y-71732027D01*
X103275366Y-71732027D02*
X103059867Y-71947527D01*
X103921864Y-71624278D02*
X104029614Y-71516528D01*
X104029614Y-71516528D02*
X104056551Y-71435716D01*
X104056551Y-71435716D02*
X104056551Y-71381841D01*
X104056551Y-71381841D02*
X104029614Y-71247154D01*
X104029614Y-71247154D02*
X103948801Y-71112467D01*
X103948801Y-71112467D02*
X103733302Y-70896968D01*
X103733302Y-70896968D02*
X103652490Y-70870031D01*
X103652490Y-70870031D02*
X103598615Y-70870031D01*
X103598615Y-70870031D02*
X103517803Y-70896968D01*
X103517803Y-70896968D02*
X103410053Y-71004718D01*
X103410053Y-71004718D02*
X103383116Y-71085530D01*
X103383116Y-71085530D02*
X103383116Y-71139405D01*
X103383116Y-71139405D02*
X103410053Y-71220217D01*
X103410053Y-71220217D02*
X103544740Y-71354904D01*
X103544740Y-71354904D02*
X103625553Y-71381841D01*
X103625553Y-71381841D02*
X103679427Y-71381841D01*
X103679427Y-71381841D02*
X103760240Y-71354904D01*
X103760240Y-71354904D02*
X103867989Y-71247154D01*
X103867989Y-71247154D02*
X103894927Y-71166342D01*
X103894927Y-71166342D02*
X103894927Y-71112467D01*
X103894927Y-71112467D02*
X103867989Y-71031655D01*
X128051653Y-47175118D02*
X128805901Y-47552241D01*
X128805901Y-47552241D02*
X128428777Y-46797994D01*
X129075274Y-46690245D02*
X129183024Y-46636370D01*
X129183024Y-46636370D02*
X129236899Y-46636370D01*
X129236899Y-46636370D02*
X129317711Y-46663307D01*
X129317711Y-46663307D02*
X129398523Y-46744119D01*
X129398523Y-46744119D02*
X129425461Y-46824932D01*
X129425461Y-46824932D02*
X129425461Y-46878806D01*
X129425461Y-46878806D02*
X129398523Y-46959619D01*
X129398523Y-46959619D02*
X129183024Y-47175118D01*
X129183024Y-47175118D02*
X128617339Y-46609432D01*
X128617339Y-46609432D02*
X128805900Y-46420871D01*
X128805900Y-46420871D02*
X128886713Y-46393933D01*
X128886713Y-46393933D02*
X128940587Y-46393933D01*
X128940587Y-46393933D02*
X129021400Y-46420871D01*
X129021400Y-46420871D02*
X129075274Y-46474745D01*
X129075274Y-46474745D02*
X129102212Y-46555558D01*
X129102212Y-46555558D02*
X129102212Y-46609432D01*
X129102212Y-46609432D02*
X129075274Y-46690245D01*
X129075274Y-46690245D02*
X128886713Y-46878806D01*
X129183024Y-46043747D02*
X129640960Y-46501683D01*
X129640960Y-46501683D02*
X129721772Y-46528620D01*
X129721772Y-46528620D02*
X129775647Y-46528620D01*
X129775647Y-46528620D02*
X129856459Y-46501683D01*
X129856459Y-46501683D02*
X129964209Y-46393933D01*
X129964209Y-46393933D02*
X129991146Y-46313121D01*
X129991146Y-46313121D02*
X129991146Y-46259246D01*
X129991146Y-46259246D02*
X129964209Y-46178434D01*
X129964209Y-46178434D02*
X129506273Y-45720498D01*
X130287457Y-46016810D02*
X130395207Y-45962935D01*
X130395207Y-45962935D02*
X130529894Y-45828248D01*
X130529894Y-45828248D02*
X130556831Y-45747436D01*
X130556831Y-45747436D02*
X130556831Y-45693561D01*
X130556831Y-45693561D02*
X130529894Y-45612749D01*
X130529894Y-45612749D02*
X130476019Y-45558874D01*
X130476019Y-45558874D02*
X130395207Y-45531937D01*
X130395207Y-45531937D02*
X130341332Y-45531937D01*
X130341332Y-45531937D02*
X130260520Y-45558874D01*
X130260520Y-45558874D02*
X130125833Y-45639686D01*
X130125833Y-45639686D02*
X130045021Y-45666624D01*
X130045021Y-45666624D02*
X129991146Y-45666624D01*
X129991146Y-45666624D02*
X129910334Y-45639686D01*
X129910334Y-45639686D02*
X129856459Y-45585811D01*
X129856459Y-45585811D02*
X129829521Y-45504999D01*
X129829521Y-45504999D02*
X129829521Y-45451124D01*
X129829521Y-45451124D02*
X129856459Y-45370312D01*
X129856459Y-45370312D02*
X129991146Y-45235625D01*
X129991146Y-45235625D02*
X130098895Y-45181750D01*
X130395207Y-44831564D02*
X130529894Y-44966251D01*
X130341332Y-45047063D02*
X130529894Y-44966251D01*
X130529894Y-44966251D02*
X130610706Y-44777689D01*
X130556831Y-45154813D02*
X130529894Y-44966251D01*
X130529894Y-44966251D02*
X130718456Y-44993188D01*
X101997745Y-87456901D02*
X101916932Y-87483838D01*
X101916932Y-87483838D02*
X101836120Y-87564651D01*
X101836120Y-87564651D02*
X101782245Y-87672400D01*
X101782245Y-87672400D02*
X101782245Y-87780150D01*
X101782245Y-87780150D02*
X101809183Y-87860962D01*
X101809183Y-87860962D02*
X101889995Y-87995649D01*
X101889995Y-87995649D02*
X101970807Y-88076461D01*
X101970807Y-88076461D02*
X102105494Y-88157274D01*
X102105494Y-88157274D02*
X102186307Y-88184211D01*
X102186307Y-88184211D02*
X102294056Y-88184211D01*
X102294056Y-88184211D02*
X102401806Y-88130336D01*
X102401806Y-88130336D02*
X102455681Y-88076461D01*
X102455681Y-88076461D02*
X102509555Y-87968712D01*
X102509555Y-87968712D02*
X102509555Y-87914837D01*
X102509555Y-87914837D02*
X102320994Y-87726275D01*
X102320994Y-87726275D02*
X102213244Y-87834025D01*
X102805867Y-87726275D02*
X102240181Y-87160590D01*
X102240181Y-87160590D02*
X102455681Y-86945090D01*
X102455681Y-86945090D02*
X102536493Y-86918153D01*
X102536493Y-86918153D02*
X102590368Y-86918153D01*
X102590368Y-86918153D02*
X102671180Y-86945090D01*
X102671180Y-86945090D02*
X102751992Y-87025903D01*
X102751992Y-87025903D02*
X102778929Y-87106715D01*
X102778929Y-87106715D02*
X102778929Y-87160590D01*
X102778929Y-87160590D02*
X102751992Y-87241402D01*
X102751992Y-87241402D02*
X102536493Y-87456901D01*
X103667864Y-86864278D02*
X103344615Y-87187527D01*
X103506239Y-87025903D02*
X102940554Y-86460217D01*
X102940554Y-86460217D02*
X102967491Y-86594904D01*
X102967491Y-86594904D02*
X102967491Y-86702654D01*
X102967491Y-86702654D02*
X102940554Y-86783466D01*
X103775613Y-86002281D02*
X104152737Y-86379405D01*
X103425427Y-85921469D02*
X103694801Y-86460217D01*
X103694801Y-86460217D02*
X104044987Y-86110031D01*
X128204848Y-56466151D02*
X128555034Y-56115965D01*
X128555034Y-56115965D02*
X128581971Y-56520026D01*
X128581971Y-56520026D02*
X128662784Y-56439214D01*
X128662784Y-56439214D02*
X128743596Y-56412276D01*
X128743596Y-56412276D02*
X128797471Y-56412276D01*
X128797471Y-56412276D02*
X128878283Y-56439214D01*
X128878283Y-56439214D02*
X129012970Y-56573901D01*
X129012970Y-56573901D02*
X129039907Y-56654713D01*
X129039907Y-56654713D02*
X129039907Y-56708588D01*
X129039907Y-56708588D02*
X129012970Y-56789400D01*
X129012970Y-56789400D02*
X128851345Y-56951024D01*
X128851345Y-56951024D02*
X128770533Y-56977962D01*
X128770533Y-56977962D02*
X128716658Y-56977962D01*
X128716659Y-55954340D02*
X129470906Y-56331464D01*
X129470906Y-56331464D02*
X129093782Y-55577217D01*
X129228469Y-55442530D02*
X129578655Y-55092344D01*
X129578655Y-55092344D02*
X129605593Y-55496405D01*
X129605593Y-55496405D02*
X129686405Y-55415593D01*
X129686405Y-55415593D02*
X129767217Y-55388655D01*
X129767217Y-55388655D02*
X129821092Y-55388655D01*
X129821092Y-55388655D02*
X129901904Y-55415593D01*
X129901904Y-55415593D02*
X130036591Y-55550280D01*
X130036591Y-55550280D02*
X130063528Y-55631092D01*
X130063528Y-55631092D02*
X130063528Y-55684967D01*
X130063528Y-55684967D02*
X130036591Y-55765779D01*
X130036591Y-55765779D02*
X129874967Y-55927403D01*
X129874967Y-55927403D02*
X129794154Y-55954341D01*
X129794154Y-55954341D02*
X129740280Y-55954341D01*
X129901904Y-54769095D02*
X130036591Y-54903782D01*
X129848029Y-54984594D02*
X130036591Y-54903782D01*
X130036591Y-54903782D02*
X130117403Y-54715220D01*
X130063529Y-55092344D02*
X130036591Y-54903782D01*
X130036591Y-54903782D02*
X130225153Y-54930719D01*
X102494182Y-59274464D02*
X102413370Y-59301401D01*
X102413370Y-59301401D02*
X102332558Y-59382213D01*
X102332558Y-59382213D02*
X102278683Y-59489963D01*
X102278683Y-59489963D02*
X102278683Y-59597713D01*
X102278683Y-59597713D02*
X102305620Y-59678525D01*
X102305620Y-59678525D02*
X102386432Y-59813212D01*
X102386432Y-59813212D02*
X102467245Y-59894024D01*
X102467245Y-59894024D02*
X102601932Y-59974836D01*
X102601932Y-59974836D02*
X102682744Y-60001774D01*
X102682744Y-60001774D02*
X102790493Y-60001774D01*
X102790493Y-60001774D02*
X102898243Y-59947899D01*
X102898243Y-59947899D02*
X102952118Y-59894024D01*
X102952118Y-59894024D02*
X103005993Y-59786274D01*
X103005993Y-59786274D02*
X103005993Y-59732400D01*
X103005993Y-59732400D02*
X102817431Y-59543838D01*
X102817431Y-59543838D02*
X102709681Y-59651587D01*
X103302304Y-59543838D02*
X102736619Y-58978152D01*
X102736619Y-58978152D02*
X103625553Y-59220589D01*
X103625553Y-59220589D02*
X103059867Y-58654904D01*
X103894927Y-58951215D02*
X103329241Y-58385530D01*
X103329241Y-58385530D02*
X103463928Y-58250843D01*
X103463928Y-58250843D02*
X103571678Y-58196968D01*
X103571678Y-58196968D02*
X103679427Y-58196968D01*
X103679427Y-58196968D02*
X103760240Y-58223905D01*
X103760240Y-58223905D02*
X103894927Y-58304718D01*
X103894927Y-58304718D02*
X103975739Y-58385530D01*
X103975739Y-58385530D02*
X104056551Y-58520217D01*
X104056551Y-58520217D02*
X104083488Y-58601029D01*
X104083488Y-58601029D02*
X104083488Y-58708779D01*
X104083488Y-58708779D02*
X104029614Y-58816528D01*
X104029614Y-58816528D02*
X103894927Y-58951215D01*
X128403745Y-92088901D02*
X128322932Y-92115838D01*
X128322932Y-92115838D02*
X128242120Y-92196651D01*
X128242120Y-92196651D02*
X128188245Y-92304400D01*
X128188245Y-92304400D02*
X128188245Y-92412150D01*
X128188245Y-92412150D02*
X128215183Y-92492962D01*
X128215183Y-92492962D02*
X128295995Y-92627649D01*
X128295995Y-92627649D02*
X128376807Y-92708461D01*
X128376807Y-92708461D02*
X128511494Y-92789274D01*
X128511494Y-92789274D02*
X128592307Y-92816211D01*
X128592307Y-92816211D02*
X128700056Y-92816211D01*
X128700056Y-92816211D02*
X128807806Y-92762336D01*
X128807806Y-92762336D02*
X128861681Y-92708461D01*
X128861681Y-92708461D02*
X128915555Y-92600712D01*
X128915555Y-92600712D02*
X128915555Y-92546837D01*
X128915555Y-92546837D02*
X128726994Y-92358275D01*
X128726994Y-92358275D02*
X128619244Y-92466025D01*
X129211867Y-92358275D02*
X128646181Y-91792590D01*
X128646181Y-91792590D02*
X128861681Y-91577090D01*
X128861681Y-91577090D02*
X128942493Y-91550153D01*
X128942493Y-91550153D02*
X128996368Y-91550153D01*
X128996368Y-91550153D02*
X129077180Y-91577090D01*
X129077180Y-91577090D02*
X129157992Y-91657903D01*
X129157992Y-91657903D02*
X129184929Y-91738715D01*
X129184929Y-91738715D02*
X129184929Y-91792590D01*
X129184929Y-91792590D02*
X129157992Y-91873402D01*
X129157992Y-91873402D02*
X128942493Y-92088901D01*
X130073864Y-91496278D02*
X129750615Y-91819527D01*
X129912239Y-91657903D02*
X129346554Y-91092217D01*
X129346554Y-91092217D02*
X129373491Y-91226904D01*
X129373491Y-91226904D02*
X129373491Y-91334654D01*
X129373491Y-91334654D02*
X129346554Y-91415466D01*
X130343238Y-91226904D02*
X130450987Y-91119154D01*
X130450987Y-91119154D02*
X130477925Y-91038342D01*
X130477925Y-91038342D02*
X130477925Y-90984467D01*
X130477925Y-90984467D02*
X130450987Y-90849780D01*
X130450987Y-90849780D02*
X130370175Y-90715093D01*
X130370175Y-90715093D02*
X130154676Y-90499594D01*
X130154676Y-90499594D02*
X130073864Y-90472657D01*
X130073864Y-90472657D02*
X130019989Y-90472657D01*
X130019989Y-90472657D02*
X129939177Y-90499594D01*
X129939177Y-90499594D02*
X129831427Y-90607344D01*
X129831427Y-90607344D02*
X129804490Y-90688156D01*
X129804490Y-90688156D02*
X129804490Y-90742031D01*
X129804490Y-90742031D02*
X129831427Y-90822843D01*
X129831427Y-90822843D02*
X129966114Y-90957530D01*
X129966114Y-90957530D02*
X130046926Y-90984467D01*
X130046926Y-90984467D02*
X130100801Y-90984467D01*
X130100801Y-90984467D02*
X130181613Y-90957530D01*
X130181613Y-90957530D02*
X130289363Y-90849780D01*
X130289363Y-90849780D02*
X130316300Y-90768968D01*
X130316300Y-90768968D02*
X130316300Y-90715093D01*
X130316300Y-90715093D02*
X130289363Y-90634281D01*
X128596659Y-58498215D02*
X128515847Y-58525152D01*
X128515847Y-58525152D02*
X128435035Y-58605964D01*
X128435035Y-58605964D02*
X128381160Y-58713714D01*
X128381160Y-58713714D02*
X128381160Y-58821464D01*
X128381160Y-58821464D02*
X128408097Y-58902276D01*
X128408097Y-58902276D02*
X128488909Y-59036963D01*
X128488909Y-59036963D02*
X128569722Y-59117775D01*
X128569722Y-59117775D02*
X128704409Y-59198587D01*
X128704409Y-59198587D02*
X128785221Y-59225525D01*
X128785221Y-59225525D02*
X128892970Y-59225525D01*
X128892970Y-59225525D02*
X129000720Y-59171650D01*
X129000720Y-59171650D02*
X129054595Y-59117775D01*
X129054595Y-59117775D02*
X129108470Y-59010025D01*
X129108470Y-59010025D02*
X129108470Y-58956151D01*
X129108470Y-58956151D02*
X128919908Y-58767589D01*
X128919908Y-58767589D02*
X128812158Y-58875338D01*
X129404781Y-58767589D02*
X128839096Y-58201903D01*
X128839096Y-58201903D02*
X129728030Y-58444340D01*
X129728030Y-58444340D02*
X129162344Y-57878655D01*
X129997404Y-58174966D02*
X129431718Y-57609281D01*
X129431718Y-57609281D02*
X129566405Y-57474594D01*
X129566405Y-57474594D02*
X129674155Y-57420719D01*
X129674155Y-57420719D02*
X129781904Y-57420719D01*
X129781904Y-57420719D02*
X129862717Y-57447656D01*
X129862717Y-57447656D02*
X129997404Y-57528469D01*
X129997404Y-57528469D02*
X130078216Y-57609281D01*
X130078216Y-57609281D02*
X130159028Y-57743968D01*
X130159028Y-57743968D02*
X130185965Y-57824780D01*
X130185965Y-57824780D02*
X130185965Y-57932530D01*
X130185965Y-57932530D02*
X130132091Y-58040279D01*
X130132091Y-58040279D02*
X129997404Y-58174966D01*
X101878683Y-82349963D02*
X101797870Y-82376901D01*
X101797870Y-82376901D02*
X101717058Y-82457713D01*
X101717058Y-82457713D02*
X101663183Y-82565462D01*
X101663183Y-82565462D02*
X101663183Y-82673212D01*
X101663183Y-82673212D02*
X101690121Y-82754024D01*
X101690121Y-82754024D02*
X101770933Y-82888711D01*
X101770933Y-82888711D02*
X101851745Y-82969523D01*
X101851745Y-82969523D02*
X101986432Y-83050336D01*
X101986432Y-83050336D02*
X102067244Y-83077273D01*
X102067244Y-83077273D02*
X102174994Y-83077273D01*
X102174994Y-83077273D02*
X102282744Y-83023398D01*
X102282744Y-83023398D02*
X102336618Y-82969523D01*
X102336618Y-82969523D02*
X102390493Y-82861774D01*
X102390493Y-82861774D02*
X102390493Y-82807899D01*
X102390493Y-82807899D02*
X102201931Y-82619337D01*
X102201931Y-82619337D02*
X102094182Y-82727087D01*
X102686805Y-82619337D02*
X102121119Y-82053652D01*
X102121119Y-82053652D02*
X103010053Y-82296088D01*
X103010053Y-82296088D02*
X102444368Y-81730403D01*
X103279427Y-82026715D02*
X102713742Y-81461029D01*
X102713742Y-81461029D02*
X102848429Y-81326342D01*
X102848429Y-81326342D02*
X102956179Y-81272467D01*
X102956179Y-81272467D02*
X103063928Y-81272467D01*
X103063928Y-81272467D02*
X103144740Y-81299405D01*
X103144740Y-81299405D02*
X103279427Y-81380217D01*
X103279427Y-81380217D02*
X103360240Y-81461029D01*
X103360240Y-81461029D02*
X103441052Y-81595716D01*
X103441052Y-81595716D02*
X103467989Y-81676528D01*
X103467989Y-81676528D02*
X103467989Y-81784278D01*
X103467989Y-81784278D02*
X103414114Y-81892028D01*
X103414114Y-81892028D02*
X103279427Y-82026715D01*
X103360240Y-80814531D02*
X103494927Y-80949218D01*
X103306365Y-81030031D02*
X103494927Y-80949218D01*
X103494927Y-80949218D02*
X103575739Y-80760657D01*
X103521864Y-81137780D02*
X103494927Y-80949218D01*
X103494927Y-80949218D02*
X103683488Y-80976156D01*
X102421119Y-54167527D02*
X102340307Y-54194464D01*
X102340307Y-54194464D02*
X102259495Y-54275276D01*
X102259495Y-54275276D02*
X102205620Y-54383026D01*
X102205620Y-54383026D02*
X102205620Y-54490775D01*
X102205620Y-54490775D02*
X102232557Y-54571588D01*
X102232557Y-54571588D02*
X102313370Y-54706275D01*
X102313370Y-54706275D02*
X102394182Y-54787087D01*
X102394182Y-54787087D02*
X102528869Y-54867899D01*
X102528869Y-54867899D02*
X102609681Y-54894836D01*
X102609681Y-54894836D02*
X102717431Y-54894836D01*
X102717431Y-54894836D02*
X102825180Y-54840962D01*
X102825180Y-54840962D02*
X102879055Y-54787087D01*
X102879055Y-54787087D02*
X102932930Y-54679337D01*
X102932930Y-54679337D02*
X102932930Y-54625462D01*
X102932930Y-54625462D02*
X102744368Y-54436901D01*
X102744368Y-54436901D02*
X102636618Y-54544650D01*
X103229241Y-54436901D02*
X102663556Y-53871215D01*
X102663556Y-53871215D02*
X102879055Y-53655716D01*
X102879055Y-53655716D02*
X102959867Y-53628779D01*
X102959867Y-53628779D02*
X103013742Y-53628779D01*
X103013742Y-53628779D02*
X103094554Y-53655716D01*
X103094554Y-53655716D02*
X103175366Y-53736528D01*
X103175366Y-53736528D02*
X103202304Y-53817340D01*
X103202304Y-53817340D02*
X103202304Y-53871215D01*
X103202304Y-53871215D02*
X103175366Y-53952027D01*
X103175366Y-53952027D02*
X102959867Y-54167527D01*
X103175366Y-53359405D02*
X103525553Y-53009218D01*
X103525553Y-53009218D02*
X103552490Y-53413279D01*
X103552490Y-53413279D02*
X103633302Y-53332467D01*
X103633302Y-53332467D02*
X103714114Y-53305530D01*
X103714114Y-53305530D02*
X103767989Y-53305530D01*
X103767989Y-53305530D02*
X103848801Y-53332467D01*
X103848801Y-53332467D02*
X103983488Y-53467154D01*
X103983488Y-53467154D02*
X104010426Y-53547966D01*
X104010426Y-53547966D02*
X104010426Y-53601841D01*
X104010426Y-53601841D02*
X103983488Y-53682653D01*
X103983488Y-53682653D02*
X103821864Y-53844278D01*
X103821864Y-53844278D02*
X103741052Y-53871215D01*
X103741052Y-53871215D02*
X103687177Y-53871215D01*
X102185596Y-64579278D02*
X102104784Y-64606215D01*
X102104784Y-64606215D02*
X102023972Y-64687027D01*
X102023972Y-64687027D02*
X101970097Y-64794777D01*
X101970097Y-64794777D02*
X101970097Y-64902526D01*
X101970097Y-64902526D02*
X101997034Y-64983339D01*
X101997034Y-64983339D02*
X102077847Y-65118026D01*
X102077847Y-65118026D02*
X102158659Y-65198838D01*
X102158659Y-65198838D02*
X102293346Y-65279650D01*
X102293346Y-65279650D02*
X102374158Y-65306587D01*
X102374158Y-65306587D02*
X102481908Y-65306587D01*
X102481908Y-65306587D02*
X102589657Y-65252713D01*
X102589657Y-65252713D02*
X102643532Y-65198838D01*
X102643532Y-65198838D02*
X102697407Y-65091088D01*
X102697407Y-65091088D02*
X102697407Y-65037213D01*
X102697407Y-65037213D02*
X102508845Y-64848652D01*
X102508845Y-64848652D02*
X102401095Y-64956401D01*
X102993718Y-64848652D02*
X102428033Y-64282966D01*
X102428033Y-64282966D02*
X102643532Y-64067467D01*
X102643532Y-64067467D02*
X102724344Y-64040530D01*
X102724344Y-64040530D02*
X102778219Y-64040530D01*
X102778219Y-64040530D02*
X102859031Y-64067467D01*
X102859031Y-64067467D02*
X102939843Y-64148279D01*
X102939843Y-64148279D02*
X102966781Y-64229091D01*
X102966781Y-64229091D02*
X102966781Y-64282966D01*
X102966781Y-64282966D02*
X102939843Y-64363778D01*
X102939843Y-64363778D02*
X102724344Y-64579278D01*
X103236155Y-63474844D02*
X103128405Y-63582594D01*
X103128405Y-63582594D02*
X103101468Y-63663406D01*
X103101468Y-63663406D02*
X103101468Y-63717281D01*
X103101468Y-63717281D02*
X103128405Y-63851968D01*
X103128405Y-63851968D02*
X103209217Y-63986655D01*
X103209217Y-63986655D02*
X103424717Y-64202154D01*
X103424717Y-64202154D02*
X103505529Y-64229091D01*
X103505529Y-64229091D02*
X103559404Y-64229091D01*
X103559404Y-64229091D02*
X103640216Y-64202154D01*
X103640216Y-64202154D02*
X103747965Y-64094404D01*
X103747965Y-64094404D02*
X103774903Y-64013592D01*
X103774903Y-64013592D02*
X103774903Y-63959717D01*
X103774903Y-63959717D02*
X103747965Y-63878905D01*
X103747965Y-63878905D02*
X103613278Y-63744218D01*
X103613278Y-63744218D02*
X103532466Y-63717281D01*
X103532466Y-63717281D02*
X103478591Y-63717281D01*
X103478591Y-63717281D02*
X103397779Y-63744218D01*
X103397779Y-63744218D02*
X103290030Y-63851968D01*
X103290030Y-63851968D02*
X103263092Y-63932780D01*
X103263092Y-63932780D02*
X103263092Y-63986655D01*
X103263092Y-63986655D02*
X103290030Y-64067467D01*
X102421119Y-49077527D02*
X102340307Y-49104464D01*
X102340307Y-49104464D02*
X102259495Y-49185276D01*
X102259495Y-49185276D02*
X102205620Y-49293026D01*
X102205620Y-49293026D02*
X102205620Y-49400775D01*
X102205620Y-49400775D02*
X102232557Y-49481588D01*
X102232557Y-49481588D02*
X102313370Y-49616275D01*
X102313370Y-49616275D02*
X102394182Y-49697087D01*
X102394182Y-49697087D02*
X102528869Y-49777899D01*
X102528869Y-49777899D02*
X102609681Y-49804836D01*
X102609681Y-49804836D02*
X102717431Y-49804836D01*
X102717431Y-49804836D02*
X102825180Y-49750962D01*
X102825180Y-49750962D02*
X102879055Y-49697087D01*
X102879055Y-49697087D02*
X102932930Y-49589337D01*
X102932930Y-49589337D02*
X102932930Y-49535462D01*
X102932930Y-49535462D02*
X102744368Y-49346901D01*
X102744368Y-49346901D02*
X102636618Y-49454650D01*
X103229241Y-49346901D02*
X102663556Y-48781215D01*
X102663556Y-48781215D02*
X102879055Y-48565716D01*
X102879055Y-48565716D02*
X102959867Y-48538779D01*
X102959867Y-48538779D02*
X103013742Y-48538779D01*
X103013742Y-48538779D02*
X103094554Y-48565716D01*
X103094554Y-48565716D02*
X103175366Y-48646528D01*
X103175366Y-48646528D02*
X103202304Y-48727340D01*
X103202304Y-48727340D02*
X103202304Y-48781215D01*
X103202304Y-48781215D02*
X103175366Y-48862027D01*
X103175366Y-48862027D02*
X102959867Y-49077527D01*
X104091238Y-48484904D02*
X103767989Y-48808153D01*
X103929614Y-48646528D02*
X103363928Y-48080843D01*
X103363928Y-48080843D02*
X103390866Y-48215530D01*
X103390866Y-48215530D02*
X103390866Y-48323279D01*
X103390866Y-48323279D02*
X103363928Y-48404092D01*
X128403745Y-94628901D02*
X128322932Y-94655838D01*
X128322932Y-94655838D02*
X128242120Y-94736651D01*
X128242120Y-94736651D02*
X128188245Y-94844400D01*
X128188245Y-94844400D02*
X128188245Y-94952150D01*
X128188245Y-94952150D02*
X128215183Y-95032962D01*
X128215183Y-95032962D02*
X128295995Y-95167649D01*
X128295995Y-95167649D02*
X128376807Y-95248461D01*
X128376807Y-95248461D02*
X128511494Y-95329274D01*
X128511494Y-95329274D02*
X128592307Y-95356211D01*
X128592307Y-95356211D02*
X128700056Y-95356211D01*
X128700056Y-95356211D02*
X128807806Y-95302336D01*
X128807806Y-95302336D02*
X128861681Y-95248461D01*
X128861681Y-95248461D02*
X128915555Y-95140712D01*
X128915555Y-95140712D02*
X128915555Y-95086837D01*
X128915555Y-95086837D02*
X128726994Y-94898275D01*
X128726994Y-94898275D02*
X128619244Y-95006025D01*
X129211867Y-94898275D02*
X128646181Y-94332590D01*
X128646181Y-94332590D02*
X128861681Y-94117090D01*
X128861681Y-94117090D02*
X128942493Y-94090153D01*
X128942493Y-94090153D02*
X128996368Y-94090153D01*
X128996368Y-94090153D02*
X129077180Y-94117090D01*
X129077180Y-94117090D02*
X129157992Y-94197903D01*
X129157992Y-94197903D02*
X129184929Y-94278715D01*
X129184929Y-94278715D02*
X129184929Y-94332590D01*
X129184929Y-94332590D02*
X129157992Y-94413402D01*
X129157992Y-94413402D02*
X128942493Y-94628901D01*
X130073864Y-94036278D02*
X129750615Y-94359527D01*
X129912239Y-94197903D02*
X129346554Y-93632217D01*
X129346554Y-93632217D02*
X129373491Y-93766904D01*
X129373491Y-93766904D02*
X129373491Y-93874654D01*
X129373491Y-93874654D02*
X129346554Y-93955466D01*
X130073864Y-93389780D02*
X129993052Y-93416718D01*
X129993052Y-93416718D02*
X129939177Y-93416718D01*
X129939177Y-93416718D02*
X129858365Y-93389780D01*
X129858365Y-93389780D02*
X129831427Y-93362843D01*
X129831427Y-93362843D02*
X129804490Y-93282031D01*
X129804490Y-93282031D02*
X129804490Y-93228156D01*
X129804490Y-93228156D02*
X129831427Y-93147344D01*
X129831427Y-93147344D02*
X129939177Y-93039594D01*
X129939177Y-93039594D02*
X130019989Y-93012657D01*
X130019989Y-93012657D02*
X130073864Y-93012657D01*
X130073864Y-93012657D02*
X130154676Y-93039594D01*
X130154676Y-93039594D02*
X130181613Y-93066532D01*
X130181613Y-93066532D02*
X130208551Y-93147344D01*
X130208551Y-93147344D02*
X130208551Y-93201219D01*
X130208551Y-93201219D02*
X130181613Y-93282031D01*
X130181613Y-93282031D02*
X130073864Y-93389780D01*
X130073864Y-93389780D02*
X130046926Y-93470593D01*
X130046926Y-93470593D02*
X130046926Y-93524467D01*
X130046926Y-93524467D02*
X130073864Y-93605280D01*
X130073864Y-93605280D02*
X130181613Y-93713029D01*
X130181613Y-93713029D02*
X130262426Y-93739967D01*
X130262426Y-93739967D02*
X130316300Y-93739967D01*
X130316300Y-93739967D02*
X130397113Y-93713029D01*
X130397113Y-93713029D02*
X130504862Y-93605280D01*
X130504862Y-93605280D02*
X130531800Y-93524467D01*
X130531800Y-93524467D02*
X130531800Y-93470593D01*
X130531800Y-93470593D02*
X130504862Y-93389780D01*
X130504862Y-93389780D02*
X130397113Y-93282031D01*
X130397113Y-93282031D02*
X130316300Y-93255093D01*
X130316300Y-93255093D02*
X130262426Y-93255093D01*
X130262426Y-93255093D02*
X130181613Y-93282031D01*
X102621119Y-69377527D02*
X102540307Y-69404464D01*
X102540307Y-69404464D02*
X102459495Y-69485276D01*
X102459495Y-69485276D02*
X102405620Y-69593026D01*
X102405620Y-69593026D02*
X102405620Y-69700775D01*
X102405620Y-69700775D02*
X102432557Y-69781588D01*
X102432557Y-69781588D02*
X102513370Y-69916275D01*
X102513370Y-69916275D02*
X102594182Y-69997087D01*
X102594182Y-69997087D02*
X102728869Y-70077899D01*
X102728869Y-70077899D02*
X102809681Y-70104836D01*
X102809681Y-70104836D02*
X102917431Y-70104836D01*
X102917431Y-70104836D02*
X103025180Y-70050962D01*
X103025180Y-70050962D02*
X103079055Y-69997087D01*
X103079055Y-69997087D02*
X103132930Y-69889337D01*
X103132930Y-69889337D02*
X103132930Y-69835462D01*
X103132930Y-69835462D02*
X102944368Y-69646901D01*
X102944368Y-69646901D02*
X102836618Y-69754650D01*
X103429241Y-69646901D02*
X102863556Y-69081215D01*
X102863556Y-69081215D02*
X103079055Y-68865716D01*
X103079055Y-68865716D02*
X103159867Y-68838779D01*
X103159867Y-68838779D02*
X103213742Y-68838779D01*
X103213742Y-68838779D02*
X103294554Y-68865716D01*
X103294554Y-68865716D02*
X103375366Y-68946528D01*
X103375366Y-68946528D02*
X103402304Y-69027340D01*
X103402304Y-69027340D02*
X103402304Y-69081215D01*
X103402304Y-69081215D02*
X103375366Y-69162027D01*
X103375366Y-69162027D02*
X103159867Y-69377527D01*
X103752490Y-68677154D02*
X103671678Y-68704092D01*
X103671678Y-68704092D02*
X103617803Y-68704092D01*
X103617803Y-68704092D02*
X103536991Y-68677154D01*
X103536991Y-68677154D02*
X103510053Y-68650217D01*
X103510053Y-68650217D02*
X103483116Y-68569405D01*
X103483116Y-68569405D02*
X103483116Y-68515530D01*
X103483116Y-68515530D02*
X103510053Y-68434718D01*
X103510053Y-68434718D02*
X103617803Y-68326968D01*
X103617803Y-68326968D02*
X103698615Y-68300031D01*
X103698615Y-68300031D02*
X103752490Y-68300031D01*
X103752490Y-68300031D02*
X103833302Y-68326968D01*
X103833302Y-68326968D02*
X103860240Y-68353905D01*
X103860240Y-68353905D02*
X103887177Y-68434718D01*
X103887177Y-68434718D02*
X103887177Y-68488592D01*
X103887177Y-68488592D02*
X103860240Y-68569405D01*
X103860240Y-68569405D02*
X103752490Y-68677154D01*
X103752490Y-68677154D02*
X103725553Y-68757966D01*
X103725553Y-68757966D02*
X103725553Y-68811841D01*
X103725553Y-68811841D02*
X103752490Y-68892653D01*
X103752490Y-68892653D02*
X103860240Y-69000403D01*
X103860240Y-69000403D02*
X103941052Y-69027340D01*
X103941052Y-69027340D02*
X103994927Y-69027340D01*
X103994927Y-69027340D02*
X104075739Y-69000403D01*
X104075739Y-69000403D02*
X104183488Y-68892653D01*
X104183488Y-68892653D02*
X104210426Y-68811841D01*
X104210426Y-68811841D02*
X104210426Y-68757966D01*
X104210426Y-68757966D02*
X104183488Y-68677154D01*
X104183488Y-68677154D02*
X104075739Y-68569405D01*
X104075739Y-68569405D02*
X103994927Y-68542467D01*
X103994927Y-68542467D02*
X103941052Y-68542467D01*
X103941052Y-68542467D02*
X103860240Y-68569405D01*
X128403745Y-81928901D02*
X128322932Y-81955838D01*
X128322932Y-81955838D02*
X128242120Y-82036651D01*
X128242120Y-82036651D02*
X128188245Y-82144400D01*
X128188245Y-82144400D02*
X128188245Y-82252150D01*
X128188245Y-82252150D02*
X128215183Y-82332962D01*
X128215183Y-82332962D02*
X128295995Y-82467649D01*
X128295995Y-82467649D02*
X128376807Y-82548461D01*
X128376807Y-82548461D02*
X128511494Y-82629274D01*
X128511494Y-82629274D02*
X128592307Y-82656211D01*
X128592307Y-82656211D02*
X128700056Y-82656211D01*
X128700056Y-82656211D02*
X128807806Y-82602336D01*
X128807806Y-82602336D02*
X128861681Y-82548461D01*
X128861681Y-82548461D02*
X128915555Y-82440712D01*
X128915555Y-82440712D02*
X128915555Y-82386837D01*
X128915555Y-82386837D02*
X128726994Y-82198275D01*
X128726994Y-82198275D02*
X128619244Y-82306025D01*
X129211867Y-82198275D02*
X128646181Y-81632590D01*
X128646181Y-81632590D02*
X128861681Y-81417090D01*
X128861681Y-81417090D02*
X128942493Y-81390153D01*
X128942493Y-81390153D02*
X128996368Y-81390153D01*
X128996368Y-81390153D02*
X129077180Y-81417090D01*
X129077180Y-81417090D02*
X129157992Y-81497903D01*
X129157992Y-81497903D02*
X129184929Y-81578715D01*
X129184929Y-81578715D02*
X129184929Y-81632590D01*
X129184929Y-81632590D02*
X129157992Y-81713402D01*
X129157992Y-81713402D02*
X128942493Y-81928901D01*
X129238804Y-81147716D02*
X129238804Y-81093842D01*
X129238804Y-81093842D02*
X129265742Y-81013029D01*
X129265742Y-81013029D02*
X129400429Y-80878342D01*
X129400429Y-80878342D02*
X129481241Y-80851405D01*
X129481241Y-80851405D02*
X129535116Y-80851405D01*
X129535116Y-80851405D02*
X129615928Y-80878342D01*
X129615928Y-80878342D02*
X129669803Y-80932217D01*
X129669803Y-80932217D02*
X129723677Y-81039967D01*
X129723677Y-81039967D02*
X129723677Y-81686464D01*
X129723677Y-81686464D02*
X130073864Y-81336278D01*
X129696740Y-80582031D02*
X130046926Y-80231845D01*
X130046926Y-80231845D02*
X130073864Y-80635906D01*
X130073864Y-80635906D02*
X130154676Y-80555093D01*
X130154676Y-80555093D02*
X130235488Y-80528156D01*
X130235488Y-80528156D02*
X130289363Y-80528156D01*
X130289363Y-80528156D02*
X130370175Y-80555093D01*
X130370175Y-80555093D02*
X130504862Y-80689780D01*
X130504862Y-80689780D02*
X130531800Y-80770593D01*
X130531800Y-80770593D02*
X130531800Y-80824467D01*
X130531800Y-80824467D02*
X130504862Y-80905280D01*
X130504862Y-80905280D02*
X130343238Y-81066904D01*
X130343238Y-81066904D02*
X130262426Y-81093841D01*
X130262426Y-81093841D02*
X130208551Y-81093841D01*
X128403745Y-87008901D02*
X128322932Y-87035838D01*
X128322932Y-87035838D02*
X128242120Y-87116651D01*
X128242120Y-87116651D02*
X128188245Y-87224400D01*
X128188245Y-87224400D02*
X128188245Y-87332150D01*
X128188245Y-87332150D02*
X128215183Y-87412962D01*
X128215183Y-87412962D02*
X128295995Y-87547649D01*
X128295995Y-87547649D02*
X128376807Y-87628461D01*
X128376807Y-87628461D02*
X128511494Y-87709274D01*
X128511494Y-87709274D02*
X128592307Y-87736211D01*
X128592307Y-87736211D02*
X128700056Y-87736211D01*
X128700056Y-87736211D02*
X128807806Y-87682336D01*
X128807806Y-87682336D02*
X128861681Y-87628461D01*
X128861681Y-87628461D02*
X128915555Y-87520712D01*
X128915555Y-87520712D02*
X128915555Y-87466837D01*
X128915555Y-87466837D02*
X128726994Y-87278275D01*
X128726994Y-87278275D02*
X128619244Y-87386025D01*
X129211867Y-87278275D02*
X128646181Y-86712590D01*
X128646181Y-86712590D02*
X128861681Y-86497090D01*
X128861681Y-86497090D02*
X128942493Y-86470153D01*
X128942493Y-86470153D02*
X128996368Y-86470153D01*
X128996368Y-86470153D02*
X129077180Y-86497090D01*
X129077180Y-86497090D02*
X129157992Y-86577903D01*
X129157992Y-86577903D02*
X129184929Y-86658715D01*
X129184929Y-86658715D02*
X129184929Y-86712590D01*
X129184929Y-86712590D02*
X129157992Y-86793402D01*
X129157992Y-86793402D02*
X128942493Y-87008901D01*
X129238804Y-86227716D02*
X129238804Y-86173842D01*
X129238804Y-86173842D02*
X129265742Y-86093029D01*
X129265742Y-86093029D02*
X129400429Y-85958342D01*
X129400429Y-85958342D02*
X129481241Y-85931405D01*
X129481241Y-85931405D02*
X129535116Y-85931405D01*
X129535116Y-85931405D02*
X129615928Y-85958342D01*
X129615928Y-85958342D02*
X129669803Y-86012217D01*
X129669803Y-86012217D02*
X129723677Y-86119967D01*
X129723677Y-86119967D02*
X129723677Y-86766464D01*
X129723677Y-86766464D02*
X130073864Y-86416278D01*
X130612612Y-85877530D02*
X130289363Y-86200779D01*
X130450987Y-86039154D02*
X129885302Y-85473469D01*
X129885302Y-85473469D02*
X129912239Y-85608156D01*
X129912239Y-85608156D02*
X129912239Y-85715906D01*
X129912239Y-85715906D02*
X129885302Y-85796718D01*
X101997745Y-79836901D02*
X101916932Y-79863838D01*
X101916932Y-79863838D02*
X101836120Y-79944651D01*
X101836120Y-79944651D02*
X101782245Y-80052400D01*
X101782245Y-80052400D02*
X101782245Y-80160150D01*
X101782245Y-80160150D02*
X101809183Y-80240962D01*
X101809183Y-80240962D02*
X101889995Y-80375649D01*
X101889995Y-80375649D02*
X101970807Y-80456461D01*
X101970807Y-80456461D02*
X102105494Y-80537274D01*
X102105494Y-80537274D02*
X102186307Y-80564211D01*
X102186307Y-80564211D02*
X102294056Y-80564211D01*
X102294056Y-80564211D02*
X102401806Y-80510336D01*
X102401806Y-80510336D02*
X102455681Y-80456461D01*
X102455681Y-80456461D02*
X102509555Y-80348712D01*
X102509555Y-80348712D02*
X102509555Y-80294837D01*
X102509555Y-80294837D02*
X102320994Y-80106275D01*
X102320994Y-80106275D02*
X102213244Y-80214025D01*
X102805867Y-80106275D02*
X102240181Y-79540590D01*
X102240181Y-79540590D02*
X102455681Y-79325090D01*
X102455681Y-79325090D02*
X102536493Y-79298153D01*
X102536493Y-79298153D02*
X102590368Y-79298153D01*
X102590368Y-79298153D02*
X102671180Y-79325090D01*
X102671180Y-79325090D02*
X102751992Y-79405903D01*
X102751992Y-79405903D02*
X102778929Y-79486715D01*
X102778929Y-79486715D02*
X102778929Y-79540590D01*
X102778929Y-79540590D02*
X102751992Y-79621402D01*
X102751992Y-79621402D02*
X102536493Y-79836901D01*
X103667864Y-79244278D02*
X103344615Y-79567527D01*
X103506239Y-79405903D02*
X102940554Y-78840217D01*
X102940554Y-78840217D02*
X102967491Y-78974904D01*
X102967491Y-78974904D02*
X102967491Y-79082654D01*
X102967491Y-79082654D02*
X102940554Y-79163466D01*
X103371552Y-78516968D02*
X103371552Y-78463093D01*
X103371552Y-78463093D02*
X103398490Y-78382281D01*
X103398490Y-78382281D02*
X103533177Y-78247594D01*
X103533177Y-78247594D02*
X103613989Y-78220657D01*
X103613989Y-78220657D02*
X103667864Y-78220657D01*
X103667864Y-78220657D02*
X103748676Y-78247594D01*
X103748676Y-78247594D02*
X103802551Y-78301469D01*
X103802551Y-78301469D02*
X103856426Y-78409219D01*
X103856426Y-78409219D02*
X103856426Y-79055716D01*
X103856426Y-79055716D02*
X104206612Y-78705530D01*
X102521119Y-61787527D02*
X102440307Y-61814464D01*
X102440307Y-61814464D02*
X102359495Y-61895276D01*
X102359495Y-61895276D02*
X102305620Y-62003026D01*
X102305620Y-62003026D02*
X102305620Y-62110775D01*
X102305620Y-62110775D02*
X102332557Y-62191588D01*
X102332557Y-62191588D02*
X102413370Y-62326275D01*
X102413370Y-62326275D02*
X102494182Y-62407087D01*
X102494182Y-62407087D02*
X102628869Y-62487899D01*
X102628869Y-62487899D02*
X102709681Y-62514836D01*
X102709681Y-62514836D02*
X102817431Y-62514836D01*
X102817431Y-62514836D02*
X102925180Y-62460962D01*
X102925180Y-62460962D02*
X102979055Y-62407087D01*
X102979055Y-62407087D02*
X103032930Y-62299337D01*
X103032930Y-62299337D02*
X103032930Y-62245462D01*
X103032930Y-62245462D02*
X102844368Y-62056901D01*
X102844368Y-62056901D02*
X102736618Y-62164650D01*
X103329241Y-62056901D02*
X102763556Y-61491215D01*
X102763556Y-61491215D02*
X102979055Y-61275716D01*
X102979055Y-61275716D02*
X103059867Y-61248779D01*
X103059867Y-61248779D02*
X103113742Y-61248779D01*
X103113742Y-61248779D02*
X103194554Y-61275716D01*
X103194554Y-61275716D02*
X103275366Y-61356528D01*
X103275366Y-61356528D02*
X103302304Y-61437340D01*
X103302304Y-61437340D02*
X103302304Y-61491215D01*
X103302304Y-61491215D02*
X103275366Y-61572027D01*
X103275366Y-61572027D02*
X103059867Y-61787527D01*
X103598615Y-60656156D02*
X103329241Y-60925530D01*
X103329241Y-60925530D02*
X103571678Y-61221841D01*
X103571678Y-61221841D02*
X103571678Y-61167966D01*
X103571678Y-61167966D02*
X103598615Y-61087154D01*
X103598615Y-61087154D02*
X103733302Y-60952467D01*
X103733302Y-60952467D02*
X103814114Y-60925530D01*
X103814114Y-60925530D02*
X103867989Y-60925530D01*
X103867989Y-60925530D02*
X103948801Y-60952467D01*
X103948801Y-60952467D02*
X104083488Y-61087154D01*
X104083488Y-61087154D02*
X104110426Y-61167966D01*
X104110426Y-61167966D02*
X104110426Y-61221841D01*
X104110426Y-61221841D02*
X104083488Y-61302653D01*
X104083488Y-61302653D02*
X103948801Y-61437340D01*
X103948801Y-61437340D02*
X103867989Y-61464278D01*
X103867989Y-61464278D02*
X103814114Y-61464278D01*
X101851745Y-84916901D02*
X101770932Y-84943838D01*
X101770932Y-84943838D02*
X101690120Y-85024651D01*
X101690120Y-85024651D02*
X101636245Y-85132400D01*
X101636245Y-85132400D02*
X101636245Y-85240150D01*
X101636245Y-85240150D02*
X101663183Y-85320962D01*
X101663183Y-85320962D02*
X101743995Y-85455649D01*
X101743995Y-85455649D02*
X101824807Y-85536461D01*
X101824807Y-85536461D02*
X101959494Y-85617274D01*
X101959494Y-85617274D02*
X102040307Y-85644211D01*
X102040307Y-85644211D02*
X102148056Y-85644211D01*
X102148056Y-85644211D02*
X102255806Y-85590336D01*
X102255806Y-85590336D02*
X102309681Y-85536461D01*
X102309681Y-85536461D02*
X102363555Y-85428712D01*
X102363555Y-85428712D02*
X102363555Y-85374837D01*
X102363555Y-85374837D02*
X102174994Y-85186275D01*
X102174994Y-85186275D02*
X102067244Y-85294025D01*
X102659867Y-85186275D02*
X102094181Y-84620590D01*
X102094181Y-84620590D02*
X102309681Y-84405090D01*
X102309681Y-84405090D02*
X102390493Y-84378153D01*
X102390493Y-84378153D02*
X102444368Y-84378153D01*
X102444368Y-84378153D02*
X102525180Y-84405090D01*
X102525180Y-84405090D02*
X102605992Y-84485903D01*
X102605992Y-84485903D02*
X102632929Y-84566715D01*
X102632929Y-84566715D02*
X102632929Y-84620590D01*
X102632929Y-84620590D02*
X102605992Y-84701402D01*
X102605992Y-84701402D02*
X102390493Y-84916901D01*
X103521864Y-84324278D02*
X103198615Y-84647527D01*
X103360239Y-84485903D02*
X102794554Y-83920217D01*
X102794554Y-83920217D02*
X102821491Y-84054904D01*
X102821491Y-84054904D02*
X102821491Y-84162654D01*
X102821491Y-84162654D02*
X102794554Y-84243466D01*
X103144740Y-83570031D02*
X103494926Y-83219845D01*
X103494926Y-83219845D02*
X103521864Y-83623906D01*
X103521864Y-83623906D02*
X103602676Y-83543093D01*
X103602676Y-83543093D02*
X103683488Y-83516156D01*
X103683488Y-83516156D02*
X103737363Y-83516156D01*
X103737363Y-83516156D02*
X103818175Y-83543093D01*
X103818175Y-83543093D02*
X103952862Y-83677780D01*
X103952862Y-83677780D02*
X103979800Y-83758593D01*
X103979800Y-83758593D02*
X103979800Y-83812467D01*
X103979800Y-83812467D02*
X103952862Y-83893280D01*
X103952862Y-83893280D02*
X103791238Y-84054904D01*
X103791238Y-84054904D02*
X103710426Y-84081841D01*
X103710426Y-84081841D02*
X103656551Y-84081841D01*
X101746222Y-77548652D02*
X101665409Y-77575589D01*
X101665409Y-77575589D02*
X101584597Y-77656402D01*
X101584597Y-77656402D02*
X101530722Y-77764151D01*
X101530722Y-77764151D02*
X101530722Y-77871901D01*
X101530722Y-77871901D02*
X101557660Y-77952713D01*
X101557660Y-77952713D02*
X101638472Y-78087400D01*
X101638472Y-78087400D02*
X101719284Y-78168212D01*
X101719284Y-78168212D02*
X101853971Y-78249025D01*
X101853971Y-78249025D02*
X101934784Y-78275962D01*
X101934784Y-78275962D02*
X102042533Y-78275962D01*
X102042533Y-78275962D02*
X102150283Y-78222087D01*
X102150283Y-78222087D02*
X102204158Y-78168212D01*
X102204158Y-78168212D02*
X102258032Y-78060463D01*
X102258032Y-78060463D02*
X102258032Y-78006588D01*
X102258032Y-78006588D02*
X102069471Y-77818026D01*
X102069471Y-77818026D02*
X101961721Y-77925776D01*
X102554344Y-77818026D02*
X101988658Y-77252341D01*
X101988658Y-77252341D02*
X102204158Y-77036841D01*
X102204158Y-77036841D02*
X102284970Y-77009904D01*
X102284970Y-77009904D02*
X102338845Y-77009904D01*
X102338845Y-77009904D02*
X102419657Y-77036841D01*
X102419657Y-77036841D02*
X102500469Y-77117654D01*
X102500469Y-77117654D02*
X102527406Y-77198466D01*
X102527406Y-77198466D02*
X102527406Y-77252341D01*
X102527406Y-77252341D02*
X102500469Y-77333153D01*
X102500469Y-77333153D02*
X102284970Y-77548652D01*
X103416341Y-76956029D02*
X103093092Y-77279278D01*
X103254716Y-77117654D02*
X102689031Y-76551968D01*
X102689031Y-76551968D02*
X102715968Y-76686655D01*
X102715968Y-76686655D02*
X102715968Y-76794405D01*
X102715968Y-76794405D02*
X102689031Y-76875217D01*
X103955089Y-76417281D02*
X103631840Y-76740530D01*
X103793464Y-76578905D02*
X103227779Y-76013220D01*
X103227779Y-76013220D02*
X103254716Y-76147907D01*
X103254716Y-76147907D02*
X103254716Y-76255657D01*
X103254716Y-76255657D02*
X103227779Y-76336469D01*
X129198398Y-61637743D02*
X128740463Y-61556931D01*
X128875150Y-61960992D02*
X128309464Y-61395307D01*
X128309464Y-61395307D02*
X128524963Y-61179808D01*
X128524963Y-61179808D02*
X128605776Y-61152870D01*
X128605776Y-61152870D02*
X128659650Y-61152870D01*
X128659650Y-61152870D02*
X128740463Y-61179808D01*
X128740463Y-61179808D02*
X128821275Y-61260620D01*
X128821275Y-61260620D02*
X128848212Y-61341432D01*
X128848212Y-61341432D02*
X128848212Y-61395307D01*
X128848212Y-61395307D02*
X128821275Y-61476119D01*
X128821275Y-61476119D02*
X128605776Y-61691618D01*
X128875150Y-60829621D02*
X129333085Y-61287557D01*
X129333085Y-61287557D02*
X129413898Y-61314495D01*
X129413898Y-61314495D02*
X129467772Y-61314495D01*
X129467772Y-61314495D02*
X129548585Y-61287557D01*
X129548585Y-61287557D02*
X129656334Y-61179808D01*
X129656334Y-61179808D02*
X129683272Y-61098995D01*
X129683272Y-61098995D02*
X129683272Y-61045121D01*
X129683272Y-61045121D02*
X129656334Y-60964308D01*
X129656334Y-60964308D02*
X129198398Y-60506373D01*
X130033458Y-60802684D02*
X129467772Y-60236999D01*
X129467772Y-60236999D02*
X130356706Y-60479435D01*
X130356706Y-60479435D02*
X129791021Y-59913750D01*
X128403745Y-64148901D02*
X128322932Y-64175838D01*
X128322932Y-64175838D02*
X128242120Y-64256651D01*
X128242120Y-64256651D02*
X128188245Y-64364400D01*
X128188245Y-64364400D02*
X128188245Y-64472150D01*
X128188245Y-64472150D02*
X128215183Y-64552962D01*
X128215183Y-64552962D02*
X128295995Y-64687649D01*
X128295995Y-64687649D02*
X128376807Y-64768461D01*
X128376807Y-64768461D02*
X128511494Y-64849274D01*
X128511494Y-64849274D02*
X128592307Y-64876211D01*
X128592307Y-64876211D02*
X128700056Y-64876211D01*
X128700056Y-64876211D02*
X128807806Y-64822336D01*
X128807806Y-64822336D02*
X128861681Y-64768461D01*
X128861681Y-64768461D02*
X128915555Y-64660712D01*
X128915555Y-64660712D02*
X128915555Y-64606837D01*
X128915555Y-64606837D02*
X128726994Y-64418275D01*
X128726994Y-64418275D02*
X128619244Y-64526025D01*
X129211867Y-64418275D02*
X128646181Y-63852590D01*
X128646181Y-63852590D02*
X128861681Y-63637090D01*
X128861681Y-63637090D02*
X128942493Y-63610153D01*
X128942493Y-63610153D02*
X128996368Y-63610153D01*
X128996368Y-63610153D02*
X129077180Y-63637090D01*
X129077180Y-63637090D02*
X129157992Y-63717903D01*
X129157992Y-63717903D02*
X129184929Y-63798715D01*
X129184929Y-63798715D02*
X129184929Y-63852590D01*
X129184929Y-63852590D02*
X129157992Y-63933402D01*
X129157992Y-63933402D02*
X128942493Y-64148901D01*
X129238804Y-63367716D02*
X129238804Y-63313842D01*
X129238804Y-63313842D02*
X129265742Y-63233029D01*
X129265742Y-63233029D02*
X129400429Y-63098342D01*
X129400429Y-63098342D02*
X129481241Y-63071405D01*
X129481241Y-63071405D02*
X129535116Y-63071405D01*
X129535116Y-63071405D02*
X129615928Y-63098342D01*
X129615928Y-63098342D02*
X129669803Y-63152217D01*
X129669803Y-63152217D02*
X129723677Y-63259967D01*
X129723677Y-63259967D02*
X129723677Y-63906464D01*
X129723677Y-63906464D02*
X130073864Y-63556278D01*
X130343238Y-63286904D02*
X130450987Y-63179154D01*
X130450987Y-63179154D02*
X130477925Y-63098342D01*
X130477925Y-63098342D02*
X130477925Y-63044467D01*
X130477925Y-63044467D02*
X130450987Y-62909780D01*
X130450987Y-62909780D02*
X130370175Y-62775093D01*
X130370175Y-62775093D02*
X130154676Y-62559594D01*
X130154676Y-62559594D02*
X130073864Y-62532657D01*
X130073864Y-62532657D02*
X130019989Y-62532657D01*
X130019989Y-62532657D02*
X129939177Y-62559594D01*
X129939177Y-62559594D02*
X129831427Y-62667344D01*
X129831427Y-62667344D02*
X129804490Y-62748156D01*
X129804490Y-62748156D02*
X129804490Y-62802031D01*
X129804490Y-62802031D02*
X129831427Y-62882843D01*
X129831427Y-62882843D02*
X129966114Y-63017530D01*
X129966114Y-63017530D02*
X130046926Y-63044467D01*
X130046926Y-63044467D02*
X130100801Y-63044467D01*
X130100801Y-63044467D02*
X130181613Y-63017530D01*
X130181613Y-63017530D02*
X130289363Y-62909780D01*
X130289363Y-62909780D02*
X130316300Y-62828968D01*
X130316300Y-62828968D02*
X130316300Y-62775093D01*
X130316300Y-62775093D02*
X130289363Y-62694281D01*
X102185596Y-51889278D02*
X102104784Y-51916215D01*
X102104784Y-51916215D02*
X102023972Y-51997027D01*
X102023972Y-51997027D02*
X101970097Y-52104777D01*
X101970097Y-52104777D02*
X101970097Y-52212526D01*
X101970097Y-52212526D02*
X101997034Y-52293339D01*
X101997034Y-52293339D02*
X102077847Y-52428026D01*
X102077847Y-52428026D02*
X102158659Y-52508838D01*
X102158659Y-52508838D02*
X102293346Y-52589650D01*
X102293346Y-52589650D02*
X102374158Y-52616587D01*
X102374158Y-52616587D02*
X102481908Y-52616587D01*
X102481908Y-52616587D02*
X102589657Y-52562713D01*
X102589657Y-52562713D02*
X102643532Y-52508838D01*
X102643532Y-52508838D02*
X102697407Y-52401088D01*
X102697407Y-52401088D02*
X102697407Y-52347213D01*
X102697407Y-52347213D02*
X102508845Y-52158652D01*
X102508845Y-52158652D02*
X102401095Y-52266401D01*
X102993718Y-52158652D02*
X102428033Y-51592966D01*
X102428033Y-51592966D02*
X102643532Y-51377467D01*
X102643532Y-51377467D02*
X102724344Y-51350530D01*
X102724344Y-51350530D02*
X102778219Y-51350530D01*
X102778219Y-51350530D02*
X102859031Y-51377467D01*
X102859031Y-51377467D02*
X102939843Y-51458279D01*
X102939843Y-51458279D02*
X102966781Y-51539091D01*
X102966781Y-51539091D02*
X102966781Y-51592966D01*
X102966781Y-51592966D02*
X102939843Y-51673778D01*
X102939843Y-51673778D02*
X102724344Y-51889278D01*
X103020656Y-51108093D02*
X103020656Y-51054218D01*
X103020656Y-51054218D02*
X103047593Y-50973406D01*
X103047593Y-50973406D02*
X103182280Y-50838719D01*
X103182280Y-50838719D02*
X103263092Y-50811782D01*
X103263092Y-50811782D02*
X103316967Y-50811782D01*
X103316967Y-50811782D02*
X103397779Y-50838719D01*
X103397779Y-50838719D02*
X103451654Y-50892594D01*
X103451654Y-50892594D02*
X103505529Y-51000343D01*
X103505529Y-51000343D02*
X103505529Y-51646841D01*
X103505529Y-51646841D02*
X103855715Y-51296655D01*
X102521119Y-56707527D02*
X102440307Y-56734464D01*
X102440307Y-56734464D02*
X102359495Y-56815276D01*
X102359495Y-56815276D02*
X102305620Y-56923026D01*
X102305620Y-56923026D02*
X102305620Y-57030775D01*
X102305620Y-57030775D02*
X102332557Y-57111588D01*
X102332557Y-57111588D02*
X102413370Y-57246275D01*
X102413370Y-57246275D02*
X102494182Y-57327087D01*
X102494182Y-57327087D02*
X102628869Y-57407899D01*
X102628869Y-57407899D02*
X102709681Y-57434836D01*
X102709681Y-57434836D02*
X102817431Y-57434836D01*
X102817431Y-57434836D02*
X102925180Y-57380962D01*
X102925180Y-57380962D02*
X102979055Y-57327087D01*
X102979055Y-57327087D02*
X103032930Y-57219337D01*
X103032930Y-57219337D02*
X103032930Y-57165462D01*
X103032930Y-57165462D02*
X102844368Y-56976901D01*
X102844368Y-56976901D02*
X102736618Y-57084650D01*
X103329241Y-56976901D02*
X102763556Y-56411215D01*
X102763556Y-56411215D02*
X102979055Y-56195716D01*
X102979055Y-56195716D02*
X103059867Y-56168779D01*
X103059867Y-56168779D02*
X103113742Y-56168779D01*
X103113742Y-56168779D02*
X103194554Y-56195716D01*
X103194554Y-56195716D02*
X103275366Y-56276528D01*
X103275366Y-56276528D02*
X103302304Y-56357340D01*
X103302304Y-56357340D02*
X103302304Y-56411215D01*
X103302304Y-56411215D02*
X103275366Y-56492027D01*
X103275366Y-56492027D02*
X103059867Y-56707527D01*
X103760240Y-55791655D02*
X104137363Y-56168779D01*
X103410053Y-55710843D02*
X103679427Y-56249591D01*
X103679427Y-56249591D02*
X104029614Y-55899405D01*
X128471160Y-51313714D02*
X128390347Y-51340652D01*
X128390347Y-51340652D02*
X128309535Y-51421464D01*
X128309535Y-51421464D02*
X128255660Y-51529213D01*
X128255660Y-51529213D02*
X128255660Y-51636963D01*
X128255660Y-51636963D02*
X128282598Y-51717775D01*
X128282598Y-51717775D02*
X128363410Y-51852462D01*
X128363410Y-51852462D02*
X128444222Y-51933274D01*
X128444222Y-51933274D02*
X128578909Y-52014087D01*
X128578909Y-52014087D02*
X128659721Y-52041024D01*
X128659721Y-52041024D02*
X128767471Y-52041024D01*
X128767471Y-52041024D02*
X128875221Y-51987149D01*
X128875221Y-51987149D02*
X128929095Y-51933274D01*
X128929095Y-51933274D02*
X128982970Y-51825525D01*
X128982970Y-51825525D02*
X128982970Y-51771650D01*
X128982970Y-51771650D02*
X128794408Y-51583088D01*
X128794408Y-51583088D02*
X128686659Y-51690838D01*
X129279282Y-51583088D02*
X128713596Y-51017403D01*
X128713596Y-51017403D02*
X129602530Y-51259839D01*
X129602530Y-51259839D02*
X129036845Y-50694154D01*
X129871904Y-50990466D02*
X129306219Y-50424780D01*
X129306219Y-50424780D02*
X129440906Y-50290093D01*
X129440906Y-50290093D02*
X129548656Y-50236218D01*
X129548656Y-50236218D02*
X129656405Y-50236218D01*
X129656405Y-50236218D02*
X129737217Y-50263156D01*
X129737217Y-50263156D02*
X129871904Y-50343968D01*
X129871904Y-50343968D02*
X129952717Y-50424780D01*
X129952717Y-50424780D02*
X130033529Y-50559467D01*
X130033529Y-50559467D02*
X130060466Y-50640279D01*
X130060466Y-50640279D02*
X130060466Y-50748029D01*
X130060466Y-50748029D02*
X130006591Y-50855779D01*
X130006591Y-50855779D02*
X129871904Y-50990466D01*
X129952717Y-49778282D02*
X130087404Y-49912969D01*
X129898842Y-49993782D02*
X130087404Y-49912969D01*
X130087404Y-49912969D02*
X130168216Y-49724408D01*
X130114341Y-50101531D02*
X130087404Y-49912969D01*
X130087404Y-49912969D02*
X130275965Y-49939907D01*
X128149745Y-89548901D02*
X128068932Y-89575838D01*
X128068932Y-89575838D02*
X127988120Y-89656651D01*
X127988120Y-89656651D02*
X127934245Y-89764400D01*
X127934245Y-89764400D02*
X127934245Y-89872150D01*
X127934245Y-89872150D02*
X127961183Y-89952962D01*
X127961183Y-89952962D02*
X128041995Y-90087649D01*
X128041995Y-90087649D02*
X128122807Y-90168461D01*
X128122807Y-90168461D02*
X128257494Y-90249274D01*
X128257494Y-90249274D02*
X128338307Y-90276211D01*
X128338307Y-90276211D02*
X128446056Y-90276211D01*
X128446056Y-90276211D02*
X128553806Y-90222336D01*
X128553806Y-90222336D02*
X128607681Y-90168461D01*
X128607681Y-90168461D02*
X128661555Y-90060712D01*
X128661555Y-90060712D02*
X128661555Y-90006837D01*
X128661555Y-90006837D02*
X128472994Y-89818275D01*
X128472994Y-89818275D02*
X128365244Y-89926025D01*
X128957867Y-89818275D02*
X128392181Y-89252590D01*
X128392181Y-89252590D02*
X128607681Y-89037090D01*
X128607681Y-89037090D02*
X128688493Y-89010153D01*
X128688493Y-89010153D02*
X128742368Y-89010153D01*
X128742368Y-89010153D02*
X128823180Y-89037090D01*
X128823180Y-89037090D02*
X128903992Y-89117903D01*
X128903992Y-89117903D02*
X128930929Y-89198715D01*
X128930929Y-89198715D02*
X128930929Y-89252590D01*
X128930929Y-89252590D02*
X128903992Y-89333402D01*
X128903992Y-89333402D02*
X128688493Y-89548901D01*
X128984804Y-88767716D02*
X128984804Y-88713842D01*
X128984804Y-88713842D02*
X129011742Y-88633029D01*
X129011742Y-88633029D02*
X129146429Y-88498342D01*
X129146429Y-88498342D02*
X129227241Y-88471405D01*
X129227241Y-88471405D02*
X129281116Y-88471405D01*
X129281116Y-88471405D02*
X129361928Y-88498342D01*
X129361928Y-88498342D02*
X129415803Y-88552217D01*
X129415803Y-88552217D02*
X129469677Y-88659967D01*
X129469677Y-88659967D02*
X129469677Y-89306464D01*
X129469677Y-89306464D02*
X129819864Y-88956278D01*
X129604365Y-88040406D02*
X129658239Y-87986532D01*
X129658239Y-87986532D02*
X129739052Y-87959594D01*
X129739052Y-87959594D02*
X129792926Y-87959594D01*
X129792926Y-87959594D02*
X129873739Y-87986532D01*
X129873739Y-87986532D02*
X130008426Y-88067344D01*
X130008426Y-88067344D02*
X130143113Y-88202031D01*
X130143113Y-88202031D02*
X130223925Y-88336718D01*
X130223925Y-88336718D02*
X130250862Y-88417530D01*
X130250862Y-88417530D02*
X130250862Y-88471405D01*
X130250862Y-88471405D02*
X130223925Y-88552217D01*
X130223925Y-88552217D02*
X130170050Y-88606092D01*
X130170050Y-88606092D02*
X130089238Y-88633029D01*
X130089238Y-88633029D02*
X130035363Y-88633029D01*
X130035363Y-88633029D02*
X129954551Y-88606092D01*
X129954551Y-88606092D02*
X129819864Y-88525280D01*
X129819864Y-88525280D02*
X129685177Y-88390593D01*
X129685177Y-88390593D02*
X129604365Y-88255906D01*
X129604365Y-88255906D02*
X129577427Y-88175093D01*
X129577427Y-88175093D02*
X129577427Y-88121219D01*
X129577427Y-88121219D02*
X129604365Y-88040406D01*
X128389745Y-76618901D02*
X128308932Y-76645838D01*
X128308932Y-76645838D02*
X128228120Y-76726651D01*
X128228120Y-76726651D02*
X128174245Y-76834400D01*
X128174245Y-76834400D02*
X128174245Y-76942150D01*
X128174245Y-76942150D02*
X128201183Y-77022962D01*
X128201183Y-77022962D02*
X128281995Y-77157649D01*
X128281995Y-77157649D02*
X128362807Y-77238461D01*
X128362807Y-77238461D02*
X128497494Y-77319274D01*
X128497494Y-77319274D02*
X128578307Y-77346211D01*
X128578307Y-77346211D02*
X128686056Y-77346211D01*
X128686056Y-77346211D02*
X128793806Y-77292336D01*
X128793806Y-77292336D02*
X128847681Y-77238461D01*
X128847681Y-77238461D02*
X128901555Y-77130712D01*
X128901555Y-77130712D02*
X128901555Y-77076837D01*
X128901555Y-77076837D02*
X128712994Y-76888275D01*
X128712994Y-76888275D02*
X128605244Y-76996025D01*
X129197867Y-76888275D02*
X128632181Y-76322590D01*
X128632181Y-76322590D02*
X128847681Y-76107090D01*
X128847681Y-76107090D02*
X128928493Y-76080153D01*
X128928493Y-76080153D02*
X128982368Y-76080153D01*
X128982368Y-76080153D02*
X129063180Y-76107090D01*
X129063180Y-76107090D02*
X129143992Y-76187903D01*
X129143992Y-76187903D02*
X129170929Y-76268715D01*
X129170929Y-76268715D02*
X129170929Y-76322590D01*
X129170929Y-76322590D02*
X129143992Y-76403402D01*
X129143992Y-76403402D02*
X128928493Y-76618901D01*
X129224804Y-75837716D02*
X129224804Y-75783842D01*
X129224804Y-75783842D02*
X129251742Y-75703029D01*
X129251742Y-75703029D02*
X129386429Y-75568342D01*
X129386429Y-75568342D02*
X129467241Y-75541405D01*
X129467241Y-75541405D02*
X129521116Y-75541405D01*
X129521116Y-75541405D02*
X129601928Y-75568342D01*
X129601928Y-75568342D02*
X129655803Y-75622217D01*
X129655803Y-75622217D02*
X129709677Y-75729967D01*
X129709677Y-75729967D02*
X129709677Y-76376464D01*
X129709677Y-76376464D02*
X130059864Y-76026278D01*
X130005989Y-74948782D02*
X129736615Y-75218156D01*
X129736615Y-75218156D02*
X129979052Y-75514467D01*
X129979052Y-75514467D02*
X129979052Y-75460593D01*
X129979052Y-75460593D02*
X130005989Y-75379780D01*
X130005989Y-75379780D02*
X130140676Y-75245093D01*
X130140676Y-75245093D02*
X130221488Y-75218156D01*
X130221488Y-75218156D02*
X130275363Y-75218156D01*
X130275363Y-75218156D02*
X130356175Y-75245093D01*
X130356175Y-75245093D02*
X130490862Y-75379780D01*
X130490862Y-75379780D02*
X130517800Y-75460593D01*
X130517800Y-75460593D02*
X130517800Y-75514467D01*
X130517800Y-75514467D02*
X130490862Y-75595280D01*
X130490862Y-75595280D02*
X130356175Y-75729967D01*
X130356175Y-75729967D02*
X130275363Y-75756904D01*
X130275363Y-75756904D02*
X130221488Y-75756904D01*
X128403745Y-66698901D02*
X128322932Y-66725838D01*
X128322932Y-66725838D02*
X128242120Y-66806651D01*
X128242120Y-66806651D02*
X128188245Y-66914400D01*
X128188245Y-66914400D02*
X128188245Y-67022150D01*
X128188245Y-67022150D02*
X128215183Y-67102962D01*
X128215183Y-67102962D02*
X128295995Y-67237649D01*
X128295995Y-67237649D02*
X128376807Y-67318461D01*
X128376807Y-67318461D02*
X128511494Y-67399274D01*
X128511494Y-67399274D02*
X128592307Y-67426211D01*
X128592307Y-67426211D02*
X128700056Y-67426211D01*
X128700056Y-67426211D02*
X128807806Y-67372336D01*
X128807806Y-67372336D02*
X128861681Y-67318461D01*
X128861681Y-67318461D02*
X128915555Y-67210712D01*
X128915555Y-67210712D02*
X128915555Y-67156837D01*
X128915555Y-67156837D02*
X128726994Y-66968275D01*
X128726994Y-66968275D02*
X128619244Y-67076025D01*
X129211867Y-66968275D02*
X128646181Y-66402590D01*
X128646181Y-66402590D02*
X128861681Y-66187090D01*
X128861681Y-66187090D02*
X128942493Y-66160153D01*
X128942493Y-66160153D02*
X128996368Y-66160153D01*
X128996368Y-66160153D02*
X129077180Y-66187090D01*
X129077180Y-66187090D02*
X129157992Y-66267903D01*
X129157992Y-66267903D02*
X129184929Y-66348715D01*
X129184929Y-66348715D02*
X129184929Y-66402590D01*
X129184929Y-66402590D02*
X129157992Y-66483402D01*
X129157992Y-66483402D02*
X128942493Y-66698901D01*
X129238804Y-65917716D02*
X129238804Y-65863842D01*
X129238804Y-65863842D02*
X129265742Y-65783029D01*
X129265742Y-65783029D02*
X129400429Y-65648342D01*
X129400429Y-65648342D02*
X129481241Y-65621405D01*
X129481241Y-65621405D02*
X129535116Y-65621405D01*
X129535116Y-65621405D02*
X129615928Y-65648342D01*
X129615928Y-65648342D02*
X129669803Y-65702217D01*
X129669803Y-65702217D02*
X129723677Y-65809967D01*
X129723677Y-65809967D02*
X129723677Y-66456464D01*
X129723677Y-66456464D02*
X130073864Y-66106278D01*
X130073864Y-65459780D02*
X129993052Y-65486718D01*
X129993052Y-65486718D02*
X129939177Y-65486718D01*
X129939177Y-65486718D02*
X129858365Y-65459780D01*
X129858365Y-65459780D02*
X129831427Y-65432843D01*
X129831427Y-65432843D02*
X129804490Y-65352031D01*
X129804490Y-65352031D02*
X129804490Y-65298156D01*
X129804490Y-65298156D02*
X129831427Y-65217344D01*
X129831427Y-65217344D02*
X129939177Y-65109594D01*
X129939177Y-65109594D02*
X130019989Y-65082657D01*
X130019989Y-65082657D02*
X130073864Y-65082657D01*
X130073864Y-65082657D02*
X130154676Y-65109594D01*
X130154676Y-65109594D02*
X130181613Y-65136532D01*
X130181613Y-65136532D02*
X130208551Y-65217344D01*
X130208551Y-65217344D02*
X130208551Y-65271219D01*
X130208551Y-65271219D02*
X130181613Y-65352031D01*
X130181613Y-65352031D02*
X130073864Y-65459780D01*
X130073864Y-65459780D02*
X130046926Y-65540593D01*
X130046926Y-65540593D02*
X130046926Y-65594467D01*
X130046926Y-65594467D02*
X130073864Y-65675280D01*
X130073864Y-65675280D02*
X130181613Y-65783029D01*
X130181613Y-65783029D02*
X130262426Y-65809967D01*
X130262426Y-65809967D02*
X130316300Y-65809967D01*
X130316300Y-65809967D02*
X130397113Y-65783029D01*
X130397113Y-65783029D02*
X130504862Y-65675280D01*
X130504862Y-65675280D02*
X130531800Y-65594467D01*
X130531800Y-65594467D02*
X130531800Y-65540593D01*
X130531800Y-65540593D02*
X130504862Y-65459780D01*
X130504862Y-65459780D02*
X130397113Y-65352031D01*
X130397113Y-65352031D02*
X130316300Y-65325093D01*
X130316300Y-65325093D02*
X130262426Y-65325093D01*
X130262426Y-65325093D02*
X130181613Y-65352031D01*
X128403745Y-79398901D02*
X128322932Y-79425838D01*
X128322932Y-79425838D02*
X128242120Y-79506651D01*
X128242120Y-79506651D02*
X128188245Y-79614400D01*
X128188245Y-79614400D02*
X128188245Y-79722150D01*
X128188245Y-79722150D02*
X128215183Y-79802962D01*
X128215183Y-79802962D02*
X128295995Y-79937649D01*
X128295995Y-79937649D02*
X128376807Y-80018461D01*
X128376807Y-80018461D02*
X128511494Y-80099274D01*
X128511494Y-80099274D02*
X128592307Y-80126211D01*
X128592307Y-80126211D02*
X128700056Y-80126211D01*
X128700056Y-80126211D02*
X128807806Y-80072336D01*
X128807806Y-80072336D02*
X128861681Y-80018461D01*
X128861681Y-80018461D02*
X128915555Y-79910712D01*
X128915555Y-79910712D02*
X128915555Y-79856837D01*
X128915555Y-79856837D02*
X128726994Y-79668275D01*
X128726994Y-79668275D02*
X128619244Y-79776025D01*
X129211867Y-79668275D02*
X128646181Y-79102590D01*
X128646181Y-79102590D02*
X128861681Y-78887090D01*
X128861681Y-78887090D02*
X128942493Y-78860153D01*
X128942493Y-78860153D02*
X128996368Y-78860153D01*
X128996368Y-78860153D02*
X129077180Y-78887090D01*
X129077180Y-78887090D02*
X129157992Y-78967903D01*
X129157992Y-78967903D02*
X129184929Y-79048715D01*
X129184929Y-79048715D02*
X129184929Y-79102590D01*
X129184929Y-79102590D02*
X129157992Y-79183402D01*
X129157992Y-79183402D02*
X128942493Y-79398901D01*
X129238804Y-78617716D02*
X129238804Y-78563842D01*
X129238804Y-78563842D02*
X129265742Y-78483029D01*
X129265742Y-78483029D02*
X129400429Y-78348342D01*
X129400429Y-78348342D02*
X129481241Y-78321405D01*
X129481241Y-78321405D02*
X129535116Y-78321405D01*
X129535116Y-78321405D02*
X129615928Y-78348342D01*
X129615928Y-78348342D02*
X129669803Y-78402217D01*
X129669803Y-78402217D02*
X129723677Y-78509967D01*
X129723677Y-78509967D02*
X129723677Y-79156464D01*
X129723677Y-79156464D02*
X130073864Y-78806278D01*
X130181613Y-77944281D02*
X130558737Y-78321405D01*
X129831427Y-77863469D02*
X130100801Y-78402217D01*
X130100801Y-78402217D02*
X130450987Y-78052031D01*
X101951745Y-92536901D02*
X101870932Y-92563838D01*
X101870932Y-92563838D02*
X101790120Y-92644651D01*
X101790120Y-92644651D02*
X101736245Y-92752400D01*
X101736245Y-92752400D02*
X101736245Y-92860150D01*
X101736245Y-92860150D02*
X101763183Y-92940962D01*
X101763183Y-92940962D02*
X101843995Y-93075649D01*
X101843995Y-93075649D02*
X101924807Y-93156461D01*
X101924807Y-93156461D02*
X102059494Y-93237274D01*
X102059494Y-93237274D02*
X102140307Y-93264211D01*
X102140307Y-93264211D02*
X102248056Y-93264211D01*
X102248056Y-93264211D02*
X102355806Y-93210336D01*
X102355806Y-93210336D02*
X102409681Y-93156461D01*
X102409681Y-93156461D02*
X102463555Y-93048712D01*
X102463555Y-93048712D02*
X102463555Y-92994837D01*
X102463555Y-92994837D02*
X102274994Y-92806275D01*
X102274994Y-92806275D02*
X102167244Y-92914025D01*
X102759867Y-92806275D02*
X102194181Y-92240590D01*
X102194181Y-92240590D02*
X102409681Y-92025090D01*
X102409681Y-92025090D02*
X102490493Y-91998153D01*
X102490493Y-91998153D02*
X102544368Y-91998153D01*
X102544368Y-91998153D02*
X102625180Y-92025090D01*
X102625180Y-92025090D02*
X102705992Y-92105903D01*
X102705992Y-92105903D02*
X102732929Y-92186715D01*
X102732929Y-92186715D02*
X102732929Y-92240590D01*
X102732929Y-92240590D02*
X102705992Y-92321402D01*
X102705992Y-92321402D02*
X102490493Y-92536901D01*
X103621864Y-91944278D02*
X103298615Y-92267527D01*
X103460239Y-92105903D02*
X102894554Y-91540217D01*
X102894554Y-91540217D02*
X102921491Y-91674904D01*
X102921491Y-91674904D02*
X102921491Y-91782654D01*
X102921491Y-91782654D02*
X102894554Y-91863466D01*
X103541052Y-90893719D02*
X103433302Y-91001469D01*
X103433302Y-91001469D02*
X103406365Y-91082281D01*
X103406365Y-91082281D02*
X103406365Y-91136156D01*
X103406365Y-91136156D02*
X103433302Y-91270843D01*
X103433302Y-91270843D02*
X103514114Y-91405530D01*
X103514114Y-91405530D02*
X103729613Y-91621029D01*
X103729613Y-91621029D02*
X103810426Y-91647967D01*
X103810426Y-91647967D02*
X103864300Y-91647967D01*
X103864300Y-91647967D02*
X103945113Y-91621029D01*
X103945113Y-91621029D02*
X104052862Y-91513280D01*
X104052862Y-91513280D02*
X104079800Y-91432467D01*
X104079800Y-91432467D02*
X104079800Y-91378593D01*
X104079800Y-91378593D02*
X104052862Y-91297780D01*
X104052862Y-91297780D02*
X103918175Y-91163093D01*
X103918175Y-91163093D02*
X103837363Y-91136156D01*
X103837363Y-91136156D02*
X103783488Y-91136156D01*
X103783488Y-91136156D02*
X103702676Y-91163093D01*
X103702676Y-91163093D02*
X103594926Y-91270843D01*
X103594926Y-91270843D02*
X103567989Y-91351655D01*
X103567989Y-91351655D02*
X103567989Y-91405530D01*
X103567989Y-91405530D02*
X103594926Y-91486342D01*
X102251745Y-74756901D02*
X102170932Y-74783838D01*
X102170932Y-74783838D02*
X102090120Y-74864651D01*
X102090120Y-74864651D02*
X102036245Y-74972400D01*
X102036245Y-74972400D02*
X102036245Y-75080150D01*
X102036245Y-75080150D02*
X102063183Y-75160962D01*
X102063183Y-75160962D02*
X102143995Y-75295649D01*
X102143995Y-75295649D02*
X102224807Y-75376461D01*
X102224807Y-75376461D02*
X102359494Y-75457274D01*
X102359494Y-75457274D02*
X102440307Y-75484211D01*
X102440307Y-75484211D02*
X102548056Y-75484211D01*
X102548056Y-75484211D02*
X102655806Y-75430336D01*
X102655806Y-75430336D02*
X102709681Y-75376461D01*
X102709681Y-75376461D02*
X102763555Y-75268712D01*
X102763555Y-75268712D02*
X102763555Y-75214837D01*
X102763555Y-75214837D02*
X102574994Y-75026275D01*
X102574994Y-75026275D02*
X102467244Y-75134025D01*
X103059867Y-75026275D02*
X102494181Y-74460590D01*
X102494181Y-74460590D02*
X102709681Y-74245090D01*
X102709681Y-74245090D02*
X102790493Y-74218153D01*
X102790493Y-74218153D02*
X102844368Y-74218153D01*
X102844368Y-74218153D02*
X102925180Y-74245090D01*
X102925180Y-74245090D02*
X103005992Y-74325903D01*
X103005992Y-74325903D02*
X103032929Y-74406715D01*
X103032929Y-74406715D02*
X103032929Y-74460590D01*
X103032929Y-74460590D02*
X103005992Y-74541402D01*
X103005992Y-74541402D02*
X102790493Y-74756901D01*
X103921864Y-74164278D02*
X103598615Y-74487527D01*
X103760239Y-74325903D02*
X103194554Y-73760217D01*
X103194554Y-73760217D02*
X103221491Y-73894904D01*
X103221491Y-73894904D02*
X103221491Y-74002654D01*
X103221491Y-74002654D02*
X103194554Y-74083466D01*
X103706365Y-73248406D02*
X103760239Y-73194532D01*
X103760239Y-73194532D02*
X103841052Y-73167594D01*
X103841052Y-73167594D02*
X103894926Y-73167594D01*
X103894926Y-73167594D02*
X103975739Y-73194532D01*
X103975739Y-73194532D02*
X104110426Y-73275344D01*
X104110426Y-73275344D02*
X104245113Y-73410031D01*
X104245113Y-73410031D02*
X104325925Y-73544718D01*
X104325925Y-73544718D02*
X104352862Y-73625530D01*
X104352862Y-73625530D02*
X104352862Y-73679405D01*
X104352862Y-73679405D02*
X104325925Y-73760217D01*
X104325925Y-73760217D02*
X104272050Y-73814092D01*
X104272050Y-73814092D02*
X104191238Y-73841029D01*
X104191238Y-73841029D02*
X104137363Y-73841029D01*
X104137363Y-73841029D02*
X104056551Y-73814092D01*
X104056551Y-73814092D02*
X103921864Y-73733280D01*
X103921864Y-73733280D02*
X103787177Y-73598593D01*
X103787177Y-73598593D02*
X103706365Y-73463906D01*
X103706365Y-73463906D02*
X103679427Y-73383093D01*
X103679427Y-73383093D02*
X103679427Y-73329219D01*
X103679427Y-73329219D02*
X103706365Y-73248406D01*
X102521119Y-66867527D02*
X102440307Y-66894464D01*
X102440307Y-66894464D02*
X102359495Y-66975276D01*
X102359495Y-66975276D02*
X102305620Y-67083026D01*
X102305620Y-67083026D02*
X102305620Y-67190775D01*
X102305620Y-67190775D02*
X102332557Y-67271588D01*
X102332557Y-67271588D02*
X102413370Y-67406275D01*
X102413370Y-67406275D02*
X102494182Y-67487087D01*
X102494182Y-67487087D02*
X102628869Y-67567899D01*
X102628869Y-67567899D02*
X102709681Y-67594836D01*
X102709681Y-67594836D02*
X102817431Y-67594836D01*
X102817431Y-67594836D02*
X102925180Y-67540962D01*
X102925180Y-67540962D02*
X102979055Y-67487087D01*
X102979055Y-67487087D02*
X103032930Y-67379337D01*
X103032930Y-67379337D02*
X103032930Y-67325462D01*
X103032930Y-67325462D02*
X102844368Y-67136901D01*
X102844368Y-67136901D02*
X102736618Y-67244650D01*
X103329241Y-67136901D02*
X102763556Y-66571215D01*
X102763556Y-66571215D02*
X102979055Y-66355716D01*
X102979055Y-66355716D02*
X103059867Y-66328779D01*
X103059867Y-66328779D02*
X103113742Y-66328779D01*
X103113742Y-66328779D02*
X103194554Y-66355716D01*
X103194554Y-66355716D02*
X103275366Y-66436528D01*
X103275366Y-66436528D02*
X103302304Y-66517340D01*
X103302304Y-66517340D02*
X103302304Y-66571215D01*
X103302304Y-66571215D02*
X103275366Y-66652027D01*
X103275366Y-66652027D02*
X103059867Y-66867527D01*
X103275366Y-66059405D02*
X103652490Y-65682281D01*
X103652490Y-65682281D02*
X103975739Y-66490403D01*
X102521119Y-46547527D02*
X102440307Y-46574464D01*
X102440307Y-46574464D02*
X102359495Y-46655276D01*
X102359495Y-46655276D02*
X102305620Y-46763026D01*
X102305620Y-46763026D02*
X102305620Y-46870775D01*
X102305620Y-46870775D02*
X102332557Y-46951588D01*
X102332557Y-46951588D02*
X102413370Y-47086275D01*
X102413370Y-47086275D02*
X102494182Y-47167087D01*
X102494182Y-47167087D02*
X102628869Y-47247899D01*
X102628869Y-47247899D02*
X102709681Y-47274836D01*
X102709681Y-47274836D02*
X102817431Y-47274836D01*
X102817431Y-47274836D02*
X102925180Y-47220962D01*
X102925180Y-47220962D02*
X102979055Y-47167087D01*
X102979055Y-47167087D02*
X103032930Y-47059337D01*
X103032930Y-47059337D02*
X103032930Y-47005462D01*
X103032930Y-47005462D02*
X102844368Y-46816901D01*
X102844368Y-46816901D02*
X102736618Y-46924650D01*
X103329241Y-46816901D02*
X102763556Y-46251215D01*
X102763556Y-46251215D02*
X102979055Y-46035716D01*
X102979055Y-46035716D02*
X103059867Y-46008779D01*
X103059867Y-46008779D02*
X103113742Y-46008779D01*
X103113742Y-46008779D02*
X103194554Y-46035716D01*
X103194554Y-46035716D02*
X103275366Y-46116528D01*
X103275366Y-46116528D02*
X103302304Y-46197340D01*
X103302304Y-46197340D02*
X103302304Y-46251215D01*
X103302304Y-46251215D02*
X103275366Y-46332027D01*
X103275366Y-46332027D02*
X103059867Y-46547527D01*
X103436991Y-45577780D02*
X103490866Y-45523905D01*
X103490866Y-45523905D02*
X103571678Y-45496968D01*
X103571678Y-45496968D02*
X103625553Y-45496968D01*
X103625553Y-45496968D02*
X103706365Y-45523905D01*
X103706365Y-45523905D02*
X103841052Y-45604718D01*
X103841052Y-45604718D02*
X103975739Y-45739405D01*
X103975739Y-45739405D02*
X104056551Y-45874092D01*
X104056551Y-45874092D02*
X104083488Y-45954904D01*
X104083488Y-45954904D02*
X104083488Y-46008779D01*
X104083488Y-46008779D02*
X104056551Y-46089591D01*
X104056551Y-46089591D02*
X104002676Y-46143466D01*
X104002676Y-46143466D02*
X103921864Y-46170403D01*
X103921864Y-46170403D02*
X103867989Y-46170403D01*
X103867989Y-46170403D02*
X103787177Y-46143466D01*
X103787177Y-46143466D02*
X103652490Y-46062653D01*
X103652490Y-46062653D02*
X103517803Y-45927966D01*
X103517803Y-45927966D02*
X103436991Y-45793279D01*
X103436991Y-45793279D02*
X103410053Y-45712467D01*
X103410053Y-45712467D02*
X103410053Y-45658592D01*
X103410053Y-45658592D02*
X103436991Y-45577780D01*
X128457620Y-75009273D02*
X128726994Y-74739899D01*
X128565370Y-75224772D02*
X128188246Y-74470525D01*
X128188246Y-74470525D02*
X128942493Y-74847648D01*
X128888618Y-73824027D02*
X128807806Y-73850965D01*
X128807806Y-73850965D02*
X128726994Y-73931777D01*
X128726994Y-73931777D02*
X128673119Y-74039527D01*
X128673119Y-74039527D02*
X128673119Y-74147276D01*
X128673119Y-74147276D02*
X128700057Y-74228088D01*
X128700057Y-74228088D02*
X128780869Y-74362775D01*
X128780869Y-74362775D02*
X128861681Y-74443588D01*
X128861681Y-74443588D02*
X128996368Y-74524400D01*
X128996368Y-74524400D02*
X129077180Y-74551337D01*
X129077180Y-74551337D02*
X129184930Y-74551337D01*
X129184930Y-74551337D02*
X129292679Y-74497462D01*
X129292679Y-74497462D02*
X129346554Y-74443588D01*
X129346554Y-74443588D02*
X129400429Y-74335838D01*
X129400429Y-74335838D02*
X129400429Y-74281963D01*
X129400429Y-74281963D02*
X129211867Y-74093401D01*
X129211867Y-74093401D02*
X129104118Y-74201151D01*
X129696740Y-74093401D02*
X129131055Y-73527716D01*
X129131055Y-73527716D02*
X130019989Y-73770153D01*
X130019989Y-73770153D02*
X129454304Y-73204467D01*
X130289363Y-73500779D02*
X129723678Y-72935093D01*
X129723678Y-72935093D02*
X129858365Y-72800406D01*
X129858365Y-72800406D02*
X129966114Y-72746531D01*
X129966114Y-72746531D02*
X130073864Y-72746531D01*
X130073864Y-72746531D02*
X130154676Y-72773469D01*
X130154676Y-72773469D02*
X130289363Y-72854281D01*
X130289363Y-72854281D02*
X130370175Y-72935093D01*
X130370175Y-72935093D02*
X130450988Y-73069780D01*
X130450988Y-73069780D02*
X130477925Y-73150593D01*
X130477925Y-73150593D02*
X130477925Y-73258342D01*
X130477925Y-73258342D02*
X130424050Y-73366092D01*
X130424050Y-73366092D02*
X130289363Y-73500779D01*
X101766222Y-90268652D02*
X101685409Y-90295589D01*
X101685409Y-90295589D02*
X101604597Y-90376402D01*
X101604597Y-90376402D02*
X101550722Y-90484151D01*
X101550722Y-90484151D02*
X101550722Y-90591901D01*
X101550722Y-90591901D02*
X101577660Y-90672713D01*
X101577660Y-90672713D02*
X101658472Y-90807400D01*
X101658472Y-90807400D02*
X101739284Y-90888212D01*
X101739284Y-90888212D02*
X101873971Y-90969025D01*
X101873971Y-90969025D02*
X101954784Y-90995962D01*
X101954784Y-90995962D02*
X102062533Y-90995962D01*
X102062533Y-90995962D02*
X102170283Y-90942087D01*
X102170283Y-90942087D02*
X102224158Y-90888212D01*
X102224158Y-90888212D02*
X102278032Y-90780463D01*
X102278032Y-90780463D02*
X102278032Y-90726588D01*
X102278032Y-90726588D02*
X102089471Y-90538026D01*
X102089471Y-90538026D02*
X101981721Y-90645776D01*
X102574344Y-90538026D02*
X102008658Y-89972341D01*
X102008658Y-89972341D02*
X102224158Y-89756841D01*
X102224158Y-89756841D02*
X102304970Y-89729904D01*
X102304970Y-89729904D02*
X102358845Y-89729904D01*
X102358845Y-89729904D02*
X102439657Y-89756841D01*
X102439657Y-89756841D02*
X102520469Y-89837654D01*
X102520469Y-89837654D02*
X102547406Y-89918466D01*
X102547406Y-89918466D02*
X102547406Y-89972341D01*
X102547406Y-89972341D02*
X102520469Y-90053153D01*
X102520469Y-90053153D02*
X102304970Y-90268652D01*
X103436341Y-89676029D02*
X103113092Y-89999278D01*
X103274716Y-89837654D02*
X102709031Y-89271968D01*
X102709031Y-89271968D02*
X102735968Y-89406655D01*
X102735968Y-89406655D02*
X102735968Y-89514405D01*
X102735968Y-89514405D02*
X102709031Y-89595217D01*
X103382466Y-88598533D02*
X103113092Y-88867907D01*
X103113092Y-88867907D02*
X103355529Y-89164218D01*
X103355529Y-89164218D02*
X103355529Y-89110344D01*
X103355529Y-89110344D02*
X103382466Y-89029531D01*
X103382466Y-89029531D02*
X103517153Y-88894844D01*
X103517153Y-88894844D02*
X103597965Y-88867907D01*
X103597965Y-88867907D02*
X103651840Y-88867907D01*
X103651840Y-88867907D02*
X103732652Y-88894844D01*
X103732652Y-88894844D02*
X103867339Y-89029531D01*
X103867339Y-89029531D02*
X103894277Y-89110344D01*
X103894277Y-89110344D02*
X103894277Y-89164218D01*
X103894277Y-89164218D02*
X103867339Y-89245031D01*
X103867339Y-89245031D02*
X103732652Y-89379718D01*
X103732652Y-89379718D02*
X103651840Y-89406655D01*
X103651840Y-89406655D02*
X103597965Y-89406655D01*
X128349745Y-71768901D02*
X128268932Y-71795838D01*
X128268932Y-71795838D02*
X128188120Y-71876651D01*
X128188120Y-71876651D02*
X128134245Y-71984400D01*
X128134245Y-71984400D02*
X128134245Y-72092150D01*
X128134245Y-72092150D02*
X128161183Y-72172962D01*
X128161183Y-72172962D02*
X128241995Y-72307649D01*
X128241995Y-72307649D02*
X128322807Y-72388461D01*
X128322807Y-72388461D02*
X128457494Y-72469274D01*
X128457494Y-72469274D02*
X128538307Y-72496211D01*
X128538307Y-72496211D02*
X128646056Y-72496211D01*
X128646056Y-72496211D02*
X128753806Y-72442336D01*
X128753806Y-72442336D02*
X128807681Y-72388461D01*
X128807681Y-72388461D02*
X128861555Y-72280712D01*
X128861555Y-72280712D02*
X128861555Y-72226837D01*
X128861555Y-72226837D02*
X128672994Y-72038275D01*
X128672994Y-72038275D02*
X128565244Y-72146025D01*
X129157867Y-72038275D02*
X128592181Y-71472590D01*
X128592181Y-71472590D02*
X128807681Y-71257090D01*
X128807681Y-71257090D02*
X128888493Y-71230153D01*
X128888493Y-71230153D02*
X128942368Y-71230153D01*
X128942368Y-71230153D02*
X129023180Y-71257090D01*
X129023180Y-71257090D02*
X129103992Y-71337903D01*
X129103992Y-71337903D02*
X129130929Y-71418715D01*
X129130929Y-71418715D02*
X129130929Y-71472590D01*
X129130929Y-71472590D02*
X129103992Y-71553402D01*
X129103992Y-71553402D02*
X128888493Y-71768901D01*
X129184804Y-70987716D02*
X129184804Y-70933842D01*
X129184804Y-70933842D02*
X129211742Y-70853029D01*
X129211742Y-70853029D02*
X129346429Y-70718342D01*
X129346429Y-70718342D02*
X129427241Y-70691405D01*
X129427241Y-70691405D02*
X129481116Y-70691405D01*
X129481116Y-70691405D02*
X129561928Y-70718342D01*
X129561928Y-70718342D02*
X129615803Y-70772217D01*
X129615803Y-70772217D02*
X129669677Y-70879967D01*
X129669677Y-70879967D02*
X129669677Y-71526464D01*
X129669677Y-71526464D02*
X130019864Y-71176278D01*
X129939052Y-70125719D02*
X129831302Y-70233469D01*
X129831302Y-70233469D02*
X129804365Y-70314281D01*
X129804365Y-70314281D02*
X129804365Y-70368156D01*
X129804365Y-70368156D02*
X129831302Y-70502843D01*
X129831302Y-70502843D02*
X129912114Y-70637530D01*
X129912114Y-70637530D02*
X130127613Y-70853029D01*
X130127613Y-70853029D02*
X130208426Y-70879967D01*
X130208426Y-70879967D02*
X130262300Y-70879967D01*
X130262300Y-70879967D02*
X130343113Y-70853029D01*
X130343113Y-70853029D02*
X130450862Y-70745280D01*
X130450862Y-70745280D02*
X130477800Y-70664467D01*
X130477800Y-70664467D02*
X130477800Y-70610593D01*
X130477800Y-70610593D02*
X130450862Y-70529780D01*
X130450862Y-70529780D02*
X130316175Y-70395093D01*
X130316175Y-70395093D02*
X130235363Y-70368156D01*
X130235363Y-70368156D02*
X130181488Y-70368156D01*
X130181488Y-70368156D02*
X130100676Y-70395093D01*
X130100676Y-70395093D02*
X129992926Y-70502843D01*
X129992926Y-70502843D02*
X129965989Y-70583655D01*
X129965989Y-70583655D02*
X129965989Y-70637530D01*
X129965989Y-70637530D02*
X129992926Y-70718342D01*
X128403745Y-69228901D02*
X128322932Y-69255838D01*
X128322932Y-69255838D02*
X128242120Y-69336651D01*
X128242120Y-69336651D02*
X128188245Y-69444400D01*
X128188245Y-69444400D02*
X128188245Y-69552150D01*
X128188245Y-69552150D02*
X128215183Y-69632962D01*
X128215183Y-69632962D02*
X128295995Y-69767649D01*
X128295995Y-69767649D02*
X128376807Y-69848461D01*
X128376807Y-69848461D02*
X128511494Y-69929274D01*
X128511494Y-69929274D02*
X128592307Y-69956211D01*
X128592307Y-69956211D02*
X128700056Y-69956211D01*
X128700056Y-69956211D02*
X128807806Y-69902336D01*
X128807806Y-69902336D02*
X128861681Y-69848461D01*
X128861681Y-69848461D02*
X128915555Y-69740712D01*
X128915555Y-69740712D02*
X128915555Y-69686837D01*
X128915555Y-69686837D02*
X128726994Y-69498275D01*
X128726994Y-69498275D02*
X128619244Y-69606025D01*
X129211867Y-69498275D02*
X128646181Y-68932590D01*
X128646181Y-68932590D02*
X128861681Y-68717090D01*
X128861681Y-68717090D02*
X128942493Y-68690153D01*
X128942493Y-68690153D02*
X128996368Y-68690153D01*
X128996368Y-68690153D02*
X129077180Y-68717090D01*
X129077180Y-68717090D02*
X129157992Y-68797903D01*
X129157992Y-68797903D02*
X129184929Y-68878715D01*
X129184929Y-68878715D02*
X129184929Y-68932590D01*
X129184929Y-68932590D02*
X129157992Y-69013402D01*
X129157992Y-69013402D02*
X128942493Y-69228901D01*
X129238804Y-68447716D02*
X129238804Y-68393842D01*
X129238804Y-68393842D02*
X129265742Y-68313029D01*
X129265742Y-68313029D02*
X129400429Y-68178342D01*
X129400429Y-68178342D02*
X129481241Y-68151405D01*
X129481241Y-68151405D02*
X129535116Y-68151405D01*
X129535116Y-68151405D02*
X129615928Y-68178342D01*
X129615928Y-68178342D02*
X129669803Y-68232217D01*
X129669803Y-68232217D02*
X129723677Y-68339967D01*
X129723677Y-68339967D02*
X129723677Y-68986464D01*
X129723677Y-68986464D02*
X130073864Y-68636278D01*
X129696740Y-67882031D02*
X130073864Y-67504907D01*
X130073864Y-67504907D02*
X130397113Y-68313029D01*
X101997745Y-95076901D02*
X101916932Y-95103838D01*
X101916932Y-95103838D02*
X101836120Y-95184651D01*
X101836120Y-95184651D02*
X101782245Y-95292400D01*
X101782245Y-95292400D02*
X101782245Y-95400150D01*
X101782245Y-95400150D02*
X101809183Y-95480962D01*
X101809183Y-95480962D02*
X101889995Y-95615649D01*
X101889995Y-95615649D02*
X101970807Y-95696461D01*
X101970807Y-95696461D02*
X102105494Y-95777274D01*
X102105494Y-95777274D02*
X102186307Y-95804211D01*
X102186307Y-95804211D02*
X102294056Y-95804211D01*
X102294056Y-95804211D02*
X102401806Y-95750336D01*
X102401806Y-95750336D02*
X102455681Y-95696461D01*
X102455681Y-95696461D02*
X102509555Y-95588712D01*
X102509555Y-95588712D02*
X102509555Y-95534837D01*
X102509555Y-95534837D02*
X102320994Y-95346275D01*
X102320994Y-95346275D02*
X102213244Y-95454025D01*
X102805867Y-95346275D02*
X102240181Y-94780590D01*
X102240181Y-94780590D02*
X102455681Y-94565090D01*
X102455681Y-94565090D02*
X102536493Y-94538153D01*
X102536493Y-94538153D02*
X102590368Y-94538153D01*
X102590368Y-94538153D02*
X102671180Y-94565090D01*
X102671180Y-94565090D02*
X102751992Y-94645903D01*
X102751992Y-94645903D02*
X102778929Y-94726715D01*
X102778929Y-94726715D02*
X102778929Y-94780590D01*
X102778929Y-94780590D02*
X102751992Y-94861402D01*
X102751992Y-94861402D02*
X102536493Y-95076901D01*
X103667864Y-94484278D02*
X103344615Y-94807527D01*
X103506239Y-94645903D02*
X102940554Y-94080217D01*
X102940554Y-94080217D02*
X102967491Y-94214904D01*
X102967491Y-94214904D02*
X102967491Y-94322654D01*
X102967491Y-94322654D02*
X102940554Y-94403466D01*
X103290740Y-93730031D02*
X103667864Y-93352907D01*
X103667864Y-93352907D02*
X103991113Y-94161029D01*
X128257910Y-53843089D02*
X128608097Y-53492902D01*
X128608097Y-53492902D02*
X128635034Y-53896963D01*
X128635034Y-53896963D02*
X128715846Y-53816151D01*
X128715846Y-53816151D02*
X128796659Y-53789214D01*
X128796659Y-53789214D02*
X128850533Y-53789214D01*
X128850533Y-53789214D02*
X128931346Y-53816151D01*
X128931346Y-53816151D02*
X129066033Y-53950838D01*
X129066033Y-53950838D02*
X129092970Y-54031650D01*
X129092970Y-54031650D02*
X129092970Y-54085525D01*
X129092970Y-54085525D02*
X129066033Y-54166337D01*
X129066033Y-54166337D02*
X128904408Y-54327962D01*
X128904408Y-54327962D02*
X128823596Y-54354899D01*
X128823596Y-54354899D02*
X128769721Y-54354899D01*
X128769721Y-53331278D02*
X129523969Y-53708401D01*
X129523969Y-53708401D02*
X129146845Y-52954154D01*
X129281532Y-52819467D02*
X129631718Y-52469281D01*
X129631718Y-52469281D02*
X129658655Y-52873342D01*
X129658655Y-52873342D02*
X129739468Y-52792530D01*
X129739468Y-52792530D02*
X129820280Y-52765592D01*
X129820280Y-52765592D02*
X129874155Y-52765592D01*
X129874155Y-52765592D02*
X129954967Y-52792530D01*
X129954967Y-52792530D02*
X130089654Y-52927217D01*
X130089654Y-52927217D02*
X130116591Y-53008029D01*
X130116591Y-53008029D02*
X130116591Y-53061904D01*
X130116591Y-53061904D02*
X130089654Y-53142716D01*
X130089654Y-53142716D02*
X129928029Y-53304341D01*
X129928029Y-53304341D02*
X129847217Y-53331278D01*
X129847217Y-53331278D02*
X129793342Y-53331278D01*
X130628402Y-52550093D02*
X130601465Y-52630905D01*
X130601465Y-52630905D02*
X130493715Y-52738655D01*
X130493715Y-52738655D02*
X130412903Y-52765592D01*
X130412903Y-52765592D02*
X130332091Y-52738655D01*
X130332091Y-52738655D02*
X130116591Y-52523156D01*
X130116591Y-52523156D02*
X130089654Y-52442344D01*
X130089654Y-52442344D02*
X130116591Y-52361531D01*
X130116591Y-52361531D02*
X130224341Y-52253782D01*
X130224341Y-52253782D02*
X130305153Y-52226844D01*
X130305153Y-52226844D02*
X130385965Y-52253782D01*
X130385965Y-52253782D02*
X130439840Y-52307657D01*
X130439840Y-52307657D02*
X130224341Y-52630905D01*
X116168444Y-100745699D02*
X115692253Y-101079032D01*
X116168444Y-101317127D02*
X115168444Y-101317127D01*
X115168444Y-101317127D02*
X115168444Y-100936175D01*
X115168444Y-100936175D02*
X115216063Y-100840937D01*
X115216063Y-100840937D02*
X115263682Y-100793318D01*
X115263682Y-100793318D02*
X115358920Y-100745699D01*
X115358920Y-100745699D02*
X115501777Y-100745699D01*
X115501777Y-100745699D02*
X115597015Y-100793318D01*
X115597015Y-100793318D02*
X115644634Y-100840937D01*
X115644634Y-100840937D02*
X115692253Y-100936175D01*
X115692253Y-100936175D02*
X115692253Y-101317127D01*
X115168444Y-100412365D02*
X115168444Y-99793318D01*
X115168444Y-99793318D02*
X115549396Y-100126651D01*
X115549396Y-100126651D02*
X115549396Y-99983794D01*
X115549396Y-99983794D02*
X115597015Y-99888556D01*
X115597015Y-99888556D02*
X115644634Y-99840937D01*
X115644634Y-99840937D02*
X115739872Y-99793318D01*
X115739872Y-99793318D02*
X115977967Y-99793318D01*
X115977967Y-99793318D02*
X116073205Y-99840937D01*
X116073205Y-99840937D02*
X116120825Y-99888556D01*
X116120825Y-99888556D02*
X116168444Y-99983794D01*
X116168444Y-99983794D02*
X116168444Y-100269508D01*
X116168444Y-100269508D02*
X116120825Y-100364746D01*
X116120825Y-100364746D02*
X116073205Y-100412365D01*
X172879819Y-101498937D02*
X173689342Y-101498937D01*
X173689342Y-101498937D02*
X173784580Y-101451318D01*
X173784580Y-101451318D02*
X173832200Y-101403699D01*
X173832200Y-101403699D02*
X173879819Y-101308461D01*
X173879819Y-101308461D02*
X173879819Y-101117985D01*
X173879819Y-101117985D02*
X173832200Y-101022747D01*
X173832200Y-101022747D02*
X173784580Y-100975128D01*
X173784580Y-100975128D02*
X173689342Y-100927509D01*
X173689342Y-100927509D02*
X172879819Y-100927509D01*
X173879819Y-99927509D02*
X173879819Y-100498937D01*
X173879819Y-100213223D02*
X172879819Y-100213223D01*
X172879819Y-100213223D02*
X173022676Y-100308461D01*
X173022676Y-100308461D02*
X173117914Y-100403699D01*
X173117914Y-100403699D02*
X173165533Y-100498937D01*
X156832579Y-104459699D02*
X156880199Y-104507318D01*
X156880199Y-104507318D02*
X156927818Y-104650175D01*
X156927818Y-104650175D02*
X156927818Y-104745413D01*
X156927818Y-104745413D02*
X156880199Y-104888270D01*
X156880199Y-104888270D02*
X156784960Y-104983508D01*
X156784960Y-104983508D02*
X156689722Y-105031127D01*
X156689722Y-105031127D02*
X156499246Y-105078746D01*
X156499246Y-105078746D02*
X156356389Y-105078746D01*
X156356389Y-105078746D02*
X156165913Y-105031127D01*
X156165913Y-105031127D02*
X156070675Y-104983508D01*
X156070675Y-104983508D02*
X155975437Y-104888270D01*
X155975437Y-104888270D02*
X155927818Y-104745413D01*
X155927818Y-104745413D02*
X155927818Y-104650175D01*
X155927818Y-104650175D02*
X155975437Y-104507318D01*
X155975437Y-104507318D02*
X156023056Y-104459699D01*
X156261151Y-103602556D02*
X156927818Y-103602556D01*
X155880199Y-103840651D02*
X156594484Y-104078746D01*
X156594484Y-104078746D02*
X156594484Y-103459699D01*
X126373819Y-101592937D02*
X127183342Y-101592937D01*
X127183342Y-101592937D02*
X127278580Y-101545318D01*
X127278580Y-101545318D02*
X127326200Y-101497699D01*
X127326200Y-101497699D02*
X127373819Y-101402461D01*
X127373819Y-101402461D02*
X127373819Y-101211985D01*
X127373819Y-101211985D02*
X127326200Y-101116747D01*
X127326200Y-101116747D02*
X127278580Y-101069128D01*
X127278580Y-101069128D02*
X127183342Y-101021509D01*
X127183342Y-101021509D02*
X126373819Y-101021509D01*
X126373819Y-100069128D02*
X126373819Y-100545318D01*
X126373819Y-100545318D02*
X126850009Y-100592937D01*
X126850009Y-100592937D02*
X126802390Y-100545318D01*
X126802390Y-100545318D02*
X126754771Y-100450080D01*
X126754771Y-100450080D02*
X126754771Y-100211985D01*
X126754771Y-100211985D02*
X126802390Y-100116747D01*
X126802390Y-100116747D02*
X126850009Y-100069128D01*
X126850009Y-100069128D02*
X126945247Y-100021509D01*
X126945247Y-100021509D02*
X127183342Y-100021509D01*
X127183342Y-100021509D02*
X127278580Y-100069128D01*
X127278580Y-100069128D02*
X127326200Y-100116747D01*
X127326200Y-100116747D02*
X127373819Y-100211985D01*
X127373819Y-100211985D02*
X127373819Y-100450080D01*
X127373819Y-100450080D02*
X127326200Y-100545318D01*
X127326200Y-100545318D02*
X127278580Y-100592937D01*
X165082640Y-104758852D02*
X165082640Y-105473137D01*
X165082640Y-105473137D02*
X165035021Y-105615994D01*
X165035021Y-105615994D02*
X164939783Y-105711233D01*
X164939783Y-105711233D02*
X164796926Y-105758852D01*
X164796926Y-105758852D02*
X164701688Y-105758852D01*
X166082640Y-105758852D02*
X165511212Y-105758852D01*
X165796926Y-105758852D02*
X165796926Y-104758852D01*
X165796926Y-104758852D02*
X165701688Y-104901709D01*
X165701688Y-104901709D02*
X165606450Y-104996947D01*
X165606450Y-104996947D02*
X165511212Y-105044566D01*
X107675605Y-104459699D02*
X107723225Y-104507318D01*
X107723225Y-104507318D02*
X107770844Y-104650175D01*
X107770844Y-104650175D02*
X107770844Y-104745413D01*
X107770844Y-104745413D02*
X107723225Y-104888270D01*
X107723225Y-104888270D02*
X107627986Y-104983508D01*
X107627986Y-104983508D02*
X107532748Y-105031127D01*
X107532748Y-105031127D02*
X107342272Y-105078746D01*
X107342272Y-105078746D02*
X107199415Y-105078746D01*
X107199415Y-105078746D02*
X107008939Y-105031127D01*
X107008939Y-105031127D02*
X106913701Y-104983508D01*
X106913701Y-104983508D02*
X106818463Y-104888270D01*
X106818463Y-104888270D02*
X106770844Y-104745413D01*
X106770844Y-104745413D02*
X106770844Y-104650175D01*
X106770844Y-104650175D02*
X106818463Y-104507318D01*
X106818463Y-104507318D02*
X106866082Y-104459699D01*
X106770844Y-104126365D02*
X106770844Y-103507318D01*
X106770844Y-103507318D02*
X107151796Y-103840651D01*
X107151796Y-103840651D02*
X107151796Y-103697794D01*
X107151796Y-103697794D02*
X107199415Y-103602556D01*
X107199415Y-103602556D02*
X107247034Y-103554937D01*
X107247034Y-103554937D02*
X107342272Y-103507318D01*
X107342272Y-103507318D02*
X107580367Y-103507318D01*
X107580367Y-103507318D02*
X107675605Y-103554937D01*
X107675605Y-103554937D02*
X107723225Y-103602556D01*
X107723225Y-103602556D02*
X107770844Y-103697794D01*
X107770844Y-103697794D02*
X107770844Y-103983508D01*
X107770844Y-103983508D02*
X107723225Y-104078746D01*
X107723225Y-104078746D02*
X107675605Y-104126365D01*
X140297095Y-52725852D02*
X140297095Y-51725852D01*
X140297095Y-52202042D02*
X140868523Y-52202042D01*
X140868523Y-52725852D02*
X140868523Y-51725852D01*
X141868523Y-52725852D02*
X141297095Y-52725852D01*
X141582809Y-52725852D02*
X141582809Y-51725852D01*
X141582809Y-51725852D02*
X141487571Y-51868709D01*
X141487571Y-51868709D02*
X141392333Y-51963947D01*
X141392333Y-51963947D02*
X141297095Y-52011566D01*
X120980044Y-100903699D02*
X120503853Y-101237032D01*
X120980044Y-101475127D02*
X119980044Y-101475127D01*
X119980044Y-101475127D02*
X119980044Y-101094175D01*
X119980044Y-101094175D02*
X120027663Y-100998937D01*
X120027663Y-100998937D02*
X120075282Y-100951318D01*
X120075282Y-100951318D02*
X120170520Y-100903699D01*
X120170520Y-100903699D02*
X120313377Y-100903699D01*
X120313377Y-100903699D02*
X120408615Y-100951318D01*
X120408615Y-100951318D02*
X120456234Y-100998937D01*
X120456234Y-100998937D02*
X120503853Y-101094175D01*
X120503853Y-101094175D02*
X120503853Y-101475127D01*
X120313377Y-100046556D02*
X120980044Y-100046556D01*
X119932425Y-100284651D02*
X120646710Y-100522746D01*
X120646710Y-100522746D02*
X120646710Y-99903699D01*
X137495820Y-75514613D02*
X137448201Y-75562233D01*
X137448201Y-75562233D02*
X137305344Y-75609852D01*
X137305344Y-75609852D02*
X137210106Y-75609852D01*
X137210106Y-75609852D02*
X137067249Y-75562233D01*
X137067249Y-75562233D02*
X136972011Y-75466994D01*
X136972011Y-75466994D02*
X136924392Y-75371756D01*
X136924392Y-75371756D02*
X136876773Y-75181280D01*
X136876773Y-75181280D02*
X136876773Y-75038423D01*
X136876773Y-75038423D02*
X136924392Y-74847947D01*
X136924392Y-74847947D02*
X136972011Y-74752709D01*
X136972011Y-74752709D02*
X137067249Y-74657471D01*
X137067249Y-74657471D02*
X137210106Y-74609852D01*
X137210106Y-74609852D02*
X137305344Y-74609852D01*
X137305344Y-74609852D02*
X137448201Y-74657471D01*
X137448201Y-74657471D02*
X137495820Y-74705090D01*
X138448201Y-75609852D02*
X137876773Y-75609852D01*
X138162487Y-75609852D02*
X138162487Y-74609852D01*
X138162487Y-74609852D02*
X138067249Y-74752709D01*
X138067249Y-74752709D02*
X137972011Y-74847947D01*
X137972011Y-74847947D02*
X137876773Y-74895566D01*
X143845820Y-71814613D02*
X143798201Y-71862233D01*
X143798201Y-71862233D02*
X143655344Y-71909852D01*
X143655344Y-71909852D02*
X143560106Y-71909852D01*
X143560106Y-71909852D02*
X143417249Y-71862233D01*
X143417249Y-71862233D02*
X143322011Y-71766994D01*
X143322011Y-71766994D02*
X143274392Y-71671756D01*
X143274392Y-71671756D02*
X143226773Y-71481280D01*
X143226773Y-71481280D02*
X143226773Y-71338423D01*
X143226773Y-71338423D02*
X143274392Y-71147947D01*
X143274392Y-71147947D02*
X143322011Y-71052709D01*
X143322011Y-71052709D02*
X143417249Y-70957471D01*
X143417249Y-70957471D02*
X143560106Y-70909852D01*
X143560106Y-70909852D02*
X143655344Y-70909852D01*
X143655344Y-70909852D02*
X143798201Y-70957471D01*
X143798201Y-70957471D02*
X143845820Y-71005090D01*
X144226773Y-71005090D02*
X144274392Y-70957471D01*
X144274392Y-70957471D02*
X144369630Y-70909852D01*
X144369630Y-70909852D02*
X144607725Y-70909852D01*
X144607725Y-70909852D02*
X144702963Y-70957471D01*
X144702963Y-70957471D02*
X144750582Y-71005090D01*
X144750582Y-71005090D02*
X144798201Y-71100328D01*
X144798201Y-71100328D02*
X144798201Y-71195566D01*
X144798201Y-71195566D02*
X144750582Y-71338423D01*
X144750582Y-71338423D02*
X144179154Y-71909852D01*
X144179154Y-71909852D02*
X144798201Y-71909852D01*
X115925666Y-104758852D02*
X115925666Y-105473137D01*
X115925666Y-105473137D02*
X115878047Y-105615994D01*
X115878047Y-105615994D02*
X115782809Y-105711233D01*
X115782809Y-105711233D02*
X115639952Y-105758852D01*
X115639952Y-105758852D02*
X115544714Y-105758852D01*
X116830428Y-105092185D02*
X116830428Y-105758852D01*
X116592333Y-104711233D02*
X116354238Y-105425518D01*
X116354238Y-105425518D02*
X116973285Y-105425518D01*
X165325418Y-100745699D02*
X164849227Y-101079032D01*
X165325418Y-101317127D02*
X164325418Y-101317127D01*
X164325418Y-101317127D02*
X164325418Y-100936175D01*
X164325418Y-100936175D02*
X164373037Y-100840937D01*
X164373037Y-100840937D02*
X164420656Y-100793318D01*
X164420656Y-100793318D02*
X164515894Y-100745699D01*
X164515894Y-100745699D02*
X164658751Y-100745699D01*
X164658751Y-100745699D02*
X164753989Y-100793318D01*
X164753989Y-100793318D02*
X164801608Y-100840937D01*
X164801608Y-100840937D02*
X164849227Y-100936175D01*
X164849227Y-100936175D02*
X164849227Y-101317127D01*
X165325418Y-99793318D02*
X165325418Y-100364746D01*
X165325418Y-100079032D02*
X164325418Y-100079032D01*
X164325418Y-100079032D02*
X164468275Y-100174270D01*
X164468275Y-100174270D02*
X164563513Y-100269508D01*
X164563513Y-100269508D02*
X164611132Y-100364746D01*
X140075582Y-79029319D02*
X140075582Y-79838842D01*
X140075582Y-79838842D02*
X140123201Y-79934080D01*
X140123201Y-79934080D02*
X140170820Y-79981700D01*
X140170820Y-79981700D02*
X140266058Y-80029319D01*
X140266058Y-80029319D02*
X140456534Y-80029319D01*
X140456534Y-80029319D02*
X140551772Y-79981700D01*
X140551772Y-79981700D02*
X140599391Y-79934080D01*
X140599391Y-79934080D02*
X140647010Y-79838842D01*
X140647010Y-79838842D02*
X140647010Y-79029319D01*
X141551772Y-79362652D02*
X141551772Y-80029319D01*
X141313677Y-78981700D02*
X141075582Y-79695985D01*
X141075582Y-79695985D02*
X141694629Y-79695985D01*
X102857095Y-109605852D02*
X102857095Y-108605852D01*
X102857095Y-109082042D02*
X103428523Y-109082042D01*
X103428523Y-109605852D02*
X103428523Y-108605852D01*
X103857095Y-108701090D02*
X103904714Y-108653471D01*
X103904714Y-108653471D02*
X103999952Y-108605852D01*
X103999952Y-108605852D02*
X104238047Y-108605852D01*
X104238047Y-108605852D02*
X104333285Y-108653471D01*
X104333285Y-108653471D02*
X104380904Y-108701090D01*
X104380904Y-108701090D02*
X104428523Y-108796328D01*
X104428523Y-108796328D02*
X104428523Y-108891566D01*
X104428523Y-108891566D02*
X104380904Y-109034423D01*
X104380904Y-109034423D02*
X103809476Y-109605852D01*
X103809476Y-109605852D02*
X104428523Y-109605852D01*
D11*
%TO.C,R2*%
X166994199Y-100009969D02*
X166994199Y-101464097D01*
X168814199Y-100009969D02*
X168814199Y-101464097D01*
%TO.C,U6*%
X154664721Y-45056033D02*
X154664721Y-45356033D01*
X154664721Y-45056033D02*
X175664721Y-45056033D01*
X154664721Y-47456033D02*
X154664721Y-47856033D01*
X154664721Y-47723033D02*
X157671721Y-47723033D01*
X154664721Y-50056033D02*
X154664721Y-50456033D01*
X154664721Y-52556033D02*
X154664721Y-52956033D01*
X154664721Y-55156033D02*
X154664721Y-55556033D01*
X154664721Y-57656033D02*
X154664721Y-58056033D01*
X154664721Y-60156033D02*
X154664721Y-60556033D01*
X154664721Y-62756033D02*
X154664721Y-63156033D01*
X154664721Y-65256033D02*
X154664721Y-65656033D01*
X154664721Y-67856033D02*
X154664721Y-68256033D01*
X154664721Y-70356033D02*
X154664721Y-70756033D01*
X154664721Y-72856033D02*
X154664721Y-73256033D01*
X154664721Y-75456033D02*
X154664721Y-75856033D01*
X154664721Y-77956033D02*
X154664721Y-78356033D01*
X154664721Y-80556033D02*
X154664721Y-80956033D01*
X154664721Y-83056033D02*
X154664721Y-83456033D01*
X154664721Y-85656033D02*
X154664721Y-86056033D01*
X154664721Y-88156033D02*
X154664721Y-88556033D01*
X154664721Y-90656033D02*
X154664721Y-91056033D01*
X154664721Y-93256033D02*
X154664721Y-93656033D01*
X157671721Y-47723033D02*
X157671721Y-45056033D01*
X161464721Y-96056033D02*
X154664721Y-96056033D01*
X163664721Y-96056033D02*
X164064721Y-96056033D01*
X166264721Y-96056033D02*
X166664721Y-96056033D01*
X175664721Y-45056033D02*
X175664721Y-45356033D01*
X175664721Y-47456033D02*
X175664721Y-47856033D01*
X175664721Y-50056033D02*
X175664721Y-50456033D01*
X175664721Y-52556033D02*
X175664721Y-52956033D01*
X175664721Y-55156033D02*
X175664721Y-55556033D01*
X175664721Y-57656033D02*
X175664721Y-58056033D01*
X175664721Y-60156033D02*
X175664721Y-60556033D01*
X175664721Y-62756033D02*
X175664721Y-63156033D01*
X175664721Y-65256033D02*
X175664721Y-65656033D01*
X175664721Y-67856033D02*
X175664721Y-68256033D01*
X175664721Y-70356033D02*
X175664721Y-70756033D01*
X175664721Y-72856033D02*
X175664721Y-73256033D01*
X175664721Y-75456033D02*
X175664721Y-75856033D01*
X175664721Y-77956033D02*
X175664721Y-78356033D01*
X175664721Y-80556033D02*
X175664721Y-80956033D01*
X175664721Y-83056033D02*
X175664721Y-83456033D01*
X175664721Y-85656033D02*
X175664721Y-86056033D01*
X175664721Y-88156033D02*
X175664721Y-88556033D01*
X175664721Y-90656033D02*
X175664721Y-91056033D01*
X175664721Y-93256033D02*
X175664721Y-93656033D01*
X175664721Y-96056033D02*
X168864721Y-96056033D01*
%TO.C,U2*%
X126507747Y-96056033D02*
X119707747Y-96056033D01*
X126507747Y-93256033D02*
X126507747Y-93656033D01*
X126507747Y-90656033D02*
X126507747Y-91056033D01*
X126507747Y-88156033D02*
X126507747Y-88556033D01*
X126507747Y-85656033D02*
X126507747Y-86056033D01*
X126507747Y-83056033D02*
X126507747Y-83456033D01*
X126507747Y-80556033D02*
X126507747Y-80956033D01*
X126507747Y-77956033D02*
X126507747Y-78356033D01*
X126507747Y-75456033D02*
X126507747Y-75856033D01*
X126507747Y-72856033D02*
X126507747Y-73256033D01*
X126507747Y-70356033D02*
X126507747Y-70756033D01*
X126507747Y-67856033D02*
X126507747Y-68256033D01*
X126507747Y-65256033D02*
X126507747Y-65656033D01*
X126507747Y-62756033D02*
X126507747Y-63156033D01*
X126507747Y-60156033D02*
X126507747Y-60556033D01*
X126507747Y-57656033D02*
X126507747Y-58056033D01*
X126507747Y-55156033D02*
X126507747Y-55556033D01*
X126507747Y-52556033D02*
X126507747Y-52956033D01*
X126507747Y-50056033D02*
X126507747Y-50456033D01*
X126507747Y-47456033D02*
X126507747Y-47856033D01*
X126507747Y-45056033D02*
X126507747Y-45356033D01*
X117107747Y-96056033D02*
X117507747Y-96056033D01*
X114507747Y-96056033D02*
X114907747Y-96056033D01*
X112307747Y-96056033D02*
X105507747Y-96056033D01*
X108514747Y-47723033D02*
X108514747Y-45056033D01*
X105507747Y-93256033D02*
X105507747Y-93656033D01*
X105507747Y-90656033D02*
X105507747Y-91056033D01*
X105507747Y-88156033D02*
X105507747Y-88556033D01*
X105507747Y-85656033D02*
X105507747Y-86056033D01*
X105507747Y-83056033D02*
X105507747Y-83456033D01*
X105507747Y-80556033D02*
X105507747Y-80956033D01*
X105507747Y-77956033D02*
X105507747Y-78356033D01*
X105507747Y-75456033D02*
X105507747Y-75856033D01*
X105507747Y-72856033D02*
X105507747Y-73256033D01*
X105507747Y-70356033D02*
X105507747Y-70756033D01*
X105507747Y-67856033D02*
X105507747Y-68256033D01*
X105507747Y-65256033D02*
X105507747Y-65656033D01*
X105507747Y-62756033D02*
X105507747Y-63156033D01*
X105507747Y-60156033D02*
X105507747Y-60556033D01*
X105507747Y-57656033D02*
X105507747Y-58056033D01*
X105507747Y-55156033D02*
X105507747Y-55556033D01*
X105507747Y-52556033D02*
X105507747Y-52956033D01*
X105507747Y-50056033D02*
X105507747Y-50456033D01*
X105507747Y-47723033D02*
X108514747Y-47723033D01*
X105507747Y-47456033D02*
X105507747Y-47856033D01*
X105507747Y-45056033D02*
X126507747Y-45056033D01*
X105507747Y-45056033D02*
X105507747Y-45356033D01*
%TO.C,R3*%
X114845625Y-100009969D02*
X114845625Y-101464097D01*
X113025625Y-100009969D02*
X113025625Y-101464097D01*
D12*
%TO.C,U1*%
X171774000Y-99733733D02*
X171774000Y-101740333D01*
X175076000Y-101740333D02*
X175076000Y-99733733D01*
D11*
%TO.C,C4*%
X157340999Y-100025781D02*
X157340999Y-101448285D01*
X159160999Y-100025781D02*
X159160999Y-101448285D01*
D12*
%TO.C,U5*%
X125919026Y-101740333D02*
X125919026Y-99733733D01*
X122617026Y-99733733D02*
X122617026Y-101740333D01*
D11*
%TO.C,J1*%
X158105974Y-121074033D02*
X158105974Y-121594033D01*
X158105974Y-121594033D02*
X172725974Y-121594033D01*
X158755974Y-106114033D02*
X158755974Y-109444033D01*
X158755974Y-106114033D02*
X172075974Y-106114033D01*
X158755974Y-121074033D02*
X158105974Y-121074033D01*
X158755974Y-121074033D02*
X158755974Y-112964033D01*
X161015974Y-105894033D02*
X162815974Y-105894033D01*
X172075974Y-106114033D02*
X172075974Y-109444033D01*
X172075974Y-112964033D02*
X172075974Y-121074033D01*
X172725974Y-121074033D02*
X172075974Y-121074033D01*
X172725974Y-121594033D02*
X172725974Y-121074033D01*
%TO.C,C3*%
X110004025Y-100025781D02*
X110004025Y-101448285D01*
X108184025Y-100025781D02*
X108184025Y-101448285D01*
%TO.C,R4*%
X119657225Y-100009969D02*
X119657225Y-101464097D01*
X117837225Y-100009969D02*
X117837225Y-101464097D01*
%TO.C,C1*%
X138373739Y-72395033D02*
X136951235Y-72395033D01*
X138373739Y-74215033D02*
X136951235Y-74215033D01*
%TO.C,C2*%
X143301235Y-72395033D02*
X144723739Y-72395033D01*
X143301235Y-74215033D02*
X144723739Y-74215033D01*
%TO.C,J4*%
X123569000Y-121594033D02*
X123569000Y-121074033D01*
X123569000Y-121074033D02*
X122919000Y-121074033D01*
X122919000Y-112964033D02*
X122919000Y-121074033D01*
X122919000Y-106114033D02*
X122919000Y-109444033D01*
X111859000Y-105894033D02*
X113659000Y-105894033D01*
X109599000Y-121074033D02*
X109599000Y-112964033D01*
X109599000Y-121074033D02*
X108949000Y-121074033D01*
X109599000Y-106114033D02*
X122919000Y-106114033D01*
X109599000Y-106114033D02*
X109599000Y-109444033D01*
X108949000Y-121594033D02*
X123569000Y-121594033D01*
X108949000Y-121074033D02*
X108949000Y-121594033D01*
%TO.C,R1*%
X162182599Y-100009969D02*
X162182599Y-101464097D01*
X164002599Y-100009969D02*
X164002599Y-101464097D01*
%TO.C,U4*%
X140837487Y-77014500D02*
X138887487Y-77014500D01*
X140837487Y-77014500D02*
X142787487Y-77014500D01*
X140837487Y-82134500D02*
X138887487Y-82134500D01*
X140837487Y-82134500D02*
X142787487Y-82134500D01*
X138137487Y-77109500D02*
X137897487Y-76779500D01*
X138377487Y-76779500D01*
X138137487Y-77109500D01*
G36*
X138137487Y-77109500D02*
G01*
X137897487Y-76779500D01*
X138377487Y-76779500D01*
X138137487Y-77109500D01*
G37*
%TD*%
D13*
X177759000Y-113331033D03*
X162439721Y-46556033D03*
X162739721Y-49586033D03*
X167589721Y-49586033D03*
X167889721Y-46556033D03*
X156274721Y-46426033D03*
X156274721Y-48966033D03*
X156274721Y-51506033D03*
X156274721Y-54046033D03*
X156274721Y-56586033D03*
X156274721Y-59126033D03*
X156274721Y-61666033D03*
X156274721Y-64206033D03*
X156274721Y-66746033D03*
X156274721Y-69286033D03*
X156274721Y-71826033D03*
X156274721Y-74366033D03*
X156274721Y-76906033D03*
X156274721Y-79446033D03*
X156274721Y-81986033D03*
X156274721Y-84526033D03*
X156274721Y-87066033D03*
X156274721Y-89606033D03*
X156274721Y-92146033D03*
X156274721Y-94686033D03*
X174054721Y-94686033D03*
X174054721Y-92146033D03*
X174054721Y-89606033D03*
X174054721Y-87066033D03*
X174054721Y-84526033D03*
X174054721Y-81986033D03*
X174054721Y-79446033D03*
X174054721Y-76906033D03*
X174054721Y-74366033D03*
X174054721Y-71826033D03*
X174054721Y-69286033D03*
X174054721Y-66746033D03*
X174054721Y-64206033D03*
X174054721Y-61666033D03*
X174054721Y-59126033D03*
X174054721Y-56586033D03*
X174054721Y-54046033D03*
X174054721Y-51506033D03*
X174054721Y-48966033D03*
X174054721Y-46426033D03*
X162624721Y-94456033D03*
X165164721Y-94456033D03*
X167704721Y-94456033D03*
X118547747Y-94456033D03*
X116007747Y-94456033D03*
X113467747Y-94456033D03*
X124897747Y-46426033D03*
X124897747Y-48966033D03*
X124897747Y-51506033D03*
X124897747Y-54046033D03*
X124897747Y-56586033D03*
X124897747Y-59126033D03*
X124897747Y-61666033D03*
X124897747Y-64206033D03*
X124897747Y-66746033D03*
X124897747Y-69286033D03*
X124897747Y-71826033D03*
X124897747Y-74366033D03*
X124897747Y-76906033D03*
X124897747Y-79446033D03*
X124897747Y-81986033D03*
X124897747Y-84526033D03*
X124897747Y-87066033D03*
X124897747Y-89606033D03*
X124897747Y-92146033D03*
X124897747Y-94686033D03*
X107117747Y-94686033D03*
X107117747Y-92146033D03*
X107117747Y-89606033D03*
X107117747Y-87066033D03*
X107117747Y-84526033D03*
X107117747Y-81986033D03*
X107117747Y-79446033D03*
X107117747Y-76906033D03*
X107117747Y-74366033D03*
X107117747Y-71826033D03*
X107117747Y-69286033D03*
X107117747Y-66746033D03*
X107117747Y-64206033D03*
X107117747Y-61666033D03*
X107117747Y-59126033D03*
X107117747Y-56586033D03*
X107117747Y-54046033D03*
X107117747Y-51506033D03*
X107117747Y-48966033D03*
X107117747Y-46426033D03*
X118732747Y-46556033D03*
X118432747Y-49586033D03*
X113582747Y-49586033D03*
X113282747Y-46556033D03*
X161915974Y-108494033D03*
X164415974Y-108494033D03*
X166415974Y-108494033D03*
X168915974Y-108494033D03*
X158845974Y-111204033D03*
X171985974Y-111204033D03*
X140909000Y-46981033D03*
X122829000Y-111204033D03*
X109689000Y-111204033D03*
X119759000Y-108494033D03*
X117259000Y-108494033D03*
X115259000Y-108494033D03*
X112759000Y-108494033D03*
X103619000Y-112851033D03*
M02*
