%TF.GenerationSoftware,KiCad,Pcbnew,8.0.4*%
%TF.CreationDate,2024-10-03T12:24:39+05:30*%
%TF.ProjectId,DeskHop_Rev1,4465736b-486f-4705-9f52-6576312e6b69,rev?*%
%TF.SameCoordinates,Original*%
%TF.FileFunction,Copper,L2,Bot*%
%TF.FilePolarity,Positive*%
%FSLAX46Y46*%
G04 Gerber Fmt 4.6, Leading zero omitted, Abs format (unit mm)*
G04 Created by KiCad (PCBNEW 8.0.4) date 2024-10-03 12:24:39*
%MOMM*%
%LPD*%
G01*
G04 APERTURE LIST*
%TA.AperFunction,ComponentPad*%
%ADD10C,3.100000*%
%TD*%
%TA.AperFunction,ConnectorPad*%
%ADD11C,5.400000*%
%TD*%
%TA.AperFunction,ComponentPad*%
%ADD12O,1.700000X1.700000*%
%TD*%
%TA.AperFunction,ComponentPad*%
%ADD13R,1.700000X1.700000*%
%TD*%
%TA.AperFunction,ComponentPad*%
%ADD14R,1.600000X1.500000*%
%TD*%
%TA.AperFunction,ComponentPad*%
%ADD15C,1.600000*%
%TD*%
%TA.AperFunction,ComponentPad*%
%ADD16C,3.000000*%
%TD*%
%TA.AperFunction,ViaPad*%
%ADD17C,0.800000*%
%TD*%
%TA.AperFunction,Conductor*%
%ADD18C,0.500000*%
%TD*%
%ADD19C,0.350000*%
G04 APERTURE END LIST*
D10*
%TO.P,H3,1,1*%
%TO.N,GND2*%
X177759000Y-113331033D03*
D11*
X177759000Y-113331033D03*
%TD*%
D12*
%TO.P,U6,1,GPIO0*%
%TO.N,unconnected-(U6-GPIO0-Pad1)*%
X156274721Y-46426033D03*
%TO.P,U6,2,GPIO1*%
%TO.N,unconnected-(U6-GPIO1-Pad2)*%
X156274721Y-48966033D03*
D13*
%TO.P,U6,3,GPIO2*%
%TO.N,unconnected-(U6-GPIO2-Pad3)*%
X156274721Y-51506033D03*
D12*
%TO.P,U6,4,GPIO3*%
%TO.N,unconnected-(U6-GPIO3-Pad4)*%
X156274721Y-54046033D03*
%TO.P,U6,5,GPIO4*%
%TO.N,unconnected-(U6-GPIO4-Pad5)*%
X156274721Y-56586033D03*
%TO.P,U6,6,GND*%
%TO.N,GND2*%
X156274721Y-59126033D03*
%TO.P,U6,7,GPIO5*%
%TO.N,unconnected-(U6-GPIO5-Pad7)*%
X156274721Y-61666033D03*
D13*
%TO.P,U6,8,GPIO6*%
%TO.N,unconnected-(U6-GPIO6-Pad8)*%
X156274721Y-64206033D03*
D12*
%TO.P,U6,9,GPIO7*%
%TO.N,unconnected-(U6-GPIO7-Pad9)*%
X156274721Y-66746033D03*
%TO.P,U6,10,GPIO8*%
%TO.N,unconnected-(U6-GPIO8-Pad10)*%
X156274721Y-69286033D03*
%TO.P,U6,11,GPIO9*%
%TO.N,unconnected-(U6-GPIO9-Pad11)*%
X156274721Y-71826033D03*
%TO.P,U6,12,GPIO10*%
%TO.N,unconnected-(U6-GPIO10-Pad12)*%
X156274721Y-74366033D03*
D13*
%TO.P,U6,13,GPIO11*%
%TO.N,UART A TX*%
X156274721Y-76906033D03*
D12*
%TO.P,U6,14,GPIO12*%
%TO.N,UART A RX*%
X156274721Y-79446033D03*
%TO.P,U6,15,GND*%
%TO.N,GND2*%
X156274721Y-81986033D03*
%TO.P,U6,16,GPIO13*%
%TO.N,unconnected-(U6-GPIO13-Pad16)*%
X156274721Y-84526033D03*
%TO.P,U6,17,GPIO14*%
%TO.N,unconnected-(U6-GPIO14-Pad17)*%
X156274721Y-87066033D03*
D13*
%TO.P,U6,18,GPIO15*%
%TO.N,unconnected-(U6-GPIO15-Pad18)*%
X156274721Y-89606033D03*
D12*
%TO.P,U6,19,GPIO16*%
%TO.N,/AD+*%
X156274721Y-92146033D03*
%TO.P,U6,20,GPIO17*%
%TO.N,/AD-*%
X156274721Y-94686033D03*
%TO.P,U6,21,GPIO18*%
%TO.N,unconnected-(U6-GPIO18-Pad21)*%
X174054721Y-94686033D03*
%TO.P,U6,22,GPIO19*%
%TO.N,unconnected-(U6-GPIO19-Pad22)*%
X174054721Y-92146033D03*
D13*
%TO.P,U6,23,GPIO20*%
%TO.N,unconnected-(U6-GPIO20-Pad23)*%
X174054721Y-89606033D03*
D12*
%TO.P,U6,24,GPIO21*%
%TO.N,unconnected-(U6-GPIO21-Pad24)*%
X174054721Y-87066033D03*
%TO.P,U6,25,GPIO22*%
%TO.N,unconnected-(U6-GPIO22-Pad25)*%
X174054721Y-84526033D03*
%TO.P,U6,26,GPIO23*%
%TO.N,unconnected-(U6-GPIO23-Pad26)*%
X174054721Y-81986033D03*
%TO.P,U6,27,GPIO24*%
%TO.N,unconnected-(U6-GPIO24-Pad27)*%
X174054721Y-79446033D03*
D13*
%TO.P,U6,28,GPIO25*%
%TO.N,unconnected-(U6-GPIO25-Pad28)*%
X174054721Y-76906033D03*
D12*
%TO.P,U6,29,AGND*%
%TO.N,unconnected-(U6-AGND-Pad29)*%
X174054721Y-74366033D03*
%TO.P,U6,30,GPIO26*%
%TO.N,unconnected-(U6-GPIO26-Pad30)*%
X174054721Y-71826033D03*
%TO.P,U6,31,GPIO27_ADC1*%
%TO.N,unconnected-(U6-GPIO27_ADC1-Pad31)*%
X174054721Y-69286033D03*
%TO.P,U6,32,GPIO28_ADC2*%
%TO.N,unconnected-(U6-GPIO28_ADC2-Pad32)*%
X174054721Y-66746033D03*
D13*
%TO.P,U6,33,GPIO29_ADC3*%
%TO.N,unconnected-(U6-GPIO29_ADC3-Pad33)*%
X174054721Y-64206033D03*
D12*
%TO.P,U6,34,RUN*%
%TO.N,unconnected-(U6-RUN-Pad34)*%
X174054721Y-61666033D03*
%TO.P,U6,35,GND*%
%TO.N,GND2*%
X174054721Y-59126033D03*
%TO.P,U6,36,3V3*%
%TO.N,Net-(U4-VDD2)*%
X174054721Y-56586033D03*
%TO.P,U6,37,3V3_EN*%
%TO.N,unconnected-(U6-3V3_EN-Pad37)*%
X174054721Y-54046033D03*
D13*
%TO.P,U6,38,GND*%
%TO.N,GND2*%
X174054721Y-51506033D03*
D12*
%TO.P,U6,39,VSYS*%
%TO.N,unconnected-(U6-VSYS-Pad39)*%
X174054721Y-48966033D03*
%TO.P,U6,40,VBUS*%
%TO.N,VBUS1*%
X174054721Y-46426033D03*
%TO.P,U6,41,SWCLK*%
%TO.N,unconnected-(U6-SWCLK-Pad41)*%
X162624721Y-94456033D03*
D13*
%TO.P,U6,42,GND*%
%TO.N,unconnected-(U6-GND-Pad42)*%
X165164721Y-94456033D03*
D12*
%TO.P,U6,43,SWDIO*%
%TO.N,unconnected-(U6-SWDIO-Pad43)*%
X167704721Y-94456033D03*
%TD*%
%TO.P,U2,43,SWDIO*%
%TO.N,unconnected-(U2-SWDIO-Pad43)*%
X118547747Y-94456033D03*
D13*
%TO.P,U2,42,GND*%
%TO.N,unconnected-(U2-GND-Pad42)*%
X116007747Y-94456033D03*
D12*
%TO.P,U2,41,SWCLK*%
%TO.N,unconnected-(U2-SWCLK-Pad41)*%
X113467747Y-94456033D03*
%TO.P,U2,40,VBUS*%
%TO.N,VBUS2*%
X124897747Y-46426033D03*
%TO.P,U2,39,VSYS*%
%TO.N,unconnected-(U2-VSYS-Pad39)*%
X124897747Y-48966033D03*
D13*
%TO.P,U2,38,GND*%
%TO.N,unconnected-(U2-GND-Pad38)*%
X124897747Y-51506033D03*
D12*
%TO.P,U2,37,3V3_EN*%
%TO.N,unconnected-(U2-3V3_EN-Pad37)*%
X124897747Y-54046033D03*
%TO.P,U2,36,3V3*%
%TO.N,3V3*%
X124897747Y-56586033D03*
%TO.P,U2,35,GND*%
%TO.N,unconnected-(U2-GND-Pad35)*%
X124897747Y-59126033D03*
%TO.P,U2,34,RUN*%
%TO.N,unconnected-(U2-RUN-Pad34)*%
X124897747Y-61666033D03*
D13*
%TO.P,U2,33,GPIO29_ADC3*%
%TO.N,unconnected-(U2-GPIO29_ADC3-Pad33)*%
X124897747Y-64206033D03*
D12*
%TO.P,U2,32,GPIO28_ADC2*%
%TO.N,unconnected-(U2-GPIO28_ADC2-Pad32)*%
X124897747Y-66746033D03*
%TO.P,U2,31,GPIO27_ADC1*%
%TO.N,unconnected-(U2-GPIO27_ADC1-Pad31)*%
X124897747Y-69286033D03*
%TO.P,U2,30,GPIO26*%
%TO.N,unconnected-(U2-GPIO26-Pad30)*%
X124897747Y-71826033D03*
%TO.P,U2,29,AGND*%
%TO.N,unconnected-(U2-AGND-Pad29)*%
X124897747Y-74366033D03*
D13*
%TO.P,U2,28,GPIO25*%
%TO.N,unconnected-(U2-GPIO25-Pad28)*%
X124897747Y-76906033D03*
D12*
%TO.P,U2,27,GPIO24*%
%TO.N,UART B RX*%
X124897747Y-79446033D03*
%TO.P,U2,26,GPIO23*%
%TO.N,UART B TX*%
X124897747Y-81986033D03*
%TO.P,U2,25,GPIO22*%
%TO.N,unconnected-(U2-GPIO22-Pad25)*%
X124897747Y-84526033D03*
%TO.P,U2,24,GPIO21*%
%TO.N,unconnected-(U2-GPIO21-Pad24)*%
X124897747Y-87066033D03*
D13*
%TO.P,U2,23,GPIO20*%
%TO.N,unconnected-(U2-GPIO20-Pad23)*%
X124897747Y-89606033D03*
D12*
%TO.P,U2,22,GPIO19*%
%TO.N,unconnected-(U2-GPIO19-Pad22)*%
X124897747Y-92146033D03*
%TO.P,U2,21,GPIO18*%
%TO.N,unconnected-(U2-GPIO18-Pad21)*%
X124897747Y-94686033D03*
%TO.P,U2,20,GPIO17*%
%TO.N,Net-(U2-GPIO17)*%
X107117747Y-94686033D03*
%TO.P,U2,19,GPIO16*%
%TO.N,Net-(U2-GPIO16)*%
X107117747Y-92146033D03*
D13*
%TO.P,U2,18,GPIO15*%
%TO.N,unconnected-(U2-GPIO15-Pad18)*%
X107117747Y-89606033D03*
D12*
%TO.P,U2,17,GPIO14*%
%TO.N,unconnected-(U2-GPIO14-Pad17)*%
X107117747Y-87066033D03*
%TO.P,U2,16,GPIO13*%
%TO.N,unconnected-(U2-GPIO13-Pad16)*%
X107117747Y-84526033D03*
%TO.P,U2,15,GND*%
%TO.N,GND1*%
X107117747Y-81986033D03*
%TO.P,U2,14,GPIO12*%
%TO.N,unconnected-(U2-GPIO12-Pad14)*%
X107117747Y-79446033D03*
D13*
%TO.P,U2,13,GPIO11*%
%TO.N,unconnected-(U2-GPIO11-Pad13)*%
X107117747Y-76906033D03*
D12*
%TO.P,U2,12,GPIO10*%
%TO.N,unconnected-(U2-GPIO10-Pad12)*%
X107117747Y-74366033D03*
%TO.P,U2,11,GPIO9*%
%TO.N,unconnected-(U2-GPIO9-Pad11)*%
X107117747Y-71826033D03*
%TO.P,U2,10,GPIO8*%
%TO.N,unconnected-(U2-GPIO8-Pad10)*%
X107117747Y-69286033D03*
%TO.P,U2,9,GPIO7*%
%TO.N,unconnected-(U2-GPIO7-Pad9)*%
X107117747Y-66746033D03*
D13*
%TO.P,U2,8,GPIO6*%
%TO.N,unconnected-(U2-GPIO6-Pad8)*%
X107117747Y-64206033D03*
D12*
%TO.P,U2,7,GPIO5*%
%TO.N,unconnected-(U2-GPIO5-Pad7)*%
X107117747Y-61666033D03*
%TO.P,U2,6,GND*%
%TO.N,GND1*%
X107117747Y-59126033D03*
%TO.P,U2,5,GPIO4*%
%TO.N,unconnected-(U2-GPIO4-Pad5)*%
X107117747Y-56586033D03*
%TO.P,U2,4,GPIO3*%
%TO.N,unconnected-(U2-GPIO3-Pad4)*%
X107117747Y-54046033D03*
D13*
%TO.P,U2,3,GPIO2*%
%TO.N,unconnected-(U2-GPIO2-Pad3)*%
X107117747Y-51506033D03*
D12*
%TO.P,U2,2,GPIO1*%
%TO.N,unconnected-(U2-GPIO1-Pad2)*%
X107117747Y-48966033D03*
%TO.P,U2,1,GPIO0*%
%TO.N,unconnected-(U2-GPIO0-Pad1)*%
X107117747Y-46426033D03*
%TD*%
D14*
%TO.P,J1,1,VBUS*%
%TO.N,VBUS1*%
X161915974Y-108494033D03*
D15*
%TO.P,J1,2,D-*%
%TO.N,OA-*%
X164415974Y-108494033D03*
%TO.P,J1,3,D+*%
%TO.N,OA+*%
X166415974Y-108494033D03*
%TO.P,J1,4,GND*%
%TO.N,GND2*%
X168915974Y-108494033D03*
D16*
%TO.P,J1,5,Shield*%
X158845974Y-111204033D03*
X171985974Y-111204033D03*
%TD*%
D10*
%TO.P,H1,1,1*%
%TO.N,GND2*%
X140909000Y-46981033D03*
D11*
X140909000Y-46981033D03*
%TD*%
D16*
%TO.P,J4,5,Shield*%
%TO.N,GND1*%
X122829000Y-111204033D03*
X109689000Y-111204033D03*
D15*
%TO.P,J4,4,GND*%
X119759000Y-108494033D03*
%TO.P,J4,3,D+*%
%TO.N,OB+*%
X117259000Y-108494033D03*
%TO.P,J4,2,D-*%
%TO.N,OB-*%
X115259000Y-108494033D03*
D14*
%TO.P,J4,1,VBUS*%
%TO.N,VBUS2*%
X112759000Y-108494033D03*
%TD*%
D10*
%TO.P,H2,1,1*%
%TO.N,GND1*%
X103619000Y-112851033D03*
D11*
X103619000Y-112851033D03*
%TD*%
D17*
%TO.N,Net-(U4-VDD2)*%
X169361000Y-57303033D03*
X142691000Y-70511033D03*
%TO.N,VBUS2*%
X111449000Y-99213033D03*
%TO.N,VBUS1*%
X160249000Y-98788080D03*
%TD*%
D18*
%TO.N,Net-(U4-VDD2)*%
X149295000Y-61653069D02*
X149295000Y-46603031D01*
X169361000Y-57303033D02*
X166890792Y-59773240D01*
X160217000Y-59367034D02*
X160217000Y-48939084D01*
X142691000Y-70511033D02*
X147701207Y-65500825D01*
X151294998Y-44603033D02*
X155880948Y-44603033D01*
X163043036Y-61367033D02*
X162216998Y-61367033D01*
X151294998Y-44603033D02*
G75*
G03*
X149295033Y-46603031I2J-1999967D01*
G01*
X160217000Y-59367034D02*
G75*
G03*
X162216998Y-61367000I2000000J34D01*
G01*
X155880948Y-44603033D02*
G75*
G02*
X158946979Y-45873054I-48J-4336067D01*
G01*
X149295000Y-61653069D02*
G75*
G02*
X147701233Y-65500851I-5441600J-31D01*
G01*
X158947000Y-45873033D02*
G75*
G02*
X160216997Y-48939084I-3066100J-3066067D01*
G01*
X163043036Y-61367033D02*
G75*
G03*
X166890771Y-59773219I-36J5441533D01*
G01*
%TO.N,VBUS2*%
X110941000Y-86227031D02*
X110941000Y-98345822D01*
X111195000Y-98959033D02*
X111449000Y-99213033D01*
X121895373Y-84164844D02*
X121893721Y-84164844D01*
X123305016Y-46746000D02*
X124442782Y-46746000D01*
X112940998Y-84227033D02*
X121743583Y-84227033D01*
X121941000Y-48110016D02*
X121941000Y-84119217D01*
X124829016Y-46586016D02*
X124989000Y-46426033D01*
X121895373Y-84164844D02*
G75*
G03*
X121941044Y-84119217I27J45644D01*
G01*
X110941000Y-86227031D02*
G75*
G02*
X112940998Y-84227000I2000000J31D01*
G01*
X111195000Y-98959033D02*
G75*
G02*
X110940981Y-98345822I613200J613233D01*
G01*
X121818652Y-84195938D02*
G75*
G02*
X121743583Y-84227030I-75052J75038D01*
G01*
X124829016Y-46586016D02*
G75*
G02*
X124442782Y-46745992I-386216J386216D01*
G01*
X123305016Y-46746000D02*
G75*
G03*
X121941000Y-48110016I-16J-1364000D01*
G01*
X121818652Y-84195938D02*
G75*
G02*
X121893721Y-84164856I75048J-75062D01*
G01*
%TO.N,VBUS1*%
X173599756Y-46746000D02*
X172461990Y-46746000D01*
X171097974Y-48110016D02*
X171097974Y-84148642D01*
X160217000Y-98756080D02*
X160217000Y-86227031D01*
X160249000Y-98788080D02*
X160217000Y-98756080D01*
X162410998Y-84421033D02*
X170825583Y-84421033D01*
X162216998Y-84227033D02*
X162410998Y-84421033D01*
X174145974Y-46426033D02*
X173985990Y-46586016D01*
X171019583Y-84227033D02*
X170825583Y-84421033D01*
X171097974Y-84148642D02*
X170825583Y-84421033D01*
X172461990Y-46746000D02*
G75*
G03*
X171098000Y-48110016I10J-1364000D01*
G01*
X173985990Y-46586016D02*
G75*
G02*
X173599756Y-46745974I-386190J386216D01*
G01*
X160217000Y-86227031D02*
G75*
G02*
X162216998Y-84227000I2000000J31D01*
G01*
%TD*%
D19*
X169361000Y-57303033D03*
X142691000Y-70511033D03*
X111449000Y-99213033D03*
X160249000Y-98788080D03*
X177759000Y-113331033D03*
X162439721Y-46556033D03*
X162739721Y-49586033D03*
X167589721Y-49586033D03*
X167889721Y-46556033D03*
X156274721Y-46426033D03*
X156274721Y-48966033D03*
X156274721Y-51506033D03*
X156274721Y-54046033D03*
X156274721Y-56586033D03*
X156274721Y-59126033D03*
X156274721Y-61666033D03*
X156274721Y-64206033D03*
X156274721Y-66746033D03*
X156274721Y-69286033D03*
X156274721Y-71826033D03*
X156274721Y-74366033D03*
X156274721Y-76906033D03*
X156274721Y-79446033D03*
X156274721Y-81986033D03*
X156274721Y-84526033D03*
X156274721Y-87066033D03*
X156274721Y-89606033D03*
X156274721Y-92146033D03*
X156274721Y-94686033D03*
X174054721Y-94686033D03*
X174054721Y-92146033D03*
X174054721Y-89606033D03*
X174054721Y-87066033D03*
X174054721Y-84526033D03*
X174054721Y-81986033D03*
X174054721Y-79446033D03*
X174054721Y-76906033D03*
X174054721Y-74366033D03*
X174054721Y-71826033D03*
X174054721Y-69286033D03*
X174054721Y-66746033D03*
X174054721Y-64206033D03*
X174054721Y-61666033D03*
X174054721Y-59126033D03*
X174054721Y-56586033D03*
X174054721Y-54046033D03*
X174054721Y-51506033D03*
X174054721Y-48966033D03*
X174054721Y-46426033D03*
X162624721Y-94456033D03*
X165164721Y-94456033D03*
X167704721Y-94456033D03*
X118547747Y-94456033D03*
X116007747Y-94456033D03*
X113467747Y-94456033D03*
X124897747Y-46426033D03*
X124897747Y-48966033D03*
X124897747Y-51506033D03*
X124897747Y-54046033D03*
X124897747Y-56586033D03*
X124897747Y-59126033D03*
X124897747Y-61666033D03*
X124897747Y-64206033D03*
X124897747Y-66746033D03*
X124897747Y-69286033D03*
X124897747Y-71826033D03*
X124897747Y-74366033D03*
X124897747Y-76906033D03*
X124897747Y-79446033D03*
X124897747Y-81986033D03*
X124897747Y-84526033D03*
X124897747Y-87066033D03*
X124897747Y-89606033D03*
X124897747Y-92146033D03*
X124897747Y-94686033D03*
X107117747Y-94686033D03*
X107117747Y-92146033D03*
X107117747Y-89606033D03*
X107117747Y-87066033D03*
X107117747Y-84526033D03*
X107117747Y-81986033D03*
X107117747Y-79446033D03*
X107117747Y-76906033D03*
X107117747Y-74366033D03*
X107117747Y-71826033D03*
X107117747Y-69286033D03*
X107117747Y-66746033D03*
X107117747Y-64206033D03*
X107117747Y-61666033D03*
X107117747Y-59126033D03*
X107117747Y-56586033D03*
X107117747Y-54046033D03*
X107117747Y-51506033D03*
X107117747Y-48966033D03*
X107117747Y-46426033D03*
X118732747Y-46556033D03*
X118432747Y-49586033D03*
X113582747Y-49586033D03*
X113282747Y-46556033D03*
X161915974Y-108494033D03*
X164415974Y-108494033D03*
X166415974Y-108494033D03*
X168915974Y-108494033D03*
X158845974Y-111204033D03*
X171985974Y-111204033D03*
X140909000Y-46981033D03*
X122829000Y-111204033D03*
X109689000Y-111204033D03*
X119759000Y-108494033D03*
X117259000Y-108494033D03*
X115259000Y-108494033D03*
X112759000Y-108494033D03*
X103619000Y-112851033D03*
M02*
