M48
; DRILL file {KiCad 8.0.5} date 2024-10-19T09:16:07+0530
; FORMAT={-:-/ absolute / metric / decimal}
; #@! TF.CreationDate,2024-10-19T09:16:07+05:30
; #@! TF.GenerationSoftware,Kicad,Pcbnew,8.0.5
; #@! TF.FileFunction,MixedPlating,1,2
FMAT,2
METRIC
; #@! TA.AperFunction,Plated,PTH,ViaDrill
T1C0.400
; #@! TA.AperFunction,Plated,PTH,ComponentDrill
T2C0.950
; #@! TA.AperFunction,Plated,PTH,ComponentDrill
T3C1.020
; #@! TA.AperFunction,Plated,PTH,ComponentDrill
T4C2.300
; #@! TA.AperFunction,Plated,PTH,ComponentDrill
T5C2.700
; #@! TA.AperFunction,NonPlated,NPTH,ComponentDrill
T6C1.500
; #@! TA.AperFunction,NonPlated,NPTH,ComponentDrill
T7C1.800
%
G90
G05
T1
X75.706Y-114.265
X76.816Y-104.635
X76.836Y-103.343
X85.25Y-99.279
X99.836Y-98.893
X99.966Y-94.353
X106.948Y-85.563
X124.506Y-113.84
X133.618Y-72.355
T2
X77.016Y-123.546
X79.516Y-123.546
X81.516Y-123.546
X84.016Y-123.546
X126.172Y-123.546
X128.672Y-123.546
X130.672Y-123.546
X133.172Y-123.546
T3
X71.374Y-61.478
X71.374Y-64.018
X71.374Y-66.558
X71.374Y-69.098
X71.374Y-71.638
X71.374Y-74.178
X71.374Y-76.718
X71.374Y-79.258
X71.374Y-81.798
X71.374Y-84.338
X71.374Y-86.878
X71.374Y-89.418
X71.374Y-91.958
X71.374Y-94.498
X71.374Y-97.038
X71.374Y-99.578
X71.374Y-102.118
X71.374Y-104.658
X71.374Y-107.198
X71.374Y-109.738
X77.724Y-109.508
X80.264Y-109.508
X82.804Y-109.508
X89.154Y-61.478
X89.154Y-64.018
X89.154Y-66.558
X89.154Y-69.098
X89.154Y-71.638
X89.154Y-74.178
X89.154Y-76.718
X89.154Y-79.258
X89.154Y-81.798
X89.154Y-84.338
X89.154Y-86.878
X89.154Y-89.418
X89.154Y-91.958
X89.154Y-94.498
X89.154Y-97.038
X89.154Y-99.578
X89.154Y-102.118
X89.154Y-104.658
X89.154Y-107.198
X89.154Y-109.738
X120.531Y-61.478
X120.531Y-64.018
X120.531Y-66.558
X120.531Y-69.098
X120.531Y-71.638
X120.531Y-74.178
X120.531Y-76.718
X120.531Y-79.258
X120.531Y-81.798
X120.531Y-84.338
X120.531Y-86.878
X120.531Y-89.418
X120.531Y-91.958
X120.531Y-94.498
X120.531Y-97.038
X120.531Y-99.578
X120.531Y-102.118
X120.531Y-104.658
X120.531Y-107.198
X120.531Y-109.738
X126.881Y-109.508
X129.421Y-109.508
X131.961Y-109.508
X138.311Y-61.478
X138.311Y-64.018
X138.311Y-66.558
X138.311Y-69.098
X138.311Y-71.638
X138.311Y-74.178
X138.311Y-76.718
X138.311Y-79.258
X138.311Y-81.798
X138.311Y-84.338
X138.311Y-86.878
X138.311Y-89.418
X138.311Y-91.958
X138.311Y-94.498
X138.311Y-97.038
X138.311Y-99.578
X138.311Y-102.118
X138.311Y-104.658
X138.311Y-107.198
X138.311Y-109.738
T4
X73.946Y-126.256
X87.086Y-126.256
X123.102Y-126.256
X136.242Y-126.256
T5
X67.876Y-127.903
X105.166Y-62.033
X142.016Y-128.383
T6
X77.839Y-64.638
X82.689Y-64.638
X126.996Y-64.638
X131.846Y-64.638
T7
X77.539Y-61.608
X82.989Y-61.608
X126.696Y-61.608
X132.146Y-61.608
M30
