M48
METRIC,TZ
T1C0.400
T2C0.950
T3C1.020
T4C2.300
T5C2.700
%
G90
G05
T1
X75706Y-114265
X76816Y-104635
X76836Y-103343
X85250Y-99279
X99836Y-98893
X99966Y-94353
X106948Y-85563
X124506Y-113840
X133618Y-72355
T2
X77016Y-123546
X79516Y-123546
X81516Y-123546
X84016Y-123546
X126172Y-123546
X128672Y-123546
X130672Y-123546
X133172Y-123546
T3
X71374Y-61478
X71374Y-64018
X71374Y-66558
X71374Y-69098
X71374Y-71638
X71374Y-74178
X71374Y-76718
X71374Y-79258
X71374Y-81798
X71374Y-84338
X71374Y-86878
X71374Y-89418
X71374Y-91958
X71374Y-94498
X71374Y-97038
X71374Y-99578
X71374Y-102118
X71374Y-104658
X71374Y-107198
X71374Y-109738
X77724Y-109508
X80264Y-109508
X82804Y-109508
X89154Y-61478
X89154Y-64018
X89154Y-66558
X89154Y-69098
X89154Y-71638
X89154Y-74178
X89154Y-76718
X89154Y-79258
X89154Y-81798
X89154Y-84338
X89154Y-86878
X89154Y-89418
X89154Y-91958
X89154Y-94498
X89154Y-97038
X89154Y-99578
X89154Y-102118
X89154Y-104658
X89154Y-107198
X89154Y-109738
X120531Y-61478
X120531Y-64018
X120531Y-66558
X120531Y-69098
X120531Y-71638
X120531Y-74178
X120531Y-76718
X120531Y-79258
X120531Y-81798
X120531Y-84338
X120531Y-86878
X120531Y-89418
X120531Y-91958
X120531Y-94498
X120531Y-97038
X120531Y-99578
X120531Y-102118
X120531Y-104658
X120531Y-107198
X120531Y-109738
X126881Y-109508
X129421Y-109508
X131961Y-109508
X138311Y-61478
X138311Y-64018
X138311Y-66558
X138311Y-69098
X138311Y-71638
X138311Y-74178
X138311Y-76718
X138311Y-79258
X138311Y-81798
X138311Y-84338
X138311Y-86878
X138311Y-89418
X138311Y-91958
X138311Y-94498
X138311Y-97038
X138311Y-99578
X138311Y-102118
X138311Y-104658
X138311Y-107198
X138311Y-109738
T4
X73946Y-126256
X87086Y-126256
X123102Y-126256
X136242Y-126256
T5
X67876Y-127903
X105166Y-62033
X142016Y-128383
M30
