M48
METRIC,TZ
T1C0.400
T2C0.950
T3C1.020
T4C2.300
T5C2.700
%
G90
G05
T1
X111449Y-99213
X142691Y-70511
X160249Y-98788
X169361Y-57303
T2
X112759Y-108494
X115259Y-108494
X117259Y-108494
X119759Y-108494
X161916Y-108494
X164416Y-108494
X166416Y-108494
X168916Y-108494
T3
X107118Y-46426
X107118Y-48966
X107118Y-51506
X107118Y-54046
X107118Y-56586
X107118Y-59126
X107118Y-61666
X107118Y-64206
X107118Y-66746
X107118Y-69286
X107118Y-71826
X107118Y-74366
X107118Y-76906
X107118Y-79446
X107118Y-81986
X107118Y-84526
X107118Y-87066
X107118Y-89606
X107118Y-92146
X107118Y-94686
X113468Y-94456
X116008Y-94456
X118548Y-94456
X124898Y-46426
X124898Y-48966
X124898Y-51506
X124898Y-54046
X124898Y-56586
X124898Y-59126
X124898Y-61666
X124898Y-64206
X124898Y-66746
X124898Y-69286
X124898Y-71826
X124898Y-74366
X124898Y-76906
X124898Y-79446
X124898Y-81986
X124898Y-84526
X124898Y-87066
X124898Y-89606
X124898Y-92146
X124898Y-94686
X156275Y-46426
X156275Y-48966
X156275Y-51506
X156275Y-54046
X156275Y-56586
X156275Y-59126
X156275Y-61666
X156275Y-64206
X156275Y-66746
X156275Y-69286
X156275Y-71826
X156275Y-74366
X156275Y-76906
X156275Y-79446
X156275Y-81986
X156275Y-84526
X156275Y-87066
X156275Y-89606
X156275Y-92146
X156275Y-94686
X162625Y-94456
X165165Y-94456
X167705Y-94456
X174055Y-46426
X174055Y-48966
X174055Y-51506
X174055Y-54046
X174055Y-56586
X174055Y-59126
X174055Y-61666
X174055Y-64206
X174055Y-66746
X174055Y-69286
X174055Y-71826
X174055Y-74366
X174055Y-76906
X174055Y-79446
X174055Y-81986
X174055Y-84526
X174055Y-87066
X174055Y-89606
X174055Y-92146
X174055Y-94686
T4
X109689Y-111204
X122829Y-111204
X158846Y-111204
X171986Y-111204
T5
X103619Y-112851
X140909Y-46981
X177759Y-113331
M30
