%TF.GenerationSoftware,KiCad,Pcbnew,8.0.5*%
%TF.CreationDate,2024-10-19T09:16:07+05:30*%
%TF.ProjectId,DeskHop_Rev1,4465736b-486f-4705-9f52-6576312e6b69,rev?*%
%TF.SameCoordinates,Original*%
%TF.FileFunction,Legend,Top*%
%TF.FilePolarity,Positive*%
%FSLAX46Y46*%
G04 Gerber Fmt 4.6, Leading zero omitted, Abs format (unit mm)*
G04 Created by KiCad (PCBNEW 8.0.5) date 2024-10-19 09:16:07*
%MOMM*%
%LPD*%
G01*
G04 APERTURE LIST*
%ADD10C,0.150000*%
%ADD11C,0.120000*%
%ADD12C,0.152400*%
%ADD13C,0.350000*%
G04 APERTURE END LIST*
D10*
X141253608Y-125137385D02*
X141253608Y-124137385D01*
X141253608Y-124613575D02*
X141825036Y-124613575D01*
X141825036Y-125137385D02*
X141825036Y-124137385D01*
X142205989Y-124137385D02*
X142825036Y-124137385D01*
X142825036Y-124137385D02*
X142491703Y-124518337D01*
X142491703Y-124518337D02*
X142634560Y-124518337D01*
X142634560Y-124518337D02*
X142729798Y-124565956D01*
X142729798Y-124565956D02*
X142777417Y-124613575D01*
X142777417Y-124613575D02*
X142825036Y-124708813D01*
X142825036Y-124708813D02*
X142825036Y-124946908D01*
X142825036Y-124946908D02*
X142777417Y-125042146D01*
X142777417Y-125042146D02*
X142729798Y-125089766D01*
X142729798Y-125089766D02*
X142634560Y-125137385D01*
X142634560Y-125137385D02*
X142348846Y-125137385D01*
X142348846Y-125137385D02*
X142253608Y-125089766D01*
X142253608Y-125089766D02*
X142205989Y-125042146D01*
X85446832Y-111594136D02*
X85446832Y-112403659D01*
X85446832Y-112403659D02*
X85494451Y-112498897D01*
X85494451Y-112498897D02*
X85542070Y-112546517D01*
X85542070Y-112546517D02*
X85637308Y-112594136D01*
X85637308Y-112594136D02*
X85827784Y-112594136D01*
X85827784Y-112594136D02*
X85923022Y-112546517D01*
X85923022Y-112546517D02*
X85970641Y-112498897D01*
X85970641Y-112498897D02*
X86018260Y-112403659D01*
X86018260Y-112403659D02*
X86018260Y-111594136D01*
X86446832Y-111689374D02*
X86494451Y-111641755D01*
X86494451Y-111641755D02*
X86589689Y-111594136D01*
X86589689Y-111594136D02*
X86827784Y-111594136D01*
X86827784Y-111594136D02*
X86923022Y-111641755D01*
X86923022Y-111641755D02*
X86970641Y-111689374D01*
X86970641Y-111689374D02*
X87018260Y-111784612D01*
X87018260Y-111784612D02*
X87018260Y-111879850D01*
X87018260Y-111879850D02*
X86970641Y-112022707D01*
X86970641Y-112022707D02*
X86399213Y-112594136D01*
X86399213Y-112594136D02*
X87018260Y-112594136D01*
X92514423Y-68894622D02*
X92864610Y-68544435D01*
X92864610Y-68544435D02*
X92891547Y-68948496D01*
X92891547Y-68948496D02*
X92972359Y-68867684D01*
X92972359Y-68867684D02*
X93053172Y-68840747D01*
X93053172Y-68840747D02*
X93107046Y-68840747D01*
X93107046Y-68840747D02*
X93187859Y-68867684D01*
X93187859Y-68867684D02*
X93322546Y-69002371D01*
X93322546Y-69002371D02*
X93349483Y-69083183D01*
X93349483Y-69083183D02*
X93349483Y-69137058D01*
X93349483Y-69137058D02*
X93322546Y-69217870D01*
X93322546Y-69217870D02*
X93160921Y-69379495D01*
X93160921Y-69379495D02*
X93080109Y-69406432D01*
X93080109Y-69406432D02*
X93026234Y-69406432D01*
X93026234Y-68382811D02*
X93780482Y-68759934D01*
X93780482Y-68759934D02*
X93403358Y-68005687D01*
X93538045Y-67871000D02*
X93888231Y-67520814D01*
X93888231Y-67520814D02*
X93915168Y-67924875D01*
X93915168Y-67924875D02*
X93995981Y-67844063D01*
X93995981Y-67844063D02*
X94076793Y-67817125D01*
X94076793Y-67817125D02*
X94130668Y-67817125D01*
X94130668Y-67817125D02*
X94211480Y-67844063D01*
X94211480Y-67844063D02*
X94346167Y-67978750D01*
X94346167Y-67978750D02*
X94373104Y-68059562D01*
X94373104Y-68059562D02*
X94373104Y-68113437D01*
X94373104Y-68113437D02*
X94346167Y-68194249D01*
X94346167Y-68194249D02*
X94184542Y-68355874D01*
X94184542Y-68355874D02*
X94103730Y-68382811D01*
X94103730Y-68382811D02*
X94049855Y-68382811D01*
X94884915Y-67601626D02*
X94857978Y-67682438D01*
X94857978Y-67682438D02*
X94750228Y-67790188D01*
X94750228Y-67790188D02*
X94669416Y-67817125D01*
X94669416Y-67817125D02*
X94588604Y-67790188D01*
X94588604Y-67790188D02*
X94373104Y-67574689D01*
X94373104Y-67574689D02*
X94346167Y-67493877D01*
X94346167Y-67493877D02*
X94373104Y-67413064D01*
X94373104Y-67413064D02*
X94480854Y-67305315D01*
X94480854Y-67305315D02*
X94561666Y-67278377D01*
X94561666Y-67278377D02*
X94642478Y-67305315D01*
X94642478Y-67305315D02*
X94696353Y-67359190D01*
X94696353Y-67359190D02*
X94480854Y-67682438D01*
X66254258Y-110128434D02*
X66173445Y-110155371D01*
X66173445Y-110155371D02*
X66092633Y-110236184D01*
X66092633Y-110236184D02*
X66038758Y-110343933D01*
X66038758Y-110343933D02*
X66038758Y-110451683D01*
X66038758Y-110451683D02*
X66065696Y-110532495D01*
X66065696Y-110532495D02*
X66146508Y-110667182D01*
X66146508Y-110667182D02*
X66227320Y-110747994D01*
X66227320Y-110747994D02*
X66362007Y-110828807D01*
X66362007Y-110828807D02*
X66442820Y-110855744D01*
X66442820Y-110855744D02*
X66550569Y-110855744D01*
X66550569Y-110855744D02*
X66658319Y-110801869D01*
X66658319Y-110801869D02*
X66712194Y-110747994D01*
X66712194Y-110747994D02*
X66766068Y-110640245D01*
X66766068Y-110640245D02*
X66766068Y-110586370D01*
X66766068Y-110586370D02*
X66577507Y-110397808D01*
X66577507Y-110397808D02*
X66469757Y-110505558D01*
X67062380Y-110397808D02*
X66496694Y-109832123D01*
X66496694Y-109832123D02*
X66712194Y-109616623D01*
X66712194Y-109616623D02*
X66793006Y-109589686D01*
X66793006Y-109589686D02*
X66846881Y-109589686D01*
X66846881Y-109589686D02*
X66927693Y-109616623D01*
X66927693Y-109616623D02*
X67008505Y-109697436D01*
X67008505Y-109697436D02*
X67035442Y-109778248D01*
X67035442Y-109778248D02*
X67035442Y-109832123D01*
X67035442Y-109832123D02*
X67008505Y-109912935D01*
X67008505Y-109912935D02*
X66793006Y-110128434D01*
X67924377Y-109535811D02*
X67601128Y-109859060D01*
X67762752Y-109697436D02*
X67197067Y-109131750D01*
X67197067Y-109131750D02*
X67224004Y-109266437D01*
X67224004Y-109266437D02*
X67224004Y-109374187D01*
X67224004Y-109374187D02*
X67197067Y-109454999D01*
X67547253Y-108781564D02*
X67924377Y-108404440D01*
X67924377Y-108404440D02*
X68247626Y-109212562D01*
X92660258Y-84280434D02*
X92579445Y-84307371D01*
X92579445Y-84307371D02*
X92498633Y-84388184D01*
X92498633Y-84388184D02*
X92444758Y-84495933D01*
X92444758Y-84495933D02*
X92444758Y-84603683D01*
X92444758Y-84603683D02*
X92471696Y-84684495D01*
X92471696Y-84684495D02*
X92552508Y-84819182D01*
X92552508Y-84819182D02*
X92633320Y-84899994D01*
X92633320Y-84899994D02*
X92768007Y-84980807D01*
X92768007Y-84980807D02*
X92848820Y-85007744D01*
X92848820Y-85007744D02*
X92956569Y-85007744D01*
X92956569Y-85007744D02*
X93064319Y-84953869D01*
X93064319Y-84953869D02*
X93118194Y-84899994D01*
X93118194Y-84899994D02*
X93172068Y-84792245D01*
X93172068Y-84792245D02*
X93172068Y-84738370D01*
X93172068Y-84738370D02*
X92983507Y-84549808D01*
X92983507Y-84549808D02*
X92875757Y-84657558D01*
X93468380Y-84549808D02*
X92902694Y-83984123D01*
X92902694Y-83984123D02*
X93118194Y-83768623D01*
X93118194Y-83768623D02*
X93199006Y-83741686D01*
X93199006Y-83741686D02*
X93252881Y-83741686D01*
X93252881Y-83741686D02*
X93333693Y-83768623D01*
X93333693Y-83768623D02*
X93414505Y-83849436D01*
X93414505Y-83849436D02*
X93441442Y-83930248D01*
X93441442Y-83930248D02*
X93441442Y-83984123D01*
X93441442Y-83984123D02*
X93414505Y-84064935D01*
X93414505Y-84064935D02*
X93199006Y-84280434D01*
X93495317Y-83499249D02*
X93495317Y-83445375D01*
X93495317Y-83445375D02*
X93522255Y-83364562D01*
X93522255Y-83364562D02*
X93656942Y-83229875D01*
X93656942Y-83229875D02*
X93737754Y-83202938D01*
X93737754Y-83202938D02*
X93791629Y-83202938D01*
X93791629Y-83202938D02*
X93872441Y-83229875D01*
X93872441Y-83229875D02*
X93926316Y-83283750D01*
X93926316Y-83283750D02*
X93980190Y-83391500D01*
X93980190Y-83391500D02*
X93980190Y-84037997D01*
X93980190Y-84037997D02*
X94330377Y-83687811D01*
X93953253Y-82933564D02*
X94330377Y-82556440D01*
X94330377Y-82556440D02*
X94653626Y-83364562D01*
X92606258Y-86820434D02*
X92525445Y-86847371D01*
X92525445Y-86847371D02*
X92444633Y-86928184D01*
X92444633Y-86928184D02*
X92390758Y-87035933D01*
X92390758Y-87035933D02*
X92390758Y-87143683D01*
X92390758Y-87143683D02*
X92417696Y-87224495D01*
X92417696Y-87224495D02*
X92498508Y-87359182D01*
X92498508Y-87359182D02*
X92579320Y-87439994D01*
X92579320Y-87439994D02*
X92714007Y-87520807D01*
X92714007Y-87520807D02*
X92794820Y-87547744D01*
X92794820Y-87547744D02*
X92902569Y-87547744D01*
X92902569Y-87547744D02*
X93010319Y-87493869D01*
X93010319Y-87493869D02*
X93064194Y-87439994D01*
X93064194Y-87439994D02*
X93118068Y-87332245D01*
X93118068Y-87332245D02*
X93118068Y-87278370D01*
X93118068Y-87278370D02*
X92929507Y-87089808D01*
X92929507Y-87089808D02*
X92821757Y-87197558D01*
X93414380Y-87089808D02*
X92848694Y-86524123D01*
X92848694Y-86524123D02*
X93064194Y-86308623D01*
X93064194Y-86308623D02*
X93145006Y-86281686D01*
X93145006Y-86281686D02*
X93198881Y-86281686D01*
X93198881Y-86281686D02*
X93279693Y-86308623D01*
X93279693Y-86308623D02*
X93360505Y-86389436D01*
X93360505Y-86389436D02*
X93387442Y-86470248D01*
X93387442Y-86470248D02*
X93387442Y-86524123D01*
X93387442Y-86524123D02*
X93360505Y-86604935D01*
X93360505Y-86604935D02*
X93145006Y-86820434D01*
X93441317Y-86039249D02*
X93441317Y-85985375D01*
X93441317Y-85985375D02*
X93468255Y-85904562D01*
X93468255Y-85904562D02*
X93602942Y-85769875D01*
X93602942Y-85769875D02*
X93683754Y-85742938D01*
X93683754Y-85742938D02*
X93737629Y-85742938D01*
X93737629Y-85742938D02*
X93818441Y-85769875D01*
X93818441Y-85769875D02*
X93872316Y-85823750D01*
X93872316Y-85823750D02*
X93926190Y-85931500D01*
X93926190Y-85931500D02*
X93926190Y-86577997D01*
X93926190Y-86577997D02*
X94276377Y-86227811D01*
X94195565Y-85177252D02*
X94087815Y-85285002D01*
X94087815Y-85285002D02*
X94060878Y-85365814D01*
X94060878Y-85365814D02*
X94060878Y-85419689D01*
X94060878Y-85419689D02*
X94087815Y-85554376D01*
X94087815Y-85554376D02*
X94168627Y-85689063D01*
X94168627Y-85689063D02*
X94384126Y-85904562D01*
X94384126Y-85904562D02*
X94464939Y-85931500D01*
X94464939Y-85931500D02*
X94518813Y-85931500D01*
X94518813Y-85931500D02*
X94599626Y-85904562D01*
X94599626Y-85904562D02*
X94707375Y-85796813D01*
X94707375Y-85796813D02*
X94734313Y-85716000D01*
X94734313Y-85716000D02*
X94734313Y-85662126D01*
X94734313Y-85662126D02*
X94707375Y-85581313D01*
X94707375Y-85581313D02*
X94572688Y-85446626D01*
X94572688Y-85446626D02*
X94491876Y-85419689D01*
X94491876Y-85419689D02*
X94438001Y-85419689D01*
X94438001Y-85419689D02*
X94357189Y-85446626D01*
X94357189Y-85446626D02*
X94249439Y-85554376D01*
X94249439Y-85554376D02*
X94222502Y-85635188D01*
X94222502Y-85635188D02*
X94222502Y-85689063D01*
X94222502Y-85689063D02*
X94249439Y-85769875D01*
X66022735Y-105320185D02*
X65941922Y-105347122D01*
X65941922Y-105347122D02*
X65861110Y-105427935D01*
X65861110Y-105427935D02*
X65807235Y-105535684D01*
X65807235Y-105535684D02*
X65807235Y-105643434D01*
X65807235Y-105643434D02*
X65834173Y-105724246D01*
X65834173Y-105724246D02*
X65914985Y-105858933D01*
X65914985Y-105858933D02*
X65995797Y-105939745D01*
X65995797Y-105939745D02*
X66130484Y-106020558D01*
X66130484Y-106020558D02*
X66211297Y-106047495D01*
X66211297Y-106047495D02*
X66319046Y-106047495D01*
X66319046Y-106047495D02*
X66426796Y-105993620D01*
X66426796Y-105993620D02*
X66480671Y-105939745D01*
X66480671Y-105939745D02*
X66534545Y-105831996D01*
X66534545Y-105831996D02*
X66534545Y-105778121D01*
X66534545Y-105778121D02*
X66345984Y-105589559D01*
X66345984Y-105589559D02*
X66238234Y-105697309D01*
X66830857Y-105589559D02*
X66265171Y-105023874D01*
X66265171Y-105023874D02*
X66480671Y-104808374D01*
X66480671Y-104808374D02*
X66561483Y-104781437D01*
X66561483Y-104781437D02*
X66615358Y-104781437D01*
X66615358Y-104781437D02*
X66696170Y-104808374D01*
X66696170Y-104808374D02*
X66776982Y-104889187D01*
X66776982Y-104889187D02*
X66803919Y-104969999D01*
X66803919Y-104969999D02*
X66803919Y-105023874D01*
X66803919Y-105023874D02*
X66776982Y-105104686D01*
X66776982Y-105104686D02*
X66561483Y-105320185D01*
X67692854Y-104727562D02*
X67369605Y-105050811D01*
X67531229Y-104889187D02*
X66965544Y-104323501D01*
X66965544Y-104323501D02*
X66992481Y-104458188D01*
X66992481Y-104458188D02*
X66992481Y-104565938D01*
X66992481Y-104565938D02*
X66965544Y-104646750D01*
X67638979Y-103650066D02*
X67369605Y-103919440D01*
X67369605Y-103919440D02*
X67612042Y-104215751D01*
X67612042Y-104215751D02*
X67612042Y-104161877D01*
X67612042Y-104161877D02*
X67638979Y-104081064D01*
X67638979Y-104081064D02*
X67773666Y-103946377D01*
X67773666Y-103946377D02*
X67854478Y-103919440D01*
X67854478Y-103919440D02*
X67908353Y-103919440D01*
X67908353Y-103919440D02*
X67989165Y-103946377D01*
X67989165Y-103946377D02*
X68123852Y-104081064D01*
X68123852Y-104081064D02*
X68150790Y-104161877D01*
X68150790Y-104161877D02*
X68150790Y-104215751D01*
X68150790Y-104215751D02*
X68123852Y-104296564D01*
X68123852Y-104296564D02*
X67989165Y-104431251D01*
X67989165Y-104431251D02*
X67908353Y-104458188D01*
X67908353Y-104458188D02*
X67854478Y-104458188D01*
X92714133Y-90060806D02*
X92983507Y-89791432D01*
X92821883Y-90276305D02*
X92444759Y-89522058D01*
X92444759Y-89522058D02*
X93199006Y-89899181D01*
X93145131Y-88875560D02*
X93064319Y-88902498D01*
X93064319Y-88902498D02*
X92983507Y-88983310D01*
X92983507Y-88983310D02*
X92929632Y-89091060D01*
X92929632Y-89091060D02*
X92929632Y-89198809D01*
X92929632Y-89198809D02*
X92956570Y-89279621D01*
X92956570Y-89279621D02*
X93037382Y-89414308D01*
X93037382Y-89414308D02*
X93118194Y-89495121D01*
X93118194Y-89495121D02*
X93252881Y-89575933D01*
X93252881Y-89575933D02*
X93333693Y-89602870D01*
X93333693Y-89602870D02*
X93441443Y-89602870D01*
X93441443Y-89602870D02*
X93549192Y-89548995D01*
X93549192Y-89548995D02*
X93603067Y-89495121D01*
X93603067Y-89495121D02*
X93656942Y-89387371D01*
X93656942Y-89387371D02*
X93656942Y-89333496D01*
X93656942Y-89333496D02*
X93468380Y-89144934D01*
X93468380Y-89144934D02*
X93360631Y-89252684D01*
X93953253Y-89144934D02*
X93387568Y-88579249D01*
X93387568Y-88579249D02*
X94276502Y-88821686D01*
X94276502Y-88821686D02*
X93710817Y-88256000D01*
X94545876Y-88552312D02*
X93980191Y-87986626D01*
X93980191Y-87986626D02*
X94114878Y-87851939D01*
X94114878Y-87851939D02*
X94222627Y-87798064D01*
X94222627Y-87798064D02*
X94330377Y-87798064D01*
X94330377Y-87798064D02*
X94411189Y-87825002D01*
X94411189Y-87825002D02*
X94545876Y-87905814D01*
X94545876Y-87905814D02*
X94626688Y-87986626D01*
X94626688Y-87986626D02*
X94707501Y-88121313D01*
X94707501Y-88121313D02*
X94734438Y-88202126D01*
X94734438Y-88202126D02*
X94734438Y-88309875D01*
X94734438Y-88309875D02*
X94680563Y-88417625D01*
X94680563Y-88417625D02*
X94545876Y-88552312D01*
X66777632Y-61599060D02*
X66696820Y-61625997D01*
X66696820Y-61625997D02*
X66616008Y-61706809D01*
X66616008Y-61706809D02*
X66562133Y-61814559D01*
X66562133Y-61814559D02*
X66562133Y-61922308D01*
X66562133Y-61922308D02*
X66589070Y-62003121D01*
X66589070Y-62003121D02*
X66669883Y-62137808D01*
X66669883Y-62137808D02*
X66750695Y-62218620D01*
X66750695Y-62218620D02*
X66885382Y-62299432D01*
X66885382Y-62299432D02*
X66966194Y-62326369D01*
X66966194Y-62326369D02*
X67073944Y-62326369D01*
X67073944Y-62326369D02*
X67181693Y-62272495D01*
X67181693Y-62272495D02*
X67235568Y-62218620D01*
X67235568Y-62218620D02*
X67289443Y-62110870D01*
X67289443Y-62110870D02*
X67289443Y-62056995D01*
X67289443Y-62056995D02*
X67100881Y-61868434D01*
X67100881Y-61868434D02*
X66993131Y-61976183D01*
X67585754Y-61868434D02*
X67020069Y-61302748D01*
X67020069Y-61302748D02*
X67235568Y-61087249D01*
X67235568Y-61087249D02*
X67316380Y-61060312D01*
X67316380Y-61060312D02*
X67370255Y-61060312D01*
X67370255Y-61060312D02*
X67451067Y-61087249D01*
X67451067Y-61087249D02*
X67531879Y-61168061D01*
X67531879Y-61168061D02*
X67558817Y-61248873D01*
X67558817Y-61248873D02*
X67558817Y-61302748D01*
X67558817Y-61302748D02*
X67531879Y-61383560D01*
X67531879Y-61383560D02*
X67316380Y-61599060D01*
X67693504Y-60629313D02*
X67747379Y-60575438D01*
X67747379Y-60575438D02*
X67828191Y-60548501D01*
X67828191Y-60548501D02*
X67882066Y-60548501D01*
X67882066Y-60548501D02*
X67962878Y-60575438D01*
X67962878Y-60575438D02*
X68097565Y-60656251D01*
X68097565Y-60656251D02*
X68232252Y-60790938D01*
X68232252Y-60790938D02*
X68313064Y-60925625D01*
X68313064Y-60925625D02*
X68340001Y-61006437D01*
X68340001Y-61006437D02*
X68340001Y-61060312D01*
X68340001Y-61060312D02*
X68313064Y-61141124D01*
X68313064Y-61141124D02*
X68259189Y-61194999D01*
X68259189Y-61194999D02*
X68178377Y-61221936D01*
X68178377Y-61221936D02*
X68124502Y-61221936D01*
X68124502Y-61221936D02*
X68043690Y-61194999D01*
X68043690Y-61194999D02*
X67909003Y-61114186D01*
X67909003Y-61114186D02*
X67774316Y-60979499D01*
X67774316Y-60979499D02*
X67693504Y-60844812D01*
X67693504Y-60844812D02*
X67666566Y-60764000D01*
X67666566Y-60764000D02*
X67666566Y-60710125D01*
X67666566Y-60710125D02*
X67693504Y-60629313D01*
X66777632Y-81919060D02*
X66696820Y-81945997D01*
X66696820Y-81945997D02*
X66616008Y-82026809D01*
X66616008Y-82026809D02*
X66562133Y-82134559D01*
X66562133Y-82134559D02*
X66562133Y-82242308D01*
X66562133Y-82242308D02*
X66589070Y-82323121D01*
X66589070Y-82323121D02*
X66669883Y-82457808D01*
X66669883Y-82457808D02*
X66750695Y-82538620D01*
X66750695Y-82538620D02*
X66885382Y-82619432D01*
X66885382Y-82619432D02*
X66966194Y-82646369D01*
X66966194Y-82646369D02*
X67073944Y-82646369D01*
X67073944Y-82646369D02*
X67181693Y-82592495D01*
X67181693Y-82592495D02*
X67235568Y-82538620D01*
X67235568Y-82538620D02*
X67289443Y-82430870D01*
X67289443Y-82430870D02*
X67289443Y-82376995D01*
X67289443Y-82376995D02*
X67100881Y-82188434D01*
X67100881Y-82188434D02*
X66993131Y-82296183D01*
X67585754Y-82188434D02*
X67020069Y-81622748D01*
X67020069Y-81622748D02*
X67235568Y-81407249D01*
X67235568Y-81407249D02*
X67316380Y-81380312D01*
X67316380Y-81380312D02*
X67370255Y-81380312D01*
X67370255Y-81380312D02*
X67451067Y-81407249D01*
X67451067Y-81407249D02*
X67531879Y-81488061D01*
X67531879Y-81488061D02*
X67558817Y-81568873D01*
X67558817Y-81568873D02*
X67558817Y-81622748D01*
X67558817Y-81622748D02*
X67531879Y-81703560D01*
X67531879Y-81703560D02*
X67316380Y-81919060D01*
X67531879Y-81110938D02*
X67909003Y-80733814D01*
X67909003Y-80733814D02*
X68232252Y-81541936D01*
X66508258Y-89808434D02*
X66427445Y-89835371D01*
X66427445Y-89835371D02*
X66346633Y-89916184D01*
X66346633Y-89916184D02*
X66292758Y-90023933D01*
X66292758Y-90023933D02*
X66292758Y-90131683D01*
X66292758Y-90131683D02*
X66319696Y-90212495D01*
X66319696Y-90212495D02*
X66400508Y-90347182D01*
X66400508Y-90347182D02*
X66481320Y-90427994D01*
X66481320Y-90427994D02*
X66616007Y-90508807D01*
X66616007Y-90508807D02*
X66696820Y-90535744D01*
X66696820Y-90535744D02*
X66804569Y-90535744D01*
X66804569Y-90535744D02*
X66912319Y-90481869D01*
X66912319Y-90481869D02*
X66966194Y-90427994D01*
X66966194Y-90427994D02*
X67020068Y-90320245D01*
X67020068Y-90320245D02*
X67020068Y-90266370D01*
X67020068Y-90266370D02*
X66831507Y-90077808D01*
X66831507Y-90077808D02*
X66723757Y-90185558D01*
X67316380Y-90077808D02*
X66750694Y-89512123D01*
X66750694Y-89512123D02*
X66966194Y-89296623D01*
X66966194Y-89296623D02*
X67047006Y-89269686D01*
X67047006Y-89269686D02*
X67100881Y-89269686D01*
X67100881Y-89269686D02*
X67181693Y-89296623D01*
X67181693Y-89296623D02*
X67262505Y-89377436D01*
X67262505Y-89377436D02*
X67289442Y-89458248D01*
X67289442Y-89458248D02*
X67289442Y-89512123D01*
X67289442Y-89512123D02*
X67262505Y-89592935D01*
X67262505Y-89592935D02*
X67047006Y-89808434D01*
X68178377Y-89215811D02*
X67855128Y-89539060D01*
X68016752Y-89377436D02*
X67451067Y-88811750D01*
X67451067Y-88811750D02*
X67478004Y-88946437D01*
X67478004Y-88946437D02*
X67478004Y-89054187D01*
X67478004Y-89054187D02*
X67451067Y-89134999D01*
X67962878Y-88299939D02*
X68016752Y-88246065D01*
X68016752Y-88246065D02*
X68097565Y-88219127D01*
X68097565Y-88219127D02*
X68151439Y-88219127D01*
X68151439Y-88219127D02*
X68232252Y-88246065D01*
X68232252Y-88246065D02*
X68366939Y-88326877D01*
X68366939Y-88326877D02*
X68501626Y-88461564D01*
X68501626Y-88461564D02*
X68582438Y-88596251D01*
X68582438Y-88596251D02*
X68609375Y-88677063D01*
X68609375Y-88677063D02*
X68609375Y-88730938D01*
X68609375Y-88730938D02*
X68582438Y-88811750D01*
X68582438Y-88811750D02*
X68528563Y-88865625D01*
X68528563Y-88865625D02*
X68447751Y-88892562D01*
X68447751Y-88892562D02*
X68393876Y-88892562D01*
X68393876Y-88892562D02*
X68313064Y-88865625D01*
X68313064Y-88865625D02*
X68178377Y-88784813D01*
X68178377Y-88784813D02*
X68043690Y-88650126D01*
X68043690Y-88650126D02*
X67962878Y-88515439D01*
X67962878Y-88515439D02*
X67935940Y-88434626D01*
X67935940Y-88434626D02*
X67935940Y-88380752D01*
X67935940Y-88380752D02*
X67962878Y-88299939D01*
X66208258Y-107588434D02*
X66127445Y-107615371D01*
X66127445Y-107615371D02*
X66046633Y-107696184D01*
X66046633Y-107696184D02*
X65992758Y-107803933D01*
X65992758Y-107803933D02*
X65992758Y-107911683D01*
X65992758Y-107911683D02*
X66019696Y-107992495D01*
X66019696Y-107992495D02*
X66100508Y-108127182D01*
X66100508Y-108127182D02*
X66181320Y-108207994D01*
X66181320Y-108207994D02*
X66316007Y-108288807D01*
X66316007Y-108288807D02*
X66396820Y-108315744D01*
X66396820Y-108315744D02*
X66504569Y-108315744D01*
X66504569Y-108315744D02*
X66612319Y-108261869D01*
X66612319Y-108261869D02*
X66666194Y-108207994D01*
X66666194Y-108207994D02*
X66720068Y-108100245D01*
X66720068Y-108100245D02*
X66720068Y-108046370D01*
X66720068Y-108046370D02*
X66531507Y-107857808D01*
X66531507Y-107857808D02*
X66423757Y-107965558D01*
X67016380Y-107857808D02*
X66450694Y-107292123D01*
X66450694Y-107292123D02*
X66666194Y-107076623D01*
X66666194Y-107076623D02*
X66747006Y-107049686D01*
X66747006Y-107049686D02*
X66800881Y-107049686D01*
X66800881Y-107049686D02*
X66881693Y-107076623D01*
X66881693Y-107076623D02*
X66962505Y-107157436D01*
X66962505Y-107157436D02*
X66989442Y-107238248D01*
X66989442Y-107238248D02*
X66989442Y-107292123D01*
X66989442Y-107292123D02*
X66962505Y-107372935D01*
X66962505Y-107372935D02*
X66747006Y-107588434D01*
X67878377Y-106995811D02*
X67555128Y-107319060D01*
X67716752Y-107157436D02*
X67151067Y-106591750D01*
X67151067Y-106591750D02*
X67178004Y-106726437D01*
X67178004Y-106726437D02*
X67178004Y-106834187D01*
X67178004Y-106834187D02*
X67151067Y-106914999D01*
X67797565Y-105945252D02*
X67689815Y-106053002D01*
X67689815Y-106053002D02*
X67662878Y-106133814D01*
X67662878Y-106133814D02*
X67662878Y-106187689D01*
X67662878Y-106187689D02*
X67689815Y-106322376D01*
X67689815Y-106322376D02*
X67770627Y-106457063D01*
X67770627Y-106457063D02*
X67986126Y-106672562D01*
X67986126Y-106672562D02*
X68066939Y-106699500D01*
X68066939Y-106699500D02*
X68120813Y-106699500D01*
X68120813Y-106699500D02*
X68201626Y-106672562D01*
X68201626Y-106672562D02*
X68309375Y-106564813D01*
X68309375Y-106564813D02*
X68336313Y-106484000D01*
X68336313Y-106484000D02*
X68336313Y-106430126D01*
X68336313Y-106430126D02*
X68309375Y-106349313D01*
X68309375Y-106349313D02*
X68174688Y-106214626D01*
X68174688Y-106214626D02*
X68093876Y-106187689D01*
X68093876Y-106187689D02*
X68040001Y-106187689D01*
X68040001Y-106187689D02*
X67959189Y-106214626D01*
X67959189Y-106214626D02*
X67851439Y-106322376D01*
X67851439Y-106322376D02*
X67824502Y-106403188D01*
X67824502Y-106403188D02*
X67824502Y-106457063D01*
X67824502Y-106457063D02*
X67851439Y-106537875D01*
X92660258Y-94450434D02*
X92579445Y-94477371D01*
X92579445Y-94477371D02*
X92498633Y-94558184D01*
X92498633Y-94558184D02*
X92444758Y-94665933D01*
X92444758Y-94665933D02*
X92444758Y-94773683D01*
X92444758Y-94773683D02*
X92471696Y-94854495D01*
X92471696Y-94854495D02*
X92552508Y-94989182D01*
X92552508Y-94989182D02*
X92633320Y-95069994D01*
X92633320Y-95069994D02*
X92768007Y-95150807D01*
X92768007Y-95150807D02*
X92848820Y-95177744D01*
X92848820Y-95177744D02*
X92956569Y-95177744D01*
X92956569Y-95177744D02*
X93064319Y-95123869D01*
X93064319Y-95123869D02*
X93118194Y-95069994D01*
X93118194Y-95069994D02*
X93172068Y-94962245D01*
X93172068Y-94962245D02*
X93172068Y-94908370D01*
X93172068Y-94908370D02*
X92983507Y-94719808D01*
X92983507Y-94719808D02*
X92875757Y-94827558D01*
X93468380Y-94719808D02*
X92902694Y-94154123D01*
X92902694Y-94154123D02*
X93118194Y-93938623D01*
X93118194Y-93938623D02*
X93199006Y-93911686D01*
X93199006Y-93911686D02*
X93252881Y-93911686D01*
X93252881Y-93911686D02*
X93333693Y-93938623D01*
X93333693Y-93938623D02*
X93414505Y-94019436D01*
X93414505Y-94019436D02*
X93441442Y-94100248D01*
X93441442Y-94100248D02*
X93441442Y-94154123D01*
X93441442Y-94154123D02*
X93414505Y-94234935D01*
X93414505Y-94234935D02*
X93199006Y-94450434D01*
X93495317Y-93669249D02*
X93495317Y-93615375D01*
X93495317Y-93615375D02*
X93522255Y-93534562D01*
X93522255Y-93534562D02*
X93656942Y-93399875D01*
X93656942Y-93399875D02*
X93737754Y-93372938D01*
X93737754Y-93372938D02*
X93791629Y-93372938D01*
X93791629Y-93372938D02*
X93872441Y-93399875D01*
X93872441Y-93399875D02*
X93926316Y-93453750D01*
X93926316Y-93453750D02*
X93980190Y-93561500D01*
X93980190Y-93561500D02*
X93980190Y-94207997D01*
X93980190Y-94207997D02*
X94330377Y-93857811D01*
X94438126Y-92995814D02*
X94815250Y-93372938D01*
X94087940Y-92915002D02*
X94357314Y-93453750D01*
X94357314Y-93453750D02*
X94707500Y-93103564D01*
X92660258Y-81750434D02*
X92579445Y-81777371D01*
X92579445Y-81777371D02*
X92498633Y-81858184D01*
X92498633Y-81858184D02*
X92444758Y-81965933D01*
X92444758Y-81965933D02*
X92444758Y-82073683D01*
X92444758Y-82073683D02*
X92471696Y-82154495D01*
X92471696Y-82154495D02*
X92552508Y-82289182D01*
X92552508Y-82289182D02*
X92633320Y-82369994D01*
X92633320Y-82369994D02*
X92768007Y-82450807D01*
X92768007Y-82450807D02*
X92848820Y-82477744D01*
X92848820Y-82477744D02*
X92956569Y-82477744D01*
X92956569Y-82477744D02*
X93064319Y-82423869D01*
X93064319Y-82423869D02*
X93118194Y-82369994D01*
X93118194Y-82369994D02*
X93172068Y-82262245D01*
X93172068Y-82262245D02*
X93172068Y-82208370D01*
X93172068Y-82208370D02*
X92983507Y-82019808D01*
X92983507Y-82019808D02*
X92875757Y-82127558D01*
X93468380Y-82019808D02*
X92902694Y-81454123D01*
X92902694Y-81454123D02*
X93118194Y-81238623D01*
X93118194Y-81238623D02*
X93199006Y-81211686D01*
X93199006Y-81211686D02*
X93252881Y-81211686D01*
X93252881Y-81211686D02*
X93333693Y-81238623D01*
X93333693Y-81238623D02*
X93414505Y-81319436D01*
X93414505Y-81319436D02*
X93441442Y-81400248D01*
X93441442Y-81400248D02*
X93441442Y-81454123D01*
X93441442Y-81454123D02*
X93414505Y-81534935D01*
X93414505Y-81534935D02*
X93199006Y-81750434D01*
X93495317Y-80969249D02*
X93495317Y-80915375D01*
X93495317Y-80915375D02*
X93522255Y-80834562D01*
X93522255Y-80834562D02*
X93656942Y-80699875D01*
X93656942Y-80699875D02*
X93737754Y-80672938D01*
X93737754Y-80672938D02*
X93791629Y-80672938D01*
X93791629Y-80672938D02*
X93872441Y-80699875D01*
X93872441Y-80699875D02*
X93926316Y-80753750D01*
X93926316Y-80753750D02*
X93980190Y-80861500D01*
X93980190Y-80861500D02*
X93980190Y-81507997D01*
X93980190Y-81507997D02*
X94330377Y-81157811D01*
X94330377Y-80511313D02*
X94249565Y-80538251D01*
X94249565Y-80538251D02*
X94195690Y-80538251D01*
X94195690Y-80538251D02*
X94114878Y-80511313D01*
X94114878Y-80511313D02*
X94087940Y-80484376D01*
X94087940Y-80484376D02*
X94061003Y-80403564D01*
X94061003Y-80403564D02*
X94061003Y-80349689D01*
X94061003Y-80349689D02*
X94087940Y-80268877D01*
X94087940Y-80268877D02*
X94195690Y-80161127D01*
X94195690Y-80161127D02*
X94276502Y-80134190D01*
X94276502Y-80134190D02*
X94330377Y-80134190D01*
X94330377Y-80134190D02*
X94411189Y-80161127D01*
X94411189Y-80161127D02*
X94438126Y-80188065D01*
X94438126Y-80188065D02*
X94465064Y-80268877D01*
X94465064Y-80268877D02*
X94465064Y-80322752D01*
X94465064Y-80322752D02*
X94438126Y-80403564D01*
X94438126Y-80403564D02*
X94330377Y-80511313D01*
X94330377Y-80511313D02*
X94303439Y-80592126D01*
X94303439Y-80592126D02*
X94303439Y-80646000D01*
X94303439Y-80646000D02*
X94330377Y-80726813D01*
X94330377Y-80726813D02*
X94438126Y-80834562D01*
X94438126Y-80834562D02*
X94518939Y-80861500D01*
X94518939Y-80861500D02*
X94572813Y-80861500D01*
X94572813Y-80861500D02*
X94653626Y-80834562D01*
X94653626Y-80834562D02*
X94761375Y-80726813D01*
X94761375Y-80726813D02*
X94788313Y-80646000D01*
X94788313Y-80646000D02*
X94788313Y-80592126D01*
X94788313Y-80592126D02*
X94761375Y-80511313D01*
X94761375Y-80511313D02*
X94653626Y-80403564D01*
X94653626Y-80403564D02*
X94572813Y-80376626D01*
X94572813Y-80376626D02*
X94518939Y-80376626D01*
X94518939Y-80376626D02*
X94438126Y-80403564D01*
X92646258Y-91670434D02*
X92565445Y-91697371D01*
X92565445Y-91697371D02*
X92484633Y-91778184D01*
X92484633Y-91778184D02*
X92430758Y-91885933D01*
X92430758Y-91885933D02*
X92430758Y-91993683D01*
X92430758Y-91993683D02*
X92457696Y-92074495D01*
X92457696Y-92074495D02*
X92538508Y-92209182D01*
X92538508Y-92209182D02*
X92619320Y-92289994D01*
X92619320Y-92289994D02*
X92754007Y-92370807D01*
X92754007Y-92370807D02*
X92834820Y-92397744D01*
X92834820Y-92397744D02*
X92942569Y-92397744D01*
X92942569Y-92397744D02*
X93050319Y-92343869D01*
X93050319Y-92343869D02*
X93104194Y-92289994D01*
X93104194Y-92289994D02*
X93158068Y-92182245D01*
X93158068Y-92182245D02*
X93158068Y-92128370D01*
X93158068Y-92128370D02*
X92969507Y-91939808D01*
X92969507Y-91939808D02*
X92861757Y-92047558D01*
X93454380Y-91939808D02*
X92888694Y-91374123D01*
X92888694Y-91374123D02*
X93104194Y-91158623D01*
X93104194Y-91158623D02*
X93185006Y-91131686D01*
X93185006Y-91131686D02*
X93238881Y-91131686D01*
X93238881Y-91131686D02*
X93319693Y-91158623D01*
X93319693Y-91158623D02*
X93400505Y-91239436D01*
X93400505Y-91239436D02*
X93427442Y-91320248D01*
X93427442Y-91320248D02*
X93427442Y-91374123D01*
X93427442Y-91374123D02*
X93400505Y-91454935D01*
X93400505Y-91454935D02*
X93185006Y-91670434D01*
X93481317Y-90889249D02*
X93481317Y-90835375D01*
X93481317Y-90835375D02*
X93508255Y-90754562D01*
X93508255Y-90754562D02*
X93642942Y-90619875D01*
X93642942Y-90619875D02*
X93723754Y-90592938D01*
X93723754Y-90592938D02*
X93777629Y-90592938D01*
X93777629Y-90592938D02*
X93858441Y-90619875D01*
X93858441Y-90619875D02*
X93912316Y-90673750D01*
X93912316Y-90673750D02*
X93966190Y-90781500D01*
X93966190Y-90781500D02*
X93966190Y-91427997D01*
X93966190Y-91427997D02*
X94316377Y-91077811D01*
X94262502Y-90000315D02*
X93993128Y-90269689D01*
X93993128Y-90269689D02*
X94235565Y-90566000D01*
X94235565Y-90566000D02*
X94235565Y-90512126D01*
X94235565Y-90512126D02*
X94262502Y-90431313D01*
X94262502Y-90431313D02*
X94397189Y-90296626D01*
X94397189Y-90296626D02*
X94478001Y-90269689D01*
X94478001Y-90269689D02*
X94531876Y-90269689D01*
X94531876Y-90269689D02*
X94612688Y-90296626D01*
X94612688Y-90296626D02*
X94747375Y-90431313D01*
X94747375Y-90431313D02*
X94774313Y-90512126D01*
X94774313Y-90512126D02*
X94774313Y-90566000D01*
X94774313Y-90566000D02*
X94747375Y-90646813D01*
X94747375Y-90646813D02*
X94612688Y-90781500D01*
X94612688Y-90781500D02*
X94531876Y-90808437D01*
X94531876Y-90808437D02*
X94478001Y-90808437D01*
X92406258Y-104600434D02*
X92325445Y-104627371D01*
X92325445Y-104627371D02*
X92244633Y-104708184D01*
X92244633Y-104708184D02*
X92190758Y-104815933D01*
X92190758Y-104815933D02*
X92190758Y-104923683D01*
X92190758Y-104923683D02*
X92217696Y-105004495D01*
X92217696Y-105004495D02*
X92298508Y-105139182D01*
X92298508Y-105139182D02*
X92379320Y-105219994D01*
X92379320Y-105219994D02*
X92514007Y-105300807D01*
X92514007Y-105300807D02*
X92594820Y-105327744D01*
X92594820Y-105327744D02*
X92702569Y-105327744D01*
X92702569Y-105327744D02*
X92810319Y-105273869D01*
X92810319Y-105273869D02*
X92864194Y-105219994D01*
X92864194Y-105219994D02*
X92918068Y-105112245D01*
X92918068Y-105112245D02*
X92918068Y-105058370D01*
X92918068Y-105058370D02*
X92729507Y-104869808D01*
X92729507Y-104869808D02*
X92621757Y-104977558D01*
X93214380Y-104869808D02*
X92648694Y-104304123D01*
X92648694Y-104304123D02*
X92864194Y-104088623D01*
X92864194Y-104088623D02*
X92945006Y-104061686D01*
X92945006Y-104061686D02*
X92998881Y-104061686D01*
X92998881Y-104061686D02*
X93079693Y-104088623D01*
X93079693Y-104088623D02*
X93160505Y-104169436D01*
X93160505Y-104169436D02*
X93187442Y-104250248D01*
X93187442Y-104250248D02*
X93187442Y-104304123D01*
X93187442Y-104304123D02*
X93160505Y-104384935D01*
X93160505Y-104384935D02*
X92945006Y-104600434D01*
X93241317Y-103819249D02*
X93241317Y-103765375D01*
X93241317Y-103765375D02*
X93268255Y-103684562D01*
X93268255Y-103684562D02*
X93402942Y-103549875D01*
X93402942Y-103549875D02*
X93483754Y-103522938D01*
X93483754Y-103522938D02*
X93537629Y-103522938D01*
X93537629Y-103522938D02*
X93618441Y-103549875D01*
X93618441Y-103549875D02*
X93672316Y-103603750D01*
X93672316Y-103603750D02*
X93726190Y-103711500D01*
X93726190Y-103711500D02*
X93726190Y-104357997D01*
X93726190Y-104357997D02*
X94076377Y-104007811D01*
X93860878Y-103091939D02*
X93914752Y-103038065D01*
X93914752Y-103038065D02*
X93995565Y-103011127D01*
X93995565Y-103011127D02*
X94049439Y-103011127D01*
X94049439Y-103011127D02*
X94130252Y-103038065D01*
X94130252Y-103038065D02*
X94264939Y-103118877D01*
X94264939Y-103118877D02*
X94399626Y-103253564D01*
X94399626Y-103253564D02*
X94480438Y-103388251D01*
X94480438Y-103388251D02*
X94507375Y-103469063D01*
X94507375Y-103469063D02*
X94507375Y-103522938D01*
X94507375Y-103522938D02*
X94480438Y-103603750D01*
X94480438Y-103603750D02*
X94426563Y-103657625D01*
X94426563Y-103657625D02*
X94345751Y-103684562D01*
X94345751Y-103684562D02*
X94291876Y-103684562D01*
X94291876Y-103684562D02*
X94211064Y-103657625D01*
X94211064Y-103657625D02*
X94076377Y-103576813D01*
X94076377Y-103576813D02*
X93941690Y-103442126D01*
X93941690Y-103442126D02*
X93860878Y-103307439D01*
X93860878Y-103307439D02*
X93833940Y-103226626D01*
X93833940Y-103226626D02*
X93833940Y-103172752D01*
X93833940Y-103172752D02*
X93860878Y-103091939D01*
X92727673Y-66365247D02*
X92646860Y-66392185D01*
X92646860Y-66392185D02*
X92566048Y-66472997D01*
X92566048Y-66472997D02*
X92512173Y-66580746D01*
X92512173Y-66580746D02*
X92512173Y-66688496D01*
X92512173Y-66688496D02*
X92539111Y-66769308D01*
X92539111Y-66769308D02*
X92619923Y-66903995D01*
X92619923Y-66903995D02*
X92700735Y-66984807D01*
X92700735Y-66984807D02*
X92835422Y-67065620D01*
X92835422Y-67065620D02*
X92916234Y-67092557D01*
X92916234Y-67092557D02*
X93023984Y-67092557D01*
X93023984Y-67092557D02*
X93131734Y-67038682D01*
X93131734Y-67038682D02*
X93185608Y-66984807D01*
X93185608Y-66984807D02*
X93239483Y-66877058D01*
X93239483Y-66877058D02*
X93239483Y-66823183D01*
X93239483Y-66823183D02*
X93050921Y-66634621D01*
X93050921Y-66634621D02*
X92943172Y-66742371D01*
X93535795Y-66634621D02*
X92970109Y-66068936D01*
X92970109Y-66068936D02*
X93859043Y-66311372D01*
X93859043Y-66311372D02*
X93293358Y-65745687D01*
X94128417Y-66041999D02*
X93562732Y-65476313D01*
X93562732Y-65476313D02*
X93697419Y-65341626D01*
X93697419Y-65341626D02*
X93805169Y-65287751D01*
X93805169Y-65287751D02*
X93912918Y-65287751D01*
X93912918Y-65287751D02*
X93993730Y-65314689D01*
X93993730Y-65314689D02*
X94128417Y-65395501D01*
X94128417Y-65395501D02*
X94209230Y-65476313D01*
X94209230Y-65476313D02*
X94290042Y-65611000D01*
X94290042Y-65611000D02*
X94316979Y-65691812D01*
X94316979Y-65691812D02*
X94316979Y-65799562D01*
X94316979Y-65799562D02*
X94263104Y-65907312D01*
X94263104Y-65907312D02*
X94128417Y-66041999D01*
X94209230Y-64829815D02*
X94343917Y-64964502D01*
X94155355Y-65045315D02*
X94343917Y-64964502D01*
X94343917Y-64964502D02*
X94424729Y-64775941D01*
X94370854Y-65153064D02*
X94343917Y-64964502D01*
X94343917Y-64964502D02*
X94532478Y-64991440D01*
X66777632Y-71759060D02*
X66696820Y-71785997D01*
X66696820Y-71785997D02*
X66616008Y-71866809D01*
X66616008Y-71866809D02*
X66562133Y-71974559D01*
X66562133Y-71974559D02*
X66562133Y-72082308D01*
X66562133Y-72082308D02*
X66589070Y-72163121D01*
X66589070Y-72163121D02*
X66669883Y-72297808D01*
X66669883Y-72297808D02*
X66750695Y-72378620D01*
X66750695Y-72378620D02*
X66885382Y-72459432D01*
X66885382Y-72459432D02*
X66966194Y-72486369D01*
X66966194Y-72486369D02*
X67073944Y-72486369D01*
X67073944Y-72486369D02*
X67181693Y-72432495D01*
X67181693Y-72432495D02*
X67235568Y-72378620D01*
X67235568Y-72378620D02*
X67289443Y-72270870D01*
X67289443Y-72270870D02*
X67289443Y-72216995D01*
X67289443Y-72216995D02*
X67100881Y-72028434D01*
X67100881Y-72028434D02*
X66993131Y-72136183D01*
X67585754Y-72028434D02*
X67020069Y-71462748D01*
X67020069Y-71462748D02*
X67235568Y-71247249D01*
X67235568Y-71247249D02*
X67316380Y-71220312D01*
X67316380Y-71220312D02*
X67370255Y-71220312D01*
X67370255Y-71220312D02*
X67451067Y-71247249D01*
X67451067Y-71247249D02*
X67531879Y-71328061D01*
X67531879Y-71328061D02*
X67558817Y-71408873D01*
X67558817Y-71408873D02*
X67558817Y-71462748D01*
X67558817Y-71462748D02*
X67531879Y-71543560D01*
X67531879Y-71543560D02*
X67316380Y-71759060D01*
X68016753Y-70843188D02*
X68393876Y-71220312D01*
X67666566Y-70762376D02*
X67935940Y-71301124D01*
X67935940Y-71301124D02*
X68286127Y-70950938D01*
X66442109Y-66940811D02*
X66361297Y-66967748D01*
X66361297Y-66967748D02*
X66280485Y-67048560D01*
X66280485Y-67048560D02*
X66226610Y-67156310D01*
X66226610Y-67156310D02*
X66226610Y-67264059D01*
X66226610Y-67264059D02*
X66253547Y-67344872D01*
X66253547Y-67344872D02*
X66334360Y-67479559D01*
X66334360Y-67479559D02*
X66415172Y-67560371D01*
X66415172Y-67560371D02*
X66549859Y-67641183D01*
X66549859Y-67641183D02*
X66630671Y-67668120D01*
X66630671Y-67668120D02*
X66738421Y-67668120D01*
X66738421Y-67668120D02*
X66846170Y-67614246D01*
X66846170Y-67614246D02*
X66900045Y-67560371D01*
X66900045Y-67560371D02*
X66953920Y-67452621D01*
X66953920Y-67452621D02*
X66953920Y-67398746D01*
X66953920Y-67398746D02*
X66765358Y-67210185D01*
X66765358Y-67210185D02*
X66657608Y-67317934D01*
X67250231Y-67210185D02*
X66684546Y-66644499D01*
X66684546Y-66644499D02*
X66900045Y-66429000D01*
X66900045Y-66429000D02*
X66980857Y-66402063D01*
X66980857Y-66402063D02*
X67034732Y-66402063D01*
X67034732Y-66402063D02*
X67115544Y-66429000D01*
X67115544Y-66429000D02*
X67196356Y-66509812D01*
X67196356Y-66509812D02*
X67223294Y-66590624D01*
X67223294Y-66590624D02*
X67223294Y-66644499D01*
X67223294Y-66644499D02*
X67196356Y-66725311D01*
X67196356Y-66725311D02*
X66980857Y-66940811D01*
X67277169Y-66159626D02*
X67277169Y-66105751D01*
X67277169Y-66105751D02*
X67304106Y-66024939D01*
X67304106Y-66024939D02*
X67438793Y-65890252D01*
X67438793Y-65890252D02*
X67519605Y-65863315D01*
X67519605Y-65863315D02*
X67573480Y-65863315D01*
X67573480Y-65863315D02*
X67654292Y-65890252D01*
X67654292Y-65890252D02*
X67708167Y-65944127D01*
X67708167Y-65944127D02*
X67762042Y-66051876D01*
X67762042Y-66051876D02*
X67762042Y-66698374D01*
X67762042Y-66698374D02*
X68112228Y-66348188D01*
X92660258Y-79200434D02*
X92579445Y-79227371D01*
X92579445Y-79227371D02*
X92498633Y-79308184D01*
X92498633Y-79308184D02*
X92444758Y-79415933D01*
X92444758Y-79415933D02*
X92444758Y-79523683D01*
X92444758Y-79523683D02*
X92471696Y-79604495D01*
X92471696Y-79604495D02*
X92552508Y-79739182D01*
X92552508Y-79739182D02*
X92633320Y-79819994D01*
X92633320Y-79819994D02*
X92768007Y-79900807D01*
X92768007Y-79900807D02*
X92848820Y-79927744D01*
X92848820Y-79927744D02*
X92956569Y-79927744D01*
X92956569Y-79927744D02*
X93064319Y-79873869D01*
X93064319Y-79873869D02*
X93118194Y-79819994D01*
X93118194Y-79819994D02*
X93172068Y-79712245D01*
X93172068Y-79712245D02*
X93172068Y-79658370D01*
X93172068Y-79658370D02*
X92983507Y-79469808D01*
X92983507Y-79469808D02*
X92875757Y-79577558D01*
X93468380Y-79469808D02*
X92902694Y-78904123D01*
X92902694Y-78904123D02*
X93118194Y-78688623D01*
X93118194Y-78688623D02*
X93199006Y-78661686D01*
X93199006Y-78661686D02*
X93252881Y-78661686D01*
X93252881Y-78661686D02*
X93333693Y-78688623D01*
X93333693Y-78688623D02*
X93414505Y-78769436D01*
X93414505Y-78769436D02*
X93441442Y-78850248D01*
X93441442Y-78850248D02*
X93441442Y-78904123D01*
X93441442Y-78904123D02*
X93414505Y-78984935D01*
X93414505Y-78984935D02*
X93199006Y-79200434D01*
X93495317Y-78419249D02*
X93495317Y-78365375D01*
X93495317Y-78365375D02*
X93522255Y-78284562D01*
X93522255Y-78284562D02*
X93656942Y-78149875D01*
X93656942Y-78149875D02*
X93737754Y-78122938D01*
X93737754Y-78122938D02*
X93791629Y-78122938D01*
X93791629Y-78122938D02*
X93872441Y-78149875D01*
X93872441Y-78149875D02*
X93926316Y-78203750D01*
X93926316Y-78203750D02*
X93980190Y-78311500D01*
X93980190Y-78311500D02*
X93980190Y-78957997D01*
X93980190Y-78957997D02*
X94330377Y-78607811D01*
X94599751Y-78338437D02*
X94707500Y-78230687D01*
X94707500Y-78230687D02*
X94734438Y-78149875D01*
X94734438Y-78149875D02*
X94734438Y-78096000D01*
X94734438Y-78096000D02*
X94707500Y-77961313D01*
X94707500Y-77961313D02*
X94626688Y-77826626D01*
X94626688Y-77826626D02*
X94411189Y-77611127D01*
X94411189Y-77611127D02*
X94330377Y-77584190D01*
X94330377Y-77584190D02*
X94276502Y-77584190D01*
X94276502Y-77584190D02*
X94195690Y-77611127D01*
X94195690Y-77611127D02*
X94087940Y-77718877D01*
X94087940Y-77718877D02*
X94061003Y-77799689D01*
X94061003Y-77799689D02*
X94061003Y-77853564D01*
X94061003Y-77853564D02*
X94087940Y-77934376D01*
X94087940Y-77934376D02*
X94222627Y-78069063D01*
X94222627Y-78069063D02*
X94303439Y-78096000D01*
X94303439Y-78096000D02*
X94357314Y-78096000D01*
X94357314Y-78096000D02*
X94438126Y-78069063D01*
X94438126Y-78069063D02*
X94545876Y-77961313D01*
X94545876Y-77961313D02*
X94572813Y-77880501D01*
X94572813Y-77880501D02*
X94572813Y-77826626D01*
X94572813Y-77826626D02*
X94545876Y-77745814D01*
X93454911Y-76689276D02*
X92996976Y-76608464D01*
X93131663Y-77012525D02*
X92565977Y-76446840D01*
X92565977Y-76446840D02*
X92781476Y-76231341D01*
X92781476Y-76231341D02*
X92862289Y-76204403D01*
X92862289Y-76204403D02*
X92916163Y-76204403D01*
X92916163Y-76204403D02*
X92996976Y-76231341D01*
X92996976Y-76231341D02*
X93077788Y-76312153D01*
X93077788Y-76312153D02*
X93104725Y-76392965D01*
X93104725Y-76392965D02*
X93104725Y-76446840D01*
X93104725Y-76446840D02*
X93077788Y-76527652D01*
X93077788Y-76527652D02*
X92862289Y-76743151D01*
X93131663Y-75881154D02*
X93589598Y-76339090D01*
X93589598Y-76339090D02*
X93670411Y-76366028D01*
X93670411Y-76366028D02*
X93724285Y-76366028D01*
X93724285Y-76366028D02*
X93805098Y-76339090D01*
X93805098Y-76339090D02*
X93912847Y-76231341D01*
X93912847Y-76231341D02*
X93939785Y-76150528D01*
X93939785Y-76150528D02*
X93939785Y-76096654D01*
X93939785Y-76096654D02*
X93912847Y-76015841D01*
X93912847Y-76015841D02*
X93454911Y-75557906D01*
X94289971Y-75854217D02*
X93724285Y-75288532D01*
X93724285Y-75288532D02*
X94613219Y-75530968D01*
X94613219Y-75530968D02*
X94047534Y-74965283D01*
X66002735Y-92600185D02*
X65921922Y-92627122D01*
X65921922Y-92627122D02*
X65841110Y-92707935D01*
X65841110Y-92707935D02*
X65787235Y-92815684D01*
X65787235Y-92815684D02*
X65787235Y-92923434D01*
X65787235Y-92923434D02*
X65814173Y-93004246D01*
X65814173Y-93004246D02*
X65894985Y-93138933D01*
X65894985Y-93138933D02*
X65975797Y-93219745D01*
X65975797Y-93219745D02*
X66110484Y-93300558D01*
X66110484Y-93300558D02*
X66191297Y-93327495D01*
X66191297Y-93327495D02*
X66299046Y-93327495D01*
X66299046Y-93327495D02*
X66406796Y-93273620D01*
X66406796Y-93273620D02*
X66460671Y-93219745D01*
X66460671Y-93219745D02*
X66514545Y-93111996D01*
X66514545Y-93111996D02*
X66514545Y-93058121D01*
X66514545Y-93058121D02*
X66325984Y-92869559D01*
X66325984Y-92869559D02*
X66218234Y-92977309D01*
X66810857Y-92869559D02*
X66245171Y-92303874D01*
X66245171Y-92303874D02*
X66460671Y-92088374D01*
X66460671Y-92088374D02*
X66541483Y-92061437D01*
X66541483Y-92061437D02*
X66595358Y-92061437D01*
X66595358Y-92061437D02*
X66676170Y-92088374D01*
X66676170Y-92088374D02*
X66756982Y-92169187D01*
X66756982Y-92169187D02*
X66783919Y-92249999D01*
X66783919Y-92249999D02*
X66783919Y-92303874D01*
X66783919Y-92303874D02*
X66756982Y-92384686D01*
X66756982Y-92384686D02*
X66541483Y-92600185D01*
X67672854Y-92007562D02*
X67349605Y-92330811D01*
X67511229Y-92169187D02*
X66945544Y-91603501D01*
X66945544Y-91603501D02*
X66972481Y-91738188D01*
X66972481Y-91738188D02*
X66972481Y-91845938D01*
X66972481Y-91845938D02*
X66945544Y-91926750D01*
X68211602Y-91468814D02*
X67888353Y-91792063D01*
X68049977Y-91630438D02*
X67484292Y-91064753D01*
X67484292Y-91064753D02*
X67511229Y-91199440D01*
X67511229Y-91199440D02*
X67511229Y-91307190D01*
X67511229Y-91307190D02*
X67484292Y-91388002D01*
X66108258Y-99968434D02*
X66027445Y-99995371D01*
X66027445Y-99995371D02*
X65946633Y-100076184D01*
X65946633Y-100076184D02*
X65892758Y-100183933D01*
X65892758Y-100183933D02*
X65892758Y-100291683D01*
X65892758Y-100291683D02*
X65919696Y-100372495D01*
X65919696Y-100372495D02*
X66000508Y-100507182D01*
X66000508Y-100507182D02*
X66081320Y-100587994D01*
X66081320Y-100587994D02*
X66216007Y-100668807D01*
X66216007Y-100668807D02*
X66296820Y-100695744D01*
X66296820Y-100695744D02*
X66404569Y-100695744D01*
X66404569Y-100695744D02*
X66512319Y-100641869D01*
X66512319Y-100641869D02*
X66566194Y-100587994D01*
X66566194Y-100587994D02*
X66620068Y-100480245D01*
X66620068Y-100480245D02*
X66620068Y-100426370D01*
X66620068Y-100426370D02*
X66431507Y-100237808D01*
X66431507Y-100237808D02*
X66323757Y-100345558D01*
X66916380Y-100237808D02*
X66350694Y-99672123D01*
X66350694Y-99672123D02*
X66566194Y-99456623D01*
X66566194Y-99456623D02*
X66647006Y-99429686D01*
X66647006Y-99429686D02*
X66700881Y-99429686D01*
X66700881Y-99429686D02*
X66781693Y-99456623D01*
X66781693Y-99456623D02*
X66862505Y-99537436D01*
X66862505Y-99537436D02*
X66889442Y-99618248D01*
X66889442Y-99618248D02*
X66889442Y-99672123D01*
X66889442Y-99672123D02*
X66862505Y-99752935D01*
X66862505Y-99752935D02*
X66647006Y-99968434D01*
X67778377Y-99375811D02*
X67455128Y-99699060D01*
X67616752Y-99537436D02*
X67051067Y-98971750D01*
X67051067Y-98971750D02*
X67078004Y-99106437D01*
X67078004Y-99106437D02*
X67078004Y-99214187D01*
X67078004Y-99214187D02*
X67051067Y-99294999D01*
X67401253Y-98621564D02*
X67751439Y-98271378D01*
X67751439Y-98271378D02*
X67778377Y-98675439D01*
X67778377Y-98675439D02*
X67859189Y-98594626D01*
X67859189Y-98594626D02*
X67940001Y-98567689D01*
X67940001Y-98567689D02*
X67993876Y-98567689D01*
X67993876Y-98567689D02*
X68074688Y-98594626D01*
X68074688Y-98594626D02*
X68209375Y-98729313D01*
X68209375Y-98729313D02*
X68236313Y-98810126D01*
X68236313Y-98810126D02*
X68236313Y-98864000D01*
X68236313Y-98864000D02*
X68209375Y-98944813D01*
X68209375Y-98944813D02*
X68047751Y-99106437D01*
X68047751Y-99106437D02*
X67966939Y-99133374D01*
X67966939Y-99133374D02*
X67913064Y-99133374D01*
X66777632Y-76839060D02*
X66696820Y-76865997D01*
X66696820Y-76865997D02*
X66616008Y-76946809D01*
X66616008Y-76946809D02*
X66562133Y-77054559D01*
X66562133Y-77054559D02*
X66562133Y-77162308D01*
X66562133Y-77162308D02*
X66589070Y-77243121D01*
X66589070Y-77243121D02*
X66669883Y-77377808D01*
X66669883Y-77377808D02*
X66750695Y-77458620D01*
X66750695Y-77458620D02*
X66885382Y-77539432D01*
X66885382Y-77539432D02*
X66966194Y-77566369D01*
X66966194Y-77566369D02*
X67073944Y-77566369D01*
X67073944Y-77566369D02*
X67181693Y-77512495D01*
X67181693Y-77512495D02*
X67235568Y-77458620D01*
X67235568Y-77458620D02*
X67289443Y-77350870D01*
X67289443Y-77350870D02*
X67289443Y-77296995D01*
X67289443Y-77296995D02*
X67100881Y-77108434D01*
X67100881Y-77108434D02*
X66993131Y-77216183D01*
X67585754Y-77108434D02*
X67020069Y-76542748D01*
X67020069Y-76542748D02*
X67235568Y-76327249D01*
X67235568Y-76327249D02*
X67316380Y-76300312D01*
X67316380Y-76300312D02*
X67370255Y-76300312D01*
X67370255Y-76300312D02*
X67451067Y-76327249D01*
X67451067Y-76327249D02*
X67531879Y-76408061D01*
X67531879Y-76408061D02*
X67558817Y-76488873D01*
X67558817Y-76488873D02*
X67558817Y-76542748D01*
X67558817Y-76542748D02*
X67531879Y-76623560D01*
X67531879Y-76623560D02*
X67316380Y-76839060D01*
X67855128Y-75707689D02*
X67585754Y-75977063D01*
X67585754Y-75977063D02*
X67828191Y-76273374D01*
X67828191Y-76273374D02*
X67828191Y-76219499D01*
X67828191Y-76219499D02*
X67855128Y-76138687D01*
X67855128Y-76138687D02*
X67989815Y-76004000D01*
X67989815Y-76004000D02*
X68070627Y-75977063D01*
X68070627Y-75977063D02*
X68124502Y-75977063D01*
X68124502Y-75977063D02*
X68205314Y-76004000D01*
X68205314Y-76004000D02*
X68340001Y-76138687D01*
X68340001Y-76138687D02*
X68366939Y-76219499D01*
X68366939Y-76219499D02*
X68366939Y-76273374D01*
X68366939Y-76273374D02*
X68340001Y-76354186D01*
X68340001Y-76354186D02*
X68205314Y-76488873D01*
X68205314Y-76488873D02*
X68124502Y-76515811D01*
X68124502Y-76515811D02*
X68070627Y-76515811D01*
X66254258Y-94888434D02*
X66173445Y-94915371D01*
X66173445Y-94915371D02*
X66092633Y-94996184D01*
X66092633Y-94996184D02*
X66038758Y-95103933D01*
X66038758Y-95103933D02*
X66038758Y-95211683D01*
X66038758Y-95211683D02*
X66065696Y-95292495D01*
X66065696Y-95292495D02*
X66146508Y-95427182D01*
X66146508Y-95427182D02*
X66227320Y-95507994D01*
X66227320Y-95507994D02*
X66362007Y-95588807D01*
X66362007Y-95588807D02*
X66442820Y-95615744D01*
X66442820Y-95615744D02*
X66550569Y-95615744D01*
X66550569Y-95615744D02*
X66658319Y-95561869D01*
X66658319Y-95561869D02*
X66712194Y-95507994D01*
X66712194Y-95507994D02*
X66766068Y-95400245D01*
X66766068Y-95400245D02*
X66766068Y-95346370D01*
X66766068Y-95346370D02*
X66577507Y-95157808D01*
X66577507Y-95157808D02*
X66469757Y-95265558D01*
X67062380Y-95157808D02*
X66496694Y-94592123D01*
X66496694Y-94592123D02*
X66712194Y-94376623D01*
X66712194Y-94376623D02*
X66793006Y-94349686D01*
X66793006Y-94349686D02*
X66846881Y-94349686D01*
X66846881Y-94349686D02*
X66927693Y-94376623D01*
X66927693Y-94376623D02*
X67008505Y-94457436D01*
X67008505Y-94457436D02*
X67035442Y-94538248D01*
X67035442Y-94538248D02*
X67035442Y-94592123D01*
X67035442Y-94592123D02*
X67008505Y-94672935D01*
X67008505Y-94672935D02*
X66793006Y-94888434D01*
X67924377Y-94295811D02*
X67601128Y-94619060D01*
X67762752Y-94457436D02*
X67197067Y-93891750D01*
X67197067Y-93891750D02*
X67224004Y-94026437D01*
X67224004Y-94026437D02*
X67224004Y-94134187D01*
X67224004Y-94134187D02*
X67197067Y-94214999D01*
X67628065Y-93568501D02*
X67628065Y-93514626D01*
X67628065Y-93514626D02*
X67655003Y-93433814D01*
X67655003Y-93433814D02*
X67789690Y-93299127D01*
X67789690Y-93299127D02*
X67870502Y-93272190D01*
X67870502Y-93272190D02*
X67924377Y-93272190D01*
X67924377Y-93272190D02*
X68005189Y-93299127D01*
X68005189Y-93299127D02*
X68059064Y-93353002D01*
X68059064Y-93353002D02*
X68112939Y-93460752D01*
X68112939Y-93460752D02*
X68112939Y-94107249D01*
X68112939Y-94107249D02*
X68463125Y-93757063D01*
X92660258Y-102060434D02*
X92579445Y-102087371D01*
X92579445Y-102087371D02*
X92498633Y-102168184D01*
X92498633Y-102168184D02*
X92444758Y-102275933D01*
X92444758Y-102275933D02*
X92444758Y-102383683D01*
X92444758Y-102383683D02*
X92471696Y-102464495D01*
X92471696Y-102464495D02*
X92552508Y-102599182D01*
X92552508Y-102599182D02*
X92633320Y-102679994D01*
X92633320Y-102679994D02*
X92768007Y-102760807D01*
X92768007Y-102760807D02*
X92848820Y-102787744D01*
X92848820Y-102787744D02*
X92956569Y-102787744D01*
X92956569Y-102787744D02*
X93064319Y-102733869D01*
X93064319Y-102733869D02*
X93118194Y-102679994D01*
X93118194Y-102679994D02*
X93172068Y-102572245D01*
X93172068Y-102572245D02*
X93172068Y-102518370D01*
X93172068Y-102518370D02*
X92983507Y-102329808D01*
X92983507Y-102329808D02*
X92875757Y-102437558D01*
X93468380Y-102329808D02*
X92902694Y-101764123D01*
X92902694Y-101764123D02*
X93118194Y-101548623D01*
X93118194Y-101548623D02*
X93199006Y-101521686D01*
X93199006Y-101521686D02*
X93252881Y-101521686D01*
X93252881Y-101521686D02*
X93333693Y-101548623D01*
X93333693Y-101548623D02*
X93414505Y-101629436D01*
X93414505Y-101629436D02*
X93441442Y-101710248D01*
X93441442Y-101710248D02*
X93441442Y-101764123D01*
X93441442Y-101764123D02*
X93414505Y-101844935D01*
X93414505Y-101844935D02*
X93199006Y-102060434D01*
X93495317Y-101279249D02*
X93495317Y-101225375D01*
X93495317Y-101225375D02*
X93522255Y-101144562D01*
X93522255Y-101144562D02*
X93656942Y-101009875D01*
X93656942Y-101009875D02*
X93737754Y-100982938D01*
X93737754Y-100982938D02*
X93791629Y-100982938D01*
X93791629Y-100982938D02*
X93872441Y-101009875D01*
X93872441Y-101009875D02*
X93926316Y-101063750D01*
X93926316Y-101063750D02*
X93980190Y-101171500D01*
X93980190Y-101171500D02*
X93980190Y-101817997D01*
X93980190Y-101817997D02*
X94330377Y-101467811D01*
X94869125Y-100929063D02*
X94545876Y-101252312D01*
X94707500Y-101090687D02*
X94141815Y-100525002D01*
X94141815Y-100525002D02*
X94168752Y-100659689D01*
X94168752Y-100659689D02*
X94168752Y-100767439D01*
X94168752Y-100767439D02*
X94141815Y-100848251D01*
X92660258Y-96980434D02*
X92579445Y-97007371D01*
X92579445Y-97007371D02*
X92498633Y-97088184D01*
X92498633Y-97088184D02*
X92444758Y-97195933D01*
X92444758Y-97195933D02*
X92444758Y-97303683D01*
X92444758Y-97303683D02*
X92471696Y-97384495D01*
X92471696Y-97384495D02*
X92552508Y-97519182D01*
X92552508Y-97519182D02*
X92633320Y-97599994D01*
X92633320Y-97599994D02*
X92768007Y-97680807D01*
X92768007Y-97680807D02*
X92848820Y-97707744D01*
X92848820Y-97707744D02*
X92956569Y-97707744D01*
X92956569Y-97707744D02*
X93064319Y-97653869D01*
X93064319Y-97653869D02*
X93118194Y-97599994D01*
X93118194Y-97599994D02*
X93172068Y-97492245D01*
X93172068Y-97492245D02*
X93172068Y-97438370D01*
X93172068Y-97438370D02*
X92983507Y-97249808D01*
X92983507Y-97249808D02*
X92875757Y-97357558D01*
X93468380Y-97249808D02*
X92902694Y-96684123D01*
X92902694Y-96684123D02*
X93118194Y-96468623D01*
X93118194Y-96468623D02*
X93199006Y-96441686D01*
X93199006Y-96441686D02*
X93252881Y-96441686D01*
X93252881Y-96441686D02*
X93333693Y-96468623D01*
X93333693Y-96468623D02*
X93414505Y-96549436D01*
X93414505Y-96549436D02*
X93441442Y-96630248D01*
X93441442Y-96630248D02*
X93441442Y-96684123D01*
X93441442Y-96684123D02*
X93414505Y-96764935D01*
X93414505Y-96764935D02*
X93199006Y-96980434D01*
X93495317Y-96199249D02*
X93495317Y-96145375D01*
X93495317Y-96145375D02*
X93522255Y-96064562D01*
X93522255Y-96064562D02*
X93656942Y-95929875D01*
X93656942Y-95929875D02*
X93737754Y-95902938D01*
X93737754Y-95902938D02*
X93791629Y-95902938D01*
X93791629Y-95902938D02*
X93872441Y-95929875D01*
X93872441Y-95929875D02*
X93926316Y-95983750D01*
X93926316Y-95983750D02*
X93980190Y-96091500D01*
X93980190Y-96091500D02*
X93980190Y-96737997D01*
X93980190Y-96737997D02*
X94330377Y-96387811D01*
X93953253Y-95633564D02*
X94303439Y-95283378D01*
X94303439Y-95283378D02*
X94330377Y-95687439D01*
X94330377Y-95687439D02*
X94411189Y-95606626D01*
X94411189Y-95606626D02*
X94492001Y-95579689D01*
X94492001Y-95579689D02*
X94545876Y-95579689D01*
X94545876Y-95579689D02*
X94626688Y-95606626D01*
X94626688Y-95606626D02*
X94761375Y-95741313D01*
X94761375Y-95741313D02*
X94788313Y-95822126D01*
X94788313Y-95822126D02*
X94788313Y-95876000D01*
X94788313Y-95876000D02*
X94761375Y-95956813D01*
X94761375Y-95956813D02*
X94599751Y-96118437D01*
X94599751Y-96118437D02*
X94518939Y-96145374D01*
X94518939Y-96145374D02*
X94465064Y-96145374D01*
X66877632Y-84429060D02*
X66796820Y-84455997D01*
X66796820Y-84455997D02*
X66716008Y-84536809D01*
X66716008Y-84536809D02*
X66662133Y-84644559D01*
X66662133Y-84644559D02*
X66662133Y-84752308D01*
X66662133Y-84752308D02*
X66689070Y-84833121D01*
X66689070Y-84833121D02*
X66769883Y-84967808D01*
X66769883Y-84967808D02*
X66850695Y-85048620D01*
X66850695Y-85048620D02*
X66985382Y-85129432D01*
X66985382Y-85129432D02*
X67066194Y-85156369D01*
X67066194Y-85156369D02*
X67173944Y-85156369D01*
X67173944Y-85156369D02*
X67281693Y-85102495D01*
X67281693Y-85102495D02*
X67335568Y-85048620D01*
X67335568Y-85048620D02*
X67389443Y-84940870D01*
X67389443Y-84940870D02*
X67389443Y-84886995D01*
X67389443Y-84886995D02*
X67200881Y-84698434D01*
X67200881Y-84698434D02*
X67093131Y-84806183D01*
X67685754Y-84698434D02*
X67120069Y-84132748D01*
X67120069Y-84132748D02*
X67335568Y-83917249D01*
X67335568Y-83917249D02*
X67416380Y-83890312D01*
X67416380Y-83890312D02*
X67470255Y-83890312D01*
X67470255Y-83890312D02*
X67551067Y-83917249D01*
X67551067Y-83917249D02*
X67631879Y-83998061D01*
X67631879Y-83998061D02*
X67658817Y-84078873D01*
X67658817Y-84078873D02*
X67658817Y-84132748D01*
X67658817Y-84132748D02*
X67631879Y-84213560D01*
X67631879Y-84213560D02*
X67416380Y-84429060D01*
X68009003Y-83728687D02*
X67928191Y-83755625D01*
X67928191Y-83755625D02*
X67874316Y-83755625D01*
X67874316Y-83755625D02*
X67793504Y-83728687D01*
X67793504Y-83728687D02*
X67766566Y-83701750D01*
X67766566Y-83701750D02*
X67739629Y-83620938D01*
X67739629Y-83620938D02*
X67739629Y-83567063D01*
X67739629Y-83567063D02*
X67766566Y-83486251D01*
X67766566Y-83486251D02*
X67874316Y-83378501D01*
X67874316Y-83378501D02*
X67955128Y-83351564D01*
X67955128Y-83351564D02*
X68009003Y-83351564D01*
X68009003Y-83351564D02*
X68089815Y-83378501D01*
X68089815Y-83378501D02*
X68116753Y-83405438D01*
X68116753Y-83405438D02*
X68143690Y-83486251D01*
X68143690Y-83486251D02*
X68143690Y-83540125D01*
X68143690Y-83540125D02*
X68116753Y-83620938D01*
X68116753Y-83620938D02*
X68009003Y-83728687D01*
X68009003Y-83728687D02*
X67982066Y-83809499D01*
X67982066Y-83809499D02*
X67982066Y-83863374D01*
X67982066Y-83863374D02*
X68009003Y-83944186D01*
X68009003Y-83944186D02*
X68116753Y-84051936D01*
X68116753Y-84051936D02*
X68197565Y-84078873D01*
X68197565Y-84078873D02*
X68251440Y-84078873D01*
X68251440Y-84078873D02*
X68332252Y-84051936D01*
X68332252Y-84051936D02*
X68440001Y-83944186D01*
X68440001Y-83944186D02*
X68466939Y-83863374D01*
X68466939Y-83863374D02*
X68466939Y-83809499D01*
X68466939Y-83809499D02*
X68440001Y-83728687D01*
X68440001Y-83728687D02*
X68332252Y-83620938D01*
X68332252Y-83620938D02*
X68251440Y-83594000D01*
X68251440Y-83594000D02*
X68197565Y-83594000D01*
X68197565Y-83594000D02*
X68116753Y-83620938D01*
X92660258Y-109680434D02*
X92579445Y-109707371D01*
X92579445Y-109707371D02*
X92498633Y-109788184D01*
X92498633Y-109788184D02*
X92444758Y-109895933D01*
X92444758Y-109895933D02*
X92444758Y-110003683D01*
X92444758Y-110003683D02*
X92471696Y-110084495D01*
X92471696Y-110084495D02*
X92552508Y-110219182D01*
X92552508Y-110219182D02*
X92633320Y-110299994D01*
X92633320Y-110299994D02*
X92768007Y-110380807D01*
X92768007Y-110380807D02*
X92848820Y-110407744D01*
X92848820Y-110407744D02*
X92956569Y-110407744D01*
X92956569Y-110407744D02*
X93064319Y-110353869D01*
X93064319Y-110353869D02*
X93118194Y-110299994D01*
X93118194Y-110299994D02*
X93172068Y-110192245D01*
X93172068Y-110192245D02*
X93172068Y-110138370D01*
X93172068Y-110138370D02*
X92983507Y-109949808D01*
X92983507Y-109949808D02*
X92875757Y-110057558D01*
X93468380Y-109949808D02*
X92902694Y-109384123D01*
X92902694Y-109384123D02*
X93118194Y-109168623D01*
X93118194Y-109168623D02*
X93199006Y-109141686D01*
X93199006Y-109141686D02*
X93252881Y-109141686D01*
X93252881Y-109141686D02*
X93333693Y-109168623D01*
X93333693Y-109168623D02*
X93414505Y-109249436D01*
X93414505Y-109249436D02*
X93441442Y-109330248D01*
X93441442Y-109330248D02*
X93441442Y-109384123D01*
X93441442Y-109384123D02*
X93414505Y-109464935D01*
X93414505Y-109464935D02*
X93199006Y-109680434D01*
X94330377Y-109087811D02*
X94007128Y-109411060D01*
X94168752Y-109249436D02*
X93603067Y-108683750D01*
X93603067Y-108683750D02*
X93630004Y-108818437D01*
X93630004Y-108818437D02*
X93630004Y-108926187D01*
X93630004Y-108926187D02*
X93603067Y-109006999D01*
X94330377Y-108441313D02*
X94249565Y-108468251D01*
X94249565Y-108468251D02*
X94195690Y-108468251D01*
X94195690Y-108468251D02*
X94114878Y-108441313D01*
X94114878Y-108441313D02*
X94087940Y-108414376D01*
X94087940Y-108414376D02*
X94061003Y-108333564D01*
X94061003Y-108333564D02*
X94061003Y-108279689D01*
X94061003Y-108279689D02*
X94087940Y-108198877D01*
X94087940Y-108198877D02*
X94195690Y-108091127D01*
X94195690Y-108091127D02*
X94276502Y-108064190D01*
X94276502Y-108064190D02*
X94330377Y-108064190D01*
X94330377Y-108064190D02*
X94411189Y-108091127D01*
X94411189Y-108091127D02*
X94438126Y-108118065D01*
X94438126Y-108118065D02*
X94465064Y-108198877D01*
X94465064Y-108198877D02*
X94465064Y-108252752D01*
X94465064Y-108252752D02*
X94438126Y-108333564D01*
X94438126Y-108333564D02*
X94330377Y-108441313D01*
X94330377Y-108441313D02*
X94303439Y-108522126D01*
X94303439Y-108522126D02*
X94303439Y-108576000D01*
X94303439Y-108576000D02*
X94330377Y-108656813D01*
X94330377Y-108656813D02*
X94438126Y-108764562D01*
X94438126Y-108764562D02*
X94518939Y-108791500D01*
X94518939Y-108791500D02*
X94572813Y-108791500D01*
X94572813Y-108791500D02*
X94653626Y-108764562D01*
X94653626Y-108764562D02*
X94761375Y-108656813D01*
X94761375Y-108656813D02*
X94788313Y-108576000D01*
X94788313Y-108576000D02*
X94788313Y-108522126D01*
X94788313Y-108522126D02*
X94761375Y-108441313D01*
X94761375Y-108441313D02*
X94653626Y-108333564D01*
X94653626Y-108333564D02*
X94572813Y-108306626D01*
X94572813Y-108306626D02*
X94518939Y-108306626D01*
X94518939Y-108306626D02*
X94438126Y-108333564D01*
X66677632Y-64129060D02*
X66596820Y-64155997D01*
X66596820Y-64155997D02*
X66516008Y-64236809D01*
X66516008Y-64236809D02*
X66462133Y-64344559D01*
X66462133Y-64344559D02*
X66462133Y-64452308D01*
X66462133Y-64452308D02*
X66489070Y-64533121D01*
X66489070Y-64533121D02*
X66569883Y-64667808D01*
X66569883Y-64667808D02*
X66650695Y-64748620D01*
X66650695Y-64748620D02*
X66785382Y-64829432D01*
X66785382Y-64829432D02*
X66866194Y-64856369D01*
X66866194Y-64856369D02*
X66973944Y-64856369D01*
X66973944Y-64856369D02*
X67081693Y-64802495D01*
X67081693Y-64802495D02*
X67135568Y-64748620D01*
X67135568Y-64748620D02*
X67189443Y-64640870D01*
X67189443Y-64640870D02*
X67189443Y-64586995D01*
X67189443Y-64586995D02*
X67000881Y-64398434D01*
X67000881Y-64398434D02*
X66893131Y-64506183D01*
X67485754Y-64398434D02*
X66920069Y-63832748D01*
X66920069Y-63832748D02*
X67135568Y-63617249D01*
X67135568Y-63617249D02*
X67216380Y-63590312D01*
X67216380Y-63590312D02*
X67270255Y-63590312D01*
X67270255Y-63590312D02*
X67351067Y-63617249D01*
X67351067Y-63617249D02*
X67431879Y-63698061D01*
X67431879Y-63698061D02*
X67458817Y-63778873D01*
X67458817Y-63778873D02*
X67458817Y-63832748D01*
X67458817Y-63832748D02*
X67431879Y-63913560D01*
X67431879Y-63913560D02*
X67216380Y-64129060D01*
X68347751Y-63536437D02*
X68024502Y-63859686D01*
X68186127Y-63698061D02*
X67620441Y-63132376D01*
X67620441Y-63132376D02*
X67647379Y-63267063D01*
X67647379Y-63267063D02*
X67647379Y-63374812D01*
X67647379Y-63374812D02*
X67620441Y-63455625D01*
X66442109Y-79630811D02*
X66361297Y-79657748D01*
X66361297Y-79657748D02*
X66280485Y-79738560D01*
X66280485Y-79738560D02*
X66226610Y-79846310D01*
X66226610Y-79846310D02*
X66226610Y-79954059D01*
X66226610Y-79954059D02*
X66253547Y-80034872D01*
X66253547Y-80034872D02*
X66334360Y-80169559D01*
X66334360Y-80169559D02*
X66415172Y-80250371D01*
X66415172Y-80250371D02*
X66549859Y-80331183D01*
X66549859Y-80331183D02*
X66630671Y-80358120D01*
X66630671Y-80358120D02*
X66738421Y-80358120D01*
X66738421Y-80358120D02*
X66846170Y-80304246D01*
X66846170Y-80304246D02*
X66900045Y-80250371D01*
X66900045Y-80250371D02*
X66953920Y-80142621D01*
X66953920Y-80142621D02*
X66953920Y-80088746D01*
X66953920Y-80088746D02*
X66765358Y-79900185D01*
X66765358Y-79900185D02*
X66657608Y-80007934D01*
X67250231Y-79900185D02*
X66684546Y-79334499D01*
X66684546Y-79334499D02*
X66900045Y-79119000D01*
X66900045Y-79119000D02*
X66980857Y-79092063D01*
X66980857Y-79092063D02*
X67034732Y-79092063D01*
X67034732Y-79092063D02*
X67115544Y-79119000D01*
X67115544Y-79119000D02*
X67196356Y-79199812D01*
X67196356Y-79199812D02*
X67223294Y-79280624D01*
X67223294Y-79280624D02*
X67223294Y-79334499D01*
X67223294Y-79334499D02*
X67196356Y-79415311D01*
X67196356Y-79415311D02*
X66980857Y-79630811D01*
X67492668Y-78526377D02*
X67384918Y-78634127D01*
X67384918Y-78634127D02*
X67357981Y-78714939D01*
X67357981Y-78714939D02*
X67357981Y-78768814D01*
X67357981Y-78768814D02*
X67384918Y-78903501D01*
X67384918Y-78903501D02*
X67465730Y-79038188D01*
X67465730Y-79038188D02*
X67681230Y-79253687D01*
X67681230Y-79253687D02*
X67762042Y-79280624D01*
X67762042Y-79280624D02*
X67815917Y-79280624D01*
X67815917Y-79280624D02*
X67896729Y-79253687D01*
X67896729Y-79253687D02*
X68004478Y-79145937D01*
X68004478Y-79145937D02*
X68031416Y-79065125D01*
X68031416Y-79065125D02*
X68031416Y-79011250D01*
X68031416Y-79011250D02*
X68004478Y-78930438D01*
X68004478Y-78930438D02*
X67869791Y-78795751D01*
X67869791Y-78795751D02*
X67788979Y-78768814D01*
X67788979Y-78768814D02*
X67735104Y-78768814D01*
X67735104Y-78768814D02*
X67654292Y-78795751D01*
X67654292Y-78795751D02*
X67546543Y-78903501D01*
X67546543Y-78903501D02*
X67519605Y-78984313D01*
X67519605Y-78984313D02*
X67519605Y-79038188D01*
X67519605Y-79038188D02*
X67546543Y-79119000D01*
X66677632Y-69219060D02*
X66596820Y-69245997D01*
X66596820Y-69245997D02*
X66516008Y-69326809D01*
X66516008Y-69326809D02*
X66462133Y-69434559D01*
X66462133Y-69434559D02*
X66462133Y-69542308D01*
X66462133Y-69542308D02*
X66489070Y-69623121D01*
X66489070Y-69623121D02*
X66569883Y-69757808D01*
X66569883Y-69757808D02*
X66650695Y-69838620D01*
X66650695Y-69838620D02*
X66785382Y-69919432D01*
X66785382Y-69919432D02*
X66866194Y-69946369D01*
X66866194Y-69946369D02*
X66973944Y-69946369D01*
X66973944Y-69946369D02*
X67081693Y-69892495D01*
X67081693Y-69892495D02*
X67135568Y-69838620D01*
X67135568Y-69838620D02*
X67189443Y-69730870D01*
X67189443Y-69730870D02*
X67189443Y-69676995D01*
X67189443Y-69676995D02*
X67000881Y-69488434D01*
X67000881Y-69488434D02*
X66893131Y-69596183D01*
X67485754Y-69488434D02*
X66920069Y-68922748D01*
X66920069Y-68922748D02*
X67135568Y-68707249D01*
X67135568Y-68707249D02*
X67216380Y-68680312D01*
X67216380Y-68680312D02*
X67270255Y-68680312D01*
X67270255Y-68680312D02*
X67351067Y-68707249D01*
X67351067Y-68707249D02*
X67431879Y-68788061D01*
X67431879Y-68788061D02*
X67458817Y-68868873D01*
X67458817Y-68868873D02*
X67458817Y-68922748D01*
X67458817Y-68922748D02*
X67431879Y-69003560D01*
X67431879Y-69003560D02*
X67216380Y-69219060D01*
X67431879Y-68410938D02*
X67782066Y-68060751D01*
X67782066Y-68060751D02*
X67809003Y-68464812D01*
X67809003Y-68464812D02*
X67889815Y-68384000D01*
X67889815Y-68384000D02*
X67970627Y-68357063D01*
X67970627Y-68357063D02*
X68024502Y-68357063D01*
X68024502Y-68357063D02*
X68105314Y-68384000D01*
X68105314Y-68384000D02*
X68240001Y-68518687D01*
X68240001Y-68518687D02*
X68266939Y-68599499D01*
X68266939Y-68599499D02*
X68266939Y-68653374D01*
X68266939Y-68653374D02*
X68240001Y-68734186D01*
X68240001Y-68734186D02*
X68078377Y-68895811D01*
X68078377Y-68895811D02*
X67997565Y-68922748D01*
X67997565Y-68922748D02*
X67943690Y-68922748D01*
X66135196Y-97401496D02*
X66054383Y-97428434D01*
X66054383Y-97428434D02*
X65973571Y-97509246D01*
X65973571Y-97509246D02*
X65919696Y-97616995D01*
X65919696Y-97616995D02*
X65919696Y-97724745D01*
X65919696Y-97724745D02*
X65946634Y-97805557D01*
X65946634Y-97805557D02*
X66027446Y-97940244D01*
X66027446Y-97940244D02*
X66108258Y-98021056D01*
X66108258Y-98021056D02*
X66242945Y-98101869D01*
X66242945Y-98101869D02*
X66323757Y-98128806D01*
X66323757Y-98128806D02*
X66431507Y-98128806D01*
X66431507Y-98128806D02*
X66539257Y-98074931D01*
X66539257Y-98074931D02*
X66593131Y-98021056D01*
X66593131Y-98021056D02*
X66647006Y-97913307D01*
X66647006Y-97913307D02*
X66647006Y-97859432D01*
X66647006Y-97859432D02*
X66458444Y-97670870D01*
X66458444Y-97670870D02*
X66350695Y-97778620D01*
X66943318Y-97670870D02*
X66377632Y-97105185D01*
X66377632Y-97105185D02*
X67266566Y-97347621D01*
X67266566Y-97347621D02*
X66700881Y-96781936D01*
X67535940Y-97078248D02*
X66970255Y-96512562D01*
X66970255Y-96512562D02*
X67104942Y-96377875D01*
X67104942Y-96377875D02*
X67212692Y-96324000D01*
X67212692Y-96324000D02*
X67320441Y-96324000D01*
X67320441Y-96324000D02*
X67401253Y-96350938D01*
X67401253Y-96350938D02*
X67535940Y-96431750D01*
X67535940Y-96431750D02*
X67616753Y-96512562D01*
X67616753Y-96512562D02*
X67697565Y-96647249D01*
X67697565Y-96647249D02*
X67724502Y-96728061D01*
X67724502Y-96728061D02*
X67724502Y-96835811D01*
X67724502Y-96835811D02*
X67670627Y-96943561D01*
X67670627Y-96943561D02*
X67535940Y-97078248D01*
X67616753Y-95866064D02*
X67751440Y-96000751D01*
X67562878Y-96081564D02*
X67751440Y-96000751D01*
X67751440Y-96000751D02*
X67832252Y-95812190D01*
X67778377Y-96189313D02*
X67751440Y-96000751D01*
X67751440Y-96000751D02*
X67940001Y-96027689D01*
X92853172Y-73549748D02*
X92772360Y-73576685D01*
X92772360Y-73576685D02*
X92691548Y-73657497D01*
X92691548Y-73657497D02*
X92637673Y-73765247D01*
X92637673Y-73765247D02*
X92637673Y-73872997D01*
X92637673Y-73872997D02*
X92664610Y-73953809D01*
X92664610Y-73953809D02*
X92745422Y-74088496D01*
X92745422Y-74088496D02*
X92826235Y-74169308D01*
X92826235Y-74169308D02*
X92960922Y-74250120D01*
X92960922Y-74250120D02*
X93041734Y-74277058D01*
X93041734Y-74277058D02*
X93149483Y-74277058D01*
X93149483Y-74277058D02*
X93257233Y-74223183D01*
X93257233Y-74223183D02*
X93311108Y-74169308D01*
X93311108Y-74169308D02*
X93364983Y-74061558D01*
X93364983Y-74061558D02*
X93364983Y-74007684D01*
X93364983Y-74007684D02*
X93176421Y-73819122D01*
X93176421Y-73819122D02*
X93068671Y-73926871D01*
X93661294Y-73819122D02*
X93095609Y-73253436D01*
X93095609Y-73253436D02*
X93984543Y-73495873D01*
X93984543Y-73495873D02*
X93418857Y-72930188D01*
X94253917Y-73226499D02*
X93688231Y-72660814D01*
X93688231Y-72660814D02*
X93822918Y-72526127D01*
X93822918Y-72526127D02*
X93930668Y-72472252D01*
X93930668Y-72472252D02*
X94038417Y-72472252D01*
X94038417Y-72472252D02*
X94119230Y-72499189D01*
X94119230Y-72499189D02*
X94253917Y-72580002D01*
X94253917Y-72580002D02*
X94334729Y-72660814D01*
X94334729Y-72660814D02*
X94415541Y-72795501D01*
X94415541Y-72795501D02*
X94442478Y-72876313D01*
X94442478Y-72876313D02*
X94442478Y-72984063D01*
X94442478Y-72984063D02*
X94388604Y-73091812D01*
X94388604Y-73091812D02*
X94253917Y-73226499D01*
X92660258Y-107140434D02*
X92579445Y-107167371D01*
X92579445Y-107167371D02*
X92498633Y-107248184D01*
X92498633Y-107248184D02*
X92444758Y-107355933D01*
X92444758Y-107355933D02*
X92444758Y-107463683D01*
X92444758Y-107463683D02*
X92471696Y-107544495D01*
X92471696Y-107544495D02*
X92552508Y-107679182D01*
X92552508Y-107679182D02*
X92633320Y-107759994D01*
X92633320Y-107759994D02*
X92768007Y-107840807D01*
X92768007Y-107840807D02*
X92848820Y-107867744D01*
X92848820Y-107867744D02*
X92956569Y-107867744D01*
X92956569Y-107867744D02*
X93064319Y-107813869D01*
X93064319Y-107813869D02*
X93118194Y-107759994D01*
X93118194Y-107759994D02*
X93172068Y-107652245D01*
X93172068Y-107652245D02*
X93172068Y-107598370D01*
X93172068Y-107598370D02*
X92983507Y-107409808D01*
X92983507Y-107409808D02*
X92875757Y-107517558D01*
X93468380Y-107409808D02*
X92902694Y-106844123D01*
X92902694Y-106844123D02*
X93118194Y-106628623D01*
X93118194Y-106628623D02*
X93199006Y-106601686D01*
X93199006Y-106601686D02*
X93252881Y-106601686D01*
X93252881Y-106601686D02*
X93333693Y-106628623D01*
X93333693Y-106628623D02*
X93414505Y-106709436D01*
X93414505Y-106709436D02*
X93441442Y-106790248D01*
X93441442Y-106790248D02*
X93441442Y-106844123D01*
X93441442Y-106844123D02*
X93414505Y-106924935D01*
X93414505Y-106924935D02*
X93199006Y-107140434D01*
X94330377Y-106547811D02*
X94007128Y-106871060D01*
X94168752Y-106709436D02*
X93603067Y-106143750D01*
X93603067Y-106143750D02*
X93630004Y-106278437D01*
X93630004Y-106278437D02*
X93630004Y-106386187D01*
X93630004Y-106386187D02*
X93603067Y-106466999D01*
X94599751Y-106278437D02*
X94707500Y-106170687D01*
X94707500Y-106170687D02*
X94734438Y-106089875D01*
X94734438Y-106089875D02*
X94734438Y-106036000D01*
X94734438Y-106036000D02*
X94707500Y-105901313D01*
X94707500Y-105901313D02*
X94626688Y-105766626D01*
X94626688Y-105766626D02*
X94411189Y-105551127D01*
X94411189Y-105551127D02*
X94330377Y-105524190D01*
X94330377Y-105524190D02*
X94276502Y-105524190D01*
X94276502Y-105524190D02*
X94195690Y-105551127D01*
X94195690Y-105551127D02*
X94087940Y-105658877D01*
X94087940Y-105658877D02*
X94061003Y-105739689D01*
X94061003Y-105739689D02*
X94061003Y-105793564D01*
X94061003Y-105793564D02*
X94087940Y-105874376D01*
X94087940Y-105874376D02*
X94222627Y-106009063D01*
X94222627Y-106009063D02*
X94303439Y-106036000D01*
X94303439Y-106036000D02*
X94357314Y-106036000D01*
X94357314Y-106036000D02*
X94438126Y-106009063D01*
X94438126Y-106009063D02*
X94545876Y-105901313D01*
X94545876Y-105901313D02*
X94572813Y-105820501D01*
X94572813Y-105820501D02*
X94572813Y-105766626D01*
X94572813Y-105766626D02*
X94545876Y-105685814D01*
X66750695Y-74325997D02*
X66669883Y-74352934D01*
X66669883Y-74352934D02*
X66589071Y-74433746D01*
X66589071Y-74433746D02*
X66535196Y-74541496D01*
X66535196Y-74541496D02*
X66535196Y-74649246D01*
X66535196Y-74649246D02*
X66562133Y-74730058D01*
X66562133Y-74730058D02*
X66642945Y-74864745D01*
X66642945Y-74864745D02*
X66723758Y-74945557D01*
X66723758Y-74945557D02*
X66858445Y-75026369D01*
X66858445Y-75026369D02*
X66939257Y-75053307D01*
X66939257Y-75053307D02*
X67047006Y-75053307D01*
X67047006Y-75053307D02*
X67154756Y-74999432D01*
X67154756Y-74999432D02*
X67208631Y-74945557D01*
X67208631Y-74945557D02*
X67262506Y-74837807D01*
X67262506Y-74837807D02*
X67262506Y-74783933D01*
X67262506Y-74783933D02*
X67073944Y-74595371D01*
X67073944Y-74595371D02*
X66966194Y-74703120D01*
X67558817Y-74595371D02*
X66993132Y-74029685D01*
X66993132Y-74029685D02*
X67882066Y-74272122D01*
X67882066Y-74272122D02*
X67316380Y-73706437D01*
X68151440Y-74002748D02*
X67585754Y-73437063D01*
X67585754Y-73437063D02*
X67720441Y-73302376D01*
X67720441Y-73302376D02*
X67828191Y-73248501D01*
X67828191Y-73248501D02*
X67935940Y-73248501D01*
X67935940Y-73248501D02*
X68016753Y-73275438D01*
X68016753Y-73275438D02*
X68151440Y-73356251D01*
X68151440Y-73356251D02*
X68232252Y-73437063D01*
X68232252Y-73437063D02*
X68313064Y-73571750D01*
X68313064Y-73571750D02*
X68340001Y-73652562D01*
X68340001Y-73652562D02*
X68340001Y-73760312D01*
X68340001Y-73760312D02*
X68286127Y-73868061D01*
X68286127Y-73868061D02*
X68151440Y-74002748D01*
X92461361Y-71517684D02*
X92811547Y-71167498D01*
X92811547Y-71167498D02*
X92838484Y-71571559D01*
X92838484Y-71571559D02*
X92919297Y-71490747D01*
X92919297Y-71490747D02*
X93000109Y-71463809D01*
X93000109Y-71463809D02*
X93053984Y-71463809D01*
X93053984Y-71463809D02*
X93134796Y-71490747D01*
X93134796Y-71490747D02*
X93269483Y-71625434D01*
X93269483Y-71625434D02*
X93296420Y-71706246D01*
X93296420Y-71706246D02*
X93296420Y-71760121D01*
X93296420Y-71760121D02*
X93269483Y-71840933D01*
X93269483Y-71840933D02*
X93107858Y-72002557D01*
X93107858Y-72002557D02*
X93027046Y-72029495D01*
X93027046Y-72029495D02*
X92973171Y-72029495D01*
X92973172Y-71005873D02*
X93727419Y-71382997D01*
X93727419Y-71382997D02*
X93350295Y-70628750D01*
X93484982Y-70494063D02*
X93835168Y-70143877D01*
X93835168Y-70143877D02*
X93862106Y-70547938D01*
X93862106Y-70547938D02*
X93942918Y-70467126D01*
X93942918Y-70467126D02*
X94023730Y-70440188D01*
X94023730Y-70440188D02*
X94077605Y-70440188D01*
X94077605Y-70440188D02*
X94158417Y-70467126D01*
X94158417Y-70467126D02*
X94293104Y-70601813D01*
X94293104Y-70601813D02*
X94320041Y-70682625D01*
X94320041Y-70682625D02*
X94320041Y-70736500D01*
X94320041Y-70736500D02*
X94293104Y-70817312D01*
X94293104Y-70817312D02*
X94131480Y-70978936D01*
X94131480Y-70978936D02*
X94050667Y-71005874D01*
X94050667Y-71005874D02*
X93996793Y-71005874D01*
X94158417Y-69820628D02*
X94293104Y-69955315D01*
X94104542Y-70036127D02*
X94293104Y-69955315D01*
X94293104Y-69955315D02*
X94373916Y-69766753D01*
X94320042Y-70143877D02*
X94293104Y-69955315D01*
X94293104Y-69955315D02*
X94481666Y-69982252D01*
X66254258Y-102508434D02*
X66173445Y-102535371D01*
X66173445Y-102535371D02*
X66092633Y-102616184D01*
X66092633Y-102616184D02*
X66038758Y-102723933D01*
X66038758Y-102723933D02*
X66038758Y-102831683D01*
X66038758Y-102831683D02*
X66065696Y-102912495D01*
X66065696Y-102912495D02*
X66146508Y-103047182D01*
X66146508Y-103047182D02*
X66227320Y-103127994D01*
X66227320Y-103127994D02*
X66362007Y-103208807D01*
X66362007Y-103208807D02*
X66442820Y-103235744D01*
X66442820Y-103235744D02*
X66550569Y-103235744D01*
X66550569Y-103235744D02*
X66658319Y-103181869D01*
X66658319Y-103181869D02*
X66712194Y-103127994D01*
X66712194Y-103127994D02*
X66766068Y-103020245D01*
X66766068Y-103020245D02*
X66766068Y-102966370D01*
X66766068Y-102966370D02*
X66577507Y-102777808D01*
X66577507Y-102777808D02*
X66469757Y-102885558D01*
X67062380Y-102777808D02*
X66496694Y-102212123D01*
X66496694Y-102212123D02*
X66712194Y-101996623D01*
X66712194Y-101996623D02*
X66793006Y-101969686D01*
X66793006Y-101969686D02*
X66846881Y-101969686D01*
X66846881Y-101969686D02*
X66927693Y-101996623D01*
X66927693Y-101996623D02*
X67008505Y-102077436D01*
X67008505Y-102077436D02*
X67035442Y-102158248D01*
X67035442Y-102158248D02*
X67035442Y-102212123D01*
X67035442Y-102212123D02*
X67008505Y-102292935D01*
X67008505Y-102292935D02*
X66793006Y-102508434D01*
X67924377Y-101915811D02*
X67601128Y-102239060D01*
X67762752Y-102077436D02*
X67197067Y-101511750D01*
X67197067Y-101511750D02*
X67224004Y-101646437D01*
X67224004Y-101646437D02*
X67224004Y-101754187D01*
X67224004Y-101754187D02*
X67197067Y-101834999D01*
X68032126Y-101053814D02*
X68409250Y-101430938D01*
X67681940Y-100973002D02*
X67951314Y-101511750D01*
X67951314Y-101511750D02*
X68301500Y-101161564D01*
X92308166Y-62226651D02*
X93062414Y-62603774D01*
X93062414Y-62603774D02*
X92685290Y-61849527D01*
X93331787Y-61741778D02*
X93439537Y-61687903D01*
X93439537Y-61687903D02*
X93493412Y-61687903D01*
X93493412Y-61687903D02*
X93574224Y-61714840D01*
X93574224Y-61714840D02*
X93655036Y-61795652D01*
X93655036Y-61795652D02*
X93681974Y-61876465D01*
X93681974Y-61876465D02*
X93681974Y-61930339D01*
X93681974Y-61930339D02*
X93655036Y-62011152D01*
X93655036Y-62011152D02*
X93439537Y-62226651D01*
X93439537Y-62226651D02*
X92873852Y-61660965D01*
X92873852Y-61660965D02*
X93062413Y-61472404D01*
X93062413Y-61472404D02*
X93143226Y-61445466D01*
X93143226Y-61445466D02*
X93197100Y-61445466D01*
X93197100Y-61445466D02*
X93277913Y-61472404D01*
X93277913Y-61472404D02*
X93331787Y-61526278D01*
X93331787Y-61526278D02*
X93358725Y-61607091D01*
X93358725Y-61607091D02*
X93358725Y-61660965D01*
X93358725Y-61660965D02*
X93331787Y-61741778D01*
X93331787Y-61741778D02*
X93143226Y-61930339D01*
X93439537Y-61095280D02*
X93897473Y-61553216D01*
X93897473Y-61553216D02*
X93978285Y-61580153D01*
X93978285Y-61580153D02*
X94032160Y-61580153D01*
X94032160Y-61580153D02*
X94112972Y-61553216D01*
X94112972Y-61553216D02*
X94220722Y-61445466D01*
X94220722Y-61445466D02*
X94247659Y-61364654D01*
X94247659Y-61364654D02*
X94247659Y-61310779D01*
X94247659Y-61310779D02*
X94220722Y-61229967D01*
X94220722Y-61229967D02*
X93762786Y-60772031D01*
X94543970Y-61068343D02*
X94651720Y-61014468D01*
X94651720Y-61014468D02*
X94786407Y-60879781D01*
X94786407Y-60879781D02*
X94813344Y-60798969D01*
X94813344Y-60798969D02*
X94813344Y-60745094D01*
X94813344Y-60745094D02*
X94786407Y-60664282D01*
X94786407Y-60664282D02*
X94732532Y-60610407D01*
X94732532Y-60610407D02*
X94651720Y-60583470D01*
X94651720Y-60583470D02*
X94597845Y-60583470D01*
X94597845Y-60583470D02*
X94517033Y-60610407D01*
X94517033Y-60610407D02*
X94382346Y-60691219D01*
X94382346Y-60691219D02*
X94301534Y-60718157D01*
X94301534Y-60718157D02*
X94247659Y-60718157D01*
X94247659Y-60718157D02*
X94166847Y-60691219D01*
X94166847Y-60691219D02*
X94112972Y-60637344D01*
X94112972Y-60637344D02*
X94086034Y-60556532D01*
X94086034Y-60556532D02*
X94086034Y-60502657D01*
X94086034Y-60502657D02*
X94112972Y-60421845D01*
X94112972Y-60421845D02*
X94247659Y-60287158D01*
X94247659Y-60287158D02*
X94355408Y-60233283D01*
X94651720Y-59883097D02*
X94786407Y-60017784D01*
X94597845Y-60098596D02*
X94786407Y-60017784D01*
X94786407Y-60017784D02*
X94867219Y-59829222D01*
X94813344Y-60206346D02*
X94786407Y-60017784D01*
X94786407Y-60017784D02*
X94974969Y-60044721D01*
X66777632Y-86999060D02*
X66696820Y-87025997D01*
X66696820Y-87025997D02*
X66616008Y-87106809D01*
X66616008Y-87106809D02*
X66562133Y-87214559D01*
X66562133Y-87214559D02*
X66562133Y-87322308D01*
X66562133Y-87322308D02*
X66589070Y-87403121D01*
X66589070Y-87403121D02*
X66669883Y-87537808D01*
X66669883Y-87537808D02*
X66750695Y-87618620D01*
X66750695Y-87618620D02*
X66885382Y-87699432D01*
X66885382Y-87699432D02*
X66966194Y-87726369D01*
X66966194Y-87726369D02*
X67073944Y-87726369D01*
X67073944Y-87726369D02*
X67181693Y-87672495D01*
X67181693Y-87672495D02*
X67235568Y-87618620D01*
X67235568Y-87618620D02*
X67289443Y-87510870D01*
X67289443Y-87510870D02*
X67289443Y-87456995D01*
X67289443Y-87456995D02*
X67100881Y-87268434D01*
X67100881Y-87268434D02*
X66993131Y-87376183D01*
X67585754Y-87268434D02*
X67020069Y-86702748D01*
X67020069Y-86702748D02*
X67235568Y-86487249D01*
X67235568Y-86487249D02*
X67316380Y-86460312D01*
X67316380Y-86460312D02*
X67370255Y-86460312D01*
X67370255Y-86460312D02*
X67451067Y-86487249D01*
X67451067Y-86487249D02*
X67531879Y-86568061D01*
X67531879Y-86568061D02*
X67558817Y-86648873D01*
X67558817Y-86648873D02*
X67558817Y-86702748D01*
X67558817Y-86702748D02*
X67531879Y-86783560D01*
X67531879Y-86783560D02*
X67316380Y-86999060D01*
X68178377Y-86675811D02*
X68286127Y-86568061D01*
X68286127Y-86568061D02*
X68313064Y-86487249D01*
X68313064Y-86487249D02*
X68313064Y-86433374D01*
X68313064Y-86433374D02*
X68286127Y-86298687D01*
X68286127Y-86298687D02*
X68205314Y-86164000D01*
X68205314Y-86164000D02*
X67989815Y-85948501D01*
X67989815Y-85948501D02*
X67909003Y-85921564D01*
X67909003Y-85921564D02*
X67855128Y-85921564D01*
X67855128Y-85921564D02*
X67774316Y-85948501D01*
X67774316Y-85948501D02*
X67666566Y-86056251D01*
X67666566Y-86056251D02*
X67639629Y-86137063D01*
X67639629Y-86137063D02*
X67639629Y-86190938D01*
X67639629Y-86190938D02*
X67666566Y-86271750D01*
X67666566Y-86271750D02*
X67801253Y-86406437D01*
X67801253Y-86406437D02*
X67882066Y-86433374D01*
X67882066Y-86433374D02*
X67935940Y-86433374D01*
X67935940Y-86433374D02*
X68016753Y-86406437D01*
X68016753Y-86406437D02*
X68124502Y-86298687D01*
X68124502Y-86298687D02*
X68151440Y-86217875D01*
X68151440Y-86217875D02*
X68151440Y-86164000D01*
X68151440Y-86164000D02*
X68124502Y-86083188D01*
X92660258Y-99520434D02*
X92579445Y-99547371D01*
X92579445Y-99547371D02*
X92498633Y-99628184D01*
X92498633Y-99628184D02*
X92444758Y-99735933D01*
X92444758Y-99735933D02*
X92444758Y-99843683D01*
X92444758Y-99843683D02*
X92471696Y-99924495D01*
X92471696Y-99924495D02*
X92552508Y-100059182D01*
X92552508Y-100059182D02*
X92633320Y-100139994D01*
X92633320Y-100139994D02*
X92768007Y-100220807D01*
X92768007Y-100220807D02*
X92848820Y-100247744D01*
X92848820Y-100247744D02*
X92956569Y-100247744D01*
X92956569Y-100247744D02*
X93064319Y-100193869D01*
X93064319Y-100193869D02*
X93118194Y-100139994D01*
X93118194Y-100139994D02*
X93172068Y-100032245D01*
X93172068Y-100032245D02*
X93172068Y-99978370D01*
X93172068Y-99978370D02*
X92983507Y-99789808D01*
X92983507Y-99789808D02*
X92875757Y-99897558D01*
X93468380Y-99789808D02*
X92902694Y-99224123D01*
X92902694Y-99224123D02*
X93118194Y-99008623D01*
X93118194Y-99008623D02*
X93199006Y-98981686D01*
X93199006Y-98981686D02*
X93252881Y-98981686D01*
X93252881Y-98981686D02*
X93333693Y-99008623D01*
X93333693Y-99008623D02*
X93414505Y-99089436D01*
X93414505Y-99089436D02*
X93441442Y-99170248D01*
X93441442Y-99170248D02*
X93441442Y-99224123D01*
X93441442Y-99224123D02*
X93414505Y-99304935D01*
X93414505Y-99304935D02*
X93199006Y-99520434D01*
X93495317Y-98739249D02*
X93495317Y-98685375D01*
X93495317Y-98685375D02*
X93522255Y-98604562D01*
X93522255Y-98604562D02*
X93656942Y-98469875D01*
X93656942Y-98469875D02*
X93737754Y-98442938D01*
X93737754Y-98442938D02*
X93791629Y-98442938D01*
X93791629Y-98442938D02*
X93872441Y-98469875D01*
X93872441Y-98469875D02*
X93926316Y-98523750D01*
X93926316Y-98523750D02*
X93980190Y-98631500D01*
X93980190Y-98631500D02*
X93980190Y-99277997D01*
X93980190Y-99277997D02*
X94330377Y-98927811D01*
X94034065Y-98200501D02*
X94034065Y-98146626D01*
X94034065Y-98146626D02*
X94061003Y-98065814D01*
X94061003Y-98065814D02*
X94195690Y-97931127D01*
X94195690Y-97931127D02*
X94276502Y-97904190D01*
X94276502Y-97904190D02*
X94330377Y-97904190D01*
X94330377Y-97904190D02*
X94411189Y-97931127D01*
X94411189Y-97931127D02*
X94465064Y-97985002D01*
X94465064Y-97985002D02*
X94518939Y-98092752D01*
X94518939Y-98092752D02*
X94518939Y-98739249D01*
X94518939Y-98739249D02*
X94869125Y-98389063D01*
X92483009Y-64229808D02*
X93237256Y-64606932D01*
X93237256Y-64606932D02*
X92860133Y-63852684D01*
X93560505Y-64229808D02*
X93668255Y-64175933D01*
X93668255Y-64175933D02*
X93802942Y-64041246D01*
X93802942Y-64041246D02*
X93829879Y-63960434D01*
X93829879Y-63960434D02*
X93829879Y-63906559D01*
X93829879Y-63906559D02*
X93802942Y-63825747D01*
X93802942Y-63825747D02*
X93749067Y-63771872D01*
X93749067Y-63771872D02*
X93668255Y-63744935D01*
X93668255Y-63744935D02*
X93614380Y-63744935D01*
X93614380Y-63744935D02*
X93533568Y-63771872D01*
X93533568Y-63771872D02*
X93398881Y-63852684D01*
X93398881Y-63852684D02*
X93318068Y-63879622D01*
X93318068Y-63879622D02*
X93264194Y-63879622D01*
X93264194Y-63879622D02*
X93183381Y-63852684D01*
X93183381Y-63852684D02*
X93129507Y-63798810D01*
X93129507Y-63798810D02*
X93102569Y-63717997D01*
X93102569Y-63717997D02*
X93102569Y-63664123D01*
X93102569Y-63664123D02*
X93129507Y-63583310D01*
X93129507Y-63583310D02*
X93264194Y-63448623D01*
X93264194Y-63448623D02*
X93371943Y-63394749D01*
X93991504Y-63313936D02*
X94260878Y-63583310D01*
X93506630Y-63206187D02*
X93991504Y-63313936D01*
X93991504Y-63313936D02*
X93883754Y-62829063D01*
X94584126Y-63206187D02*
X94691876Y-63152312D01*
X94691876Y-63152312D02*
X94826563Y-63017625D01*
X94826563Y-63017625D02*
X94853500Y-62936813D01*
X94853500Y-62936813D02*
X94853500Y-62882938D01*
X94853500Y-62882938D02*
X94826563Y-62802126D01*
X94826563Y-62802126D02*
X94772688Y-62748251D01*
X94772688Y-62748251D02*
X94691876Y-62721314D01*
X94691876Y-62721314D02*
X94638001Y-62721314D01*
X94638001Y-62721314D02*
X94557189Y-62748251D01*
X94557189Y-62748251D02*
X94422502Y-62829063D01*
X94422502Y-62829063D02*
X94341690Y-62856001D01*
X94341690Y-62856001D02*
X94287815Y-62856001D01*
X94287815Y-62856001D02*
X94207003Y-62829063D01*
X94207003Y-62829063D02*
X94153128Y-62775188D01*
X94153128Y-62775188D02*
X94126190Y-62694376D01*
X94126190Y-62694376D02*
X94126190Y-62640501D01*
X94126190Y-62640501D02*
X94153128Y-62559689D01*
X94153128Y-62559689D02*
X94287815Y-62425002D01*
X94287815Y-62425002D02*
X94395564Y-62371127D01*
X80424957Y-115797232D02*
X79948766Y-116130565D01*
X80424957Y-116368660D02*
X79424957Y-116368660D01*
X79424957Y-116368660D02*
X79424957Y-115987708D01*
X79424957Y-115987708D02*
X79472576Y-115892470D01*
X79472576Y-115892470D02*
X79520195Y-115844851D01*
X79520195Y-115844851D02*
X79615433Y-115797232D01*
X79615433Y-115797232D02*
X79758290Y-115797232D01*
X79758290Y-115797232D02*
X79853528Y-115844851D01*
X79853528Y-115844851D02*
X79901147Y-115892470D01*
X79901147Y-115892470D02*
X79948766Y-115987708D01*
X79948766Y-115987708D02*
X79948766Y-116368660D01*
X79424957Y-115463898D02*
X79424957Y-114844851D01*
X79424957Y-114844851D02*
X79805909Y-115178184D01*
X79805909Y-115178184D02*
X79805909Y-115035327D01*
X79805909Y-115035327D02*
X79853528Y-114940089D01*
X79853528Y-114940089D02*
X79901147Y-114892470D01*
X79901147Y-114892470D02*
X79996385Y-114844851D01*
X79996385Y-114844851D02*
X80234480Y-114844851D01*
X80234480Y-114844851D02*
X80329718Y-114892470D01*
X80329718Y-114892470D02*
X80377338Y-114940089D01*
X80377338Y-114940089D02*
X80424957Y-115035327D01*
X80424957Y-115035327D02*
X80424957Y-115321041D01*
X80424957Y-115321041D02*
X80377338Y-115416279D01*
X80377338Y-115416279D02*
X80329718Y-115463898D01*
X90630332Y-116644470D02*
X91439855Y-116644470D01*
X91439855Y-116644470D02*
X91535093Y-116596851D01*
X91535093Y-116596851D02*
X91582713Y-116549232D01*
X91582713Y-116549232D02*
X91630332Y-116453994D01*
X91630332Y-116453994D02*
X91630332Y-116263518D01*
X91630332Y-116263518D02*
X91582713Y-116168280D01*
X91582713Y-116168280D02*
X91535093Y-116120661D01*
X91535093Y-116120661D02*
X91439855Y-116073042D01*
X91439855Y-116073042D02*
X90630332Y-116073042D01*
X90630332Y-115120661D02*
X90630332Y-115596851D01*
X90630332Y-115596851D02*
X91106522Y-115644470D01*
X91106522Y-115644470D02*
X91058903Y-115596851D01*
X91058903Y-115596851D02*
X91011284Y-115501613D01*
X91011284Y-115501613D02*
X91011284Y-115263518D01*
X91011284Y-115263518D02*
X91058903Y-115168280D01*
X91058903Y-115168280D02*
X91106522Y-115120661D01*
X91106522Y-115120661D02*
X91201760Y-115073042D01*
X91201760Y-115073042D02*
X91439855Y-115073042D01*
X91439855Y-115073042D02*
X91535093Y-115120661D01*
X91535093Y-115120661D02*
X91582713Y-115168280D01*
X91582713Y-115168280D02*
X91630332Y-115263518D01*
X91630332Y-115263518D02*
X91630332Y-115501613D01*
X91630332Y-115501613D02*
X91582713Y-115596851D01*
X91582713Y-115596851D02*
X91535093Y-115644470D01*
X71932118Y-119511232D02*
X71979738Y-119558851D01*
X71979738Y-119558851D02*
X72027357Y-119701708D01*
X72027357Y-119701708D02*
X72027357Y-119796946D01*
X72027357Y-119796946D02*
X71979738Y-119939803D01*
X71979738Y-119939803D02*
X71884499Y-120035041D01*
X71884499Y-120035041D02*
X71789261Y-120082660D01*
X71789261Y-120082660D02*
X71598785Y-120130279D01*
X71598785Y-120130279D02*
X71455928Y-120130279D01*
X71455928Y-120130279D02*
X71265452Y-120082660D01*
X71265452Y-120082660D02*
X71170214Y-120035041D01*
X71170214Y-120035041D02*
X71074976Y-119939803D01*
X71074976Y-119939803D02*
X71027357Y-119796946D01*
X71027357Y-119796946D02*
X71027357Y-119701708D01*
X71027357Y-119701708D02*
X71074976Y-119558851D01*
X71074976Y-119558851D02*
X71122595Y-119511232D01*
X71027357Y-119177898D02*
X71027357Y-118558851D01*
X71027357Y-118558851D02*
X71408309Y-118892184D01*
X71408309Y-118892184D02*
X71408309Y-118749327D01*
X71408309Y-118749327D02*
X71455928Y-118654089D01*
X71455928Y-118654089D02*
X71503547Y-118606470D01*
X71503547Y-118606470D02*
X71598785Y-118558851D01*
X71598785Y-118558851D02*
X71836880Y-118558851D01*
X71836880Y-118558851D02*
X71932118Y-118606470D01*
X71932118Y-118606470D02*
X71979738Y-118654089D01*
X71979738Y-118654089D02*
X72027357Y-118749327D01*
X72027357Y-118749327D02*
X72027357Y-119035041D01*
X72027357Y-119035041D02*
X71979738Y-119130279D01*
X71979738Y-119130279D02*
X71932118Y-119177898D01*
X104553608Y-67777385D02*
X104553608Y-66777385D01*
X104553608Y-67253575D02*
X105125036Y-67253575D01*
X105125036Y-67777385D02*
X105125036Y-66777385D01*
X106125036Y-67777385D02*
X105553608Y-67777385D01*
X105839322Y-67777385D02*
X105839322Y-66777385D01*
X105839322Y-66777385D02*
X105744084Y-66920242D01*
X105744084Y-66920242D02*
X105648846Y-67015480D01*
X105648846Y-67015480D02*
X105553608Y-67063099D01*
X85236557Y-115955232D02*
X84760366Y-116288565D01*
X85236557Y-116526660D02*
X84236557Y-116526660D01*
X84236557Y-116526660D02*
X84236557Y-116145708D01*
X84236557Y-116145708D02*
X84284176Y-116050470D01*
X84284176Y-116050470D02*
X84331795Y-116002851D01*
X84331795Y-116002851D02*
X84427033Y-115955232D01*
X84427033Y-115955232D02*
X84569890Y-115955232D01*
X84569890Y-115955232D02*
X84665128Y-116002851D01*
X84665128Y-116002851D02*
X84712747Y-116050470D01*
X84712747Y-116050470D02*
X84760366Y-116145708D01*
X84760366Y-116145708D02*
X84760366Y-116526660D01*
X84569890Y-115098089D02*
X85236557Y-115098089D01*
X84188938Y-115336184D02*
X84903223Y-115574279D01*
X84903223Y-115574279D02*
X84903223Y-114955232D01*
X101752333Y-90566146D02*
X101704714Y-90613766D01*
X101704714Y-90613766D02*
X101561857Y-90661385D01*
X101561857Y-90661385D02*
X101466619Y-90661385D01*
X101466619Y-90661385D02*
X101323762Y-90613766D01*
X101323762Y-90613766D02*
X101228524Y-90518527D01*
X101228524Y-90518527D02*
X101180905Y-90423289D01*
X101180905Y-90423289D02*
X101133286Y-90232813D01*
X101133286Y-90232813D02*
X101133286Y-90089956D01*
X101133286Y-90089956D02*
X101180905Y-89899480D01*
X101180905Y-89899480D02*
X101228524Y-89804242D01*
X101228524Y-89804242D02*
X101323762Y-89709004D01*
X101323762Y-89709004D02*
X101466619Y-89661385D01*
X101466619Y-89661385D02*
X101561857Y-89661385D01*
X101561857Y-89661385D02*
X101704714Y-89709004D01*
X101704714Y-89709004D02*
X101752333Y-89756623D01*
X102704714Y-90661385D02*
X102133286Y-90661385D01*
X102419000Y-90661385D02*
X102419000Y-89661385D01*
X102419000Y-89661385D02*
X102323762Y-89804242D01*
X102323762Y-89804242D02*
X102228524Y-89899480D01*
X102228524Y-89899480D02*
X102133286Y-89947099D01*
X108102333Y-86866146D02*
X108054714Y-86913766D01*
X108054714Y-86913766D02*
X107911857Y-86961385D01*
X107911857Y-86961385D02*
X107816619Y-86961385D01*
X107816619Y-86961385D02*
X107673762Y-86913766D01*
X107673762Y-86913766D02*
X107578524Y-86818527D01*
X107578524Y-86818527D02*
X107530905Y-86723289D01*
X107530905Y-86723289D02*
X107483286Y-86532813D01*
X107483286Y-86532813D02*
X107483286Y-86389956D01*
X107483286Y-86389956D02*
X107530905Y-86199480D01*
X107530905Y-86199480D02*
X107578524Y-86104242D01*
X107578524Y-86104242D02*
X107673762Y-86009004D01*
X107673762Y-86009004D02*
X107816619Y-85961385D01*
X107816619Y-85961385D02*
X107911857Y-85961385D01*
X107911857Y-85961385D02*
X108054714Y-86009004D01*
X108054714Y-86009004D02*
X108102333Y-86056623D01*
X108483286Y-86056623D02*
X108530905Y-86009004D01*
X108530905Y-86009004D02*
X108626143Y-85961385D01*
X108626143Y-85961385D02*
X108864238Y-85961385D01*
X108864238Y-85961385D02*
X108959476Y-86009004D01*
X108959476Y-86009004D02*
X109007095Y-86056623D01*
X109007095Y-86056623D02*
X109054714Y-86151861D01*
X109054714Y-86151861D02*
X109054714Y-86247099D01*
X109054714Y-86247099D02*
X109007095Y-86389956D01*
X109007095Y-86389956D02*
X108435667Y-86961385D01*
X108435667Y-86961385D02*
X109054714Y-86961385D01*
X80182179Y-119810385D02*
X80182179Y-120524670D01*
X80182179Y-120524670D02*
X80134560Y-120667527D01*
X80134560Y-120667527D02*
X80039322Y-120762766D01*
X80039322Y-120762766D02*
X79896465Y-120810385D01*
X79896465Y-120810385D02*
X79801227Y-120810385D01*
X81086941Y-120143718D02*
X81086941Y-120810385D01*
X80848846Y-119762766D02*
X80610751Y-120477051D01*
X80610751Y-120477051D02*
X81229798Y-120477051D01*
X104332095Y-94080852D02*
X104332095Y-94890375D01*
X104332095Y-94890375D02*
X104379714Y-94985613D01*
X104379714Y-94985613D02*
X104427333Y-95033233D01*
X104427333Y-95033233D02*
X104522571Y-95080852D01*
X104522571Y-95080852D02*
X104713047Y-95080852D01*
X104713047Y-95080852D02*
X104808285Y-95033233D01*
X104808285Y-95033233D02*
X104855904Y-94985613D01*
X104855904Y-94985613D02*
X104903523Y-94890375D01*
X104903523Y-94890375D02*
X104903523Y-94080852D01*
X105808285Y-94414185D02*
X105808285Y-95080852D01*
X105570190Y-94033233D02*
X105332095Y-94747518D01*
X105332095Y-94747518D02*
X105951142Y-94747518D01*
X67113608Y-124657385D02*
X67113608Y-123657385D01*
X67113608Y-124133575D02*
X67685036Y-124133575D01*
X67685036Y-124657385D02*
X67685036Y-123657385D01*
X68113608Y-123752623D02*
X68161227Y-123705004D01*
X68161227Y-123705004D02*
X68256465Y-123657385D01*
X68256465Y-123657385D02*
X68494560Y-123657385D01*
X68494560Y-123657385D02*
X68589798Y-123705004D01*
X68589798Y-123705004D02*
X68637417Y-123752623D01*
X68637417Y-123752623D02*
X68685036Y-123847861D01*
X68685036Y-123847861D02*
X68685036Y-123943099D01*
X68685036Y-123943099D02*
X68637417Y-124085956D01*
X68637417Y-124085956D02*
X68065989Y-124657385D01*
X68065989Y-124657385D02*
X68685036Y-124657385D01*
X134603806Y-111594136D02*
X134603806Y-112403659D01*
X134603806Y-112403659D02*
X134651425Y-112498897D01*
X134651425Y-112498897D02*
X134699044Y-112546517D01*
X134699044Y-112546517D02*
X134794282Y-112594136D01*
X134794282Y-112594136D02*
X134984758Y-112594136D01*
X134984758Y-112594136D02*
X135079996Y-112546517D01*
X135079996Y-112546517D02*
X135127615Y-112498897D01*
X135127615Y-112498897D02*
X135175234Y-112403659D01*
X135175234Y-112403659D02*
X135175234Y-111594136D01*
X136079996Y-111594136D02*
X135889520Y-111594136D01*
X135889520Y-111594136D02*
X135794282Y-111641755D01*
X135794282Y-111641755D02*
X135746663Y-111689374D01*
X135746663Y-111689374D02*
X135651425Y-111832231D01*
X135651425Y-111832231D02*
X135603806Y-112022707D01*
X135603806Y-112022707D02*
X135603806Y-112403659D01*
X135603806Y-112403659D02*
X135651425Y-112498897D01*
X135651425Y-112498897D02*
X135699044Y-112546517D01*
X135699044Y-112546517D02*
X135794282Y-112594136D01*
X135794282Y-112594136D02*
X135984758Y-112594136D01*
X135984758Y-112594136D02*
X136079996Y-112546517D01*
X136079996Y-112546517D02*
X136127615Y-112498897D01*
X136127615Y-112498897D02*
X136175234Y-112403659D01*
X136175234Y-112403659D02*
X136175234Y-112165564D01*
X136175234Y-112165564D02*
X136127615Y-112070326D01*
X136127615Y-112070326D02*
X136079996Y-112022707D01*
X136079996Y-112022707D02*
X135984758Y-111975088D01*
X135984758Y-111975088D02*
X135794282Y-111975088D01*
X135794282Y-111975088D02*
X135699044Y-112022707D01*
X135699044Y-112022707D02*
X135651425Y-112070326D01*
X135651425Y-112070326D02*
X135603806Y-112165564D01*
X115599083Y-79630811D02*
X115518271Y-79657748D01*
X115518271Y-79657748D02*
X115437459Y-79738560D01*
X115437459Y-79738560D02*
X115383584Y-79846310D01*
X115383584Y-79846310D02*
X115383584Y-79954059D01*
X115383584Y-79954059D02*
X115410521Y-80034872D01*
X115410521Y-80034872D02*
X115491334Y-80169559D01*
X115491334Y-80169559D02*
X115572146Y-80250371D01*
X115572146Y-80250371D02*
X115706833Y-80331183D01*
X115706833Y-80331183D02*
X115787645Y-80358120D01*
X115787645Y-80358120D02*
X115895395Y-80358120D01*
X115895395Y-80358120D02*
X116003144Y-80304246D01*
X116003144Y-80304246D02*
X116057019Y-80250371D01*
X116057019Y-80250371D02*
X116110894Y-80142621D01*
X116110894Y-80142621D02*
X116110894Y-80088746D01*
X116110894Y-80088746D02*
X115922332Y-79900185D01*
X115922332Y-79900185D02*
X115814582Y-80007934D01*
X116407205Y-79900185D02*
X115841520Y-79334499D01*
X115841520Y-79334499D02*
X116057019Y-79119000D01*
X116057019Y-79119000D02*
X116137831Y-79092063D01*
X116137831Y-79092063D02*
X116191706Y-79092063D01*
X116191706Y-79092063D02*
X116272518Y-79119000D01*
X116272518Y-79119000D02*
X116353330Y-79199812D01*
X116353330Y-79199812D02*
X116380268Y-79280624D01*
X116380268Y-79280624D02*
X116380268Y-79334499D01*
X116380268Y-79334499D02*
X116353330Y-79415311D01*
X116353330Y-79415311D02*
X116137831Y-79630811D01*
X116649642Y-78526377D02*
X116541892Y-78634127D01*
X116541892Y-78634127D02*
X116514955Y-78714939D01*
X116514955Y-78714939D02*
X116514955Y-78768814D01*
X116514955Y-78768814D02*
X116541892Y-78903501D01*
X116541892Y-78903501D02*
X116622704Y-79038188D01*
X116622704Y-79038188D02*
X116838204Y-79253687D01*
X116838204Y-79253687D02*
X116919016Y-79280624D01*
X116919016Y-79280624D02*
X116972891Y-79280624D01*
X116972891Y-79280624D02*
X117053703Y-79253687D01*
X117053703Y-79253687D02*
X117161452Y-79145937D01*
X117161452Y-79145937D02*
X117188390Y-79065125D01*
X117188390Y-79065125D02*
X117188390Y-79011250D01*
X117188390Y-79011250D02*
X117161452Y-78930438D01*
X117161452Y-78930438D02*
X117026765Y-78795751D01*
X117026765Y-78795751D02*
X116945953Y-78768814D01*
X116945953Y-78768814D02*
X116892078Y-78768814D01*
X116892078Y-78768814D02*
X116811266Y-78795751D01*
X116811266Y-78795751D02*
X116703517Y-78903501D01*
X116703517Y-78903501D02*
X116676579Y-78984313D01*
X116676579Y-78984313D02*
X116676579Y-79038188D01*
X116676579Y-79038188D02*
X116703517Y-79119000D01*
X115599083Y-66940811D02*
X115518271Y-66967748D01*
X115518271Y-66967748D02*
X115437459Y-67048560D01*
X115437459Y-67048560D02*
X115383584Y-67156310D01*
X115383584Y-67156310D02*
X115383584Y-67264059D01*
X115383584Y-67264059D02*
X115410521Y-67344872D01*
X115410521Y-67344872D02*
X115491334Y-67479559D01*
X115491334Y-67479559D02*
X115572146Y-67560371D01*
X115572146Y-67560371D02*
X115706833Y-67641183D01*
X115706833Y-67641183D02*
X115787645Y-67668120D01*
X115787645Y-67668120D02*
X115895395Y-67668120D01*
X115895395Y-67668120D02*
X116003144Y-67614246D01*
X116003144Y-67614246D02*
X116057019Y-67560371D01*
X116057019Y-67560371D02*
X116110894Y-67452621D01*
X116110894Y-67452621D02*
X116110894Y-67398746D01*
X116110894Y-67398746D02*
X115922332Y-67210185D01*
X115922332Y-67210185D02*
X115814582Y-67317934D01*
X116407205Y-67210185D02*
X115841520Y-66644499D01*
X115841520Y-66644499D02*
X116057019Y-66429000D01*
X116057019Y-66429000D02*
X116137831Y-66402063D01*
X116137831Y-66402063D02*
X116191706Y-66402063D01*
X116191706Y-66402063D02*
X116272518Y-66429000D01*
X116272518Y-66429000D02*
X116353330Y-66509812D01*
X116353330Y-66509812D02*
X116380268Y-66590624D01*
X116380268Y-66590624D02*
X116380268Y-66644499D01*
X116380268Y-66644499D02*
X116353330Y-66725311D01*
X116353330Y-66725311D02*
X116137831Y-66940811D01*
X116434143Y-66159626D02*
X116434143Y-66105751D01*
X116434143Y-66105751D02*
X116461080Y-66024939D01*
X116461080Y-66024939D02*
X116595767Y-65890252D01*
X116595767Y-65890252D02*
X116676579Y-65863315D01*
X116676579Y-65863315D02*
X116730454Y-65863315D01*
X116730454Y-65863315D02*
X116811266Y-65890252D01*
X116811266Y-65890252D02*
X116865141Y-65944127D01*
X116865141Y-65944127D02*
X116919016Y-66051876D01*
X116919016Y-66051876D02*
X116919016Y-66698374D01*
X116919016Y-66698374D02*
X117269202Y-66348188D01*
X141639983Y-64229808D02*
X142394230Y-64606932D01*
X142394230Y-64606932D02*
X142017107Y-63852684D01*
X142717479Y-64229808D02*
X142825229Y-64175933D01*
X142825229Y-64175933D02*
X142959916Y-64041246D01*
X142959916Y-64041246D02*
X142986853Y-63960434D01*
X142986853Y-63960434D02*
X142986853Y-63906559D01*
X142986853Y-63906559D02*
X142959916Y-63825747D01*
X142959916Y-63825747D02*
X142906041Y-63771872D01*
X142906041Y-63771872D02*
X142825229Y-63744935D01*
X142825229Y-63744935D02*
X142771354Y-63744935D01*
X142771354Y-63744935D02*
X142690542Y-63771872D01*
X142690542Y-63771872D02*
X142555855Y-63852684D01*
X142555855Y-63852684D02*
X142475042Y-63879622D01*
X142475042Y-63879622D02*
X142421168Y-63879622D01*
X142421168Y-63879622D02*
X142340355Y-63852684D01*
X142340355Y-63852684D02*
X142286481Y-63798810D01*
X142286481Y-63798810D02*
X142259543Y-63717997D01*
X142259543Y-63717997D02*
X142259543Y-63664123D01*
X142259543Y-63664123D02*
X142286481Y-63583310D01*
X142286481Y-63583310D02*
X142421168Y-63448623D01*
X142421168Y-63448623D02*
X142528917Y-63394749D01*
X143148478Y-63313936D02*
X143417852Y-63583310D01*
X142663604Y-63206187D02*
X143148478Y-63313936D01*
X143148478Y-63313936D02*
X143040728Y-62829063D01*
X143741100Y-63206187D02*
X143848850Y-63152312D01*
X143848850Y-63152312D02*
X143983537Y-63017625D01*
X143983537Y-63017625D02*
X144010474Y-62936813D01*
X144010474Y-62936813D02*
X144010474Y-62882938D01*
X144010474Y-62882938D02*
X143983537Y-62802126D01*
X143983537Y-62802126D02*
X143929662Y-62748251D01*
X143929662Y-62748251D02*
X143848850Y-62721314D01*
X143848850Y-62721314D02*
X143794975Y-62721314D01*
X143794975Y-62721314D02*
X143714163Y-62748251D01*
X143714163Y-62748251D02*
X143579476Y-62829063D01*
X143579476Y-62829063D02*
X143498664Y-62856001D01*
X143498664Y-62856001D02*
X143444789Y-62856001D01*
X143444789Y-62856001D02*
X143363977Y-62829063D01*
X143363977Y-62829063D02*
X143310102Y-62775188D01*
X143310102Y-62775188D02*
X143283164Y-62694376D01*
X143283164Y-62694376D02*
X143283164Y-62640501D01*
X143283164Y-62640501D02*
X143310102Y-62559689D01*
X143310102Y-62559689D02*
X143444789Y-62425002D01*
X143444789Y-62425002D02*
X143552538Y-62371127D01*
X115934606Y-76839060D02*
X115853794Y-76865997D01*
X115853794Y-76865997D02*
X115772982Y-76946809D01*
X115772982Y-76946809D02*
X115719107Y-77054559D01*
X115719107Y-77054559D02*
X115719107Y-77162308D01*
X115719107Y-77162308D02*
X115746044Y-77243121D01*
X115746044Y-77243121D02*
X115826857Y-77377808D01*
X115826857Y-77377808D02*
X115907669Y-77458620D01*
X115907669Y-77458620D02*
X116042356Y-77539432D01*
X116042356Y-77539432D02*
X116123168Y-77566369D01*
X116123168Y-77566369D02*
X116230918Y-77566369D01*
X116230918Y-77566369D02*
X116338667Y-77512495D01*
X116338667Y-77512495D02*
X116392542Y-77458620D01*
X116392542Y-77458620D02*
X116446417Y-77350870D01*
X116446417Y-77350870D02*
X116446417Y-77296995D01*
X116446417Y-77296995D02*
X116257855Y-77108434D01*
X116257855Y-77108434D02*
X116150105Y-77216183D01*
X116742728Y-77108434D02*
X116177043Y-76542748D01*
X116177043Y-76542748D02*
X116392542Y-76327249D01*
X116392542Y-76327249D02*
X116473354Y-76300312D01*
X116473354Y-76300312D02*
X116527229Y-76300312D01*
X116527229Y-76300312D02*
X116608041Y-76327249D01*
X116608041Y-76327249D02*
X116688853Y-76408061D01*
X116688853Y-76408061D02*
X116715791Y-76488873D01*
X116715791Y-76488873D02*
X116715791Y-76542748D01*
X116715791Y-76542748D02*
X116688853Y-76623560D01*
X116688853Y-76623560D02*
X116473354Y-76839060D01*
X117012102Y-75707689D02*
X116742728Y-75977063D01*
X116742728Y-75977063D02*
X116985165Y-76273374D01*
X116985165Y-76273374D02*
X116985165Y-76219499D01*
X116985165Y-76219499D02*
X117012102Y-76138687D01*
X117012102Y-76138687D02*
X117146789Y-76004000D01*
X117146789Y-76004000D02*
X117227601Y-75977063D01*
X117227601Y-75977063D02*
X117281476Y-75977063D01*
X117281476Y-75977063D02*
X117362288Y-76004000D01*
X117362288Y-76004000D02*
X117496975Y-76138687D01*
X117496975Y-76138687D02*
X117523913Y-76219499D01*
X117523913Y-76219499D02*
X117523913Y-76273374D01*
X117523913Y-76273374D02*
X117496975Y-76354186D01*
X117496975Y-76354186D02*
X117362288Y-76488873D01*
X117362288Y-76488873D02*
X117281476Y-76515811D01*
X117281476Y-76515811D02*
X117227601Y-76515811D01*
X115934606Y-81919060D02*
X115853794Y-81945997D01*
X115853794Y-81945997D02*
X115772982Y-82026809D01*
X115772982Y-82026809D02*
X115719107Y-82134559D01*
X115719107Y-82134559D02*
X115719107Y-82242308D01*
X115719107Y-82242308D02*
X115746044Y-82323121D01*
X115746044Y-82323121D02*
X115826857Y-82457808D01*
X115826857Y-82457808D02*
X115907669Y-82538620D01*
X115907669Y-82538620D02*
X116042356Y-82619432D01*
X116042356Y-82619432D02*
X116123168Y-82646369D01*
X116123168Y-82646369D02*
X116230918Y-82646369D01*
X116230918Y-82646369D02*
X116338667Y-82592495D01*
X116338667Y-82592495D02*
X116392542Y-82538620D01*
X116392542Y-82538620D02*
X116446417Y-82430870D01*
X116446417Y-82430870D02*
X116446417Y-82376995D01*
X116446417Y-82376995D02*
X116257855Y-82188434D01*
X116257855Y-82188434D02*
X116150105Y-82296183D01*
X116742728Y-82188434D02*
X116177043Y-81622748D01*
X116177043Y-81622748D02*
X116392542Y-81407249D01*
X116392542Y-81407249D02*
X116473354Y-81380312D01*
X116473354Y-81380312D02*
X116527229Y-81380312D01*
X116527229Y-81380312D02*
X116608041Y-81407249D01*
X116608041Y-81407249D02*
X116688853Y-81488061D01*
X116688853Y-81488061D02*
X116715791Y-81568873D01*
X116715791Y-81568873D02*
X116715791Y-81622748D01*
X116715791Y-81622748D02*
X116688853Y-81703560D01*
X116688853Y-81703560D02*
X116473354Y-81919060D01*
X116688853Y-81110938D02*
X117065977Y-80733814D01*
X117065977Y-80733814D02*
X117389226Y-81541936D01*
X115292170Y-97401496D02*
X115211357Y-97428434D01*
X115211357Y-97428434D02*
X115130545Y-97509246D01*
X115130545Y-97509246D02*
X115076670Y-97616995D01*
X115076670Y-97616995D02*
X115076670Y-97724745D01*
X115076670Y-97724745D02*
X115103608Y-97805557D01*
X115103608Y-97805557D02*
X115184420Y-97940244D01*
X115184420Y-97940244D02*
X115265232Y-98021056D01*
X115265232Y-98021056D02*
X115399919Y-98101869D01*
X115399919Y-98101869D02*
X115480731Y-98128806D01*
X115480731Y-98128806D02*
X115588481Y-98128806D01*
X115588481Y-98128806D02*
X115696231Y-98074931D01*
X115696231Y-98074931D02*
X115750105Y-98021056D01*
X115750105Y-98021056D02*
X115803980Y-97913307D01*
X115803980Y-97913307D02*
X115803980Y-97859432D01*
X115803980Y-97859432D02*
X115615418Y-97670870D01*
X115615418Y-97670870D02*
X115507669Y-97778620D01*
X116100292Y-97670870D02*
X115534606Y-97105185D01*
X115534606Y-97105185D02*
X116423540Y-97347621D01*
X116423540Y-97347621D02*
X115857855Y-96781936D01*
X116692914Y-97078248D02*
X116127229Y-96512562D01*
X116127229Y-96512562D02*
X116261916Y-96377875D01*
X116261916Y-96377875D02*
X116369666Y-96324000D01*
X116369666Y-96324000D02*
X116477415Y-96324000D01*
X116477415Y-96324000D02*
X116558227Y-96350938D01*
X116558227Y-96350938D02*
X116692914Y-96431750D01*
X116692914Y-96431750D02*
X116773727Y-96512562D01*
X116773727Y-96512562D02*
X116854539Y-96647249D01*
X116854539Y-96647249D02*
X116881476Y-96728061D01*
X116881476Y-96728061D02*
X116881476Y-96835811D01*
X116881476Y-96835811D02*
X116827601Y-96943561D01*
X116827601Y-96943561D02*
X116692914Y-97078248D01*
X116773727Y-95866064D02*
X116908414Y-96000751D01*
X116719852Y-96081564D02*
X116908414Y-96000751D01*
X116908414Y-96000751D02*
X116989226Y-95812190D01*
X116935351Y-96189313D02*
X116908414Y-96000751D01*
X116908414Y-96000751D02*
X117096975Y-96027689D01*
X141817232Y-109680434D02*
X141736419Y-109707371D01*
X141736419Y-109707371D02*
X141655607Y-109788184D01*
X141655607Y-109788184D02*
X141601732Y-109895933D01*
X141601732Y-109895933D02*
X141601732Y-110003683D01*
X141601732Y-110003683D02*
X141628670Y-110084495D01*
X141628670Y-110084495D02*
X141709482Y-110219182D01*
X141709482Y-110219182D02*
X141790294Y-110299994D01*
X141790294Y-110299994D02*
X141924981Y-110380807D01*
X141924981Y-110380807D02*
X142005794Y-110407744D01*
X142005794Y-110407744D02*
X142113543Y-110407744D01*
X142113543Y-110407744D02*
X142221293Y-110353869D01*
X142221293Y-110353869D02*
X142275168Y-110299994D01*
X142275168Y-110299994D02*
X142329042Y-110192245D01*
X142329042Y-110192245D02*
X142329042Y-110138370D01*
X142329042Y-110138370D02*
X142140481Y-109949808D01*
X142140481Y-109949808D02*
X142032731Y-110057558D01*
X142625354Y-109949808D02*
X142059668Y-109384123D01*
X142059668Y-109384123D02*
X142275168Y-109168623D01*
X142275168Y-109168623D02*
X142355980Y-109141686D01*
X142355980Y-109141686D02*
X142409855Y-109141686D01*
X142409855Y-109141686D02*
X142490667Y-109168623D01*
X142490667Y-109168623D02*
X142571479Y-109249436D01*
X142571479Y-109249436D02*
X142598416Y-109330248D01*
X142598416Y-109330248D02*
X142598416Y-109384123D01*
X142598416Y-109384123D02*
X142571479Y-109464935D01*
X142571479Y-109464935D02*
X142355980Y-109680434D01*
X143487351Y-109087811D02*
X143164102Y-109411060D01*
X143325726Y-109249436D02*
X142760041Y-108683750D01*
X142760041Y-108683750D02*
X142786978Y-108818437D01*
X142786978Y-108818437D02*
X142786978Y-108926187D01*
X142786978Y-108926187D02*
X142760041Y-109006999D01*
X143487351Y-108441313D02*
X143406539Y-108468251D01*
X143406539Y-108468251D02*
X143352664Y-108468251D01*
X143352664Y-108468251D02*
X143271852Y-108441313D01*
X143271852Y-108441313D02*
X143244914Y-108414376D01*
X143244914Y-108414376D02*
X143217977Y-108333564D01*
X143217977Y-108333564D02*
X143217977Y-108279689D01*
X143217977Y-108279689D02*
X143244914Y-108198877D01*
X143244914Y-108198877D02*
X143352664Y-108091127D01*
X143352664Y-108091127D02*
X143433476Y-108064190D01*
X143433476Y-108064190D02*
X143487351Y-108064190D01*
X143487351Y-108064190D02*
X143568163Y-108091127D01*
X143568163Y-108091127D02*
X143595100Y-108118065D01*
X143595100Y-108118065D02*
X143622038Y-108198877D01*
X143622038Y-108198877D02*
X143622038Y-108252752D01*
X143622038Y-108252752D02*
X143595100Y-108333564D01*
X143595100Y-108333564D02*
X143487351Y-108441313D01*
X143487351Y-108441313D02*
X143460413Y-108522126D01*
X143460413Y-108522126D02*
X143460413Y-108576000D01*
X143460413Y-108576000D02*
X143487351Y-108656813D01*
X143487351Y-108656813D02*
X143595100Y-108764562D01*
X143595100Y-108764562D02*
X143675913Y-108791500D01*
X143675913Y-108791500D02*
X143729787Y-108791500D01*
X143729787Y-108791500D02*
X143810600Y-108764562D01*
X143810600Y-108764562D02*
X143918349Y-108656813D01*
X143918349Y-108656813D02*
X143945287Y-108576000D01*
X143945287Y-108576000D02*
X143945287Y-108522126D01*
X143945287Y-108522126D02*
X143918349Y-108441313D01*
X143918349Y-108441313D02*
X143810600Y-108333564D01*
X143810600Y-108333564D02*
X143729787Y-108306626D01*
X143729787Y-108306626D02*
X143675913Y-108306626D01*
X143675913Y-108306626D02*
X143595100Y-108333564D01*
X141871107Y-90060806D02*
X142140481Y-89791432D01*
X141978857Y-90276305D02*
X141601733Y-89522058D01*
X141601733Y-89522058D02*
X142355980Y-89899181D01*
X142302105Y-88875560D02*
X142221293Y-88902498D01*
X142221293Y-88902498D02*
X142140481Y-88983310D01*
X142140481Y-88983310D02*
X142086606Y-89091060D01*
X142086606Y-89091060D02*
X142086606Y-89198809D01*
X142086606Y-89198809D02*
X142113544Y-89279621D01*
X142113544Y-89279621D02*
X142194356Y-89414308D01*
X142194356Y-89414308D02*
X142275168Y-89495121D01*
X142275168Y-89495121D02*
X142409855Y-89575933D01*
X142409855Y-89575933D02*
X142490667Y-89602870D01*
X142490667Y-89602870D02*
X142598417Y-89602870D01*
X142598417Y-89602870D02*
X142706166Y-89548995D01*
X142706166Y-89548995D02*
X142760041Y-89495121D01*
X142760041Y-89495121D02*
X142813916Y-89387371D01*
X142813916Y-89387371D02*
X142813916Y-89333496D01*
X142813916Y-89333496D02*
X142625354Y-89144934D01*
X142625354Y-89144934D02*
X142517605Y-89252684D01*
X143110227Y-89144934D02*
X142544542Y-88579249D01*
X142544542Y-88579249D02*
X143433476Y-88821686D01*
X143433476Y-88821686D02*
X142867791Y-88256000D01*
X143702850Y-88552312D02*
X143137165Y-87986626D01*
X143137165Y-87986626D02*
X143271852Y-87851939D01*
X143271852Y-87851939D02*
X143379601Y-87798064D01*
X143379601Y-87798064D02*
X143487351Y-87798064D01*
X143487351Y-87798064D02*
X143568163Y-87825002D01*
X143568163Y-87825002D02*
X143702850Y-87905814D01*
X143702850Y-87905814D02*
X143783662Y-87986626D01*
X143783662Y-87986626D02*
X143864475Y-88121313D01*
X143864475Y-88121313D02*
X143891412Y-88202126D01*
X143891412Y-88202126D02*
X143891412Y-88309875D01*
X143891412Y-88309875D02*
X143837537Y-88417625D01*
X143837537Y-88417625D02*
X143702850Y-88552312D01*
X141884647Y-66365247D02*
X141803834Y-66392185D01*
X141803834Y-66392185D02*
X141723022Y-66472997D01*
X141723022Y-66472997D02*
X141669147Y-66580746D01*
X141669147Y-66580746D02*
X141669147Y-66688496D01*
X141669147Y-66688496D02*
X141696085Y-66769308D01*
X141696085Y-66769308D02*
X141776897Y-66903995D01*
X141776897Y-66903995D02*
X141857709Y-66984807D01*
X141857709Y-66984807D02*
X141992396Y-67065620D01*
X141992396Y-67065620D02*
X142073208Y-67092557D01*
X142073208Y-67092557D02*
X142180958Y-67092557D01*
X142180958Y-67092557D02*
X142288708Y-67038682D01*
X142288708Y-67038682D02*
X142342582Y-66984807D01*
X142342582Y-66984807D02*
X142396457Y-66877058D01*
X142396457Y-66877058D02*
X142396457Y-66823183D01*
X142396457Y-66823183D02*
X142207895Y-66634621D01*
X142207895Y-66634621D02*
X142100146Y-66742371D01*
X142692769Y-66634621D02*
X142127083Y-66068936D01*
X142127083Y-66068936D02*
X143016017Y-66311372D01*
X143016017Y-66311372D02*
X142450332Y-65745687D01*
X143285391Y-66041999D02*
X142719706Y-65476313D01*
X142719706Y-65476313D02*
X142854393Y-65341626D01*
X142854393Y-65341626D02*
X142962143Y-65287751D01*
X142962143Y-65287751D02*
X143069892Y-65287751D01*
X143069892Y-65287751D02*
X143150704Y-65314689D01*
X143150704Y-65314689D02*
X143285391Y-65395501D01*
X143285391Y-65395501D02*
X143366204Y-65476313D01*
X143366204Y-65476313D02*
X143447016Y-65611000D01*
X143447016Y-65611000D02*
X143473953Y-65691812D01*
X143473953Y-65691812D02*
X143473953Y-65799562D01*
X143473953Y-65799562D02*
X143420078Y-65907312D01*
X143420078Y-65907312D02*
X143285391Y-66041999D01*
X143366204Y-64829815D02*
X143500891Y-64964502D01*
X143312329Y-65045315D02*
X143500891Y-64964502D01*
X143500891Y-64964502D02*
X143581703Y-64775941D01*
X143527828Y-65153064D02*
X143500891Y-64964502D01*
X143500891Y-64964502D02*
X143689452Y-64991440D01*
X141817232Y-102060434D02*
X141736419Y-102087371D01*
X141736419Y-102087371D02*
X141655607Y-102168184D01*
X141655607Y-102168184D02*
X141601732Y-102275933D01*
X141601732Y-102275933D02*
X141601732Y-102383683D01*
X141601732Y-102383683D02*
X141628670Y-102464495D01*
X141628670Y-102464495D02*
X141709482Y-102599182D01*
X141709482Y-102599182D02*
X141790294Y-102679994D01*
X141790294Y-102679994D02*
X141924981Y-102760807D01*
X141924981Y-102760807D02*
X142005794Y-102787744D01*
X142005794Y-102787744D02*
X142113543Y-102787744D01*
X142113543Y-102787744D02*
X142221293Y-102733869D01*
X142221293Y-102733869D02*
X142275168Y-102679994D01*
X142275168Y-102679994D02*
X142329042Y-102572245D01*
X142329042Y-102572245D02*
X142329042Y-102518370D01*
X142329042Y-102518370D02*
X142140481Y-102329808D01*
X142140481Y-102329808D02*
X142032731Y-102437558D01*
X142625354Y-102329808D02*
X142059668Y-101764123D01*
X142059668Y-101764123D02*
X142275168Y-101548623D01*
X142275168Y-101548623D02*
X142355980Y-101521686D01*
X142355980Y-101521686D02*
X142409855Y-101521686D01*
X142409855Y-101521686D02*
X142490667Y-101548623D01*
X142490667Y-101548623D02*
X142571479Y-101629436D01*
X142571479Y-101629436D02*
X142598416Y-101710248D01*
X142598416Y-101710248D02*
X142598416Y-101764123D01*
X142598416Y-101764123D02*
X142571479Y-101844935D01*
X142571479Y-101844935D02*
X142355980Y-102060434D01*
X142652291Y-101279249D02*
X142652291Y-101225375D01*
X142652291Y-101225375D02*
X142679229Y-101144562D01*
X142679229Y-101144562D02*
X142813916Y-101009875D01*
X142813916Y-101009875D02*
X142894728Y-100982938D01*
X142894728Y-100982938D02*
X142948603Y-100982938D01*
X142948603Y-100982938D02*
X143029415Y-101009875D01*
X143029415Y-101009875D02*
X143083290Y-101063750D01*
X143083290Y-101063750D02*
X143137164Y-101171500D01*
X143137164Y-101171500D02*
X143137164Y-101817997D01*
X143137164Y-101817997D02*
X143487351Y-101467811D01*
X144026099Y-100929063D02*
X143702850Y-101252312D01*
X143864474Y-101090687D02*
X143298789Y-100525002D01*
X143298789Y-100525002D02*
X143325726Y-100659689D01*
X143325726Y-100659689D02*
X143325726Y-100767439D01*
X143325726Y-100767439D02*
X143298789Y-100848251D01*
X115365232Y-107588434D02*
X115284419Y-107615371D01*
X115284419Y-107615371D02*
X115203607Y-107696184D01*
X115203607Y-107696184D02*
X115149732Y-107803933D01*
X115149732Y-107803933D02*
X115149732Y-107911683D01*
X115149732Y-107911683D02*
X115176670Y-107992495D01*
X115176670Y-107992495D02*
X115257482Y-108127182D01*
X115257482Y-108127182D02*
X115338294Y-108207994D01*
X115338294Y-108207994D02*
X115472981Y-108288807D01*
X115472981Y-108288807D02*
X115553794Y-108315744D01*
X115553794Y-108315744D02*
X115661543Y-108315744D01*
X115661543Y-108315744D02*
X115769293Y-108261869D01*
X115769293Y-108261869D02*
X115823168Y-108207994D01*
X115823168Y-108207994D02*
X115877042Y-108100245D01*
X115877042Y-108100245D02*
X115877042Y-108046370D01*
X115877042Y-108046370D02*
X115688481Y-107857808D01*
X115688481Y-107857808D02*
X115580731Y-107965558D01*
X116173354Y-107857808D02*
X115607668Y-107292123D01*
X115607668Y-107292123D02*
X115823168Y-107076623D01*
X115823168Y-107076623D02*
X115903980Y-107049686D01*
X115903980Y-107049686D02*
X115957855Y-107049686D01*
X115957855Y-107049686D02*
X116038667Y-107076623D01*
X116038667Y-107076623D02*
X116119479Y-107157436D01*
X116119479Y-107157436D02*
X116146416Y-107238248D01*
X116146416Y-107238248D02*
X116146416Y-107292123D01*
X116146416Y-107292123D02*
X116119479Y-107372935D01*
X116119479Y-107372935D02*
X115903980Y-107588434D01*
X117035351Y-106995811D02*
X116712102Y-107319060D01*
X116873726Y-107157436D02*
X116308041Y-106591750D01*
X116308041Y-106591750D02*
X116334978Y-106726437D01*
X116334978Y-106726437D02*
X116334978Y-106834187D01*
X116334978Y-106834187D02*
X116308041Y-106914999D01*
X116954539Y-105945252D02*
X116846789Y-106053002D01*
X116846789Y-106053002D02*
X116819852Y-106133814D01*
X116819852Y-106133814D02*
X116819852Y-106187689D01*
X116819852Y-106187689D02*
X116846789Y-106322376D01*
X116846789Y-106322376D02*
X116927601Y-106457063D01*
X116927601Y-106457063D02*
X117143100Y-106672562D01*
X117143100Y-106672562D02*
X117223913Y-106699500D01*
X117223913Y-106699500D02*
X117277787Y-106699500D01*
X117277787Y-106699500D02*
X117358600Y-106672562D01*
X117358600Y-106672562D02*
X117466349Y-106564813D01*
X117466349Y-106564813D02*
X117493287Y-106484000D01*
X117493287Y-106484000D02*
X117493287Y-106430126D01*
X117493287Y-106430126D02*
X117466349Y-106349313D01*
X117466349Y-106349313D02*
X117331662Y-106214626D01*
X117331662Y-106214626D02*
X117250850Y-106187689D01*
X117250850Y-106187689D02*
X117196975Y-106187689D01*
X117196975Y-106187689D02*
X117116163Y-106214626D01*
X117116163Y-106214626D02*
X117008413Y-106322376D01*
X117008413Y-106322376D02*
X116981476Y-106403188D01*
X116981476Y-106403188D02*
X116981476Y-106457063D01*
X116981476Y-106457063D02*
X117008413Y-106537875D01*
X141817232Y-81750434D02*
X141736419Y-81777371D01*
X141736419Y-81777371D02*
X141655607Y-81858184D01*
X141655607Y-81858184D02*
X141601732Y-81965933D01*
X141601732Y-81965933D02*
X141601732Y-82073683D01*
X141601732Y-82073683D02*
X141628670Y-82154495D01*
X141628670Y-82154495D02*
X141709482Y-82289182D01*
X141709482Y-82289182D02*
X141790294Y-82369994D01*
X141790294Y-82369994D02*
X141924981Y-82450807D01*
X141924981Y-82450807D02*
X142005794Y-82477744D01*
X142005794Y-82477744D02*
X142113543Y-82477744D01*
X142113543Y-82477744D02*
X142221293Y-82423869D01*
X142221293Y-82423869D02*
X142275168Y-82369994D01*
X142275168Y-82369994D02*
X142329042Y-82262245D01*
X142329042Y-82262245D02*
X142329042Y-82208370D01*
X142329042Y-82208370D02*
X142140481Y-82019808D01*
X142140481Y-82019808D02*
X142032731Y-82127558D01*
X142625354Y-82019808D02*
X142059668Y-81454123D01*
X142059668Y-81454123D02*
X142275168Y-81238623D01*
X142275168Y-81238623D02*
X142355980Y-81211686D01*
X142355980Y-81211686D02*
X142409855Y-81211686D01*
X142409855Y-81211686D02*
X142490667Y-81238623D01*
X142490667Y-81238623D02*
X142571479Y-81319436D01*
X142571479Y-81319436D02*
X142598416Y-81400248D01*
X142598416Y-81400248D02*
X142598416Y-81454123D01*
X142598416Y-81454123D02*
X142571479Y-81534935D01*
X142571479Y-81534935D02*
X142355980Y-81750434D01*
X142652291Y-80969249D02*
X142652291Y-80915375D01*
X142652291Y-80915375D02*
X142679229Y-80834562D01*
X142679229Y-80834562D02*
X142813916Y-80699875D01*
X142813916Y-80699875D02*
X142894728Y-80672938D01*
X142894728Y-80672938D02*
X142948603Y-80672938D01*
X142948603Y-80672938D02*
X143029415Y-80699875D01*
X143029415Y-80699875D02*
X143083290Y-80753750D01*
X143083290Y-80753750D02*
X143137164Y-80861500D01*
X143137164Y-80861500D02*
X143137164Y-81507997D01*
X143137164Y-81507997D02*
X143487351Y-81157811D01*
X143487351Y-80511313D02*
X143406539Y-80538251D01*
X143406539Y-80538251D02*
X143352664Y-80538251D01*
X143352664Y-80538251D02*
X143271852Y-80511313D01*
X143271852Y-80511313D02*
X143244914Y-80484376D01*
X143244914Y-80484376D02*
X143217977Y-80403564D01*
X143217977Y-80403564D02*
X143217977Y-80349689D01*
X143217977Y-80349689D02*
X143244914Y-80268877D01*
X143244914Y-80268877D02*
X143352664Y-80161127D01*
X143352664Y-80161127D02*
X143433476Y-80134190D01*
X143433476Y-80134190D02*
X143487351Y-80134190D01*
X143487351Y-80134190D02*
X143568163Y-80161127D01*
X143568163Y-80161127D02*
X143595100Y-80188065D01*
X143595100Y-80188065D02*
X143622038Y-80268877D01*
X143622038Y-80268877D02*
X143622038Y-80322752D01*
X143622038Y-80322752D02*
X143595100Y-80403564D01*
X143595100Y-80403564D02*
X143487351Y-80511313D01*
X143487351Y-80511313D02*
X143460413Y-80592126D01*
X143460413Y-80592126D02*
X143460413Y-80646000D01*
X143460413Y-80646000D02*
X143487351Y-80726813D01*
X143487351Y-80726813D02*
X143595100Y-80834562D01*
X143595100Y-80834562D02*
X143675913Y-80861500D01*
X143675913Y-80861500D02*
X143729787Y-80861500D01*
X143729787Y-80861500D02*
X143810600Y-80834562D01*
X143810600Y-80834562D02*
X143918349Y-80726813D01*
X143918349Y-80726813D02*
X143945287Y-80646000D01*
X143945287Y-80646000D02*
X143945287Y-80592126D01*
X143945287Y-80592126D02*
X143918349Y-80511313D01*
X143918349Y-80511313D02*
X143810600Y-80403564D01*
X143810600Y-80403564D02*
X143729787Y-80376626D01*
X143729787Y-80376626D02*
X143675913Y-80376626D01*
X143675913Y-80376626D02*
X143595100Y-80403564D01*
X115934606Y-86999060D02*
X115853794Y-87025997D01*
X115853794Y-87025997D02*
X115772982Y-87106809D01*
X115772982Y-87106809D02*
X115719107Y-87214559D01*
X115719107Y-87214559D02*
X115719107Y-87322308D01*
X115719107Y-87322308D02*
X115746044Y-87403121D01*
X115746044Y-87403121D02*
X115826857Y-87537808D01*
X115826857Y-87537808D02*
X115907669Y-87618620D01*
X115907669Y-87618620D02*
X116042356Y-87699432D01*
X116042356Y-87699432D02*
X116123168Y-87726369D01*
X116123168Y-87726369D02*
X116230918Y-87726369D01*
X116230918Y-87726369D02*
X116338667Y-87672495D01*
X116338667Y-87672495D02*
X116392542Y-87618620D01*
X116392542Y-87618620D02*
X116446417Y-87510870D01*
X116446417Y-87510870D02*
X116446417Y-87456995D01*
X116446417Y-87456995D02*
X116257855Y-87268434D01*
X116257855Y-87268434D02*
X116150105Y-87376183D01*
X116742728Y-87268434D02*
X116177043Y-86702748D01*
X116177043Y-86702748D02*
X116392542Y-86487249D01*
X116392542Y-86487249D02*
X116473354Y-86460312D01*
X116473354Y-86460312D02*
X116527229Y-86460312D01*
X116527229Y-86460312D02*
X116608041Y-86487249D01*
X116608041Y-86487249D02*
X116688853Y-86568061D01*
X116688853Y-86568061D02*
X116715791Y-86648873D01*
X116715791Y-86648873D02*
X116715791Y-86702748D01*
X116715791Y-86702748D02*
X116688853Y-86783560D01*
X116688853Y-86783560D02*
X116473354Y-86999060D01*
X117335351Y-86675811D02*
X117443101Y-86568061D01*
X117443101Y-86568061D02*
X117470038Y-86487249D01*
X117470038Y-86487249D02*
X117470038Y-86433374D01*
X117470038Y-86433374D02*
X117443101Y-86298687D01*
X117443101Y-86298687D02*
X117362288Y-86164000D01*
X117362288Y-86164000D02*
X117146789Y-85948501D01*
X117146789Y-85948501D02*
X117065977Y-85921564D01*
X117065977Y-85921564D02*
X117012102Y-85921564D01*
X117012102Y-85921564D02*
X116931290Y-85948501D01*
X116931290Y-85948501D02*
X116823540Y-86056251D01*
X116823540Y-86056251D02*
X116796603Y-86137063D01*
X116796603Y-86137063D02*
X116796603Y-86190938D01*
X116796603Y-86190938D02*
X116823540Y-86271750D01*
X116823540Y-86271750D02*
X116958227Y-86406437D01*
X116958227Y-86406437D02*
X117039040Y-86433374D01*
X117039040Y-86433374D02*
X117092914Y-86433374D01*
X117092914Y-86433374D02*
X117173727Y-86406437D01*
X117173727Y-86406437D02*
X117281476Y-86298687D01*
X117281476Y-86298687D02*
X117308414Y-86217875D01*
X117308414Y-86217875D02*
X117308414Y-86164000D01*
X117308414Y-86164000D02*
X117281476Y-86083188D01*
X115411232Y-102508434D02*
X115330419Y-102535371D01*
X115330419Y-102535371D02*
X115249607Y-102616184D01*
X115249607Y-102616184D02*
X115195732Y-102723933D01*
X115195732Y-102723933D02*
X115195732Y-102831683D01*
X115195732Y-102831683D02*
X115222670Y-102912495D01*
X115222670Y-102912495D02*
X115303482Y-103047182D01*
X115303482Y-103047182D02*
X115384294Y-103127994D01*
X115384294Y-103127994D02*
X115518981Y-103208807D01*
X115518981Y-103208807D02*
X115599794Y-103235744D01*
X115599794Y-103235744D02*
X115707543Y-103235744D01*
X115707543Y-103235744D02*
X115815293Y-103181869D01*
X115815293Y-103181869D02*
X115869168Y-103127994D01*
X115869168Y-103127994D02*
X115923042Y-103020245D01*
X115923042Y-103020245D02*
X115923042Y-102966370D01*
X115923042Y-102966370D02*
X115734481Y-102777808D01*
X115734481Y-102777808D02*
X115626731Y-102885558D01*
X116219354Y-102777808D02*
X115653668Y-102212123D01*
X115653668Y-102212123D02*
X115869168Y-101996623D01*
X115869168Y-101996623D02*
X115949980Y-101969686D01*
X115949980Y-101969686D02*
X116003855Y-101969686D01*
X116003855Y-101969686D02*
X116084667Y-101996623D01*
X116084667Y-101996623D02*
X116165479Y-102077436D01*
X116165479Y-102077436D02*
X116192416Y-102158248D01*
X116192416Y-102158248D02*
X116192416Y-102212123D01*
X116192416Y-102212123D02*
X116165479Y-102292935D01*
X116165479Y-102292935D02*
X115949980Y-102508434D01*
X117081351Y-101915811D02*
X116758102Y-102239060D01*
X116919726Y-102077436D02*
X116354041Y-101511750D01*
X116354041Y-101511750D02*
X116380978Y-101646437D01*
X116380978Y-101646437D02*
X116380978Y-101754187D01*
X116380978Y-101754187D02*
X116354041Y-101834999D01*
X117189100Y-101053814D02*
X117566224Y-101430938D01*
X116838914Y-100973002D02*
X117108288Y-101511750D01*
X117108288Y-101511750D02*
X117458474Y-101161564D01*
X142611885Y-76689276D02*
X142153950Y-76608464D01*
X142288637Y-77012525D02*
X141722951Y-76446840D01*
X141722951Y-76446840D02*
X141938450Y-76231341D01*
X141938450Y-76231341D02*
X142019263Y-76204403D01*
X142019263Y-76204403D02*
X142073137Y-76204403D01*
X142073137Y-76204403D02*
X142153950Y-76231341D01*
X142153950Y-76231341D02*
X142234762Y-76312153D01*
X142234762Y-76312153D02*
X142261699Y-76392965D01*
X142261699Y-76392965D02*
X142261699Y-76446840D01*
X142261699Y-76446840D02*
X142234762Y-76527652D01*
X142234762Y-76527652D02*
X142019263Y-76743151D01*
X142288637Y-75881154D02*
X142746572Y-76339090D01*
X142746572Y-76339090D02*
X142827385Y-76366028D01*
X142827385Y-76366028D02*
X142881259Y-76366028D01*
X142881259Y-76366028D02*
X142962072Y-76339090D01*
X142962072Y-76339090D02*
X143069821Y-76231341D01*
X143069821Y-76231341D02*
X143096759Y-76150528D01*
X143096759Y-76150528D02*
X143096759Y-76096654D01*
X143096759Y-76096654D02*
X143069821Y-76015841D01*
X143069821Y-76015841D02*
X142611885Y-75557906D01*
X143446945Y-75854217D02*
X142881259Y-75288532D01*
X142881259Y-75288532D02*
X143770193Y-75530968D01*
X143770193Y-75530968D02*
X143204508Y-74965283D01*
X141817232Y-96980434D02*
X141736419Y-97007371D01*
X141736419Y-97007371D02*
X141655607Y-97088184D01*
X141655607Y-97088184D02*
X141601732Y-97195933D01*
X141601732Y-97195933D02*
X141601732Y-97303683D01*
X141601732Y-97303683D02*
X141628670Y-97384495D01*
X141628670Y-97384495D02*
X141709482Y-97519182D01*
X141709482Y-97519182D02*
X141790294Y-97599994D01*
X141790294Y-97599994D02*
X141924981Y-97680807D01*
X141924981Y-97680807D02*
X142005794Y-97707744D01*
X142005794Y-97707744D02*
X142113543Y-97707744D01*
X142113543Y-97707744D02*
X142221293Y-97653869D01*
X142221293Y-97653869D02*
X142275168Y-97599994D01*
X142275168Y-97599994D02*
X142329042Y-97492245D01*
X142329042Y-97492245D02*
X142329042Y-97438370D01*
X142329042Y-97438370D02*
X142140481Y-97249808D01*
X142140481Y-97249808D02*
X142032731Y-97357558D01*
X142625354Y-97249808D02*
X142059668Y-96684123D01*
X142059668Y-96684123D02*
X142275168Y-96468623D01*
X142275168Y-96468623D02*
X142355980Y-96441686D01*
X142355980Y-96441686D02*
X142409855Y-96441686D01*
X142409855Y-96441686D02*
X142490667Y-96468623D01*
X142490667Y-96468623D02*
X142571479Y-96549436D01*
X142571479Y-96549436D02*
X142598416Y-96630248D01*
X142598416Y-96630248D02*
X142598416Y-96684123D01*
X142598416Y-96684123D02*
X142571479Y-96764935D01*
X142571479Y-96764935D02*
X142355980Y-96980434D01*
X142652291Y-96199249D02*
X142652291Y-96145375D01*
X142652291Y-96145375D02*
X142679229Y-96064562D01*
X142679229Y-96064562D02*
X142813916Y-95929875D01*
X142813916Y-95929875D02*
X142894728Y-95902938D01*
X142894728Y-95902938D02*
X142948603Y-95902938D01*
X142948603Y-95902938D02*
X143029415Y-95929875D01*
X143029415Y-95929875D02*
X143083290Y-95983750D01*
X143083290Y-95983750D02*
X143137164Y-96091500D01*
X143137164Y-96091500D02*
X143137164Y-96737997D01*
X143137164Y-96737997D02*
X143487351Y-96387811D01*
X143110227Y-95633564D02*
X143460413Y-95283378D01*
X143460413Y-95283378D02*
X143487351Y-95687439D01*
X143487351Y-95687439D02*
X143568163Y-95606626D01*
X143568163Y-95606626D02*
X143648975Y-95579689D01*
X143648975Y-95579689D02*
X143702850Y-95579689D01*
X143702850Y-95579689D02*
X143783662Y-95606626D01*
X143783662Y-95606626D02*
X143918349Y-95741313D01*
X143918349Y-95741313D02*
X143945287Y-95822126D01*
X143945287Y-95822126D02*
X143945287Y-95876000D01*
X143945287Y-95876000D02*
X143918349Y-95956813D01*
X143918349Y-95956813D02*
X143756725Y-96118437D01*
X143756725Y-96118437D02*
X143675913Y-96145374D01*
X143675913Y-96145374D02*
X143622038Y-96145374D01*
X115411232Y-94888434D02*
X115330419Y-94915371D01*
X115330419Y-94915371D02*
X115249607Y-94996184D01*
X115249607Y-94996184D02*
X115195732Y-95103933D01*
X115195732Y-95103933D02*
X115195732Y-95211683D01*
X115195732Y-95211683D02*
X115222670Y-95292495D01*
X115222670Y-95292495D02*
X115303482Y-95427182D01*
X115303482Y-95427182D02*
X115384294Y-95507994D01*
X115384294Y-95507994D02*
X115518981Y-95588807D01*
X115518981Y-95588807D02*
X115599794Y-95615744D01*
X115599794Y-95615744D02*
X115707543Y-95615744D01*
X115707543Y-95615744D02*
X115815293Y-95561869D01*
X115815293Y-95561869D02*
X115869168Y-95507994D01*
X115869168Y-95507994D02*
X115923042Y-95400245D01*
X115923042Y-95400245D02*
X115923042Y-95346370D01*
X115923042Y-95346370D02*
X115734481Y-95157808D01*
X115734481Y-95157808D02*
X115626731Y-95265558D01*
X116219354Y-95157808D02*
X115653668Y-94592123D01*
X115653668Y-94592123D02*
X115869168Y-94376623D01*
X115869168Y-94376623D02*
X115949980Y-94349686D01*
X115949980Y-94349686D02*
X116003855Y-94349686D01*
X116003855Y-94349686D02*
X116084667Y-94376623D01*
X116084667Y-94376623D02*
X116165479Y-94457436D01*
X116165479Y-94457436D02*
X116192416Y-94538248D01*
X116192416Y-94538248D02*
X116192416Y-94592123D01*
X116192416Y-94592123D02*
X116165479Y-94672935D01*
X116165479Y-94672935D02*
X115949980Y-94888434D01*
X117081351Y-94295811D02*
X116758102Y-94619060D01*
X116919726Y-94457436D02*
X116354041Y-93891750D01*
X116354041Y-93891750D02*
X116380978Y-94026437D01*
X116380978Y-94026437D02*
X116380978Y-94134187D01*
X116380978Y-94134187D02*
X116354041Y-94214999D01*
X116785039Y-93568501D02*
X116785039Y-93514626D01*
X116785039Y-93514626D02*
X116811977Y-93433814D01*
X116811977Y-93433814D02*
X116946664Y-93299127D01*
X116946664Y-93299127D02*
X117027476Y-93272190D01*
X117027476Y-93272190D02*
X117081351Y-93272190D01*
X117081351Y-93272190D02*
X117162163Y-93299127D01*
X117162163Y-93299127D02*
X117216038Y-93353002D01*
X117216038Y-93353002D02*
X117269913Y-93460752D01*
X117269913Y-93460752D02*
X117269913Y-94107249D01*
X117269913Y-94107249D02*
X117620099Y-93757063D01*
X115265232Y-99968434D02*
X115184419Y-99995371D01*
X115184419Y-99995371D02*
X115103607Y-100076184D01*
X115103607Y-100076184D02*
X115049732Y-100183933D01*
X115049732Y-100183933D02*
X115049732Y-100291683D01*
X115049732Y-100291683D02*
X115076670Y-100372495D01*
X115076670Y-100372495D02*
X115157482Y-100507182D01*
X115157482Y-100507182D02*
X115238294Y-100587994D01*
X115238294Y-100587994D02*
X115372981Y-100668807D01*
X115372981Y-100668807D02*
X115453794Y-100695744D01*
X115453794Y-100695744D02*
X115561543Y-100695744D01*
X115561543Y-100695744D02*
X115669293Y-100641869D01*
X115669293Y-100641869D02*
X115723168Y-100587994D01*
X115723168Y-100587994D02*
X115777042Y-100480245D01*
X115777042Y-100480245D02*
X115777042Y-100426370D01*
X115777042Y-100426370D02*
X115588481Y-100237808D01*
X115588481Y-100237808D02*
X115480731Y-100345558D01*
X116073354Y-100237808D02*
X115507668Y-99672123D01*
X115507668Y-99672123D02*
X115723168Y-99456623D01*
X115723168Y-99456623D02*
X115803980Y-99429686D01*
X115803980Y-99429686D02*
X115857855Y-99429686D01*
X115857855Y-99429686D02*
X115938667Y-99456623D01*
X115938667Y-99456623D02*
X116019479Y-99537436D01*
X116019479Y-99537436D02*
X116046416Y-99618248D01*
X116046416Y-99618248D02*
X116046416Y-99672123D01*
X116046416Y-99672123D02*
X116019479Y-99752935D01*
X116019479Y-99752935D02*
X115803980Y-99968434D01*
X116935351Y-99375811D02*
X116612102Y-99699060D01*
X116773726Y-99537436D02*
X116208041Y-98971750D01*
X116208041Y-98971750D02*
X116234978Y-99106437D01*
X116234978Y-99106437D02*
X116234978Y-99214187D01*
X116234978Y-99214187D02*
X116208041Y-99294999D01*
X116558227Y-98621564D02*
X116908413Y-98271378D01*
X116908413Y-98271378D02*
X116935351Y-98675439D01*
X116935351Y-98675439D02*
X117016163Y-98594626D01*
X117016163Y-98594626D02*
X117096975Y-98567689D01*
X117096975Y-98567689D02*
X117150850Y-98567689D01*
X117150850Y-98567689D02*
X117231662Y-98594626D01*
X117231662Y-98594626D02*
X117366349Y-98729313D01*
X117366349Y-98729313D02*
X117393287Y-98810126D01*
X117393287Y-98810126D02*
X117393287Y-98864000D01*
X117393287Y-98864000D02*
X117366349Y-98944813D01*
X117366349Y-98944813D02*
X117204725Y-99106437D01*
X117204725Y-99106437D02*
X117123913Y-99133374D01*
X117123913Y-99133374D02*
X117070038Y-99133374D01*
X116034606Y-84429060D02*
X115953794Y-84455997D01*
X115953794Y-84455997D02*
X115872982Y-84536809D01*
X115872982Y-84536809D02*
X115819107Y-84644559D01*
X115819107Y-84644559D02*
X115819107Y-84752308D01*
X115819107Y-84752308D02*
X115846044Y-84833121D01*
X115846044Y-84833121D02*
X115926857Y-84967808D01*
X115926857Y-84967808D02*
X116007669Y-85048620D01*
X116007669Y-85048620D02*
X116142356Y-85129432D01*
X116142356Y-85129432D02*
X116223168Y-85156369D01*
X116223168Y-85156369D02*
X116330918Y-85156369D01*
X116330918Y-85156369D02*
X116438667Y-85102495D01*
X116438667Y-85102495D02*
X116492542Y-85048620D01*
X116492542Y-85048620D02*
X116546417Y-84940870D01*
X116546417Y-84940870D02*
X116546417Y-84886995D01*
X116546417Y-84886995D02*
X116357855Y-84698434D01*
X116357855Y-84698434D02*
X116250105Y-84806183D01*
X116842728Y-84698434D02*
X116277043Y-84132748D01*
X116277043Y-84132748D02*
X116492542Y-83917249D01*
X116492542Y-83917249D02*
X116573354Y-83890312D01*
X116573354Y-83890312D02*
X116627229Y-83890312D01*
X116627229Y-83890312D02*
X116708041Y-83917249D01*
X116708041Y-83917249D02*
X116788853Y-83998061D01*
X116788853Y-83998061D02*
X116815791Y-84078873D01*
X116815791Y-84078873D02*
X116815791Y-84132748D01*
X116815791Y-84132748D02*
X116788853Y-84213560D01*
X116788853Y-84213560D02*
X116573354Y-84429060D01*
X117165977Y-83728687D02*
X117085165Y-83755625D01*
X117085165Y-83755625D02*
X117031290Y-83755625D01*
X117031290Y-83755625D02*
X116950478Y-83728687D01*
X116950478Y-83728687D02*
X116923540Y-83701750D01*
X116923540Y-83701750D02*
X116896603Y-83620938D01*
X116896603Y-83620938D02*
X116896603Y-83567063D01*
X116896603Y-83567063D02*
X116923540Y-83486251D01*
X116923540Y-83486251D02*
X117031290Y-83378501D01*
X117031290Y-83378501D02*
X117112102Y-83351564D01*
X117112102Y-83351564D02*
X117165977Y-83351564D01*
X117165977Y-83351564D02*
X117246789Y-83378501D01*
X117246789Y-83378501D02*
X117273727Y-83405438D01*
X117273727Y-83405438D02*
X117300664Y-83486251D01*
X117300664Y-83486251D02*
X117300664Y-83540125D01*
X117300664Y-83540125D02*
X117273727Y-83620938D01*
X117273727Y-83620938D02*
X117165977Y-83728687D01*
X117165977Y-83728687D02*
X117139040Y-83809499D01*
X117139040Y-83809499D02*
X117139040Y-83863374D01*
X117139040Y-83863374D02*
X117165977Y-83944186D01*
X117165977Y-83944186D02*
X117273727Y-84051936D01*
X117273727Y-84051936D02*
X117354539Y-84078873D01*
X117354539Y-84078873D02*
X117408414Y-84078873D01*
X117408414Y-84078873D02*
X117489226Y-84051936D01*
X117489226Y-84051936D02*
X117596975Y-83944186D01*
X117596975Y-83944186D02*
X117623913Y-83863374D01*
X117623913Y-83863374D02*
X117623913Y-83809499D01*
X117623913Y-83809499D02*
X117596975Y-83728687D01*
X117596975Y-83728687D02*
X117489226Y-83620938D01*
X117489226Y-83620938D02*
X117408414Y-83594000D01*
X117408414Y-83594000D02*
X117354539Y-83594000D01*
X117354539Y-83594000D02*
X117273727Y-83620938D01*
X115159709Y-92600185D02*
X115078896Y-92627122D01*
X115078896Y-92627122D02*
X114998084Y-92707935D01*
X114998084Y-92707935D02*
X114944209Y-92815684D01*
X114944209Y-92815684D02*
X114944209Y-92923434D01*
X114944209Y-92923434D02*
X114971147Y-93004246D01*
X114971147Y-93004246D02*
X115051959Y-93138933D01*
X115051959Y-93138933D02*
X115132771Y-93219745D01*
X115132771Y-93219745D02*
X115267458Y-93300558D01*
X115267458Y-93300558D02*
X115348271Y-93327495D01*
X115348271Y-93327495D02*
X115456020Y-93327495D01*
X115456020Y-93327495D02*
X115563770Y-93273620D01*
X115563770Y-93273620D02*
X115617645Y-93219745D01*
X115617645Y-93219745D02*
X115671519Y-93111996D01*
X115671519Y-93111996D02*
X115671519Y-93058121D01*
X115671519Y-93058121D02*
X115482958Y-92869559D01*
X115482958Y-92869559D02*
X115375208Y-92977309D01*
X115967831Y-92869559D02*
X115402145Y-92303874D01*
X115402145Y-92303874D02*
X115617645Y-92088374D01*
X115617645Y-92088374D02*
X115698457Y-92061437D01*
X115698457Y-92061437D02*
X115752332Y-92061437D01*
X115752332Y-92061437D02*
X115833144Y-92088374D01*
X115833144Y-92088374D02*
X115913956Y-92169187D01*
X115913956Y-92169187D02*
X115940893Y-92249999D01*
X115940893Y-92249999D02*
X115940893Y-92303874D01*
X115940893Y-92303874D02*
X115913956Y-92384686D01*
X115913956Y-92384686D02*
X115698457Y-92600185D01*
X116829828Y-92007562D02*
X116506579Y-92330811D01*
X116668203Y-92169187D02*
X116102518Y-91603501D01*
X116102518Y-91603501D02*
X116129455Y-91738188D01*
X116129455Y-91738188D02*
X116129455Y-91845938D01*
X116129455Y-91845938D02*
X116102518Y-91926750D01*
X117368576Y-91468814D02*
X117045327Y-91792063D01*
X117206951Y-91630438D02*
X116641266Y-91064753D01*
X116641266Y-91064753D02*
X116668203Y-91199440D01*
X116668203Y-91199440D02*
X116668203Y-91307190D01*
X116668203Y-91307190D02*
X116641266Y-91388002D01*
X142010146Y-73549748D02*
X141929334Y-73576685D01*
X141929334Y-73576685D02*
X141848522Y-73657497D01*
X141848522Y-73657497D02*
X141794647Y-73765247D01*
X141794647Y-73765247D02*
X141794647Y-73872997D01*
X141794647Y-73872997D02*
X141821584Y-73953809D01*
X141821584Y-73953809D02*
X141902396Y-74088496D01*
X141902396Y-74088496D02*
X141983209Y-74169308D01*
X141983209Y-74169308D02*
X142117896Y-74250120D01*
X142117896Y-74250120D02*
X142198708Y-74277058D01*
X142198708Y-74277058D02*
X142306457Y-74277058D01*
X142306457Y-74277058D02*
X142414207Y-74223183D01*
X142414207Y-74223183D02*
X142468082Y-74169308D01*
X142468082Y-74169308D02*
X142521957Y-74061558D01*
X142521957Y-74061558D02*
X142521957Y-74007684D01*
X142521957Y-74007684D02*
X142333395Y-73819122D01*
X142333395Y-73819122D02*
X142225645Y-73926871D01*
X142818268Y-73819122D02*
X142252583Y-73253436D01*
X142252583Y-73253436D02*
X143141517Y-73495873D01*
X143141517Y-73495873D02*
X142575831Y-72930188D01*
X143410891Y-73226499D02*
X142845205Y-72660814D01*
X142845205Y-72660814D02*
X142979892Y-72526127D01*
X142979892Y-72526127D02*
X143087642Y-72472252D01*
X143087642Y-72472252D02*
X143195391Y-72472252D01*
X143195391Y-72472252D02*
X143276204Y-72499189D01*
X143276204Y-72499189D02*
X143410891Y-72580002D01*
X143410891Y-72580002D02*
X143491703Y-72660814D01*
X143491703Y-72660814D02*
X143572515Y-72795501D01*
X143572515Y-72795501D02*
X143599452Y-72876313D01*
X143599452Y-72876313D02*
X143599452Y-72984063D01*
X143599452Y-72984063D02*
X143545578Y-73091812D01*
X143545578Y-73091812D02*
X143410891Y-73226499D01*
X141618335Y-71517684D02*
X141968521Y-71167498D01*
X141968521Y-71167498D02*
X141995458Y-71571559D01*
X141995458Y-71571559D02*
X142076271Y-71490747D01*
X142076271Y-71490747D02*
X142157083Y-71463809D01*
X142157083Y-71463809D02*
X142210958Y-71463809D01*
X142210958Y-71463809D02*
X142291770Y-71490747D01*
X142291770Y-71490747D02*
X142426457Y-71625434D01*
X142426457Y-71625434D02*
X142453394Y-71706246D01*
X142453394Y-71706246D02*
X142453394Y-71760121D01*
X142453394Y-71760121D02*
X142426457Y-71840933D01*
X142426457Y-71840933D02*
X142264832Y-72002557D01*
X142264832Y-72002557D02*
X142184020Y-72029495D01*
X142184020Y-72029495D02*
X142130145Y-72029495D01*
X142130146Y-71005873D02*
X142884393Y-71382997D01*
X142884393Y-71382997D02*
X142507269Y-70628750D01*
X142641956Y-70494063D02*
X142992142Y-70143877D01*
X142992142Y-70143877D02*
X143019080Y-70547938D01*
X143019080Y-70547938D02*
X143099892Y-70467126D01*
X143099892Y-70467126D02*
X143180704Y-70440188D01*
X143180704Y-70440188D02*
X143234579Y-70440188D01*
X143234579Y-70440188D02*
X143315391Y-70467126D01*
X143315391Y-70467126D02*
X143450078Y-70601813D01*
X143450078Y-70601813D02*
X143477015Y-70682625D01*
X143477015Y-70682625D02*
X143477015Y-70736500D01*
X143477015Y-70736500D02*
X143450078Y-70817312D01*
X143450078Y-70817312D02*
X143288454Y-70978936D01*
X143288454Y-70978936D02*
X143207641Y-71005874D01*
X143207641Y-71005874D02*
X143153767Y-71005874D01*
X143315391Y-69820628D02*
X143450078Y-69955315D01*
X143261516Y-70036127D02*
X143450078Y-69955315D01*
X143450078Y-69955315D02*
X143530890Y-69766753D01*
X143477016Y-70143877D02*
X143450078Y-69955315D01*
X143450078Y-69955315D02*
X143638640Y-69982252D01*
X115907669Y-74325997D02*
X115826857Y-74352934D01*
X115826857Y-74352934D02*
X115746045Y-74433746D01*
X115746045Y-74433746D02*
X115692170Y-74541496D01*
X115692170Y-74541496D02*
X115692170Y-74649246D01*
X115692170Y-74649246D02*
X115719107Y-74730058D01*
X115719107Y-74730058D02*
X115799919Y-74864745D01*
X115799919Y-74864745D02*
X115880732Y-74945557D01*
X115880732Y-74945557D02*
X116015419Y-75026369D01*
X116015419Y-75026369D02*
X116096231Y-75053307D01*
X116096231Y-75053307D02*
X116203980Y-75053307D01*
X116203980Y-75053307D02*
X116311730Y-74999432D01*
X116311730Y-74999432D02*
X116365605Y-74945557D01*
X116365605Y-74945557D02*
X116419480Y-74837807D01*
X116419480Y-74837807D02*
X116419480Y-74783933D01*
X116419480Y-74783933D02*
X116230918Y-74595371D01*
X116230918Y-74595371D02*
X116123168Y-74703120D01*
X116715791Y-74595371D02*
X116150106Y-74029685D01*
X116150106Y-74029685D02*
X117039040Y-74272122D01*
X117039040Y-74272122D02*
X116473354Y-73706437D01*
X117308414Y-74002748D02*
X116742728Y-73437063D01*
X116742728Y-73437063D02*
X116877415Y-73302376D01*
X116877415Y-73302376D02*
X116985165Y-73248501D01*
X116985165Y-73248501D02*
X117092914Y-73248501D01*
X117092914Y-73248501D02*
X117173727Y-73275438D01*
X117173727Y-73275438D02*
X117308414Y-73356251D01*
X117308414Y-73356251D02*
X117389226Y-73437063D01*
X117389226Y-73437063D02*
X117470038Y-73571750D01*
X117470038Y-73571750D02*
X117496975Y-73652562D01*
X117496975Y-73652562D02*
X117496975Y-73760312D01*
X117496975Y-73760312D02*
X117443101Y-73868061D01*
X117443101Y-73868061D02*
X117308414Y-74002748D01*
X141763232Y-86820434D02*
X141682419Y-86847371D01*
X141682419Y-86847371D02*
X141601607Y-86928184D01*
X141601607Y-86928184D02*
X141547732Y-87035933D01*
X141547732Y-87035933D02*
X141547732Y-87143683D01*
X141547732Y-87143683D02*
X141574670Y-87224495D01*
X141574670Y-87224495D02*
X141655482Y-87359182D01*
X141655482Y-87359182D02*
X141736294Y-87439994D01*
X141736294Y-87439994D02*
X141870981Y-87520807D01*
X141870981Y-87520807D02*
X141951794Y-87547744D01*
X141951794Y-87547744D02*
X142059543Y-87547744D01*
X142059543Y-87547744D02*
X142167293Y-87493869D01*
X142167293Y-87493869D02*
X142221168Y-87439994D01*
X142221168Y-87439994D02*
X142275042Y-87332245D01*
X142275042Y-87332245D02*
X142275042Y-87278370D01*
X142275042Y-87278370D02*
X142086481Y-87089808D01*
X142086481Y-87089808D02*
X141978731Y-87197558D01*
X142571354Y-87089808D02*
X142005668Y-86524123D01*
X142005668Y-86524123D02*
X142221168Y-86308623D01*
X142221168Y-86308623D02*
X142301980Y-86281686D01*
X142301980Y-86281686D02*
X142355855Y-86281686D01*
X142355855Y-86281686D02*
X142436667Y-86308623D01*
X142436667Y-86308623D02*
X142517479Y-86389436D01*
X142517479Y-86389436D02*
X142544416Y-86470248D01*
X142544416Y-86470248D02*
X142544416Y-86524123D01*
X142544416Y-86524123D02*
X142517479Y-86604935D01*
X142517479Y-86604935D02*
X142301980Y-86820434D01*
X142598291Y-86039249D02*
X142598291Y-85985375D01*
X142598291Y-85985375D02*
X142625229Y-85904562D01*
X142625229Y-85904562D02*
X142759916Y-85769875D01*
X142759916Y-85769875D02*
X142840728Y-85742938D01*
X142840728Y-85742938D02*
X142894603Y-85742938D01*
X142894603Y-85742938D02*
X142975415Y-85769875D01*
X142975415Y-85769875D02*
X143029290Y-85823750D01*
X143029290Y-85823750D02*
X143083164Y-85931500D01*
X143083164Y-85931500D02*
X143083164Y-86577997D01*
X143083164Y-86577997D02*
X143433351Y-86227811D01*
X143352539Y-85177252D02*
X143244789Y-85285002D01*
X143244789Y-85285002D02*
X143217852Y-85365814D01*
X143217852Y-85365814D02*
X143217852Y-85419689D01*
X143217852Y-85419689D02*
X143244789Y-85554376D01*
X143244789Y-85554376D02*
X143325601Y-85689063D01*
X143325601Y-85689063D02*
X143541100Y-85904562D01*
X143541100Y-85904562D02*
X143621913Y-85931500D01*
X143621913Y-85931500D02*
X143675787Y-85931500D01*
X143675787Y-85931500D02*
X143756600Y-85904562D01*
X143756600Y-85904562D02*
X143864349Y-85796813D01*
X143864349Y-85796813D02*
X143891287Y-85716000D01*
X143891287Y-85716000D02*
X143891287Y-85662126D01*
X143891287Y-85662126D02*
X143864349Y-85581313D01*
X143864349Y-85581313D02*
X143729662Y-85446626D01*
X143729662Y-85446626D02*
X143648850Y-85419689D01*
X143648850Y-85419689D02*
X143594975Y-85419689D01*
X143594975Y-85419689D02*
X143514163Y-85446626D01*
X143514163Y-85446626D02*
X143406413Y-85554376D01*
X143406413Y-85554376D02*
X143379476Y-85635188D01*
X143379476Y-85635188D02*
X143379476Y-85689063D01*
X143379476Y-85689063D02*
X143406413Y-85769875D01*
X141563232Y-104600434D02*
X141482419Y-104627371D01*
X141482419Y-104627371D02*
X141401607Y-104708184D01*
X141401607Y-104708184D02*
X141347732Y-104815933D01*
X141347732Y-104815933D02*
X141347732Y-104923683D01*
X141347732Y-104923683D02*
X141374670Y-105004495D01*
X141374670Y-105004495D02*
X141455482Y-105139182D01*
X141455482Y-105139182D02*
X141536294Y-105219994D01*
X141536294Y-105219994D02*
X141670981Y-105300807D01*
X141670981Y-105300807D02*
X141751794Y-105327744D01*
X141751794Y-105327744D02*
X141859543Y-105327744D01*
X141859543Y-105327744D02*
X141967293Y-105273869D01*
X141967293Y-105273869D02*
X142021168Y-105219994D01*
X142021168Y-105219994D02*
X142075042Y-105112245D01*
X142075042Y-105112245D02*
X142075042Y-105058370D01*
X142075042Y-105058370D02*
X141886481Y-104869808D01*
X141886481Y-104869808D02*
X141778731Y-104977558D01*
X142371354Y-104869808D02*
X141805668Y-104304123D01*
X141805668Y-104304123D02*
X142021168Y-104088623D01*
X142021168Y-104088623D02*
X142101980Y-104061686D01*
X142101980Y-104061686D02*
X142155855Y-104061686D01*
X142155855Y-104061686D02*
X142236667Y-104088623D01*
X142236667Y-104088623D02*
X142317479Y-104169436D01*
X142317479Y-104169436D02*
X142344416Y-104250248D01*
X142344416Y-104250248D02*
X142344416Y-104304123D01*
X142344416Y-104304123D02*
X142317479Y-104384935D01*
X142317479Y-104384935D02*
X142101980Y-104600434D01*
X142398291Y-103819249D02*
X142398291Y-103765375D01*
X142398291Y-103765375D02*
X142425229Y-103684562D01*
X142425229Y-103684562D02*
X142559916Y-103549875D01*
X142559916Y-103549875D02*
X142640728Y-103522938D01*
X142640728Y-103522938D02*
X142694603Y-103522938D01*
X142694603Y-103522938D02*
X142775415Y-103549875D01*
X142775415Y-103549875D02*
X142829290Y-103603750D01*
X142829290Y-103603750D02*
X142883164Y-103711500D01*
X142883164Y-103711500D02*
X142883164Y-104357997D01*
X142883164Y-104357997D02*
X143233351Y-104007811D01*
X143017852Y-103091939D02*
X143071726Y-103038065D01*
X143071726Y-103038065D02*
X143152539Y-103011127D01*
X143152539Y-103011127D02*
X143206413Y-103011127D01*
X143206413Y-103011127D02*
X143287226Y-103038065D01*
X143287226Y-103038065D02*
X143421913Y-103118877D01*
X143421913Y-103118877D02*
X143556600Y-103253564D01*
X143556600Y-103253564D02*
X143637412Y-103388251D01*
X143637412Y-103388251D02*
X143664349Y-103469063D01*
X143664349Y-103469063D02*
X143664349Y-103522938D01*
X143664349Y-103522938D02*
X143637412Y-103603750D01*
X143637412Y-103603750D02*
X143583537Y-103657625D01*
X143583537Y-103657625D02*
X143502725Y-103684562D01*
X143502725Y-103684562D02*
X143448850Y-103684562D01*
X143448850Y-103684562D02*
X143368038Y-103657625D01*
X143368038Y-103657625D02*
X143233351Y-103576813D01*
X143233351Y-103576813D02*
X143098664Y-103442126D01*
X143098664Y-103442126D02*
X143017852Y-103307439D01*
X143017852Y-103307439D02*
X142990914Y-103226626D01*
X142990914Y-103226626D02*
X142990914Y-103172752D01*
X142990914Y-103172752D02*
X143017852Y-103091939D01*
X141671397Y-68894622D02*
X142021584Y-68544435D01*
X142021584Y-68544435D02*
X142048521Y-68948496D01*
X142048521Y-68948496D02*
X142129333Y-68867684D01*
X142129333Y-68867684D02*
X142210146Y-68840747D01*
X142210146Y-68840747D02*
X142264020Y-68840747D01*
X142264020Y-68840747D02*
X142344833Y-68867684D01*
X142344833Y-68867684D02*
X142479520Y-69002371D01*
X142479520Y-69002371D02*
X142506457Y-69083183D01*
X142506457Y-69083183D02*
X142506457Y-69137058D01*
X142506457Y-69137058D02*
X142479520Y-69217870D01*
X142479520Y-69217870D02*
X142317895Y-69379495D01*
X142317895Y-69379495D02*
X142237083Y-69406432D01*
X142237083Y-69406432D02*
X142183208Y-69406432D01*
X142183208Y-68382811D02*
X142937456Y-68759934D01*
X142937456Y-68759934D02*
X142560332Y-68005687D01*
X142695019Y-67871000D02*
X143045205Y-67520814D01*
X143045205Y-67520814D02*
X143072142Y-67924875D01*
X143072142Y-67924875D02*
X143152955Y-67844063D01*
X143152955Y-67844063D02*
X143233767Y-67817125D01*
X143233767Y-67817125D02*
X143287642Y-67817125D01*
X143287642Y-67817125D02*
X143368454Y-67844063D01*
X143368454Y-67844063D02*
X143503141Y-67978750D01*
X143503141Y-67978750D02*
X143530078Y-68059562D01*
X143530078Y-68059562D02*
X143530078Y-68113437D01*
X143530078Y-68113437D02*
X143503141Y-68194249D01*
X143503141Y-68194249D02*
X143341516Y-68355874D01*
X143341516Y-68355874D02*
X143260704Y-68382811D01*
X143260704Y-68382811D02*
X143206829Y-68382811D01*
X144041889Y-67601626D02*
X144014952Y-67682438D01*
X144014952Y-67682438D02*
X143907202Y-67790188D01*
X143907202Y-67790188D02*
X143826390Y-67817125D01*
X143826390Y-67817125D02*
X143745578Y-67790188D01*
X143745578Y-67790188D02*
X143530078Y-67574689D01*
X143530078Y-67574689D02*
X143503141Y-67493877D01*
X143503141Y-67493877D02*
X143530078Y-67413064D01*
X143530078Y-67413064D02*
X143637828Y-67305315D01*
X143637828Y-67305315D02*
X143718640Y-67278377D01*
X143718640Y-67278377D02*
X143799452Y-67305315D01*
X143799452Y-67305315D02*
X143853327Y-67359190D01*
X143853327Y-67359190D02*
X143637828Y-67682438D01*
X115834606Y-64129060D02*
X115753794Y-64155997D01*
X115753794Y-64155997D02*
X115672982Y-64236809D01*
X115672982Y-64236809D02*
X115619107Y-64344559D01*
X115619107Y-64344559D02*
X115619107Y-64452308D01*
X115619107Y-64452308D02*
X115646044Y-64533121D01*
X115646044Y-64533121D02*
X115726857Y-64667808D01*
X115726857Y-64667808D02*
X115807669Y-64748620D01*
X115807669Y-64748620D02*
X115942356Y-64829432D01*
X115942356Y-64829432D02*
X116023168Y-64856369D01*
X116023168Y-64856369D02*
X116130918Y-64856369D01*
X116130918Y-64856369D02*
X116238667Y-64802495D01*
X116238667Y-64802495D02*
X116292542Y-64748620D01*
X116292542Y-64748620D02*
X116346417Y-64640870D01*
X116346417Y-64640870D02*
X116346417Y-64586995D01*
X116346417Y-64586995D02*
X116157855Y-64398434D01*
X116157855Y-64398434D02*
X116050105Y-64506183D01*
X116642728Y-64398434D02*
X116077043Y-63832748D01*
X116077043Y-63832748D02*
X116292542Y-63617249D01*
X116292542Y-63617249D02*
X116373354Y-63590312D01*
X116373354Y-63590312D02*
X116427229Y-63590312D01*
X116427229Y-63590312D02*
X116508041Y-63617249D01*
X116508041Y-63617249D02*
X116588853Y-63698061D01*
X116588853Y-63698061D02*
X116615791Y-63778873D01*
X116615791Y-63778873D02*
X116615791Y-63832748D01*
X116615791Y-63832748D02*
X116588853Y-63913560D01*
X116588853Y-63913560D02*
X116373354Y-64129060D01*
X117504725Y-63536437D02*
X117181476Y-63859686D01*
X117343101Y-63698061D02*
X116777415Y-63132376D01*
X116777415Y-63132376D02*
X116804353Y-63267063D01*
X116804353Y-63267063D02*
X116804353Y-63374812D01*
X116804353Y-63374812D02*
X116777415Y-63455625D01*
X115179709Y-105320185D02*
X115098896Y-105347122D01*
X115098896Y-105347122D02*
X115018084Y-105427935D01*
X115018084Y-105427935D02*
X114964209Y-105535684D01*
X114964209Y-105535684D02*
X114964209Y-105643434D01*
X114964209Y-105643434D02*
X114991147Y-105724246D01*
X114991147Y-105724246D02*
X115071959Y-105858933D01*
X115071959Y-105858933D02*
X115152771Y-105939745D01*
X115152771Y-105939745D02*
X115287458Y-106020558D01*
X115287458Y-106020558D02*
X115368271Y-106047495D01*
X115368271Y-106047495D02*
X115476020Y-106047495D01*
X115476020Y-106047495D02*
X115583770Y-105993620D01*
X115583770Y-105993620D02*
X115637645Y-105939745D01*
X115637645Y-105939745D02*
X115691519Y-105831996D01*
X115691519Y-105831996D02*
X115691519Y-105778121D01*
X115691519Y-105778121D02*
X115502958Y-105589559D01*
X115502958Y-105589559D02*
X115395208Y-105697309D01*
X115987831Y-105589559D02*
X115422145Y-105023874D01*
X115422145Y-105023874D02*
X115637645Y-104808374D01*
X115637645Y-104808374D02*
X115718457Y-104781437D01*
X115718457Y-104781437D02*
X115772332Y-104781437D01*
X115772332Y-104781437D02*
X115853144Y-104808374D01*
X115853144Y-104808374D02*
X115933956Y-104889187D01*
X115933956Y-104889187D02*
X115960893Y-104969999D01*
X115960893Y-104969999D02*
X115960893Y-105023874D01*
X115960893Y-105023874D02*
X115933956Y-105104686D01*
X115933956Y-105104686D02*
X115718457Y-105320185D01*
X116849828Y-104727562D02*
X116526579Y-105050811D01*
X116688203Y-104889187D02*
X116122518Y-104323501D01*
X116122518Y-104323501D02*
X116149455Y-104458188D01*
X116149455Y-104458188D02*
X116149455Y-104565938D01*
X116149455Y-104565938D02*
X116122518Y-104646750D01*
X116795953Y-103650066D02*
X116526579Y-103919440D01*
X116526579Y-103919440D02*
X116769016Y-104215751D01*
X116769016Y-104215751D02*
X116769016Y-104161877D01*
X116769016Y-104161877D02*
X116795953Y-104081064D01*
X116795953Y-104081064D02*
X116930640Y-103946377D01*
X116930640Y-103946377D02*
X117011452Y-103919440D01*
X117011452Y-103919440D02*
X117065327Y-103919440D01*
X117065327Y-103919440D02*
X117146139Y-103946377D01*
X117146139Y-103946377D02*
X117280826Y-104081064D01*
X117280826Y-104081064D02*
X117307764Y-104161877D01*
X117307764Y-104161877D02*
X117307764Y-104215751D01*
X117307764Y-104215751D02*
X117280826Y-104296564D01*
X117280826Y-104296564D02*
X117146139Y-104431251D01*
X117146139Y-104431251D02*
X117065327Y-104458188D01*
X117065327Y-104458188D02*
X117011452Y-104458188D01*
X115665232Y-89808434D02*
X115584419Y-89835371D01*
X115584419Y-89835371D02*
X115503607Y-89916184D01*
X115503607Y-89916184D02*
X115449732Y-90023933D01*
X115449732Y-90023933D02*
X115449732Y-90131683D01*
X115449732Y-90131683D02*
X115476670Y-90212495D01*
X115476670Y-90212495D02*
X115557482Y-90347182D01*
X115557482Y-90347182D02*
X115638294Y-90427994D01*
X115638294Y-90427994D02*
X115772981Y-90508807D01*
X115772981Y-90508807D02*
X115853794Y-90535744D01*
X115853794Y-90535744D02*
X115961543Y-90535744D01*
X115961543Y-90535744D02*
X116069293Y-90481869D01*
X116069293Y-90481869D02*
X116123168Y-90427994D01*
X116123168Y-90427994D02*
X116177042Y-90320245D01*
X116177042Y-90320245D02*
X116177042Y-90266370D01*
X116177042Y-90266370D02*
X115988481Y-90077808D01*
X115988481Y-90077808D02*
X115880731Y-90185558D01*
X116473354Y-90077808D02*
X115907668Y-89512123D01*
X115907668Y-89512123D02*
X116123168Y-89296623D01*
X116123168Y-89296623D02*
X116203980Y-89269686D01*
X116203980Y-89269686D02*
X116257855Y-89269686D01*
X116257855Y-89269686D02*
X116338667Y-89296623D01*
X116338667Y-89296623D02*
X116419479Y-89377436D01*
X116419479Y-89377436D02*
X116446416Y-89458248D01*
X116446416Y-89458248D02*
X116446416Y-89512123D01*
X116446416Y-89512123D02*
X116419479Y-89592935D01*
X116419479Y-89592935D02*
X116203980Y-89808434D01*
X117335351Y-89215811D02*
X117012102Y-89539060D01*
X117173726Y-89377436D02*
X116608041Y-88811750D01*
X116608041Y-88811750D02*
X116634978Y-88946437D01*
X116634978Y-88946437D02*
X116634978Y-89054187D01*
X116634978Y-89054187D02*
X116608041Y-89134999D01*
X117119852Y-88299939D02*
X117173726Y-88246065D01*
X117173726Y-88246065D02*
X117254539Y-88219127D01*
X117254539Y-88219127D02*
X117308413Y-88219127D01*
X117308413Y-88219127D02*
X117389226Y-88246065D01*
X117389226Y-88246065D02*
X117523913Y-88326877D01*
X117523913Y-88326877D02*
X117658600Y-88461564D01*
X117658600Y-88461564D02*
X117739412Y-88596251D01*
X117739412Y-88596251D02*
X117766349Y-88677063D01*
X117766349Y-88677063D02*
X117766349Y-88730938D01*
X117766349Y-88730938D02*
X117739412Y-88811750D01*
X117739412Y-88811750D02*
X117685537Y-88865625D01*
X117685537Y-88865625D02*
X117604725Y-88892562D01*
X117604725Y-88892562D02*
X117550850Y-88892562D01*
X117550850Y-88892562D02*
X117470038Y-88865625D01*
X117470038Y-88865625D02*
X117335351Y-88784813D01*
X117335351Y-88784813D02*
X117200664Y-88650126D01*
X117200664Y-88650126D02*
X117119852Y-88515439D01*
X117119852Y-88515439D02*
X117092914Y-88434626D01*
X117092914Y-88434626D02*
X117092914Y-88380752D01*
X117092914Y-88380752D02*
X117119852Y-88299939D01*
X115411232Y-110128434D02*
X115330419Y-110155371D01*
X115330419Y-110155371D02*
X115249607Y-110236184D01*
X115249607Y-110236184D02*
X115195732Y-110343933D01*
X115195732Y-110343933D02*
X115195732Y-110451683D01*
X115195732Y-110451683D02*
X115222670Y-110532495D01*
X115222670Y-110532495D02*
X115303482Y-110667182D01*
X115303482Y-110667182D02*
X115384294Y-110747994D01*
X115384294Y-110747994D02*
X115518981Y-110828807D01*
X115518981Y-110828807D02*
X115599794Y-110855744D01*
X115599794Y-110855744D02*
X115707543Y-110855744D01*
X115707543Y-110855744D02*
X115815293Y-110801869D01*
X115815293Y-110801869D02*
X115869168Y-110747994D01*
X115869168Y-110747994D02*
X115923042Y-110640245D01*
X115923042Y-110640245D02*
X115923042Y-110586370D01*
X115923042Y-110586370D02*
X115734481Y-110397808D01*
X115734481Y-110397808D02*
X115626731Y-110505558D01*
X116219354Y-110397808D02*
X115653668Y-109832123D01*
X115653668Y-109832123D02*
X115869168Y-109616623D01*
X115869168Y-109616623D02*
X115949980Y-109589686D01*
X115949980Y-109589686D02*
X116003855Y-109589686D01*
X116003855Y-109589686D02*
X116084667Y-109616623D01*
X116084667Y-109616623D02*
X116165479Y-109697436D01*
X116165479Y-109697436D02*
X116192416Y-109778248D01*
X116192416Y-109778248D02*
X116192416Y-109832123D01*
X116192416Y-109832123D02*
X116165479Y-109912935D01*
X116165479Y-109912935D02*
X115949980Y-110128434D01*
X117081351Y-109535811D02*
X116758102Y-109859060D01*
X116919726Y-109697436D02*
X116354041Y-109131750D01*
X116354041Y-109131750D02*
X116380978Y-109266437D01*
X116380978Y-109266437D02*
X116380978Y-109374187D01*
X116380978Y-109374187D02*
X116354041Y-109454999D01*
X116704227Y-108781564D02*
X117081351Y-108404440D01*
X117081351Y-108404440D02*
X117404600Y-109212562D01*
X115934606Y-61599060D02*
X115853794Y-61625997D01*
X115853794Y-61625997D02*
X115772982Y-61706809D01*
X115772982Y-61706809D02*
X115719107Y-61814559D01*
X115719107Y-61814559D02*
X115719107Y-61922308D01*
X115719107Y-61922308D02*
X115746044Y-62003121D01*
X115746044Y-62003121D02*
X115826857Y-62137808D01*
X115826857Y-62137808D02*
X115907669Y-62218620D01*
X115907669Y-62218620D02*
X116042356Y-62299432D01*
X116042356Y-62299432D02*
X116123168Y-62326369D01*
X116123168Y-62326369D02*
X116230918Y-62326369D01*
X116230918Y-62326369D02*
X116338667Y-62272495D01*
X116338667Y-62272495D02*
X116392542Y-62218620D01*
X116392542Y-62218620D02*
X116446417Y-62110870D01*
X116446417Y-62110870D02*
X116446417Y-62056995D01*
X116446417Y-62056995D02*
X116257855Y-61868434D01*
X116257855Y-61868434D02*
X116150105Y-61976183D01*
X116742728Y-61868434D02*
X116177043Y-61302748D01*
X116177043Y-61302748D02*
X116392542Y-61087249D01*
X116392542Y-61087249D02*
X116473354Y-61060312D01*
X116473354Y-61060312D02*
X116527229Y-61060312D01*
X116527229Y-61060312D02*
X116608041Y-61087249D01*
X116608041Y-61087249D02*
X116688853Y-61168061D01*
X116688853Y-61168061D02*
X116715791Y-61248873D01*
X116715791Y-61248873D02*
X116715791Y-61302748D01*
X116715791Y-61302748D02*
X116688853Y-61383560D01*
X116688853Y-61383560D02*
X116473354Y-61599060D01*
X116850478Y-60629313D02*
X116904353Y-60575438D01*
X116904353Y-60575438D02*
X116985165Y-60548501D01*
X116985165Y-60548501D02*
X117039040Y-60548501D01*
X117039040Y-60548501D02*
X117119852Y-60575438D01*
X117119852Y-60575438D02*
X117254539Y-60656251D01*
X117254539Y-60656251D02*
X117389226Y-60790938D01*
X117389226Y-60790938D02*
X117470038Y-60925625D01*
X117470038Y-60925625D02*
X117496975Y-61006437D01*
X117496975Y-61006437D02*
X117496975Y-61060312D01*
X117496975Y-61060312D02*
X117470038Y-61141124D01*
X117470038Y-61141124D02*
X117416163Y-61194999D01*
X117416163Y-61194999D02*
X117335351Y-61221936D01*
X117335351Y-61221936D02*
X117281476Y-61221936D01*
X117281476Y-61221936D02*
X117200664Y-61194999D01*
X117200664Y-61194999D02*
X117065977Y-61114186D01*
X117065977Y-61114186D02*
X116931290Y-60979499D01*
X116931290Y-60979499D02*
X116850478Y-60844812D01*
X116850478Y-60844812D02*
X116823540Y-60764000D01*
X116823540Y-60764000D02*
X116823540Y-60710125D01*
X116823540Y-60710125D02*
X116850478Y-60629313D01*
X141817232Y-99520434D02*
X141736419Y-99547371D01*
X141736419Y-99547371D02*
X141655607Y-99628184D01*
X141655607Y-99628184D02*
X141601732Y-99735933D01*
X141601732Y-99735933D02*
X141601732Y-99843683D01*
X141601732Y-99843683D02*
X141628670Y-99924495D01*
X141628670Y-99924495D02*
X141709482Y-100059182D01*
X141709482Y-100059182D02*
X141790294Y-100139994D01*
X141790294Y-100139994D02*
X141924981Y-100220807D01*
X141924981Y-100220807D02*
X142005794Y-100247744D01*
X142005794Y-100247744D02*
X142113543Y-100247744D01*
X142113543Y-100247744D02*
X142221293Y-100193869D01*
X142221293Y-100193869D02*
X142275168Y-100139994D01*
X142275168Y-100139994D02*
X142329042Y-100032245D01*
X142329042Y-100032245D02*
X142329042Y-99978370D01*
X142329042Y-99978370D02*
X142140481Y-99789808D01*
X142140481Y-99789808D02*
X142032731Y-99897558D01*
X142625354Y-99789808D02*
X142059668Y-99224123D01*
X142059668Y-99224123D02*
X142275168Y-99008623D01*
X142275168Y-99008623D02*
X142355980Y-98981686D01*
X142355980Y-98981686D02*
X142409855Y-98981686D01*
X142409855Y-98981686D02*
X142490667Y-99008623D01*
X142490667Y-99008623D02*
X142571479Y-99089436D01*
X142571479Y-99089436D02*
X142598416Y-99170248D01*
X142598416Y-99170248D02*
X142598416Y-99224123D01*
X142598416Y-99224123D02*
X142571479Y-99304935D01*
X142571479Y-99304935D02*
X142355980Y-99520434D01*
X142652291Y-98739249D02*
X142652291Y-98685375D01*
X142652291Y-98685375D02*
X142679229Y-98604562D01*
X142679229Y-98604562D02*
X142813916Y-98469875D01*
X142813916Y-98469875D02*
X142894728Y-98442938D01*
X142894728Y-98442938D02*
X142948603Y-98442938D01*
X142948603Y-98442938D02*
X143029415Y-98469875D01*
X143029415Y-98469875D02*
X143083290Y-98523750D01*
X143083290Y-98523750D02*
X143137164Y-98631500D01*
X143137164Y-98631500D02*
X143137164Y-99277997D01*
X143137164Y-99277997D02*
X143487351Y-98927811D01*
X143191039Y-98200501D02*
X143191039Y-98146626D01*
X143191039Y-98146626D02*
X143217977Y-98065814D01*
X143217977Y-98065814D02*
X143352664Y-97931127D01*
X143352664Y-97931127D02*
X143433476Y-97904190D01*
X143433476Y-97904190D02*
X143487351Y-97904190D01*
X143487351Y-97904190D02*
X143568163Y-97931127D01*
X143568163Y-97931127D02*
X143622038Y-97985002D01*
X143622038Y-97985002D02*
X143675913Y-98092752D01*
X143675913Y-98092752D02*
X143675913Y-98739249D01*
X143675913Y-98739249D02*
X144026099Y-98389063D01*
X141817232Y-107140434D02*
X141736419Y-107167371D01*
X141736419Y-107167371D02*
X141655607Y-107248184D01*
X141655607Y-107248184D02*
X141601732Y-107355933D01*
X141601732Y-107355933D02*
X141601732Y-107463683D01*
X141601732Y-107463683D02*
X141628670Y-107544495D01*
X141628670Y-107544495D02*
X141709482Y-107679182D01*
X141709482Y-107679182D02*
X141790294Y-107759994D01*
X141790294Y-107759994D02*
X141924981Y-107840807D01*
X141924981Y-107840807D02*
X142005794Y-107867744D01*
X142005794Y-107867744D02*
X142113543Y-107867744D01*
X142113543Y-107867744D02*
X142221293Y-107813869D01*
X142221293Y-107813869D02*
X142275168Y-107759994D01*
X142275168Y-107759994D02*
X142329042Y-107652245D01*
X142329042Y-107652245D02*
X142329042Y-107598370D01*
X142329042Y-107598370D02*
X142140481Y-107409808D01*
X142140481Y-107409808D02*
X142032731Y-107517558D01*
X142625354Y-107409808D02*
X142059668Y-106844123D01*
X142059668Y-106844123D02*
X142275168Y-106628623D01*
X142275168Y-106628623D02*
X142355980Y-106601686D01*
X142355980Y-106601686D02*
X142409855Y-106601686D01*
X142409855Y-106601686D02*
X142490667Y-106628623D01*
X142490667Y-106628623D02*
X142571479Y-106709436D01*
X142571479Y-106709436D02*
X142598416Y-106790248D01*
X142598416Y-106790248D02*
X142598416Y-106844123D01*
X142598416Y-106844123D02*
X142571479Y-106924935D01*
X142571479Y-106924935D02*
X142355980Y-107140434D01*
X143487351Y-106547811D02*
X143164102Y-106871060D01*
X143325726Y-106709436D02*
X142760041Y-106143750D01*
X142760041Y-106143750D02*
X142786978Y-106278437D01*
X142786978Y-106278437D02*
X142786978Y-106386187D01*
X142786978Y-106386187D02*
X142760041Y-106466999D01*
X143756725Y-106278437D02*
X143864474Y-106170687D01*
X143864474Y-106170687D02*
X143891412Y-106089875D01*
X143891412Y-106089875D02*
X143891412Y-106036000D01*
X143891412Y-106036000D02*
X143864474Y-105901313D01*
X143864474Y-105901313D02*
X143783662Y-105766626D01*
X143783662Y-105766626D02*
X143568163Y-105551127D01*
X143568163Y-105551127D02*
X143487351Y-105524190D01*
X143487351Y-105524190D02*
X143433476Y-105524190D01*
X143433476Y-105524190D02*
X143352664Y-105551127D01*
X143352664Y-105551127D02*
X143244914Y-105658877D01*
X143244914Y-105658877D02*
X143217977Y-105739689D01*
X143217977Y-105739689D02*
X143217977Y-105793564D01*
X143217977Y-105793564D02*
X143244914Y-105874376D01*
X143244914Y-105874376D02*
X143379601Y-106009063D01*
X143379601Y-106009063D02*
X143460413Y-106036000D01*
X143460413Y-106036000D02*
X143514288Y-106036000D01*
X143514288Y-106036000D02*
X143595100Y-106009063D01*
X143595100Y-106009063D02*
X143702850Y-105901313D01*
X143702850Y-105901313D02*
X143729787Y-105820501D01*
X143729787Y-105820501D02*
X143729787Y-105766626D01*
X143729787Y-105766626D02*
X143702850Y-105685814D01*
X115934606Y-71759060D02*
X115853794Y-71785997D01*
X115853794Y-71785997D02*
X115772982Y-71866809D01*
X115772982Y-71866809D02*
X115719107Y-71974559D01*
X115719107Y-71974559D02*
X115719107Y-72082308D01*
X115719107Y-72082308D02*
X115746044Y-72163121D01*
X115746044Y-72163121D02*
X115826857Y-72297808D01*
X115826857Y-72297808D02*
X115907669Y-72378620D01*
X115907669Y-72378620D02*
X116042356Y-72459432D01*
X116042356Y-72459432D02*
X116123168Y-72486369D01*
X116123168Y-72486369D02*
X116230918Y-72486369D01*
X116230918Y-72486369D02*
X116338667Y-72432495D01*
X116338667Y-72432495D02*
X116392542Y-72378620D01*
X116392542Y-72378620D02*
X116446417Y-72270870D01*
X116446417Y-72270870D02*
X116446417Y-72216995D01*
X116446417Y-72216995D02*
X116257855Y-72028434D01*
X116257855Y-72028434D02*
X116150105Y-72136183D01*
X116742728Y-72028434D02*
X116177043Y-71462748D01*
X116177043Y-71462748D02*
X116392542Y-71247249D01*
X116392542Y-71247249D02*
X116473354Y-71220312D01*
X116473354Y-71220312D02*
X116527229Y-71220312D01*
X116527229Y-71220312D02*
X116608041Y-71247249D01*
X116608041Y-71247249D02*
X116688853Y-71328061D01*
X116688853Y-71328061D02*
X116715791Y-71408873D01*
X116715791Y-71408873D02*
X116715791Y-71462748D01*
X116715791Y-71462748D02*
X116688853Y-71543560D01*
X116688853Y-71543560D02*
X116473354Y-71759060D01*
X117173727Y-70843188D02*
X117550850Y-71220312D01*
X116823540Y-70762376D02*
X117092914Y-71301124D01*
X117092914Y-71301124D02*
X117443101Y-70950938D01*
X141817232Y-79200434D02*
X141736419Y-79227371D01*
X141736419Y-79227371D02*
X141655607Y-79308184D01*
X141655607Y-79308184D02*
X141601732Y-79415933D01*
X141601732Y-79415933D02*
X141601732Y-79523683D01*
X141601732Y-79523683D02*
X141628670Y-79604495D01*
X141628670Y-79604495D02*
X141709482Y-79739182D01*
X141709482Y-79739182D02*
X141790294Y-79819994D01*
X141790294Y-79819994D02*
X141924981Y-79900807D01*
X141924981Y-79900807D02*
X142005794Y-79927744D01*
X142005794Y-79927744D02*
X142113543Y-79927744D01*
X142113543Y-79927744D02*
X142221293Y-79873869D01*
X142221293Y-79873869D02*
X142275168Y-79819994D01*
X142275168Y-79819994D02*
X142329042Y-79712245D01*
X142329042Y-79712245D02*
X142329042Y-79658370D01*
X142329042Y-79658370D02*
X142140481Y-79469808D01*
X142140481Y-79469808D02*
X142032731Y-79577558D01*
X142625354Y-79469808D02*
X142059668Y-78904123D01*
X142059668Y-78904123D02*
X142275168Y-78688623D01*
X142275168Y-78688623D02*
X142355980Y-78661686D01*
X142355980Y-78661686D02*
X142409855Y-78661686D01*
X142409855Y-78661686D02*
X142490667Y-78688623D01*
X142490667Y-78688623D02*
X142571479Y-78769436D01*
X142571479Y-78769436D02*
X142598416Y-78850248D01*
X142598416Y-78850248D02*
X142598416Y-78904123D01*
X142598416Y-78904123D02*
X142571479Y-78984935D01*
X142571479Y-78984935D02*
X142355980Y-79200434D01*
X142652291Y-78419249D02*
X142652291Y-78365375D01*
X142652291Y-78365375D02*
X142679229Y-78284562D01*
X142679229Y-78284562D02*
X142813916Y-78149875D01*
X142813916Y-78149875D02*
X142894728Y-78122938D01*
X142894728Y-78122938D02*
X142948603Y-78122938D01*
X142948603Y-78122938D02*
X143029415Y-78149875D01*
X143029415Y-78149875D02*
X143083290Y-78203750D01*
X143083290Y-78203750D02*
X143137164Y-78311500D01*
X143137164Y-78311500D02*
X143137164Y-78957997D01*
X143137164Y-78957997D02*
X143487351Y-78607811D01*
X143756725Y-78338437D02*
X143864474Y-78230687D01*
X143864474Y-78230687D02*
X143891412Y-78149875D01*
X143891412Y-78149875D02*
X143891412Y-78096000D01*
X143891412Y-78096000D02*
X143864474Y-77961313D01*
X143864474Y-77961313D02*
X143783662Y-77826626D01*
X143783662Y-77826626D02*
X143568163Y-77611127D01*
X143568163Y-77611127D02*
X143487351Y-77584190D01*
X143487351Y-77584190D02*
X143433476Y-77584190D01*
X143433476Y-77584190D02*
X143352664Y-77611127D01*
X143352664Y-77611127D02*
X143244914Y-77718877D01*
X143244914Y-77718877D02*
X143217977Y-77799689D01*
X143217977Y-77799689D02*
X143217977Y-77853564D01*
X143217977Y-77853564D02*
X143244914Y-77934376D01*
X143244914Y-77934376D02*
X143379601Y-78069063D01*
X143379601Y-78069063D02*
X143460413Y-78096000D01*
X143460413Y-78096000D02*
X143514288Y-78096000D01*
X143514288Y-78096000D02*
X143595100Y-78069063D01*
X143595100Y-78069063D02*
X143702850Y-77961313D01*
X143702850Y-77961313D02*
X143729787Y-77880501D01*
X143729787Y-77880501D02*
X143729787Y-77826626D01*
X143729787Y-77826626D02*
X143702850Y-77745814D01*
X141465140Y-62226651D02*
X142219388Y-62603774D01*
X142219388Y-62603774D02*
X141842264Y-61849527D01*
X142488761Y-61741778D02*
X142596511Y-61687903D01*
X142596511Y-61687903D02*
X142650386Y-61687903D01*
X142650386Y-61687903D02*
X142731198Y-61714840D01*
X142731198Y-61714840D02*
X142812010Y-61795652D01*
X142812010Y-61795652D02*
X142838948Y-61876465D01*
X142838948Y-61876465D02*
X142838948Y-61930339D01*
X142838948Y-61930339D02*
X142812010Y-62011152D01*
X142812010Y-62011152D02*
X142596511Y-62226651D01*
X142596511Y-62226651D02*
X142030826Y-61660965D01*
X142030826Y-61660965D02*
X142219387Y-61472404D01*
X142219387Y-61472404D02*
X142300200Y-61445466D01*
X142300200Y-61445466D02*
X142354074Y-61445466D01*
X142354074Y-61445466D02*
X142434887Y-61472404D01*
X142434887Y-61472404D02*
X142488761Y-61526278D01*
X142488761Y-61526278D02*
X142515699Y-61607091D01*
X142515699Y-61607091D02*
X142515699Y-61660965D01*
X142515699Y-61660965D02*
X142488761Y-61741778D01*
X142488761Y-61741778D02*
X142300200Y-61930339D01*
X142596511Y-61095280D02*
X143054447Y-61553216D01*
X143054447Y-61553216D02*
X143135259Y-61580153D01*
X143135259Y-61580153D02*
X143189134Y-61580153D01*
X143189134Y-61580153D02*
X143269946Y-61553216D01*
X143269946Y-61553216D02*
X143377696Y-61445466D01*
X143377696Y-61445466D02*
X143404633Y-61364654D01*
X143404633Y-61364654D02*
X143404633Y-61310779D01*
X143404633Y-61310779D02*
X143377696Y-61229967D01*
X143377696Y-61229967D02*
X142919760Y-60772031D01*
X143700944Y-61068343D02*
X143808694Y-61014468D01*
X143808694Y-61014468D02*
X143943381Y-60879781D01*
X143943381Y-60879781D02*
X143970318Y-60798969D01*
X143970318Y-60798969D02*
X143970318Y-60745094D01*
X143970318Y-60745094D02*
X143943381Y-60664282D01*
X143943381Y-60664282D02*
X143889506Y-60610407D01*
X143889506Y-60610407D02*
X143808694Y-60583470D01*
X143808694Y-60583470D02*
X143754819Y-60583470D01*
X143754819Y-60583470D02*
X143674007Y-60610407D01*
X143674007Y-60610407D02*
X143539320Y-60691219D01*
X143539320Y-60691219D02*
X143458508Y-60718157D01*
X143458508Y-60718157D02*
X143404633Y-60718157D01*
X143404633Y-60718157D02*
X143323821Y-60691219D01*
X143323821Y-60691219D02*
X143269946Y-60637344D01*
X143269946Y-60637344D02*
X143243008Y-60556532D01*
X143243008Y-60556532D02*
X143243008Y-60502657D01*
X143243008Y-60502657D02*
X143269946Y-60421845D01*
X143269946Y-60421845D02*
X143404633Y-60287158D01*
X143404633Y-60287158D02*
X143512382Y-60233283D01*
X143808694Y-59883097D02*
X143943381Y-60017784D01*
X143754819Y-60098596D02*
X143943381Y-60017784D01*
X143943381Y-60017784D02*
X144024193Y-59829222D01*
X143970318Y-60206346D02*
X143943381Y-60017784D01*
X143943381Y-60017784D02*
X144131943Y-60044721D01*
X115834606Y-69219060D02*
X115753794Y-69245997D01*
X115753794Y-69245997D02*
X115672982Y-69326809D01*
X115672982Y-69326809D02*
X115619107Y-69434559D01*
X115619107Y-69434559D02*
X115619107Y-69542308D01*
X115619107Y-69542308D02*
X115646044Y-69623121D01*
X115646044Y-69623121D02*
X115726857Y-69757808D01*
X115726857Y-69757808D02*
X115807669Y-69838620D01*
X115807669Y-69838620D02*
X115942356Y-69919432D01*
X115942356Y-69919432D02*
X116023168Y-69946369D01*
X116023168Y-69946369D02*
X116130918Y-69946369D01*
X116130918Y-69946369D02*
X116238667Y-69892495D01*
X116238667Y-69892495D02*
X116292542Y-69838620D01*
X116292542Y-69838620D02*
X116346417Y-69730870D01*
X116346417Y-69730870D02*
X116346417Y-69676995D01*
X116346417Y-69676995D02*
X116157855Y-69488434D01*
X116157855Y-69488434D02*
X116050105Y-69596183D01*
X116642728Y-69488434D02*
X116077043Y-68922748D01*
X116077043Y-68922748D02*
X116292542Y-68707249D01*
X116292542Y-68707249D02*
X116373354Y-68680312D01*
X116373354Y-68680312D02*
X116427229Y-68680312D01*
X116427229Y-68680312D02*
X116508041Y-68707249D01*
X116508041Y-68707249D02*
X116588853Y-68788061D01*
X116588853Y-68788061D02*
X116615791Y-68868873D01*
X116615791Y-68868873D02*
X116615791Y-68922748D01*
X116615791Y-68922748D02*
X116588853Y-69003560D01*
X116588853Y-69003560D02*
X116373354Y-69219060D01*
X116588853Y-68410938D02*
X116939040Y-68060751D01*
X116939040Y-68060751D02*
X116965977Y-68464812D01*
X116965977Y-68464812D02*
X117046789Y-68384000D01*
X117046789Y-68384000D02*
X117127601Y-68357063D01*
X117127601Y-68357063D02*
X117181476Y-68357063D01*
X117181476Y-68357063D02*
X117262288Y-68384000D01*
X117262288Y-68384000D02*
X117396975Y-68518687D01*
X117396975Y-68518687D02*
X117423913Y-68599499D01*
X117423913Y-68599499D02*
X117423913Y-68653374D01*
X117423913Y-68653374D02*
X117396975Y-68734186D01*
X117396975Y-68734186D02*
X117235351Y-68895811D01*
X117235351Y-68895811D02*
X117154539Y-68922748D01*
X117154539Y-68922748D02*
X117100664Y-68922748D01*
X141817232Y-94450434D02*
X141736419Y-94477371D01*
X141736419Y-94477371D02*
X141655607Y-94558184D01*
X141655607Y-94558184D02*
X141601732Y-94665933D01*
X141601732Y-94665933D02*
X141601732Y-94773683D01*
X141601732Y-94773683D02*
X141628670Y-94854495D01*
X141628670Y-94854495D02*
X141709482Y-94989182D01*
X141709482Y-94989182D02*
X141790294Y-95069994D01*
X141790294Y-95069994D02*
X141924981Y-95150807D01*
X141924981Y-95150807D02*
X142005794Y-95177744D01*
X142005794Y-95177744D02*
X142113543Y-95177744D01*
X142113543Y-95177744D02*
X142221293Y-95123869D01*
X142221293Y-95123869D02*
X142275168Y-95069994D01*
X142275168Y-95069994D02*
X142329042Y-94962245D01*
X142329042Y-94962245D02*
X142329042Y-94908370D01*
X142329042Y-94908370D02*
X142140481Y-94719808D01*
X142140481Y-94719808D02*
X142032731Y-94827558D01*
X142625354Y-94719808D02*
X142059668Y-94154123D01*
X142059668Y-94154123D02*
X142275168Y-93938623D01*
X142275168Y-93938623D02*
X142355980Y-93911686D01*
X142355980Y-93911686D02*
X142409855Y-93911686D01*
X142409855Y-93911686D02*
X142490667Y-93938623D01*
X142490667Y-93938623D02*
X142571479Y-94019436D01*
X142571479Y-94019436D02*
X142598416Y-94100248D01*
X142598416Y-94100248D02*
X142598416Y-94154123D01*
X142598416Y-94154123D02*
X142571479Y-94234935D01*
X142571479Y-94234935D02*
X142355980Y-94450434D01*
X142652291Y-93669249D02*
X142652291Y-93615375D01*
X142652291Y-93615375D02*
X142679229Y-93534562D01*
X142679229Y-93534562D02*
X142813916Y-93399875D01*
X142813916Y-93399875D02*
X142894728Y-93372938D01*
X142894728Y-93372938D02*
X142948603Y-93372938D01*
X142948603Y-93372938D02*
X143029415Y-93399875D01*
X143029415Y-93399875D02*
X143083290Y-93453750D01*
X143083290Y-93453750D02*
X143137164Y-93561500D01*
X143137164Y-93561500D02*
X143137164Y-94207997D01*
X143137164Y-94207997D02*
X143487351Y-93857811D01*
X143595100Y-92995814D02*
X143972224Y-93372938D01*
X143244914Y-92915002D02*
X143514288Y-93453750D01*
X143514288Y-93453750D02*
X143864474Y-93103564D01*
X141803232Y-91670434D02*
X141722419Y-91697371D01*
X141722419Y-91697371D02*
X141641607Y-91778184D01*
X141641607Y-91778184D02*
X141587732Y-91885933D01*
X141587732Y-91885933D02*
X141587732Y-91993683D01*
X141587732Y-91993683D02*
X141614670Y-92074495D01*
X141614670Y-92074495D02*
X141695482Y-92209182D01*
X141695482Y-92209182D02*
X141776294Y-92289994D01*
X141776294Y-92289994D02*
X141910981Y-92370807D01*
X141910981Y-92370807D02*
X141991794Y-92397744D01*
X141991794Y-92397744D02*
X142099543Y-92397744D01*
X142099543Y-92397744D02*
X142207293Y-92343869D01*
X142207293Y-92343869D02*
X142261168Y-92289994D01*
X142261168Y-92289994D02*
X142315042Y-92182245D01*
X142315042Y-92182245D02*
X142315042Y-92128370D01*
X142315042Y-92128370D02*
X142126481Y-91939808D01*
X142126481Y-91939808D02*
X142018731Y-92047558D01*
X142611354Y-91939808D02*
X142045668Y-91374123D01*
X142045668Y-91374123D02*
X142261168Y-91158623D01*
X142261168Y-91158623D02*
X142341980Y-91131686D01*
X142341980Y-91131686D02*
X142395855Y-91131686D01*
X142395855Y-91131686D02*
X142476667Y-91158623D01*
X142476667Y-91158623D02*
X142557479Y-91239436D01*
X142557479Y-91239436D02*
X142584416Y-91320248D01*
X142584416Y-91320248D02*
X142584416Y-91374123D01*
X142584416Y-91374123D02*
X142557479Y-91454935D01*
X142557479Y-91454935D02*
X142341980Y-91670434D01*
X142638291Y-90889249D02*
X142638291Y-90835375D01*
X142638291Y-90835375D02*
X142665229Y-90754562D01*
X142665229Y-90754562D02*
X142799916Y-90619875D01*
X142799916Y-90619875D02*
X142880728Y-90592938D01*
X142880728Y-90592938D02*
X142934603Y-90592938D01*
X142934603Y-90592938D02*
X143015415Y-90619875D01*
X143015415Y-90619875D02*
X143069290Y-90673750D01*
X143069290Y-90673750D02*
X143123164Y-90781500D01*
X143123164Y-90781500D02*
X143123164Y-91427997D01*
X143123164Y-91427997D02*
X143473351Y-91077811D01*
X143419476Y-90000315D02*
X143150102Y-90269689D01*
X143150102Y-90269689D02*
X143392539Y-90566000D01*
X143392539Y-90566000D02*
X143392539Y-90512126D01*
X143392539Y-90512126D02*
X143419476Y-90431313D01*
X143419476Y-90431313D02*
X143554163Y-90296626D01*
X143554163Y-90296626D02*
X143634975Y-90269689D01*
X143634975Y-90269689D02*
X143688850Y-90269689D01*
X143688850Y-90269689D02*
X143769662Y-90296626D01*
X143769662Y-90296626D02*
X143904349Y-90431313D01*
X143904349Y-90431313D02*
X143931287Y-90512126D01*
X143931287Y-90512126D02*
X143931287Y-90566000D01*
X143931287Y-90566000D02*
X143904349Y-90646813D01*
X143904349Y-90646813D02*
X143769662Y-90781500D01*
X143769662Y-90781500D02*
X143688850Y-90808437D01*
X143688850Y-90808437D02*
X143634975Y-90808437D01*
X141817232Y-84280434D02*
X141736419Y-84307371D01*
X141736419Y-84307371D02*
X141655607Y-84388184D01*
X141655607Y-84388184D02*
X141601732Y-84495933D01*
X141601732Y-84495933D02*
X141601732Y-84603683D01*
X141601732Y-84603683D02*
X141628670Y-84684495D01*
X141628670Y-84684495D02*
X141709482Y-84819182D01*
X141709482Y-84819182D02*
X141790294Y-84899994D01*
X141790294Y-84899994D02*
X141924981Y-84980807D01*
X141924981Y-84980807D02*
X142005794Y-85007744D01*
X142005794Y-85007744D02*
X142113543Y-85007744D01*
X142113543Y-85007744D02*
X142221293Y-84953869D01*
X142221293Y-84953869D02*
X142275168Y-84899994D01*
X142275168Y-84899994D02*
X142329042Y-84792245D01*
X142329042Y-84792245D02*
X142329042Y-84738370D01*
X142329042Y-84738370D02*
X142140481Y-84549808D01*
X142140481Y-84549808D02*
X142032731Y-84657558D01*
X142625354Y-84549808D02*
X142059668Y-83984123D01*
X142059668Y-83984123D02*
X142275168Y-83768623D01*
X142275168Y-83768623D02*
X142355980Y-83741686D01*
X142355980Y-83741686D02*
X142409855Y-83741686D01*
X142409855Y-83741686D02*
X142490667Y-83768623D01*
X142490667Y-83768623D02*
X142571479Y-83849436D01*
X142571479Y-83849436D02*
X142598416Y-83930248D01*
X142598416Y-83930248D02*
X142598416Y-83984123D01*
X142598416Y-83984123D02*
X142571479Y-84064935D01*
X142571479Y-84064935D02*
X142355980Y-84280434D01*
X142652291Y-83499249D02*
X142652291Y-83445375D01*
X142652291Y-83445375D02*
X142679229Y-83364562D01*
X142679229Y-83364562D02*
X142813916Y-83229875D01*
X142813916Y-83229875D02*
X142894728Y-83202938D01*
X142894728Y-83202938D02*
X142948603Y-83202938D01*
X142948603Y-83202938D02*
X143029415Y-83229875D01*
X143029415Y-83229875D02*
X143083290Y-83283750D01*
X143083290Y-83283750D02*
X143137164Y-83391500D01*
X143137164Y-83391500D02*
X143137164Y-84037997D01*
X143137164Y-84037997D02*
X143487351Y-83687811D01*
X143110227Y-82933564D02*
X143487351Y-82556440D01*
X143487351Y-82556440D02*
X143810600Y-83364562D01*
X134393531Y-115955232D02*
X133917340Y-116288565D01*
X134393531Y-116526660D02*
X133393531Y-116526660D01*
X133393531Y-116526660D02*
X133393531Y-116145708D01*
X133393531Y-116145708D02*
X133441150Y-116050470D01*
X133441150Y-116050470D02*
X133488769Y-116002851D01*
X133488769Y-116002851D02*
X133584007Y-115955232D01*
X133584007Y-115955232D02*
X133726864Y-115955232D01*
X133726864Y-115955232D02*
X133822102Y-116002851D01*
X133822102Y-116002851D02*
X133869721Y-116050470D01*
X133869721Y-116050470D02*
X133917340Y-116145708D01*
X133917340Y-116145708D02*
X133917340Y-116526660D01*
X133488769Y-115574279D02*
X133441150Y-115526660D01*
X133441150Y-115526660D02*
X133393531Y-115431422D01*
X133393531Y-115431422D02*
X133393531Y-115193327D01*
X133393531Y-115193327D02*
X133441150Y-115098089D01*
X133441150Y-115098089D02*
X133488769Y-115050470D01*
X133488769Y-115050470D02*
X133584007Y-115002851D01*
X133584007Y-115002851D02*
X133679245Y-115002851D01*
X133679245Y-115002851D02*
X133822102Y-115050470D01*
X133822102Y-115050470D02*
X134393531Y-115621898D01*
X134393531Y-115621898D02*
X134393531Y-115002851D01*
X137136332Y-116550470D02*
X137945855Y-116550470D01*
X137945855Y-116550470D02*
X138041093Y-116502851D01*
X138041093Y-116502851D02*
X138088713Y-116455232D01*
X138088713Y-116455232D02*
X138136332Y-116359994D01*
X138136332Y-116359994D02*
X138136332Y-116169518D01*
X138136332Y-116169518D02*
X138088713Y-116074280D01*
X138088713Y-116074280D02*
X138041093Y-116026661D01*
X138041093Y-116026661D02*
X137945855Y-115979042D01*
X137945855Y-115979042D02*
X137136332Y-115979042D01*
X138136332Y-114979042D02*
X138136332Y-115550470D01*
X138136332Y-115264756D02*
X137136332Y-115264756D01*
X137136332Y-115264756D02*
X137279189Y-115359994D01*
X137279189Y-115359994D02*
X137374427Y-115455232D01*
X137374427Y-115455232D02*
X137422046Y-115550470D01*
X121089092Y-119511232D02*
X121136712Y-119558851D01*
X121136712Y-119558851D02*
X121184331Y-119701708D01*
X121184331Y-119701708D02*
X121184331Y-119796946D01*
X121184331Y-119796946D02*
X121136712Y-119939803D01*
X121136712Y-119939803D02*
X121041473Y-120035041D01*
X121041473Y-120035041D02*
X120946235Y-120082660D01*
X120946235Y-120082660D02*
X120755759Y-120130279D01*
X120755759Y-120130279D02*
X120612902Y-120130279D01*
X120612902Y-120130279D02*
X120422426Y-120082660D01*
X120422426Y-120082660D02*
X120327188Y-120035041D01*
X120327188Y-120035041D02*
X120231950Y-119939803D01*
X120231950Y-119939803D02*
X120184331Y-119796946D01*
X120184331Y-119796946D02*
X120184331Y-119701708D01*
X120184331Y-119701708D02*
X120231950Y-119558851D01*
X120231950Y-119558851D02*
X120279569Y-119511232D01*
X120517664Y-118654089D02*
X121184331Y-118654089D01*
X120136712Y-118892184D02*
X120850997Y-119130279D01*
X120850997Y-119130279D02*
X120850997Y-118511232D01*
X129581931Y-115797232D02*
X129105740Y-116130565D01*
X129581931Y-116368660D02*
X128581931Y-116368660D01*
X128581931Y-116368660D02*
X128581931Y-115987708D01*
X128581931Y-115987708D02*
X128629550Y-115892470D01*
X128629550Y-115892470D02*
X128677169Y-115844851D01*
X128677169Y-115844851D02*
X128772407Y-115797232D01*
X128772407Y-115797232D02*
X128915264Y-115797232D01*
X128915264Y-115797232D02*
X129010502Y-115844851D01*
X129010502Y-115844851D02*
X129058121Y-115892470D01*
X129058121Y-115892470D02*
X129105740Y-115987708D01*
X129105740Y-115987708D02*
X129105740Y-116368660D01*
X129581931Y-114844851D02*
X129581931Y-115416279D01*
X129581931Y-115130565D02*
X128581931Y-115130565D01*
X128581931Y-115130565D02*
X128724788Y-115225803D01*
X128724788Y-115225803D02*
X128820026Y-115321041D01*
X128820026Y-115321041D02*
X128867645Y-115416279D01*
X129339153Y-119810385D02*
X129339153Y-120524670D01*
X129339153Y-120524670D02*
X129291534Y-120667527D01*
X129291534Y-120667527D02*
X129196296Y-120762766D01*
X129196296Y-120762766D02*
X129053439Y-120810385D01*
X129053439Y-120810385D02*
X128958201Y-120810385D01*
X130339153Y-120810385D02*
X129767725Y-120810385D01*
X130053439Y-120810385D02*
X130053439Y-119810385D01*
X130053439Y-119810385D02*
X129958201Y-119953242D01*
X129958201Y-119953242D02*
X129862963Y-120048480D01*
X129862963Y-120048480D02*
X129767725Y-120096099D01*
D11*
%TO.C,U2*%
X69764260Y-60107566D02*
X69764260Y-60407566D01*
X69764260Y-60107566D02*
X90764260Y-60107566D01*
X69764260Y-62507566D02*
X69764260Y-62907566D01*
X69764260Y-62774566D02*
X72771260Y-62774566D01*
X69764260Y-65107566D02*
X69764260Y-65507566D01*
X69764260Y-67607566D02*
X69764260Y-68007566D01*
X69764260Y-70207566D02*
X69764260Y-70607566D01*
X69764260Y-72707566D02*
X69764260Y-73107566D01*
X69764260Y-75207566D02*
X69764260Y-75607566D01*
X69764260Y-77807566D02*
X69764260Y-78207566D01*
X69764260Y-80307566D02*
X69764260Y-80707566D01*
X69764260Y-82907566D02*
X69764260Y-83307566D01*
X69764260Y-85407566D02*
X69764260Y-85807566D01*
X69764260Y-87907566D02*
X69764260Y-88307566D01*
X69764260Y-90507566D02*
X69764260Y-90907566D01*
X69764260Y-93007566D02*
X69764260Y-93407566D01*
X69764260Y-95607566D02*
X69764260Y-96007566D01*
X69764260Y-98107566D02*
X69764260Y-98507566D01*
X69764260Y-100707566D02*
X69764260Y-101107566D01*
X69764260Y-103207566D02*
X69764260Y-103607566D01*
X69764260Y-105707566D02*
X69764260Y-106107566D01*
X69764260Y-108307566D02*
X69764260Y-108707566D01*
X72771260Y-62774566D02*
X72771260Y-60107566D01*
X76564260Y-111107566D02*
X69764260Y-111107566D01*
X78764260Y-111107566D02*
X79164260Y-111107566D01*
X81364260Y-111107566D02*
X81764260Y-111107566D01*
X90764260Y-60107566D02*
X90764260Y-60407566D01*
X90764260Y-62507566D02*
X90764260Y-62907566D01*
X90764260Y-65107566D02*
X90764260Y-65507566D01*
X90764260Y-67607566D02*
X90764260Y-68007566D01*
X90764260Y-70207566D02*
X90764260Y-70607566D01*
X90764260Y-72707566D02*
X90764260Y-73107566D01*
X90764260Y-75207566D02*
X90764260Y-75607566D01*
X90764260Y-77807566D02*
X90764260Y-78207566D01*
X90764260Y-80307566D02*
X90764260Y-80707566D01*
X90764260Y-82907566D02*
X90764260Y-83307566D01*
X90764260Y-85407566D02*
X90764260Y-85807566D01*
X90764260Y-87907566D02*
X90764260Y-88307566D01*
X90764260Y-90507566D02*
X90764260Y-90907566D01*
X90764260Y-93007566D02*
X90764260Y-93407566D01*
X90764260Y-95607566D02*
X90764260Y-96007566D01*
X90764260Y-98107566D02*
X90764260Y-98507566D01*
X90764260Y-100707566D02*
X90764260Y-101107566D01*
X90764260Y-103207566D02*
X90764260Y-103607566D01*
X90764260Y-105707566D02*
X90764260Y-106107566D01*
X90764260Y-108307566D02*
X90764260Y-108707566D01*
X90764260Y-111107566D02*
X83964260Y-111107566D01*
%TO.C,R3*%
X77282138Y-115061502D02*
X77282138Y-116515630D01*
X79102138Y-115061502D02*
X79102138Y-116515630D01*
D12*
%TO.C,U5*%
X86873539Y-114785266D02*
X86873539Y-116791866D01*
X90175539Y-116791866D02*
X90175539Y-114785266D01*
D11*
%TO.C,C3*%
X72440538Y-115077314D02*
X72440538Y-116499818D01*
X74260538Y-115077314D02*
X74260538Y-116499818D01*
%TO.C,R4*%
X82093738Y-115061502D02*
X82093738Y-116515630D01*
X83913738Y-115061502D02*
X83913738Y-116515630D01*
%TO.C,C1*%
X102630252Y-87446566D02*
X101207748Y-87446566D01*
X102630252Y-89266566D02*
X101207748Y-89266566D01*
%TO.C,C2*%
X107557748Y-87446566D02*
X108980252Y-87446566D01*
X107557748Y-89266566D02*
X108980252Y-89266566D01*
%TO.C,J4*%
X73205513Y-136125566D02*
X73205513Y-136645566D01*
X73205513Y-136645566D02*
X87825513Y-136645566D01*
X73855513Y-121165566D02*
X73855513Y-124495566D01*
X73855513Y-121165566D02*
X87175513Y-121165566D01*
X73855513Y-136125566D02*
X73205513Y-136125566D01*
X73855513Y-136125566D02*
X73855513Y-128015566D01*
X76115513Y-120945566D02*
X77915513Y-120945566D01*
X87175513Y-121165566D02*
X87175513Y-124495566D01*
X87175513Y-128015566D02*
X87175513Y-136125566D01*
X87825513Y-136125566D02*
X87175513Y-136125566D01*
X87825513Y-136645566D02*
X87825513Y-136125566D01*
%TO.C,U4*%
X105094000Y-92066033D02*
X103144000Y-92066033D01*
X105094000Y-92066033D02*
X107044000Y-92066033D01*
X105094000Y-97186033D02*
X103144000Y-97186033D01*
X105094000Y-97186033D02*
X107044000Y-97186033D01*
X102394000Y-92161033D02*
X102154000Y-91831033D01*
X102634000Y-91831033D01*
X102394000Y-92161033D01*
G36*
X102394000Y-92161033D02*
G01*
X102154000Y-91831033D01*
X102634000Y-91831033D01*
X102394000Y-92161033D01*
G37*
%TO.C,U6*%
X118921234Y-60107566D02*
X118921234Y-60407566D01*
X118921234Y-60107566D02*
X139921234Y-60107566D01*
X118921234Y-62507566D02*
X118921234Y-62907566D01*
X118921234Y-62774566D02*
X121928234Y-62774566D01*
X118921234Y-65107566D02*
X118921234Y-65507566D01*
X118921234Y-67607566D02*
X118921234Y-68007566D01*
X118921234Y-70207566D02*
X118921234Y-70607566D01*
X118921234Y-72707566D02*
X118921234Y-73107566D01*
X118921234Y-75207566D02*
X118921234Y-75607566D01*
X118921234Y-77807566D02*
X118921234Y-78207566D01*
X118921234Y-80307566D02*
X118921234Y-80707566D01*
X118921234Y-82907566D02*
X118921234Y-83307566D01*
X118921234Y-85407566D02*
X118921234Y-85807566D01*
X118921234Y-87907566D02*
X118921234Y-88307566D01*
X118921234Y-90507566D02*
X118921234Y-90907566D01*
X118921234Y-93007566D02*
X118921234Y-93407566D01*
X118921234Y-95607566D02*
X118921234Y-96007566D01*
X118921234Y-98107566D02*
X118921234Y-98507566D01*
X118921234Y-100707566D02*
X118921234Y-101107566D01*
X118921234Y-103207566D02*
X118921234Y-103607566D01*
X118921234Y-105707566D02*
X118921234Y-106107566D01*
X118921234Y-108307566D02*
X118921234Y-108707566D01*
X121928234Y-62774566D02*
X121928234Y-60107566D01*
X125721234Y-111107566D02*
X118921234Y-111107566D01*
X127921234Y-111107566D02*
X128321234Y-111107566D01*
X130521234Y-111107566D02*
X130921234Y-111107566D01*
X139921234Y-60107566D02*
X139921234Y-60407566D01*
X139921234Y-62507566D02*
X139921234Y-62907566D01*
X139921234Y-65107566D02*
X139921234Y-65507566D01*
X139921234Y-67607566D02*
X139921234Y-68007566D01*
X139921234Y-70207566D02*
X139921234Y-70607566D01*
X139921234Y-72707566D02*
X139921234Y-73107566D01*
X139921234Y-75207566D02*
X139921234Y-75607566D01*
X139921234Y-77807566D02*
X139921234Y-78207566D01*
X139921234Y-80307566D02*
X139921234Y-80707566D01*
X139921234Y-82907566D02*
X139921234Y-83307566D01*
X139921234Y-85407566D02*
X139921234Y-85807566D01*
X139921234Y-87907566D02*
X139921234Y-88307566D01*
X139921234Y-90507566D02*
X139921234Y-90907566D01*
X139921234Y-93007566D02*
X139921234Y-93407566D01*
X139921234Y-95607566D02*
X139921234Y-96007566D01*
X139921234Y-98107566D02*
X139921234Y-98507566D01*
X139921234Y-100707566D02*
X139921234Y-101107566D01*
X139921234Y-103207566D02*
X139921234Y-103607566D01*
X139921234Y-105707566D02*
X139921234Y-106107566D01*
X139921234Y-108307566D02*
X139921234Y-108707566D01*
X139921234Y-111107566D02*
X133121234Y-111107566D01*
%TO.C,R2*%
X131250712Y-115061502D02*
X131250712Y-116515630D01*
X133070712Y-115061502D02*
X133070712Y-116515630D01*
D12*
%TO.C,U1*%
X136030513Y-114785266D02*
X136030513Y-116791866D01*
X139332513Y-116791866D02*
X139332513Y-114785266D01*
D11*
%TO.C,C4*%
X121597512Y-115077314D02*
X121597512Y-116499818D01*
X123417512Y-115077314D02*
X123417512Y-116499818D01*
%TO.C,R1*%
X126439112Y-115061502D02*
X126439112Y-116515630D01*
X128259112Y-115061502D02*
X128259112Y-116515630D01*
%TO.C,J1*%
X122362487Y-136125566D02*
X122362487Y-136645566D01*
X122362487Y-136645566D02*
X136982487Y-136645566D01*
X123012487Y-121165566D02*
X123012487Y-124495566D01*
X123012487Y-121165566D02*
X136332487Y-121165566D01*
X123012487Y-136125566D02*
X122362487Y-136125566D01*
X123012487Y-136125566D02*
X123012487Y-128015566D01*
X125272487Y-120945566D02*
X127072487Y-120945566D01*
X136332487Y-121165566D02*
X136332487Y-124495566D01*
X136332487Y-128015566D02*
X136332487Y-136125566D01*
X136982487Y-136125566D02*
X136332487Y-136125566D01*
X136982487Y-136645566D02*
X136982487Y-136125566D01*
%TD*%
D13*
X142015513Y-128382566D03*
X77539260Y-61607566D03*
X77839260Y-64637566D03*
X82689260Y-64637566D03*
X82989260Y-61607566D03*
X71374260Y-61477566D03*
X71374260Y-64017566D03*
X71374260Y-66557566D03*
X71374260Y-69097566D03*
X71374260Y-71637566D03*
X71374260Y-74177566D03*
X71374260Y-76717566D03*
X71374260Y-79257566D03*
X71374260Y-81797566D03*
X71374260Y-84337566D03*
X71374260Y-86877566D03*
X71374260Y-89417566D03*
X71374260Y-91957566D03*
X71374260Y-94497566D03*
X71374260Y-97037566D03*
X71374260Y-99577566D03*
X71374260Y-102117566D03*
X71374260Y-104657566D03*
X71374260Y-107197566D03*
X71374260Y-109737566D03*
X89154260Y-109737566D03*
X89154260Y-107197566D03*
X89154260Y-104657566D03*
X89154260Y-102117566D03*
X89154260Y-99577566D03*
X89154260Y-97037566D03*
X89154260Y-94497566D03*
X89154260Y-91957566D03*
X89154260Y-89417566D03*
X89154260Y-86877566D03*
X89154260Y-84337566D03*
X89154260Y-81797566D03*
X89154260Y-79257566D03*
X89154260Y-76717566D03*
X89154260Y-74177566D03*
X89154260Y-71637566D03*
X89154260Y-69097566D03*
X89154260Y-66557566D03*
X89154260Y-64017566D03*
X89154260Y-61477566D03*
X77724260Y-109507566D03*
X80264260Y-109507566D03*
X82804260Y-109507566D03*
X105165513Y-62032566D03*
X77015513Y-123545566D03*
X79515513Y-123545566D03*
X81515513Y-123545566D03*
X84015513Y-123545566D03*
X73945513Y-126255566D03*
X87085513Y-126255566D03*
X67875513Y-127902566D03*
X126696234Y-61607566D03*
X126996234Y-64637566D03*
X131846234Y-64637566D03*
X132146234Y-61607566D03*
X120531234Y-61477566D03*
X120531234Y-64017566D03*
X120531234Y-66557566D03*
X120531234Y-69097566D03*
X120531234Y-71637566D03*
X120531234Y-74177566D03*
X120531234Y-76717566D03*
X120531234Y-79257566D03*
X120531234Y-81797566D03*
X120531234Y-84337566D03*
X120531234Y-86877566D03*
X120531234Y-89417566D03*
X120531234Y-91957566D03*
X120531234Y-94497566D03*
X120531234Y-97037566D03*
X120531234Y-99577566D03*
X120531234Y-102117566D03*
X120531234Y-104657566D03*
X120531234Y-107197566D03*
X120531234Y-109737566D03*
X138311234Y-109737566D03*
X138311234Y-107197566D03*
X138311234Y-104657566D03*
X138311234Y-102117566D03*
X138311234Y-99577566D03*
X138311234Y-97037566D03*
X138311234Y-94497566D03*
X138311234Y-91957566D03*
X138311234Y-89417566D03*
X138311234Y-86877566D03*
X138311234Y-84337566D03*
X138311234Y-81797566D03*
X138311234Y-79257566D03*
X138311234Y-76717566D03*
X138311234Y-74177566D03*
X138311234Y-71637566D03*
X138311234Y-69097566D03*
X138311234Y-66557566D03*
X138311234Y-64017566D03*
X138311234Y-61477566D03*
X126881234Y-109507566D03*
X129421234Y-109507566D03*
X131961234Y-109507566D03*
X126172487Y-123545566D03*
X128672487Y-123545566D03*
X130672487Y-123545566D03*
X133172487Y-123545566D03*
X123102487Y-126255566D03*
X136242487Y-126255566D03*
M02*
