%TF.GenerationSoftware,KiCad,Pcbnew,8.0.5*%
%TF.CreationDate,2024-10-19T09:16:07+05:30*%
%TF.ProjectId,DeskHop_Rev1,4465736b-486f-4705-9f52-6576312e6b69,rev?*%
%TF.SameCoordinates,Original*%
%TF.FileFunction,Profile,NP*%
%FSLAX46Y46*%
G04 Gerber Fmt 4.6, Leading zero omitted, Abs format (unit mm)*
G04 Created by KiCad (PCBNEW 8.0.5) date 2024-10-19 09:16:07*
%MOMM*%
%LPD*%
G01*
G04 APERTURE LIST*
%TA.AperFunction,Profile*%
%ADD10C,0.050000*%
%TD*%
%ADD11C,0.350000*%
G04 APERTURE END LIST*
D10*
X64255513Y-58212566D02*
X145905513Y-58212566D01*
X145905513Y-132212566D01*
X64255513Y-132212566D01*
X64255513Y-58212566D01*
D11*
X142015513Y-128382566D03*
X77539260Y-61607566D03*
X77839260Y-64637566D03*
X82689260Y-64637566D03*
X82989260Y-61607566D03*
X71374260Y-61477566D03*
X71374260Y-64017566D03*
X71374260Y-66557566D03*
X71374260Y-69097566D03*
X71374260Y-71637566D03*
X71374260Y-74177566D03*
X71374260Y-76717566D03*
X71374260Y-79257566D03*
X71374260Y-81797566D03*
X71374260Y-84337566D03*
X71374260Y-86877566D03*
X71374260Y-89417566D03*
X71374260Y-91957566D03*
X71374260Y-94497566D03*
X71374260Y-97037566D03*
X71374260Y-99577566D03*
X71374260Y-102117566D03*
X71374260Y-104657566D03*
X71374260Y-107197566D03*
X71374260Y-109737566D03*
X89154260Y-109737566D03*
X89154260Y-107197566D03*
X89154260Y-104657566D03*
X89154260Y-102117566D03*
X89154260Y-99577566D03*
X89154260Y-97037566D03*
X89154260Y-94497566D03*
X89154260Y-91957566D03*
X89154260Y-89417566D03*
X89154260Y-86877566D03*
X89154260Y-84337566D03*
X89154260Y-81797566D03*
X89154260Y-79257566D03*
X89154260Y-76717566D03*
X89154260Y-74177566D03*
X89154260Y-71637566D03*
X89154260Y-69097566D03*
X89154260Y-66557566D03*
X89154260Y-64017566D03*
X89154260Y-61477566D03*
X77724260Y-109507566D03*
X80264260Y-109507566D03*
X82804260Y-109507566D03*
X105165513Y-62032566D03*
X77015513Y-123545566D03*
X79515513Y-123545566D03*
X81515513Y-123545566D03*
X84015513Y-123545566D03*
X73945513Y-126255566D03*
X87085513Y-126255566D03*
X67875513Y-127902566D03*
X126696234Y-61607566D03*
X126996234Y-64637566D03*
X131846234Y-64637566D03*
X132146234Y-61607566D03*
X120531234Y-61477566D03*
X120531234Y-64017566D03*
X120531234Y-66557566D03*
X120531234Y-69097566D03*
X120531234Y-71637566D03*
X120531234Y-74177566D03*
X120531234Y-76717566D03*
X120531234Y-79257566D03*
X120531234Y-81797566D03*
X120531234Y-84337566D03*
X120531234Y-86877566D03*
X120531234Y-89417566D03*
X120531234Y-91957566D03*
X120531234Y-94497566D03*
X120531234Y-97037566D03*
X120531234Y-99577566D03*
X120531234Y-102117566D03*
X120531234Y-104657566D03*
X120531234Y-107197566D03*
X120531234Y-109737566D03*
X138311234Y-109737566D03*
X138311234Y-107197566D03*
X138311234Y-104657566D03*
X138311234Y-102117566D03*
X138311234Y-99577566D03*
X138311234Y-97037566D03*
X138311234Y-94497566D03*
X138311234Y-91957566D03*
X138311234Y-89417566D03*
X138311234Y-86877566D03*
X138311234Y-84337566D03*
X138311234Y-81797566D03*
X138311234Y-79257566D03*
X138311234Y-76717566D03*
X138311234Y-74177566D03*
X138311234Y-71637566D03*
X138311234Y-69097566D03*
X138311234Y-66557566D03*
X138311234Y-64017566D03*
X138311234Y-61477566D03*
X126881234Y-109507566D03*
X129421234Y-109507566D03*
X131961234Y-109507566D03*
X126172487Y-123545566D03*
X128672487Y-123545566D03*
X130672487Y-123545566D03*
X133172487Y-123545566D03*
X123102487Y-126255566D03*
X136242487Y-126255566D03*
M02*
